<svg xmlns:dc="http://purl.org/dc/elements/1.1/" xmlns:cc="http://creativecommons.org/ns#" xmlns:rdf="http://www.w3.org/1999/02/22-rdf-syntax-ns#" xmlns:svg="http://www.w3.org/2000/svg" xmlns="http://www.w3.org/2000/svg" xmlns:sodipodi="http://sodipodi.sourceforge.net/DTD/sodipodi-0.dtd" xmlns:inkscape="http://www.inkscape.org/namespaces/inkscape" inkscape:output_extension="org.inkscape.output.svg.inkscape" sodipodi:docname="dont-believe-in-fairies.svg" inkscape:version="1.0beta1 (a5d079675f, 2019-11-30)" sodipodi:version=".32" id="svg2" height="1052.4" width="744.09"><defs id="defs4"><inkscape:perspective id="perspective11" inkscape:persp3d-origin="372.04724 : 350.78739 : 1" inkscape:vp_z="744.09448 : 526.18109 : 1" inkscape:vp_y="0 : 1000 : 0" inkscape:vp_x="0 : 526.18109 : 1" sodipodi:type="inkscape:persp3d"/><inkscape:perspective sodipodi:type="inkscape:persp3d" inkscape:vp_x="0 : 99.690239 : 1" inkscape:vp_y="0 : 1000 : 0" inkscape:vp_z="111.66992 : 99.690239 : 1" inkscape:persp3d-origin="55.834961 : 66.460159 : 1" id="perspective2897"/></defs><sodipodi:namedview inkscape:document-rotation="0" inkscape:guide-bbox="true" showguides="true" inkscape:snap-global="true" inkscape:window-maximized="0" showgrid="false" inkscape:window-y="34" inkscape:window-x="252" inkscape:window-height="859" inkscape:window-width="1162" inkscape:current-layer="layer1" inkscape:document-units="px" inkscape:cy="668.39" inkscape:cx="-61.697" inkscape:zoom=".56254" inkscape:pageshadow="2" inkscape:pageopacity="0" objecttolerance="10" guidetolerance="10" gridtolerance="1e4" borderopacity="1" bordercolor="#666666" pagecolor="#ffffff" id="base"><inkscape:grid originy="0" originx="0" spacingy="7.0866" spacingx="7.0866" units="cm" snapvisiblegridlinesonly="false" enabled="true" visible="true" empspacing="5" id="grid2848" type="xygrid"/></sodipodi:namedview><g id="layer1" inkscape:groupmode="layer" inkscape:label="Layer 1"><text id="text2832" y="241.76" x="9.5553" style="font-style:normal;font-variant:normal;font-weight:400;font-stretch:normal;line-height:0%;font-family:dejavu sans;-inkscape-font-specification:'DejaVu Sans';text-align:start;writing-mode:lr-tb;text-anchor:start;fill:#000;fill-opacity:1;stroke:none"><tspan style="font-size:44px;line-height:1.5" y="241.76" x="9.5553" id="tspan2834" sodipodi:role="line">I don't believe in fairies.</tspan><tspan style="font-size:44px;line-height:1.5" id="tspan2836" y="307.76" x="9.5553" sodipodi:role="line">Oops! A fairy died.</tspan><tspan style="font-size:44px;line-height:1.5" id="tspan2838" y="373.76" x="9.5553" sodipodi:role="line"> </tspan><tspan style="font-size:44px;line-height:1.5" id="tspan2907" y="439.76" x="9.5553" sodipodi:role="line"> </tspan><tspan style="font-size:44px;line-height:1.5" id="tspan2842" y="505.76" x="9.5553" sodipodi:role="line">I don't believe in fairies.</tspan><tspan style="font-size:44px;line-height:1.5" id="tspan2840" y="571.76" x="9.5553" sodipodi:role="line">Oops! Another fairy died.</tspan></text><g inkscape:label="Calque 1" id="layer1-4" transform="matrix(1.374464,0,0,1.374464,357.89115,-62.936004)"><g id="g5206"><path sodipodi:nodetypes="csssssccccssssssssssssssssscsssssssssssssssssscsssssssssscssssssssssssssssccssc" style="fill:#000;fill-opacity:1" d="m201.73 394.3c-2.6589-5.2219-3.11-13.473-.95641-17.493 1.1856-2.213 2.1017-6.6257 2.4915-12C203.6 360.13 204.8 353.15 205.91 349.31 208.3 341.1 208.5 336.08 206.53 333.88 202.12 328.97 194.98 313.64 193.68 306.3 193.1 303 191.79 299.37 190.78 298.24 189.51 296.81 186.31 297.19 188.71 293.69c1.1547-2.34.97099-4.4823 3.2366-8.6386C193.95 282.2 194.11 281.55 194.95 278.92c0-.55.15941-1.5793.53253-2.1854C196.66 274.83 196.9 270.56 194.03 266.09 191.21 261.71 189.28 260.57 190.63 256.58c.74845-2.2167 2.7082-3.571 3.3075-4.755.85688-1.6929-.85319-4.3178-14.851-11.01-11.647-5.5679-13.203-6.0564-15.526-10.641-3.1514-6.219-7.0532-18.622-7.0532-21.152.0-2.0353 2.2435-6.2942 4.0446-6.2942.56014.0 2.2829-2.7171 2.9023-3.9546 1.0733-2.1443 2.4254-2.2497 1.8845.31689C164.55 202.84 163.58 206.86 166 205.2 171.64 201.33 168.99 204.5 167.32 207.18 166.4 208.66 164.66 210.02 163.7 210.35c-3.1547 1.0681-1.5049 3.46 5.854 14.852 3.0243 4.682 4.6039 4.6163 11.121 6.896 18.453 6.4554 19.639 8.1674 21.811 7.3342 1.3142-.50429.50871-2.8424-1.8895-5.7408C199.86 232.8 198.99 232.24 198.68 231.75c-.45665-.60059-1.2211-.81506-1.392-1.562C197.06 229.2 198.76 228.81 198.46 227.19 197.86 224.03 197.59 224.76 195.86 221.58c-1.2261-2.2541-1.6082-4.4416 1.488-7.208 3.6213-3.2356 11.407-5.0936 14.576-3.3978 3.0138 1.613 6.0132 7.7682 6.0176 11.523.002 1.755-.24074 3.0272.30926 3.3671C220.34 227.15 220.26 232.45 217.01 233.9 212.52 235.9 215.53 236.3 216.71 236.76c.825.32265 3.0394 2.6974 4.6894 4.5827 1.65 1.8853 4.0912 5.945 6.5823 8.7899 2.4911 2.845 5.2713 5.4186 6.1781 7.4169.90683 1.9983 4.273 6.2847 6.5544 8.1364 2.2814 1.8517 6.2237 4.6301 9.0694 7.023C252.63 275.1 255.95 278.12 257.25 278.73 258.8 279.46 262.1 282.66 264.67 286.26 269.5 293.02 268.39 295.33 266.91 293.29c-2.5997-3.581-3.5851-3.6472-3.7964-.0209-.16608 2.8502-1.2251 5.8783-1.2405 1.5156-.33109 3.245-1.2601-1.3426-1.1662-2.9276C260.98 287.34 257.8 285.3 256.45 286.46 254.67 288 254.19 290.72 254.25 285.28c.0229-1.9926-.65353-3.1361-7.3269-6.4914-4.4118-2.2182-9.8118-5.6506-12-7.6275-2.1883-1.977-3.9786-3.2106-3.9786-2.7415s-1.5178-1.391-3.3728-4.1336-4.264-5.7842-5.3533-6.7589c-1.9491-1.7441-1.9907-1.6646-2.6201 5-1.0912 11.555-.82926 14.349 1.6575 17.678C223.58 283.32 226.8 285.96 226.24 288.37c-1.3616 1.34-.60415 7.453-1.2334 14.656-.63802 7.303-1.2901 13.953-1.449 14.778s-.62112 3.3-1.0271 5.5c-.40595 2.2-1.4246 6.025-2.2636 8.5-1.337 3.944-1.3583 5.8591-.1725 15.5 1.1744 9.5481 1.5857 10.961 3.1164 10.703 2.8663-.48262 3.1116 2.4463.73662 8.7969-1.226 3.2783-1.9667 6.6445-1.6459 7.4803.85916 2.2389-.69609 1.849-3.1828-.79803-2.0601-2.1928-2.3377-3.6011-3.0816-15.632-.15688-2.5373-1.7334.21794-3.1184 5.45-.72797 2.75-2.4131 6.7479-3.7446 8.8841-2.0443 3.2797-2.2359 4.2302-1.231 6.1078.98534 1.8411.83002 2.9295-.9028 6.3261-1.1511 2.2563-2.1245 5.1328-2.1632 6.3922C204.84 392.27 204.46 394.2 204.03 395.3c-.71839 1.8403-.89526 1.7634-2.3023-1zM209.79 303.9c0-.55-.31872-1.8839-.90118-1.8839S208.11 303.25 208.45 303.8c.79194 1.2814 1.3422 1.3761 1.3422.0947z" id="path2194"/><path sodipodi:nodetypes="cssccssssssccsssssssssccccssssssssssssssssssssssssssssscccssssssssssssssssc" style="fill:#000;fill-opacity:1" d="m240.87 321.64C240.31 321.08 239.24 319.52 238.86 318.75 238.49 317.98 237.6 316.27 236.88 314.77 235.87 312.66 235.55 311.59 235.23 311.59c.49112.99262.35921 1.9013.93729 2.8638 1.1083 2.8828.82189 3.7203.63898 3.8661-.51434.41-2.0085-2.555-2.9232-4.148-1.0164-1.77-2.0666-4.722-3.8271-10.758-.22436-.76917-.46595-2.1246-.53688-3.0121-.0709-.8875-.26468-2.0977-.43056-2.6894-.54758-1.9531-1.0027-4.9623-1.1378-5.7887-.11101-.67927-.15005-2.1519-.29321-2.7609-.10047-1.2516-.70938-4.5037-.94456-4.1245.0356.99334.5483 5.3853.69154 6.3824.49839 3.4694.24824 4.2205-1.4792 1.2246-.35923-.62302-.58478-1.4171-.59166-1.7162-.007-.29912-.20073-.70499-.43075-.90194S224.43 289.31 224.36 288.85c-.0724-.4506-.27093-1.1361-.44118-1.5233-.38315-.8714-.82467-3.6144-.63198-3.9262.078-.12627.0505-.34636-.0611-.48909-.75579-.96612-.6109-11.298-.57681-13.182.0139-.77086.44843-1.6576.34814-2.4602.0811-1.3437.34483-2.2144.6272-3.559.16578-.38004.42037-.7404.43295-1.3321-.0782-.99873.34019-.79359-.0213-1.9617C223.67 260.06 223.6 260.95 223.6 261.69c0 .36997-.18348 1.0356-.40774 1.2799-.48541.52879-1.2526 4.4515-1.2526 5.3939.0.36307-.1432.93703-.31821 1.2755-.17501.33844-.41422 1.4604-.53157 2.4931-.11735 1.0328-.26402 1.9284-.32593 1.9903-.0619.0619-.79809-.93463-1.0383-1.152-.65458-.59238-.44625.2935-.4219 1.899.0114.75056-.16668 1.7094-.26288 1.865-.25531.41308-1.2221-1.2178-1.4204-2.388-.15048-.88792-.20364.032-.92089-.0286C215.97 274.26 215.9 273.2 215.03 271.35 214.53 270.29 213.99 269 213.83 268.48 213.68 267.96 213.31 267.21 213.01 266.81 212.19 265.71 211.34 263.71 210.81 261.14c-.13051-.63523-.41939.55491-.6245 1.0894-.21032.54807-.46556-.72063-.9449-1.8935-1.0094-2.4698-1.6471-5.3466-1.0119-8.3754.099-.472.47108-.94658.23328-1.2861-.60009-.85676-.30464-6.4943.38-7.2508.1929-.21316.35377-.57357.35749-.80092.0109-.66806.68353-1.5682 2.2891-1.6788 6.0437-.41617 8.2511-2.315 14.614-6.6111.85987-.58059 1.8721-1.244 2.2495-1.4742.37732-.2302 1.1115-.7385 1.6314-1.1295.51994-.39105 1.0327-.71099 1.1396-.71099.10684.0.94959-.43569 1.8728-.96818.9232-.53251 1.7898-.96819 1.9258-.96819s.86539-.29207 1.6209-.64904c1.172-.55374 2.1025-.83198 4.1269-.94781l2.5359-.0271.99258.928c.31135.33595.80232 1.2635 1.111 2.236.50583 1.5939.48895 2.7258.38452 5.1089-.0628 1.4331-.26523 3.321-.44987 4.1955-.18463.87445-.4793 2.2677-.65483 3.096C242.51 252.8 241.78 257.17 241.5 261.03c-.0647.8875-.15143 2.3095-.33535 3.4929C240.98 265.71 240.84 266.82 240.84 267c.0842 2.1312.0603 8.5502-.0413 11.074-.0804 1.9976-.16444 3.4909-.0309 3.7405.12478.23317.23866 2.914.27069 6.3723.0304 3.2834.12573 6.0838.21184 6.2231.0861.13932.13633.90519.1116 1.7019-.0247.79674-.16871 2.5041-.0347 3.7466.27301 2.5314.72853 8.3027 1.2142 15.383.17856 2.6033.57825 5.2226.65051 5.7255.11986.83422.55737 3.1704.13316 3.1704-.2685.0-1.8672-1.9099-2.4546-2.5001z" id="path3229"/><path sodipodi:nodetypes="cssccssssssccsssssssssccccssssssssssssssssssssssssssssscccssssssssssssssssc" style="fill:#000;fill-opacity:1" d="m223.77 321.53c-.31713-.60369-.92654-2.2749-1.1386-3.101C222.42 317.6 221.91 315.76 221.5 314.14c-.56951-2.265-.75093-3.4059-.93107-3.4059.2784 1.0661.20362 2.0421.53131 3.0758.62827 3.0963.4659 3.9957.36222 4.1523-.29156.44036-1.1385-2.7441-1.6571-4.4551-.57613-1.901-1.1715-5.0716-2.1694-11.554-.12718-.82612-.26413-2.282-.30434-3.2352-.0402-.95322-.15003-2.2531-.24406-2.8885-.3104-2.0977-.56839-5.3297-.64495-6.2173-.0629-.72956-.0851-2.3112-.16621-2.9653-.057-1.3443-.40212-4.8371-.53543-4.4299.0202 1.0669.31081 5.784.39201 6.855.28251 3.7263.14071 4.533-.8385 1.3153-.20364-.66916-.33149-1.522-.33539-1.8433-.004-.32127-.11379-.75719-.24418-.96872C214.59 287.37 214.45 286.8 214.4 286.31c-.041-.48396-.15358-1.2202-.25009-1.6361C213.94 283.74 213.69 280.8 213.8 280.46c.0442-.13562.0286-.37201-.0346-.5253C213.33 278.9 213.41 267.8 213.43 265.78c.008-.82794.2542-1.7803.19735-2.6424.046-1.4432.19547-2.3783.35553-3.8225.094-.40818.23829-.79522.24543-1.4307-.0444-1.0727.19284-.85235-.0121-2.107-.20681-.39184-.24444.56711-.24444 1.3641.0.39737-.10401 1.1122-.23113 1.3746-.27516.56794-.71005 4.7811-.71005 5.7933.0.38995-.0812 1.0064-.18038 1.3699-.0992.3635-.2348 1.5685-.30132 2.6777-.0665 1.1093-.14966 2.0712-.18476 2.1377-.0351.0665-.4524-1.0038-.58856-1.2373-.37105-.63624-.25296.31523-.23916 2.0396.006.80614-.0945 1.8359-.14901 2.0031-.14473.44366-.69277-1.3079-.80519-2.5648-.0853-.95367-.11544.0344-.52202-.0308-.41416-.0663-.45222-1.2025-.94799-3.186-.28409-1.1365-.58931-2.5247-.67827-3.0848-.089-.5601-.29917-1.3669-.46712-1.7929-.46535-1.1803-.94885-3.3295-1.2485-6.0924-.074-.68227-.23773.596-.354 1.1701-.11922.58866-.26391-.77398-.53563-2.0337C205.26 253.03 204.9 249.94 205.26 246.69c.0561-.50695.26704-1.0167.13224-1.3813-.34017-.9202-.17269-6.9751.2154-7.7877.10935-.22894.20054-.61604.20265-.86022.006-.71753.38747-1.6843 1.2976-1.8031 3.426-.44699 4.6772-2.4864 8.2839-7.1006.48743-.62358 1.0612-1.3361 1.2751-1.5834.21388-.24724.63003-.79318.92476-1.2132.29473-.42001.58542-.76364.64598-.76364.0606.0.53828-.46795 1.0616-1.0399.52332-.57194 1.0146-1.0399 1.0916-1.0399.0771.0.49055-.31369.91884-.69709.66435-.59474 1.1918-.89359 2.3394-1.018l1.4375-.0291.56266.99671c.17649.36083.4548 1.3571.62975 2.4016.28673 1.7119.27717 2.9276.21797 5.4872-.0356 1.5392-.15035 3.5669-.25501 4.5061-.10466.9392-.2717 2.4356-.3712 3.3252-1.1747 10.503-1.5894 15.2-1.749 19.347-.0367.95321-.0858 2.4805-.19009 3.7515-.10427 1.271-.18632 2.4668-.18235 2.6575.0477 2.289.0342 9.1833-.0234 11.894-.0455 2.1455-.0932 3.7494-.0175 4.0174.0707.25044.13528 3.1297.15344 6.8441.0172 3.5265.0713 6.5342.12008 6.6839.0488.14964.0773.97222.0633 1.828-.014.85574-.0956 2.6895-.0197 4.024.15476 2.7188.41297 8.9175.68827 16.522.10122 2.7961.32779 5.6093.36875 6.1495.0679.89599.31595 3.4052.0755 3.4052-.1522.0-1.0584-2.0513-1.3914-2.6852z" id="path4227"/></g></g><text id="text2911" y="686.17" x="21.332" style="font-style:normal;font-variant:normal;font-weight:400;font-stretch:normal;line-height:0%;font-family:bitstream vera serif;-inkscape-font-specification:'Bitstream Vera Serif';text-align:start;writing-mode:lr-tb;text-anchor:start;fill:#000;fill-opacity:1;stroke:none"><tspan style="font-size:18px;line-height:1.25" y="686.17" x="21.332" id="tspan2913" sodipodi:role="line">Fairy image by http://commons.wikimedia.org/wiki/File:F%C3%A9e.svg</tspan></text></g></svg>