<svg xmlns:dc="http://purl.org/dc/elements/1.1/" xmlns:cc="http://web.resource.org/cc/" xmlns:rdf="http://www.w3.org/1999/02/22-rdf-syntax-ns#" xmlns:svg="http://www.w3.org/2000/svg" xmlns="http://www.w3.org/2000/svg" xmlns:sodipodi="http://sodipodi.sourceforge.net/DTD/sodipodi-0.dtd" xmlns:inkscape="http://www.inkscape.org/namespaces/inkscape" width="111.67" height="199.38" id="svg2" sodipodi:version=".32" inkscape:version="0.45.1" version="1.0" sodipodi:docbase="D:\Documents and Settings\Emmanuel\Mes documents\Mes images" sodipodi:docname="fée.svg" inkscape:output_extension="org.inkscape.output.svg.inkscape"><defs id="defs4"/><sodipodi:namedview id="base" pagecolor="#ffffff" bordercolor="#666666" borderopacity="1" inkscape:pageopacity="0" inkscape:pageshadow="2" inkscape:zoom=".97782" inkscape:cx="213.62" inkscape:cy="15.38" inkscape:document-units="px" inkscape:current-layer="layer1" inkscape:window-width="1024" inkscape:window-height="722" inkscape:window-x="-4" inkscape:window-y="-4"/><g inkscape:label="Calque 1" inkscape:groupmode="layer" id="layer1" transform="translate(-156.507, -197.167)"><g id="g5206"><path sodipodi:nodetypes="csssssccccssssssssssssssssscsssssssssssssssssscsssssssssscssssssssssssssssccssc" style="fill:#000;fill-opacity:1" d="M201.73 394.3C199.07 389.07 198.62 380.82 200.77 376.8c1.1856-2.213 2.1017-6.6257 2.4914-12C203.6 360.13 204.8 353.15 205.91 349.31 208.3 341.1 208.5 336.08 206.53 333.88 202.12 328.97 194.98 313.64 193.68 306.3 193.1 303 191.79 299.37 190.78 298.24 189.51 296.81 186.31 297.19 188.71 293.69c1.1547-2.34.97099-4.4823 3.2366-8.6386C193.95 282.2 194.11 281.55 194.95 278.92c0-.55.15941-1.5793.53253-2.1854C196.66 274.83 196.9 270.56 194.03 266.09 191.21 261.71 189.28 260.57 190.63 256.58c.74845-2.2167 2.7082-3.571 3.3075-4.755.85688-1.6929-.85319-4.3178-14.851-11.01C167.44 235.25 165.88 234.76 163.56 230.18 160.41 223.96 156.51 211.55 156.51 209.02c0-2.0353 2.2435-6.2942 4.0446-6.2942.56014.0 2.2829-2.7171 2.9023-3.9546 1.0733-2.1443 2.4254-2.2497 1.8845.31689C164.55 202.84 163.58 206.86 166 205.2 171.64 201.33 168.99 204.5 167.32 207.18 166.4 208.66 164.66 210.02 163.7 210.35c-3.1547 1.0681-1.5049 3.46 5.854 14.852 3.0243 4.682 4.6039 4.6162 11.121 6.8959C199.13 238.55 200.31 240.26 202.48 239.43 203.8 238.92 202.99 236.59 200.59 233.69 199.86 232.8 198.99 232.24 198.68 231.75c-.45665-.60059-1.2211-.81506-1.392-1.562C197.06 229.2 198.76 228.81 198.46 227.19 197.86 224.03 197.59 224.76 195.86 221.58c-1.2261-2.2541-1.6082-4.4416 1.488-7.208C200.97 211.13 208.76 209.28 211.93 210.97c3.0138 1.613 6.0132 7.7682 6.0176 11.523.00206 1.755-.24074 3.0272.30926 3.3671C220.34 227.15 220.26 232.45 217.01 233.9 212.52 235.9 215.53 236.3 216.71 236.76c.825.32265 3.0394 2.6974 4.6894 4.5827 1.65 1.8853 4.0912 5.945 6.5823 8.7899 2.4911 2.845 5.2713 5.4186 6.1781 7.4169.90683 1.9983 4.273 6.2847 6.5544 8.1364 2.2814 1.8517 6.2237 4.6301 9.0694 7.023C252.63 275.1 255.95 278.12 257.25 278.73 258.8 279.46 262.1 282.66 264.67 286.26 269.5 293.02 268.39 295.33 266.91 293.29 264.31 289.71 263.33 289.64 263.12 293.27 262.95 296.12 261.89 299.15 261.88 294.78 261.54 298.03 260.62 293.44 260.71 291.86 260.98 287.34 257.8 285.3 256.45 286.46 254.67 288 254.19 290.72 254.25 285.28 254.28 283.29 253.6 282.15 246.93 278.79c-4.4117-2.2182-9.8117-5.6506-12-7.6275-2.1882-1.977-3.9786-3.2106-3.9786-2.7415.0.46916-1.5178-1.391-3.3728-4.1336S223.31 258.51 222.22 257.53c-1.9491-1.7441-1.9907-1.6646-2.6201 5C218.51 274.09 218.77 276.88 221.26 280.21 223.58 283.32 226.8 285.96 226.24 288.37c-1.3616 1.34-.60415 7.453-1.2334 14.656-.63802 7.303-1.2901 13.953-1.449 14.778-.15894.825-.62112 3.3-1.0271 5.5-.40595 2.2-1.4246 6.025-2.2636 8.5-1.337 3.944-1.3583 5.8591-.1725 15.5C221.27 356.85 221.68 358.26 223.21 358.01 226.08 357.52 226.32 360.45 223.95 366.8 222.72 370.08 221.98 373.45 222.3 374.28c.85916 2.2389-.69609 1.849-3.1828-.79803-2.0601-2.1928-2.3377-3.601-3.0816-15.632-.15688-2.5373-1.7334.21794-3.1184 5.45-.72797 2.75-2.413 6.7478-3.7446 8.8841C207.13 375.47 206.94 376.42 207.94 378.3c.98534 1.8411.83002 2.9294-.9028 6.3261C205.89 386.88 204.92 389.75 204.88 391.01 204.84 392.27 204.46 394.2 204.03 395.3c-.71839 1.8402-.89526 1.7634-2.3023-1zM209.79 303.9c0-.55-.31872-1.8839-.90118-1.8839S208.11 303.25 208.45 303.8c.79194 1.2814 1.3422 1.3761 1.3422.0947z" id="path2194"/><path sodipodi:nodetypes="cssccssssssccsssssssssccccssssssssssssssssssssssssssssscccssssssssssssssssc" style="fill:#000;fill-opacity:1" d="M240.87 321.64C240.31 321.08 239.24 319.52 238.86 318.75 238.49 317.98 237.6 316.27 236.88 314.77 235.87 312.66 235.55 311.59 235.23 311.59c.49112.99262.35921 1.9013.93729 2.8638 1.1083 2.8828.82189 3.7203.63898 3.8661-.51434.41-2.0085-2.555-2.9232-4.148-1.0164-1.77-2.0666-4.722-3.8271-10.758C229.84 302.65 229.59 301.29 229.52 300.41 229.45 299.52 229.26 298.31 229.09 297.72 228.55 295.76 228.09 292.76 227.96 291.93 227.84 291.25 227.81 289.78 227.66 289.17 227.56 287.92 226.95 284.66 226.72 285.04c.03561.99334.5483 5.3853.69154 6.3824.49839 3.4694.24824 4.2205-1.4792 1.2246C225.57 292.03 225.35 291.23 225.34 290.93 225.33 290.63 225.14 290.23 224.91 290.03 224.68 289.84 224.43 289.31 224.36 288.85 224.29 288.4 224.09 287.72 223.92 287.33 223.53 286.46 223.09 283.72 223.28 283.41c.07804-.12627.05054-.34636-.06112-.48909-.75579-.96612-.6109-11.298-.57681-13.182.01394-.77086.44843-1.6575.34814-2.4602.08109-1.3437.34483-2.2144.6272-3.559.16578-.38004.42037-.7404.43295-1.3321C223.98 261.38 224.4 261.59 224.03 260.42 223.67 260.06 223.6 260.95 223.6 261.69c0 .36997-.18348 1.0356-.40774 1.2799C222.71 263.5 221.94 267.42 221.94 268.36c0 .36307-.1432.93703-.31821 1.2755C221.45 269.98 221.21 271.1 221.09 272.13 220.97 273.17 220.83 274.06 220.77 274.12 220.7 274.19 219.97 273.19 219.73 272.97c-.65458-.59238-.44625.2935-.4219 1.899.01138.75056-.16668 1.7093-.26288 1.865-.25531.41308-1.2221-1.2178-1.4204-2.388C217.47 273.46 217.42 274.38 216.7 274.32 215.97 274.26 215.9 273.2 215.03 271.35 214.53 270.29 213.99 269 213.83 268.48 213.68 267.96 213.31 267.21 213.01 266.81 212.19 265.71 211.34 263.71 210.81 261.14 210.68 260.5 210.39 261.69 210.18 262.23c-.21032.54807-.46556-.72063-.9449-1.8935C208.23 257.86 207.59 254.99 208.23 251.96c.099-.472.47108-.94658.23328-1.2861-.60009-.85676-.30464-6.4943.38-7.2508.1929-.21316.35377-.57357.35749-.80092.01093-.66806.68353-1.5682 2.2891-1.6788C217.53 240.53 219.74 238.63 226.1 234.33c.85987-.58059 1.8721-1.244 2.2494-1.4742.37732-.2302 1.1114-.7385 1.6314-1.1295C230.5 231.34 231.01 231.02 231.12 231.02c.10684.0.94959-.43569 1.8728-.96818.9232-.53251 1.7898-.96819 1.9258-.96819.13597.0.86539-.29207 1.6209-.64904C237.71 227.88 238.64 227.6 240.67 227.48L243.2 227.46l.99258.928c.31135.33595.80232 1.2635 1.111 2.236.50583 1.5939.48895 2.7258.38452 5.1089-.06279 1.4331-.26523 3.321-.44987 4.1955-.18463.87445-.4793 2.2677-.65483 3.096C242.51 252.8 241.78 257.17 241.5 261.03c-.0647.8875-.15143 2.3095-.33535 3.4929C240.98 265.71 240.84 266.82 240.84 267 240.93 269.13 240.9 275.55 240.8 278.08 240.72 280.07 240.64 281.57 240.77 281.82c.12478.23317.23866 2.914.27069 6.3723.03041 3.2834.12573 6.0838.21184 6.2231.08611.13932.13633.90519.1116 1.7019S241.2 298.62 241.33 299.86C241.6 302.39 242.06 308.16 242.54 315.24c.17856 2.6033.57825 5.2226.65051 5.7255.11986.83422.55737 3.1704.13316 3.1704-.2685.0-1.8672-1.9099-2.4546-2.5z" id="path3229"/><path sodipodi:nodetypes="cssccssssssccsssssssssccccssssssssssssssssssssssssssssscccssssssssssssssssc" style="fill:#000;fill-opacity:1" d="M223.77 321.53C223.45 320.92 222.84 319.25 222.63 318.43 222.42 317.6 221.91 315.76 221.5 314.14 220.93 311.88 220.75 310.74 220.57 310.74c.2784 1.0661.20362 2.0421.53131 3.0758.62827 3.0963.4659 3.9957.36222 4.1523-.29156.44036-1.1385-2.7441-1.6571-4.4551-.57613-1.901-1.1714-5.0716-2.1694-11.554C217.51 301.13 217.37 299.68 217.33 298.72 217.29 297.77 217.18 296.47 217.09 295.83 216.78 293.74 216.52 290.5 216.44 289.62 216.38 288.89 216.36 287.31 216.28 286.65 216.22 285.31 215.88 281.81 215.74 282.22c.02019 1.0669.31081 5.784.39201 6.855.28251 3.7263.14071 4.533-.8385 1.3153-.20364-.66916-.33149-1.522-.33539-1.8433C214.96 288.23 214.85 287.79 214.72 287.58 214.59 287.37 214.45 286.8 214.4 286.31 214.36 285.83 214.25 285.09 214.15 284.68 213.94 283.74 213.69 280.8 213.8 280.46c.04424-.13562.02865-.37201-.03465-.5253C213.33 278.9 213.41 267.8 213.43 265.78c.0079-.82794.2542-1.7803.19735-2.6424.04597-1.4432.19547-2.3783.35553-3.8225.09398-.40818.23829-.79522.24543-1.4307-.04436-1.0727.19284-.85235-.01209-2.107-.20681-.39184-.24444.56711-.24444 1.3641.0.39737-.10401 1.1122-.23113 1.3746C213.47 259.08 213.03 263.3 213.03 264.31c0 .38995-.08117 1.0064-.18038 1.3699-.0992.3635-.2348 1.5685-.30132 2.6777C212.49 269.46 212.4 270.43 212.37 270.49c-.03509.06649-.4524-1.0038-.58856-1.2373C211.41 268.62 211.53 269.57 211.54 271.3 211.55 272.1 211.45 273.13 211.39 273.3 211.25 273.74 210.7 271.99 210.59 270.73 210.5 269.78 210.47 270.77 210.06 270.7 209.65 270.64 209.61 269.5 209.12 267.52 208.83 266.38 208.53 264.99 208.44 264.43 208.35 263.87 208.14 263.06 207.97 262.64 207.51 261.46 207.02 259.31 206.72 256.55c-.07398-.68227-.23773.596-.354 1.1701C206.25 258.31 206.1 256.94 205.83 255.68 205.26 253.03 204.9 249.94 205.26 246.69c.05612-.50695.26704-1.0167.13224-1.3813-.34017-.9202-.17269-6.9751.2154-7.7877.10935-.22894.20054-.61604.20265-.86022.0062-.71753.38747-1.6843 1.2976-1.8031 3.426-.44699 4.6772-2.4864 8.2839-7.1006.48743-.62358 1.0612-1.3361 1.2751-1.5833.21388-.24724.63003-.79318.92476-1.2132.29473-.42001.58542-.76364.64598-.76364.06056.0.53828-.46795 1.0616-1.0399.52332-.57194 1.0146-1.0399 1.0916-1.0399S220.88 221.8 221.31 221.42C221.97 220.82 222.5 220.52 223.65 220.4L225.09 220.37l.56266.99671c.17649.36083.4548 1.3571.62975 2.4016.28673 1.7119.27717 2.9276.21797 5.4872C226.46 230.8 226.35 232.82 226.24 233.76c-.10466.9392-.2717 2.4356-.3712 3.3252-1.1747 10.503-1.5894 15.2-1.749 19.347-.03667.95321-.08584 2.4805-.19009 3.7515-.10427 1.271-.18632 2.4668-.18235 2.6575.04772 2.289.03416 9.1832-.0234 11.894C223.68 276.88 223.63 278.49 223.71 278.75c.07073.25044.13528 3.1297.15344 6.8441.01724 3.5265.07127 6.5342.12008 6.6839.04881.14964.07728.97222.06326 1.8279-.01401.85574-.09563 2.6895-.01967 4.024.15476 2.7188.41297 8.9174.68827 16.522.10122 2.7961.32779 5.6093.36875 6.1495.06794.89599.31595 3.4051.07548 3.4051-.1522.0-1.0584-2.0513-1.3914-2.6852z" id="path4227"/></g></g></svg>