<svg xmlns:dc="http://purl.org/dc/elements/1.1/" xmlns:cc="http://creativecommons.org/ns#" xmlns:rdf="http://www.w3.org/1999/02/22-rdf-syntax-ns#" xmlns:svg="http://www.w3.org/2000/svg" xmlns="http://www.w3.org/2000/svg" id="svg2" viewBox="0 0 421.7 329.56" height="93.008mm" width="119.01mm"><defs id="defs4"><radialGradient id="radialGradient26" gradientUnits="userSpaceOnUse" cy="9.7002" cx="14.5" gradientTransform="matrix(0.8,0,0,0.7992,0.0050706,-0.952)" r="12.212"><stop id="stop28" style="stop-color:#bea154" offset="0"/><stop id="stop30" style="stop-color:#ecc868" offset=".6431"/><stop id="stop32" style="stop-color:#bea154" offset="1"/></radialGradient></defs><g transform="translate(-12.005629,-40.44178)" id="layer1"><g id="g10" transform="matrix(24.288254,0,0,-22.725969,11.991711,370.01965)"><g id="g12"><path id="path14" style="fill:#ddd5c2;fill-rule:evenodd" d="m15.684.04c-.051.055-.161.145-.321.282-.16.132-.25.238-.277.316-.082.215-.027.535.16.961.133.426.223.68.277.762-.027-.028-.093-.067-.199-.121-.48-.293-.828-.481-1.039-.559-.371-.133-.707-.148-1-.043-.105.055-.172.16-.199.32-.027.11-.027.215.0.321.051.214.254.359.598.441.402.106.789.254 1.16.438.109.054.16.148.16.281.027.133.082.226.16.281l.563.16c.476-.054 1.023-.054 1.636.0-.293-.906-.652-1.762-1.078-2.558-.265-.508-.359-.883-.281-1.121.027-.106.082-.176.16-.2l-.48.039zm-1.36 4.121c.028-.027.067-.039.121-.043h-.199l.078.043z"/><g id="g16"><g id="g18"><g id="g24"><path id="path34" style="fill:url(#radialGradient26);fill-rule:evenodd" d="M6.125 11.279l.441-.161.118-.078c.668-.375 1.906-1.082 3.722-2.121l.16-.121 1.36-1.117c.133-.105.664-.496 1.597-1.16.801-.613 1.348-1.055 1.641-1.32-.266-.028-.586-.122-.961-.282-.289-.187-.746-.414-1.359-.679-.293-.106-.586-.188-.879-.243-.188-.078-.32-.132-.399-.156-.136.024-.226.024-.281.0l-.121-.121c-.398.0-.668-.027-.801-.082-.105-.105-.183-.156-.238-.156-.027-.028-.148-.043-.359-.043-.934.0-1.547.027-1.84.082h-.602c-.211.027-.398.066-.558.117-.082.055-.309.121-.68.203-.266.078-.469.172-.602.277-.078.055-.16.188-.238.403-.055.187-.121.305-.199.359-.109.051-.27.067-.481.039-.214.0-.375.016-.48.039-.16.082-.242.203-.242.364.0.183-.012.332-.039.437-.266.0-.442.082-.52.242.027.184.027.321.0.399-.055.109-.199.176-.441.199-.293.027-.481.094-.559.199-.055.082-.148.242-.281.481-.078.187-.184.336-.32.441-.204.152-.395.305-.579.461-.035.098-.066.199-.101.301-.293.933-.184 1.797.32 2.597.082.133.188.282.321.442.242.265.558.558.96.879.215.054.387.133.52.242.133.051.293.105.48.156l.52.121c.238.055.574.215 1 .481.078.054.199.093.359.121.133.027.243.051.321.078.054.055.121.133.199.242.082.106.187.16.32.16.188.028.453.028.801.0.105.028.238.067.398.117.297.028.735.016 1.321-.039l.922-.039c.371.0.679-.039.918-.121l.8-.277c.055.0.266-.082.641-.242.266-.133.48-.188.641-.16.105.027.16.066.16.121-.188.105-.403.199-.641.281.559-.137 1.184-.496 1.879-1.082.469-.383.75-.688.84-.918-.051-.188-.145-.281-.277-.281-.11.0-.27.093-.481.281-.242.184-.574.383-1 .598l-.601.199.32-.238c.238-.215.375-.415.398-.602.055-.266-.144-.586-.597-.957-.508-.402-1.067-.602-1.68-.602-.617.0-1.27.161-1.961.481-.613.265-1.16.597-1.641 1-.265.238-.558.359-.879.359-.535.266-1.015.348-1.441.238-.16-.05-.426-.21-.801-.476-.133-.082-.011-.137.364-.16.636-.055 1.105-.121 1.398-.203zm7.238-1.118c.133.051.254.106.364.161l-.063-.063c-.102-.043-.203-.074-.301-.098zm-2.519 3.079c.293.132.293.242.0.32l-.399-.199c-.054-.243.078-.282.399-.121zm-2.598-.399-.32.078-.121-.199c-.028-.078.0-.148.082-.199.051-.055.199-.082.437-.082.028.215.0.347-.078.402zm1.039.559h-.558c-.028-.188.199-.282.679-.282.024.161-.015.254-.121.282zm-1.801.519-.281-.277c.055-.082.27-.109.641-.082.0.16-.012.254-.039.281-.055.051-.16.078-.321.078zm-1.238-.801-.199-.199c-.16.0-.242-.054-.242-.16-.028-.16.121-.277.441-.359.293-.028.453.082.481.32.05.293-.11.426-.481.398zM4.887 10.599c-.11-.211-.094-.371.039-.481.133-.078.304-.117.519-.117.078.0.266-.015.559-.043.242-.023.402.0.48.082.028.028.067.094.121.2.028.105.04.175.04.199-.028.054-.079.121-.161.203-.078.051-.121.105-.121.156l-.398.203c-.32.0-.52-.015-.602-.043-.238-.05-.398-.172-.476-.359zM2.586 5.822c.055-.079.113-.149.18-.223-.067.066-.129.133-.18.199v.024zm.777 6.218c-.211-.105-.383-.254-.519-.441-.293-.371-.293-.707.0-1l.64-.758c-.105.16-.199.371-.281.641-.156.531-.105 1.051.16 1.558zM3.164 9.4c-.16-.16-.105-.282.16-.36.242-.054.348.067.321.36h-.481zm-.078-.961-.32-.039c-.266.054-.403-.121-.403-.52-.023-.398.176-.547.602-.441.187.054.293.215.32.48.027.242-.039.414-.199.52zm3.078.0c-.027-.16.066-.238.281-.238.293-.055.426.121.399.519l-.399.078c-.187-.078-.281-.199-.281-.359zM4.887 7.642c-.215-.137-.336-.215-.364-.242-.132-.133-.211-.282-.238-.442-.027-.316.106-.531.399-.636.214-.082.363-.11.441-.082.055.054.105.175.16.359.106.402.106.668.0.801l-.398.242zm.879 1.957L5.285 9.4c-.293.265-.547.105-.762-.481-.211-.531-.039-.801.524-.801.238.0.41.028.519.083.161.078.278.226.36.441.105.398.054.719-.16.957zM5.844 6.24c-.106-.239-.117-.426-.039-.559.082-.188.265-.242.558-.16.082.375.094.64.043.801-.082.132-.187.238-.32.32-.133.078-.266.105-.402.078l.16-.48zm1.601.601c-.082.024-.148.012-.199-.043-.055-.051-.066-.117-.043-.199.082-.238.402-.305.961-.199.027.187.0.347-.078.48-.082.078-.227.16-.441.238l-.2-.277zm0-1.64c-.082-.028-.133-.055-.16-.083l-.039-.32c-.055-.105-.043-.172.039-.199.051-.023.145-.039.281-.039h.2l.078.16c.054.266-.012.426-.199.481h-.2z"/></g></g></g><path id="path36" style="fill:#ecd16e;fill-rule:evenodd" d="m2.605 12.4c.106.082.215.148.321.199l1.121.723c.265.183.558.359.879.519 1.172.613 2.597.801 4.277.559.883-.16 1.91-.414 3.082-.758.242-.082.453-.176.641-.281.0-.055-.055-.094-.16-.121-.161-.028-.375.027-.641.16-.371.16-.586.242-.641.242l-.8.277c-.239.082-.547.121-.918.121l-.922.039c-.586.055-1.024.067-1.321.039-.16-.05-.293-.093-.398-.117-.348.028-.613.028-.801.0-.133.0-.238-.054-.32-.16-.078-.109-.145-.187-.199-.242-.078-.023-.188-.051-.321-.078-.16-.028-.281-.067-.359-.121-.426-.266-.762-.426-1-.481l-.52-.121c-.187-.051-.347-.105-.48-.156-.133-.109-.305-.188-.52-.242z"/><path id="path38" style="fill:#b3933e;fill-rule:evenodd" d="m13.664 10.259.063.063c-.11-.055-.231-.11-.364-.161L12.047 9.72c-.055.0-.281-.039-.684-.121-.851-.106-1.718.16-2.597.801-.481.347-.973.613-1.481.801-.535.238-.945.32-1.238.238-.188-.024-.16-.078.078-.16-.293.082-.762.148-1.398.203-.375.023-.497.078-.364.16.375.266.641.426.801.476.426.11.906.028 1.441-.238.321.0.614-.121.879-.359.481-.403 1.028-.735 1.641-1 .691-.32 1.348-.481 1.961-.481.609.0 1.172.2 1.68.602.453.371.652.691.597.957-.023.187-.16.387-.398.602l-.32.238.601-.199c.426-.215.758-.414 1-.598.211-.188.371-.281.481-.281.132.0.226.093.277.281.027-.055.043-.109.043-.16v-.043c0-.133-.067-.266-.203-.399-.024-.027-.051-.039-.078-.039-.082-.082-.414-.308-1-.679l-.243-.161c.047.043.094.079.141.098zm-7.098.859c.77-.238 1.344-.476 1.719-.718l.199-.121c.536-.344 1.172-.797 1.918-1.36-1.812 1.039-3.05 1.746-3.718 2.121l-.118.078z"/><path id="path40" style="fill:#8d7431;fill-rule:evenodd" d="M10.406 8.919c-.75.563-1.386 1.016-1.922 1.36l-.199.121c-.375.242-.945.48-1.719.718l-.441.161c-.238.082-.266.136-.078.16.293.082.703.0 1.238-.238.508-.188 1-.454 1.481-.801.879-.641 1.746-.907 2.597-.801.403.082.629.121.684.121l1.316.441c.098.024.199.055.301.098-.047-.019-.094-.055-.141-.098l-.117-.043c-.535-.371-1.16-.703-1.883-1l-.957-.32-.16.121z"/><path id="path42" style="fill:#f5dc84;fill-rule:evenodd" d="m9.285 13.4c.106-.028.149-.121.121-.282-.48.0-.707.094-.679.282h.558zm-1.039-.559c.078-.055.106-.187.078-.402-.238.0-.386.027-.437.082-.082.055-.11.121-.082.199l.121.199.32-.078zm2.598.399c-.317-.161-.453-.122-.399.121l.399.199c.293-.078.293-.188.0-.32zM4.887 10.599c.078.187.238.309.476.359.082.028.282.043.602.043l.398-.203c0-.051.043-.105.121-.156.082-.082.133-.149.161-.203.0-.024-.012-.094-.04-.199-.054-.106-.093-.172-.121-.2-.078-.082-.238-.105-.48-.082-.293.028-.481.043-.559.043-.215.0-.386.039-.519.117-.133.11-.149.27-.039.481zm1.359 2.519c.371.028.531-.105.481-.398-.028-.238-.188-.348-.481-.32-.32.082-.469.199-.441.359.0.106.082.16.242.16l.199.199zm1.238.801c.161.0.266-.027.321-.078.027-.027.039-.121.039-.281-.371-.027-.586.0-.641.082l.281.277zM3.086 8.439c.16-.106.226-.278.199-.52-.027-.265-.133-.426-.32-.48-.426-.106-.625.043-.602.441.0.399.137.574.403.52l.32.039zm.078.961h.481c.027-.293-.079-.414-.321-.36-.265.078-.32.2-.16.36zm4.281-4.199h.2c.187-.055.253-.215.199-.481l-.078-.16h-.2c-.136.0-.23.016-.281.039-.082.027-.094.094-.039.199l.039.32c.027.028.078.055.16.083zm0 1.64.2.277c.214-.078.359-.16.441-.238.078-.133.105-.293.078-.48-.559-.106-.879-.039-.961.199-.023.082-.012.148.043.199.051.055.117.067.199.043zM5.844 6.24l-.16.48c.136.027.269.0.402-.078.133-.082.238-.188.32-.32.051-.161.039-.43-.043-.801-.293-.082-.476-.028-.558.16-.078.133-.067.32.039.559zM5.766 9.599c.214-.238.265-.559.16-.957-.082-.215-.199-.363-.36-.441-.109-.055-.281-.083-.519-.083-.563.0-.735.27-.524.801.215.586.469.746.762.481l.481.199zM4.887 7.642 5.285 7.4c.106-.133.106-.399.0-.801-.055-.184-.105-.305-.16-.359-.078-.028-.227.0-.441.082-.293.105-.426.32-.399.64.027.16.106.305.238.438.028.027.149.105.364.242zm1.277.797c0 .16.094.281.281.359l.399-.078c.027-.398-.106-.574-.399-.519-.215.0-.308.078-.281.238z"/><path id="path44" style="fill:#bb9b47;fill-rule:evenodd" d="m15.566 4.681c0-.027-.015-.043-.043-.043l-1.117-.316c-.082-.028-.16-.055-.242-.082-.051.0-.094-.016-.117-.039l-.121-.04c-.586-.347-1.149-.64-1.68-.882-.668-.293-1.402-.504-2.203-.641-.426-.078-.863-.129-1.316-.156-1.364-.11-2.774.41-4.243 1.558l-.199.161c-.082.05-.148.105-.199.16-.133.105-.266.211-.402.32l-.918.918c-.067.074-.125.144-.18.223l-.02.019c-.304.348-.57.699-.8 1.059l-.379.64c-.114.215-.215.438-.301.661l.019-.02c.184-.156.375-.309.579-.461.136-.105.242-.254.32-.441.133-.239.226-.399.281-.481.078-.105.266-.172.559-.199.242-.023.386-.09.441-.199.027-.078.027-.215.0-.399.078-.16.254-.242.52-.242.027-.105.039-.25.039-.437.0-.161.082-.282.242-.364.105-.023.266-.039.48-.039.211.028.372.016.481-.039.078-.054.144-.172.199-.359.078-.215.16-.348.238-.403.133-.105.336-.199.602-.277.371-.082.598-.148.68-.199.16-.055.347-.094.558-.121h.602c.293-.055.906-.082 1.84-.082.214.0.332.015.359.043.055.0.133.051.238.16.133.051.403.078.801.078l.121.121c.055.027.149.027.281.0.079.027.215.078.399.16.293.051.586.133.883.239.613.269 1.066.492 1.359.679.371.16.691.254.957.282l.082-.079c.211-.214.32-.363.32-.441z"/><path id="path46" style="fill:#907836;fill-rule:evenodd" d="M1.105 8.181l-.019.02c.086-.223.187-.446.301-.661l.379-.64c.23-.36.496-.715.8-1.059l.02-.019v-.02l.379-.922c.801-1.308 1.894-2.094 3.281-2.359.906-.188 2.051-.36 3.438-.52.695-.082 1.07-.215 1.121-.402.027-.133.027-.266.0-.398-.16-.055-.321-.106-.481-.161-.133.375-.465.559-1 .559-.265-.051-.558-.051-.879.0-.562.082-1.535.426-2.922 1.043-1.519.691-2.707 1.559-3.558 2.598C1.219 6.146.727 7.134.484 8.201c-.078.425-.105.917-.078 1.48.0.027.012.066.039.117.266.59.493.961.68 1.121l.199.16c-.504-.8-.613-1.664-.32-2.597.035-.102.066-.203.101-.301z"/><path id="path48" style="fill:#a28638;fill-rule:evenodd" d="M3.363 12.04c-.265-.507-.316-1.027-.16-1.558.082-.27.176-.481.281-.641l-.64.758c-.293.293-.293.629.0 1 .136.187.308.336.519.441z"/><path id="path50" style="fill:#675627;fill-rule:evenodd" d="m10.047 2.642c.664-.32 1.105-.629 1.316-.922.055-.078.133-.16.242-.238-.265-.11-.535-.199-.8-.281.027.132.027.265.0.398-.051.187-.426.32-1.121.402-1.387.16-2.532.332-3.438.52-1.387.265-2.48 1.051-3.281 2.359l-.379.918c.051-.066.113-.133.18-.199l.918-.918c.136-.109.269-.215.402-.32.051-.055.117-.11.199-.16l.199-.161C5.953 2.892 7.363 2.372 8.727 2.482c.453.027.89.078 1.32.16zm5.519 2.039c.133-.242.118-.496-.043-.762-.425.028-.773.094-1.039.199h-.039c-.054.004-.093.016-.121.043l-.16.079c.082.027.16.054.242.082l1.117.32c.028.0.043.012.043.039z"/><path id="path52" style="fill:#a3873e;fill-rule:evenodd" d="M10.324 1.04c-.347-.082-.679-.132-1-.16-.48-.027-1.293.067-2.437.281-.961.188-2 .692-3.121 1.52-.989.773-1.828 1.641-2.52 2.602C.684 6.052.312 6.732.125 7.322c-.133.398-.16.785-.078 1.16.023.293.144.691.359 1.199-.027-.563.0-1.055.078-1.48.243-1.067.735-2.055 1.481-2.961.855-1.039 2.039-1.907 3.558-2.598 1.387-.617 2.364-.961 2.922-1.043.321-.051.614-.051.879.0.535.0.867-.188 1-.559z"/><path id="path54" style="fill:#c6c0af;fill-rule:evenodd" d="m15.684.04h-.68c-.176.012-.363.039-.559.082l-.199.879c-.055-.105-.176-.265-.359-.48-.082-.106-.149-.16-.203-.16l-.399.16c-.09.035-.183.078-.281.121h-.039l-.039.156c.027.16.012.254-.043.281-.106.055-.199.11-.278.161-.375.242-.585.507-.64.8-.082.266-.055.442.078.52.109.082.309.16.602.238.16.11.398.297.718.563.106.05.309.215.602.48l.281.281h.238c.266-.109.614-.175 1.039-.203.063-.019.129-.031.204-.039l-.563-.16c-.078-.051-.133-.144-.16-.281.0-.133-.051-.227-.16-.278-.371-.187-.758-.335-1.16-.441-.344-.082-.547-.227-.598-.441-.027-.106-.027-.211.0-.321.027-.16.094-.265.199-.316.293-.109.629-.094 1 .039.215.078.559.266 1.039.559.11.054.176.093.203.121-.054-.082-.148-.336-.281-.762-.187-.426-.242-.746-.16-.957.027-.082.117-.188.277-.32.16-.137.27-.227.321-.282z"/><path id="path56" style="fill:#858174;fill-rule:evenodd" d="m12.965.642c-.613.266-1.067.547-1.36.84-.109.078-.187.16-.242.238-.211.293-.652.602-1.316.922.797.133 1.531.344 2.199.641.531.238 1.094.531 1.68.878l.121.04c.023.027.066.039.117.039l.16-.079-.078-.043-.281-.277c-.293-.265-.492-.426-.602-.48-.316-.266-.558-.453-.718-.563-.293-.078-.493-.156-.598-.238-.133-.078-.16-.254-.082-.52.055-.293.265-.558.64-.8.079-.051.172-.106.282-.161.051-.027.066-.117.039-.281l.039-.156zm1.48-.524c-.242.059-.492.137-.761.243.054.0.121.05.203.16.183.211.304.371.359.48l.199-.883z"/></g></g></g></svg>