<svg xmlns:dc="http://purl.org/dc/elements/1.1/" xmlns:cc="http://web.resource.org/cc/" xmlns:rdf="http://www.w3.org/1999/02/22-rdf-syntax-ns#" xmlns:svg="http://www.w3.org/2000/svg" xmlns="http://www.w3.org/2000/svg" xmlns:xlink="http://www.w3.org/1999/xlink" xmlns:sodipodi="http://sodipodi.sourceforge.net/DTD/sodipodi-0.dtd" xmlns:inkscape="http://www.inkscape.org/namespaces/inkscape" width="128" height="128" id="svg4659" sodipodi:version=".32" inkscape:version=".45" version="1.0" sodipodi:docbase="/Users/david/Progetti/oxygen-dev/icons/apps" sodipodi:docname="gwenview.svg" inkscape:output_extension="org.inkscape.output.svg.inkscape" inkscape:export-filename="/Users/david/Progetti/oxygen-dev/icons/apps/gwenview.png" inkscape:export-xdpi="360" inkscape:export-ydpi="360" sodipodi:modified="true"><defs id="defs4661"><radialGradient id="XMLID_54_" cx="2.4062" cy="61.117" r="2.0318" gradientUnits="userSpaceOnUse"><stop offset="0" style="stop-color:#FFFFFF" id="stop267"/><stop offset="1" style="stop-color:#ffffff;stop-opacity:0" id="stop269"/></radialGradient><linearGradient y2="19.128" x2="48.763" y1="65.933" x1="66.777" gradientUnits="userSpaceOnUse" id="XMLID_53_"><stop id="stop242" style="stop-color:#000000" offset="0"/><stop id="stop244" style="stop-color:#363636" offset=".0473"/><stop id="stop246" style="stop-color:#6B6B6B" offset=".0999"/><stop id="stop248" style="stop-color:#989898" offset=".1534"/><stop id="stop250" style="stop-color:#BDBDBD" offset=".2066"/><stop id="stop252" style="stop-color:#DADADA" offset=".2594"/><stop id="stop254" style="stop-color:#EFEFEF" offset=".3118"/><stop id="stop256" style="stop-color:#FBFBFB" offset=".3637"/><stop id="stop258" style="stop-color:#FFFFFF" offset=".4142"/><stop id="stop260" style="stop-color:#FFFFFF" offset=".5"/><stop id="stop262" style="stop-color:#0066FF" offset="1"/></linearGradient><linearGradient y2="19.132" x2="48.764" y1="65.937" x1="66.779" gradientUnits="userSpaceOnUse" id="XMLID_52_"><stop id="stop217" style="stop-color:#000000" offset="0"/><stop id="stop219" style="stop-color:#363636" offset=".0473"/><stop id="stop221" style="stop-color:#6B6B6B" offset=".0999"/><stop id="stop223" style="stop-color:#989898" offset=".1534"/><stop id="stop225" style="stop-color:#BDBDBD" offset=".2066"/><stop id="stop227" style="stop-color:#DADADA" offset=".2594"/><stop id="stop229" style="stop-color:#EFEFEF" offset=".3118"/><stop id="stop231" style="stop-color:#FBFBFB" offset=".3637"/><stop id="stop233" style="stop-color:#FFFFFF" offset=".4142"/><stop id="stop235" style="stop-color:#FFFFFF" offset=".5"/><stop id="stop237" style="stop-color:#0066FF" offset="1"/></linearGradient><radialGradient id="XMLID_51_" cx="59.941" cy="87.78" r="29.588" fx="49" fy="96.867" gradientUnits="userSpaceOnUse" xlink:href="#XMLID_45_" spreadMethod="pad"><stop offset="0" style="stop-color:#FFFFFF" id="stop208"/><stop offset="1" style="stop-color:#ffffff;stop-opacity:0" id="stop210"/></radialGradient><radialGradient id="XMLID_50_" cx="102.49" cy="24.875" r="6.4119" gradientUnits="userSpaceOnUse"><stop offset=".432" style="stop-color:#FF80DF" id="stop197"/><stop offset=".9408" style="stop-color:#730055" id="stop199"/></radialGradient><radialGradient id="XMLID_49_" cx="102.49" cy="24.878" r="6.41" gradientUnits="userSpaceOnUse"><stop offset=".432" style="stop-color:#FF80DF" id="stop190"/><stop offset=".9408" style="stop-color:#730055" id="stop192"/></radialGradient><radialGradient id="XMLID_48_" cx="11.166" cy="57.199" r="6.1454" gradientUnits="userSpaceOnUse"><stop offset=".432" style="stop-color:#FF80DF" id="stop183"/><stop offset=".9408" style="stop-color:#730055" id="stop185"/></radialGradient><radialGradient id="XMLID_47_" cx="11.166" cy="57.195" r="6.1474" gradientUnits="userSpaceOnUse"><stop offset=".432" style="stop-color:#FF80DF" id="stop176"/><stop offset=".9408" style="stop-color:#730055" id="stop178"/></radialGradient><linearGradient id="XMLID_46_" gradientUnits="userSpaceOnUse" x1="60.066" y1="45.052" x2="59.922" y2="16.22" gradientTransform="matrix(0.995,-9.96e-2,9.96e-2,0.995,-3.6499,5.6456)"><stop offset=".0237" style="stop-color:#FF00BF" id="stop161"/><stop offset=".6746" style="stop-color:#590042" id="stop163"/><stop offset=".7785" style="stop-color:#67004D" id="stop165"/><stop offset=".8935" style="stop-color:#730055" id="stop167"/><stop offset=".9384" style="stop-color:#7E005D" id="stop169"/><stop offset="1" style="stop-color:#8A0066" id="stop171"/></linearGradient><linearGradient id="XMLID_45_" gradientUnits="userSpaceOnUse" x1="47.716" y1="7.0796" x2="49.716" y2="12.08"><stop offset="0" style="stop-color:#FFFFFF" id="stop154"/><stop offset="1" style="stop-color:#ffffff;stop-opacity:0" id="stop156"/></linearGradient><linearGradient id="XMLID_44_" gradientUnits="userSpaceOnUse" x1="-1.9263" y1="39.287" x2="122" y2="39.287" gradientTransform="matrix(0.995,-9.96e-2,9.96e-2,0.995,-3.6499,5.6456)"><stop offset="0" style="stop-color:#A3007B" id="stop143"/><stop offset=".213" style="stop-color:#A3007B" id="stop145"/><stop offset=".4556" style="stop-color:#FF00BF" id="stop147"/><stop offset="1" style="stop-color:#A3007B" id="stop149"/></linearGradient><radialGradient gradientUnits="userSpaceOnUse" gradientTransform="matrix(0.7692,-7.7e-2,9.96e-2,0.995,9.042,4.4224)" r="11.307" cy="37.257" cx="64.93" id="XMLID_43_"><stop id="stop136" style="stop-color:#FFFFFF" offset="0"/><stop id="stop138" style="stop-color:#ffffff;stop-opacity:0" offset="1"/></radialGradient><radialGradient gradientUnits="userSpaceOnUse" gradientTransform="matrix(-0.7974,0.6035,-0.6035,-0.7974,192.8121,60.3074)" fy="77.369" fx="93.292" r="10.568" cy="84.462" cx="94.107" id="XMLID_42_"><stop id="stop129" style="stop-color:#E1FF00" offset="0"/><stop id="stop131" style="stop-color:#008C00" offset="1"/></radialGradient><linearGradient gradientTransform="matrix(0.8476,0.5306,-0.5306,0.8476,27.873,-13.0597)" y2="21.475" x2="35.214" y1="37.138" x1="49.513" gradientUnits="userSpaceOnUse" id="XMLID_41_"><stop id="stop120" style="stop-color:#0066FF" offset="0"/><stop id="stop122" style="stop-color:#FF80DF" offset="1"/></linearGradient><radialGradient gradientUnits="userSpaceOnUse" gradientTransform="matrix(-1,0.1001,-9.9e-2,-0.9896,-209.1207,-219.9872)" fy="-289.97" fx="-239.64" r="3.1497" cy="-291.41" cx="-241.35" id="XMLID_40_"><stop id="stop91" style="stop-color:#FFFFFF" offset="0"/><stop id="stop93" style="stop-color:#FEFEFA" offset=".0516"/><stop id="stop95" style="stop-color:#FDF9ED" offset=".1096"/><stop id="stop97" style="stop-color:#FBF2D6" offset=".1706"/><stop id="stop99" style="stop-color:#F7E8B7" offset=".2337"/><stop id="stop101" style="stop-color:#F3DB8E" offset=".2985"/><stop id="stop103" style="stop-color:#EDCB5D" offset=".3646"/><stop id="stop105" style="stop-color:#E7B823" offset=".4307"/><stop id="stop107" style="stop-color:#E3AD00" offset=".4675"/><stop id="stop109" style="stop-color:#323232" offset=".7633"/></radialGradient><radialGradient gradientUnits="userSpaceOnUse" gradientTransform="matrix(0.8595,-8.6e-2,8.29e-2,0.8286,-19.5073,-14.4469)" fy="76.092" fx="82.07" r="3.1494" cy="74.654" cx="80.358" id="XMLID_39_"><stop id="stop82" style="stop-color:#FFFFFF" offset="0"/><stop id="stop84" style="stop-color:#0066FF" offset=".4675"/><stop id="stop86" style="stop-color:#323232" offset="1"/></radialGradient><linearGradient gradientTransform="matrix(0.995,-9.96e-2,9.96e-2,0.995,-3.6499,5.6456)" y2="37.773" x2="62.565" y1="47.355" x1="52.983" gradientUnits="userSpaceOnUse" id="XMLID_38_"><stop id="stop73" style="stop-color:#000000" offset="0"/><stop id="stop75" style="stop-color:#BBBBBB" offset=".5"/><stop id="stop77" style="stop-color:#000000" offset="1"/></linearGradient><radialGradient gradientUnits="userSpaceOnUse" gradientTransform="matrix(0.995,-9.96e-2,9.96e-2,0.995,-3.6499,5.6456)" r="14.012" cy="48.294" cx="61.84" id="XMLID_37_"><stop id="stop64" style="stop-color:#000000" offset="0"/><stop id="stop66" style="stop-color:#323232" offset="1"/></radialGradient><radialGradient gradientUnits="userSpaceOnUse" gradientTransform="matrix(0.995,-9.96e-2,9.96e-2,0.995,-3.6499,5.6456)" r="11.504" cy="42.564" cx="57.773" id="XMLID_36_"><stop id="stop57" style="stop-color:#888888" offset=".4675"/><stop id="stop59" style="stop-color:#323232" offset=".8639"/></radialGradient><radialGradient gradientUnits="userSpaceOnUse" gradientTransform="matrix(0.995,-9.96e-2,9.96e-2,0.995,-3.6499,5.6456)" r="52.708" cy="18.533" cx="42.681" id="XMLID_35_"><stop id="stop44" style="stop-color:#000000" offset="0"/><stop id="stop46" style="stop-color:#323232" offset="1"/></radialGradient><radialGradient id="XMLID_34_" cx="60.612" cy="42.709" r="77.481" gradientTransform="matrix(1.0108,-5.78e-2,0.1586,1.1511,-7.7408,-4.3987)" gradientUnits="userSpaceOnUse"><stop offset=".432" style="stop-color:#FFFFFF" id="stop35"/><stop offset=".7574" style="stop-color:#0066FF" id="stop37"/></radialGradient><linearGradient id="XMLID_33_" gradientUnits="userSpaceOnUse" x1="78.879" y1="95.537" x2="10.08" y2="26.738"><stop offset=".2071" style="stop-color:#FF00BF" id="stop28"/><stop offset=".6036" style="stop-color:#730055" id="stop30"/></linearGradient><linearGradient id="XMLID_32_" gradientUnits="userSpaceOnUse" x1="77.678" y1="97.693" x2="7.9267" y2="27.942"><stop offset="0" style="stop-color:#CC009A" id="stop21"/><stop offset="1" style="stop-color:#A3007B" id="stop23"/></linearGradient><filter id="AI_Sfocatura_4"><feGaussianBlur stdDeviation="2" id="feGaussianBlur6"/></filter><radialGradient inkscape:collect="always" xlink:href="#XMLID_54_" id="radialGradient5041" gradientUnits="userSpaceOnUse" cx="2.4062" cy="61.117" r="2.0318" gradientTransform="translate(4,11.451503)"/><radialGradient inkscape:collect="always" xlink:href="#XMLID_50_" id="radialGradient5076" gradientUnits="userSpaceOnUse" cx="102.49" cy="24.875" r="6.4119" gradientTransform="translate(4,11.451503)"/><radialGradient inkscape:collect="always" xlink:href="#XMLID_49_" id="radialGradient5079" gradientUnits="userSpaceOnUse" cx="102.49" cy="24.878" r="6.41" gradientTransform="translate(4,11.451503)"/><radialGradient inkscape:collect="always" xlink:href="#XMLID_48_" id="radialGradient5082" gradientUnits="userSpaceOnUse" cx="11.166" cy="57.199" r="6.1454" gradientTransform="translate(4,11.451503)"/><radialGradient inkscape:collect="always" xlink:href="#XMLID_47_" id="radialGradient5085" gradientUnits="userSpaceOnUse" cx="11.166" cy="57.195" r="6.1474" gradientTransform="translate(4,11.451503)"/><linearGradient inkscape:collect="always" xlink:href="#XMLID_46_" id="linearGradient5088" gradientUnits="userSpaceOnUse" gradientTransform="matrix(0.995,-9.96e-2,9.96e-2,0.995,0.3501,17.097103)" x1="60.066" y1="45.052" x2="59.922" y2="16.22"/><linearGradient inkscape:collect="always" xlink:href="#XMLID_45_" id="linearGradient5091" gradientUnits="userSpaceOnUse" x1="47.716" y1="7.0796" x2="50.055" y2="13.095" gradientTransform="translate(4,11.451503)"/><linearGradient inkscape:collect="always" xlink:href="#XMLID_44_" id="linearGradient5094" gradientUnits="userSpaceOnUse" gradientTransform="matrix(0.995,-9.96e-2,9.96e-2,0.995,0.3501,17.097103)" x1="-1.9263" y1="39.287" x2="122" y2="39.287"/><radialGradient inkscape:collect="always" xlink:href="#XMLID_34_" id="radialGradient5152" gradientUnits="userSpaceOnUse" gradientTransform="matrix(1.0108,-5.78e-2,0.1586,1.1511,-3.7408,7.052803)" cx="60.612" cy="42.709" r="77.481"/><linearGradient inkscape:collect="always" xlink:href="#XMLID_33_" id="linearGradient5155" gradientUnits="userSpaceOnUse" x1="78.879" y1="95.537" x2="10.08" y2="26.738" gradientTransform="translate(4,11.451503)"/><linearGradient inkscape:collect="always" xlink:href="#XMLID_32_" id="linearGradient5158" gradientUnits="userSpaceOnUse" x1="77.678" y1="97.693" x2="7.9267" y2="27.942" gradientTransform="translate(4,11.451503)"/><filter inkscape:collect="always" id="filter6134"><feGaussianBlur inkscape:collect="always" stdDeviation=".50116" id="feGaussianBlur6136"/></filter><filter inkscape:collect="always" id="filter4382"><feGaussianBlur inkscape:collect="always" stdDeviation="2.4485" id="feGaussianBlur4384"/></filter><filter inkscape:collect="always" x="-.066693" width="1.1334" y="-.23497" height="1.4699" id="filter4434"><feGaussianBlur inkscape:collect="always" stdDeviation="2.2483" id="feGaussianBlur4436"/></filter></defs><sodipodi:namedview id="base" pagecolor="#ffffff" bordercolor="#666666" borderopacity="1" gridtolerance="1e4" guidetolerance="10" objecttolerance="10" inkscape:pageopacity="0" inkscape:pageshadow="2" inkscape:zoom="2.9531" inkscape:cx="62.556" inkscape:cy="64" inkscape:document-units="px" inkscape:current-layer="layer1" width="128" height="128" inkscape:window-width="697" inkscape:window-height="581" inkscape:window-x="264" inkscape:window-y="221"/><g inkscape:label="Layer 1" inkscape:groupmode="layer" id="layer1"><g id="g9" style="opacity:.5;filter:url(#filter4382)" transform="translate(4,11.451503)"><path id="path11" d="M53.298 17.39C28.352 26.824 16.131 57.326 12.981 66.449c-.326.941-.253 1.943.231 2.814l.322.576c.91 1.623 2.938 2.265 4.608 1.443.005-.002.009-.003.01-.003 10.183 5.158 36.288 16.254 58.494 7.856 24.299-9.188 36.703-39.024 39.927-47.95.586-1.624-.098-3.431-1.611-4.262-8.32-4.559-37.358-18.724-61.664-9.533z"/></g><g id="g13" style="opacity:.5;filter:url(#filter4434)" transform="translate(4,11.451503)"><path id="path15" d="M27.201 87.519c-.456.684-.642 1.473-.577 2.238.078.924.52 1.812 1.291 2.435C38.046 100.36 49.052 104.7 60.628 105.07c12.185.39 22.953-2.881 32.013-9.722 1.395-1.054 12.297-10.426 11.444-13.646C103.64 80.008 90.889 88.649 89.258 89.283c-9.109 3.545-17.783 5.438-25.779 5.629-10.189.243-20.852-2.626-31.688-8.525-1.593-.866-3.583-.375-4.59 1.132z" sodipodi:nodetypes="cscssssscc"/></g><path d="M4.094 72.62c.167.359 17.174 35.981 52.787 40.121H56.88C92.788 116.92 109.5 90.269 109.5 90.269c-.235.127-23.743 15.674-48.409 14.191C29.77 102.58 6.001 71.833 5.765 71.553L4.094 72.62z" id="path25" style="fill:url(#linearGradient5158)"/><path d="M59.094 105.46C83.76 106.94 109.27 90.397 109.5 90.27c-.235.127-23.743 12.674-48.409 11.191C29.77 99.579 6.001 71.833 5.765 71.553c.236.28 22.005 32.026 53.329 33.908z" id="path32" style="fill:url(#linearGradient5155)"/><path d="M7.804 71.246s36.813 21.398 67.812 9.677C106.61 69.201 120.05 28.796 120.05 28.796S85.273 12.771 54.276 24.493C23.279 36.215 7.804 71.246 7.804 71.246z" id="path39" style="fill:url(#radialGradient5152)"/><g id="g41" transform="translate(4,11.451503)"><radialGradient id="radialGradient4885" cx="42.681" cy="18.533" r="52.708" gradientTransform="matrix(0.995,-9.96e-2,9.96e-2,0.995,-3.6499,5.6456)" gradientUnits="userSpaceOnUse"><stop offset="0" style="stop-color:#000000" id="stop4887"/><stop offset="1" style="stop-color:#323232" id="stop4889"/></radialGradient><path enable-background="new" d="M30.354 45.017C31.838 59.851 45.116 70.714 59.95 69.229c14.833-1.484 25.695-14.762 24.211-29.596-1.484-14.836-14.762-25.696-29.596-24.211-14.834 1.484-25.696 14.759-24.211 29.595z" id="path48" style="fill:url(#XMLID_35_)"/><ellipse transform="matrix(0.995,-9.96e-2,9.96e-2,0.995,-3.9556,5.9912)" cx="58.042" cy="42.623" rx="13.083" ry="12.88" id="ellipse50" sodipodi:cx="58.042" sodipodi:cy="42.623" sodipodi:rx="13.083" sodipodi:ry="12.88" style="opacity:.1;fill:none;stroke:#fff"/><ellipse transform="matrix(0.995,-9.96e-2,9.96e-2,0.995,-3.9555,5.991)" cx="58.042" cy="42.623" rx="20.334" ry="20.018" id="ellipse52" sodipodi:cx="58.042" sodipodi:cy="42.623" sodipodi:rx="20.334" sodipodi:ry="20.018" style="opacity:.1;fill:none;stroke:#fff"/><g id="g54"><radialGradient id="radialGradient4895" cx="57.773" cy="42.564" r="11.504" gradientTransform="matrix(0.995,-9.96e-2,9.96e-2,0.995,-3.6499,5.6456)" gradientUnits="userSpaceOnUse"><stop offset=".4675" style="stop-color:#888888" id="stop4897"/><stop offset=".8639" style="stop-color:#323232" id="stop4899"/></radialGradient><circle cx="58.075" cy="42.243" r="11.503" id="circle61" style="fill:url(#XMLID_36_)" sodipodi:cx="58.075" sodipodi:cy="42.243" sodipodi:rx="11.503" sodipodi:ry="11.503"/><radialGradient id="radialGradient4902" cx="61.84" cy="48.294" r="14.012" gradientTransform="matrix(0.995,-9.96e-2,9.96e-2,0.995,-3.6499,5.6456)" gradientUnits="userSpaceOnUse"><stop offset="0" style="stop-color:#000000" id="stop4904"/><stop offset="1" style="stop-color:#323232" id="stop4906"/></radialGradient><circle cx="58.074" cy="42.243" r="7.395" id="circle68" style="fill:url(#XMLID_37_)" sodipodi:cx="58.074" sodipodi:cy="42.243" sodipodi:rx="7.395" sodipodi:ry="7.395"/><g id="g70"><linearGradient id="linearGradient4910" gradientUnits="userSpaceOnUse" x1="52.983" y1="47.355" x2="62.565" y2="37.773" gradientTransform="matrix(0.995,-9.96e-2,9.96e-2,0.995,-3.6499,5.6456)"><stop offset="0" style="stop-color:#000000" id="stop4912"/><stop offset=".5" style="stop-color:#BBBBBB" id="stop4914"/><stop offset="1" style="stop-color:#000000" id="stop4916"/></linearGradient><path d="M51.33 42.918c.372 3.718 3.699 6.442 7.42 6.069 3.719-.372 6.44-3.701 6.068-7.419-.372-3.72-3.7-6.443-7.419-6.071s-6.442 3.701-6.069 7.421zm.407-.041c-.35-3.494 2.209-6.622 5.703-6.971 3.495-.349 6.621 2.209 6.97 5.703.35 3.492-2.207 6.621-5.701 6.97-3.494.349-6.622-2.209-6.972-5.702z" id="path79" style="fill:url(#XMLID_38_)"/></g><radialGradient id="radialGradient4919" cx="80.358" cy="74.654" r="3.1494" fx="82.07" fy="76.092" gradientTransform="matrix(0.8595,-8.6e-2,8.29e-2,0.8286,-19.5073,-14.4469)" gradientUnits="userSpaceOnUse"><stop offset="0" style="stop-color:#FFFFFF" id="stop4921"/><stop offset=".4675" style="stop-color:#0066FF" id="stop4923"/><stop offset="1" style="stop-color:#323232" id="stop4925"/></radialGradient><path d="M53.042 40.771c.144 1.441 1.473 2.488 2.969 2.338 1.494-.149 2.59-1.439 2.445-2.88-.144-1.441-1.474-2.488-2.968-2.339-1.495.151-2.591 1.441-2.446 2.881z" id="path88" style="fill:url(#XMLID_39_)"/><radialGradient id="radialGradient4928" cx="-241.35" cy="-291.41" r="3.1497" fx="-239.64" fy="-289.97" gradientTransform="matrix(-1,0.1001,-9.9e-2,-0.9896,-209.1207,-219.9872)" gradientUnits="userSpaceOnUse"><stop offset="0" style="stop-color:#FFFFFF" id="stop4930"/><stop offset=".0516" style="stop-color:#FEFEFA" id="stop4932"/><stop offset=".1096" style="stop-color:#FDF9ED" id="stop4934"/><stop offset=".1706" style="stop-color:#FBF2D6" id="stop4936"/><stop offset=".2337" style="stop-color:#F7E8B7" id="stop4938"/><stop offset=".2985" style="stop-color:#F3DB8E" id="stop4940"/><stop offset=".3646" style="stop-color:#EDCB5D" id="stop4942"/><stop offset=".4307" style="stop-color:#E7B823" id="stop4944"/><stop offset=".4675" style="stop-color:#E3AD00" id="stop4946"/><stop offset=".7633" style="stop-color:#323232" id="stop4948"/></radialGradient><path d="M64.229 43.915c-.172-1.722-1.722-2.977-3.461-2.803s-3.011 1.711-2.838 3.433 1.723 2.976 3.461 2.802c1.74-.174 3.01-1.711 2.838-3.432z" id="path111" style="fill:url(#XMLID_40_)"/><g id="g113" style="opacity:.7;filter:url(#AI_Sfocatura_4)"><path d="M53.515 42.506c.253 2.525 2.512 4.375 5.037 4.122 2.525-.252 4.374-2.513 4.121-5.038-.252-2.524-2.513-4.374-5.037-4.121-2.526.253-4.374 2.513-4.121 5.037zm1.226-.122c-.185-1.849 1.169-3.502 3.017-3.688 1.85-.185 3.503 1.168 3.688 3.017.186 1.849-1.167 3.503-3.017 3.688-1.848.185-3.503-1.169-3.688-3.017z" id="path115" style="fill:#fff"/></g></g><g id="g117" style="opacity:.6;filter:url(#AI_Sfocatura_4)"><linearGradient id="linearGradient4954" gradientUnits="userSpaceOnUse" x1="49.513" y1="37.138" x2="35.214" y2="21.475" gradientTransform="matrix(0.8476,0.5306,-0.5306,0.8476,27.873,-13.0597)"><stop offset="0" style="stop-color:#0066FF" id="stop4956"/><stop offset="1" style="stop-color:#FF80DF" id="stop4958"/></linearGradient><path d="M38.299 28.357c2.69-4.298 9.347-4.981 14.867-1.526 5.521 3.454 7.815 9.742 5.125 14.039-2.69 4.299-9.348 4.981-14.868 1.527-5.521-3.456-7.815-9.741-5.124-14.04z" id="path124" style="fill:url(#XMLID_41_)"/></g><g id="g126" style="opacity:.5;filter:url(#AI_Sfocatura_4)"><radialGradient id="radialGradient4962" cx="94.107" cy="84.462" r="10.568" fx="93.292" fy="77.369" gradientTransform="matrix(-0.7974,0.6035,-0.6035,-0.7974,192.8121,60.3074)" gradientUnits="userSpaceOnUse"><stop offset="0" style="stop-color:#E1FF00" id="stop4964"/><stop offset="1" style="stop-color:#008C00" id="stop4966"/></radialGradient><path d="M76.2 42.633c3.062 4.045 1.332 10.508-3.861 14.44-5.192 3.931-11.884 3.84-14.944-.205-3.061-4.044-1.331-10.509 3.863-14.439 5.192-3.932 11.882-3.839 14.942.204z" id="path133" style="fill:url(#XMLID_42_)"/></g><radialGradient id="radialGradient4969" cx="64.93" cy="37.257" r="11.307" gradientTransform="matrix(0.7692,-7.7e-2,9.96e-2,0.995,9.042,4.4224)" gradientUnits="userSpaceOnUse"><stop offset="0" style="stop-color:#FFFFFF" id="stop4971"/><stop offset="1" style="stop-color:#ffffff;stop-opacity:0" id="stop4973"/></radialGradient><path d="M52.583 37.506c.502 5.002 5.435 8.604 11.021 8.045 5.585-.559 9.71-5.066 9.206-10.07-.499-5.003-5.434-8.604-11.018-8.045-5.586.56-9.709 5.067-9.209 10.07z" id="path140" style="fill:url(#XMLID_43_)"/></g><path d="M50.67 14.957C17.533 27.488 4 72.898 4 72.898S44.192 97.99 77.33 85.46C110.47 72.928 124 27.518 124 27.518S83.808 2.4265 50.67 14.957zM74.871 78.959C43.875 90.68 7.875 71.433 7.875 71.433S24.021 38.179 55.019 26.457c30.996-11.722 65.106 2.526 65.106 2.526S105.87 67.238 74.871 78.959z" id="path151" style="fill:url(#linearGradient5094)"/><path d="M52.085 18.699C39.227 23.561 29.434 33.905 22.363 44.348c7.87-8.341 18.259-16.723 31.24-21.632 12.929-4.889 26.266-5.493 37.686-4.452-12.203-3.144-26.36-4.422-39.204.435z" id="path158" style="fill:url(#linearGradient5091)"/><path d="M55.019 26.457C24.021 38.179 7.875 71.433 7.875 71.433s36 19.247 66.996 7.526C105.87 67.237 120.13 28.983 120.13 28.983s-34.11-14.247-65.106-2.526zM70.777 77.386C42.454 87.91 9.629 70.807 9.629 70.807s14.81-29.705 43.133-40.228C81.083 20.056 112.2 32.697 112.2 32.697S99.099 66.862 70.777 77.386z" id="path173" style="fill:url(#linearGradient5088)"/><path d="M14.482 62.456l-.265.529s-.136.303-.14.31c-.01.016-4.618 7.405-4.618 7.405-.02.032-.03.068-.03.106.0.021.003.041.01.062.018.057.061.103.115.124l7.155 2.88c.556.372 1.128.674 1.705.888 2.273.842 2.288.831 2.402.752.054-.038.086-.101.086-.166.0-.187-.003-.199-4.016-1.833-1.444-.981-2.53-2.425-3.056-4.068-.246-.769-.37-1.567-.37-2.374.0-1.151.326-2.357.967-3.584.864-1.413.865-1.454.865-1.531.0-.088-.059-.168-.143-.194-.16-.05-.179-.022-.667.694zm.001-.002c.001.0.0.0.0.0z" id="path180" style="fill:url(#radialGradient5085)"/><path d="M18.484 74.573c-2.308-.854-4.094-2.724-4.843-5.067-.255-.797-.38-1.618-.38-2.435.0-1.588.472-3.159 1.386-4.502 2.297-3.376-5.019 8.238-5.019 8.238s17.028 6.79 8.856 3.766z" id="path187" style="fill:url(#radialGradient5082)"/><path d="M100.67 29.12c-.05.038-.079.098-.079.16.0.204.004.214 4.151 1.445 1.525.833 2.742 2.154 3.425 3.726.429.987.646 2.032.646 3.107.0.629-.079 1.261-.232 1.878-1.87 3.753-1.872 3.851-1.872 3.935.0.091.063.176.152.198.196.05.196.05 1.364-2.11.318-.587.559-1.218.726-1.871.001.0 3.426-6.802 3.426-6.802.014-.028.021-.059.021-.09.0-.027-.005-.054-.017-.08-.023-.054-.07-.096-.127-.113l-7.369-2.154c-.6-.322-1.205-.57-1.801-.726-2.293-.597-2.31-.585-2.414-.503z" id="path194" style="fill:url(#radialGradient5079)"/><path d="M112.19 32.697s-17.476-5.048-9.165-2.879c2.378.621 4.339 2.299 5.318 4.553.979 2.253.868 4.833-.302 6.994-4.094 7.57 4.149-8.668 4.149-8.668z" id="path201" style="fill:url(#radialGradient5076)"/><g id="g203" style="opacity:.5;filter:url(#AI_Sfocatura_4)" transform="translate(4,11.451503)"><path d="M53.106 20.524C33.515 27.932 20.58 46.283 14.728 56.277c11.288 5.04 14.416-16.861 34.058-24.288 19.654-7.433 51.627 1.182 56.749-10.061-11.014-3.619-32.862-8.803-52.429-1.404z" id="path205" style="fill:#fff"/></g><path d="M89.953 97.866c-8.961 3.4-19.99 6.249-30.859 5.596-14.388-.864-26.75-8.03-35.945-15.553C31.719 96.42 44.16 105.48 58.96 106.46c22.398 1.482 45.56-15.064 45.774-15.191-.112.065-5.998 3.52-14.781 6.595z" id="path212" style="opacity:.8;fill:#ff80df;fill-opacity:1;filter:url(#filter6134)"/><g id="g214" style="opacity:.3" transform="translate(4,11.451503)"><linearGradient id="linearGradient4987" gradientUnits="userSpaceOnUse" x1="66.779" y1="65.937" x2="48.764" y2="19.132"><stop offset="0" style="stop-color:#000000" id="stop4989"/><stop offset=".0473" style="stop-color:#363636" id="stop4991"/><stop offset=".0999" style="stop-color:#6B6B6B" id="stop4993"/><stop offset=".1534" style="stop-color:#989898" id="stop4995"/><stop offset=".2066" style="stop-color:#BDBDBD" id="stop4997"/><stop offset=".2594" style="stop-color:#DADADA" id="stop4999"/><stop offset=".3118" style="stop-color:#EFEFEF" id="stop5001"/><stop offset=".3637" style="stop-color:#FBFBFB" id="stop5003"/><stop offset=".4142" style="stop-color:#FFFFFF" id="stop5005"/><stop offset=".5" style="stop-color:#FFFFFF" id="stop5007"/><stop offset="1" style="stop-color:#0066FF" id="stop5009"/></linearGradient><path d="M65.384 62.184C44.47 69.955 14.757 63.246 5.629 59.355c0 0 32.825 17.103 61.148 6.579C95.098 55.41 108.19 21.245 108.19 21.245c-4.223 8.845-21.929 33.18-42.81 40.939z" id="path239" style="fill:url(#XMLID_52_)"/><linearGradient id="linearGradient5012" gradientUnits="userSpaceOnUse" x1="66.777" y1="65.933" x2="48.763" y2="19.128"><stop offset="0" style="stop-color:#000000" id="stop5014"/><stop offset=".0473" style="stop-color:#363636" id="stop5016"/><stop offset=".0999" style="stop-color:#6B6B6B" id="stop5018"/><stop offset=".1534" style="stop-color:#989898" id="stop5020"/><stop offset=".2066" style="stop-color:#BDBDBD" id="stop5022"/><stop offset=".2594" style="stop-color:#DADADA" id="stop5024"/><stop offset=".3118" style="stop-color:#EFEFEF" id="stop5026"/><stop offset=".3637" style="stop-color:#FBFBFB" id="stop5028"/><stop offset=".4142" style="stop-color:#FFFFFF" id="stop5030"/><stop offset=".5" style="stop-color:#FFFFFF" id="stop5032"/><stop offset="1" style="stop-color:#0066FF" id="stop5034"/></linearGradient><path d="M50.155 22.876c20.819-7.736 49.081-4.453 58.04-1.632.0.0-31.111-12.641-59.433-2.118C20.438 29.65 5.629 59.355 5.629 59.355c4.814-7.933 23.732-28.752 44.526-36.479z" id="path264" style="fill:url(#XMLID_53_)"/></g><path d="M6.896 69.536l-2.07 3.211c-.155.241-.135.555.051.773l1.827 2.148c.221.261.605.305.879.104.275-.201.347-.582.166-.87-1.164-1.849.258-4.689.272-4.718.157-.309.045-.686-.254-.859-.302-.171-.684-.079-.871.211z" id="path271" style="opacity:.6;fill:url(#radialGradient5041)"/></g></svg>