<svg xmlns:svg="http://www.w3.org/2000/svg" xmlns="http://www.w3.org/2000/svg" xmlns:xlink="http://www.w3.org/1999/xlink" version="1.0" width="48" height="48" id="svg11300"><defs id="defs3"><linearGradient id="linearGradient8542"><stop style="stop-color:#5b676b;stop-opacity:1" offset="0" id="stop8544"/><stop style="stop-color:#141718;stop-opacity:1" offset="1" id="stop8546"/></linearGradient><linearGradient id="linearGradient8534"><stop style="stop-color:black;stop-opacity:1" offset="0" id="stop8536"/><stop style="stop-color:black;stop-opacity:0" offset="1" id="stop8538"/></linearGradient><linearGradient id="linearGradient8524"><stop style="stop-color:white;stop-opacity:1" offset="0" id="stop8526"/><stop style="stop-color:white;stop-opacity:0" offset="1" id="stop8528"/></linearGradient><linearGradient id="linearGradient2446"><stop style="stop-color:white;stop-opacity:1" offset="0" id="stop2448"/><stop style="stop-color:white;stop-opacity:0" offset="1" id="stop2450"/></linearGradient><linearGradient x1="13.236" y1="37.752" x2="7.7521" y2="42.282" id="linearGradient2452" xlink:href="#linearGradient2446" gradientUnits="userSpaceOnUse" gradientTransform="matrix(0.755165,0.395143,-0.395143,0.755165,-25.91245,6.532586)"/><linearGradient id="linearGradient6963"><stop style="stop-color:#696969;stop-opacity:1" offset="0" id="stop6965"/><stop style="stop-color:black;stop-opacity:1" offset="1" id="stop6967"/></linearGradient><radialGradient cx="15.415" cy="35.357" r="7.5792" fx="15.415" fy="35.357" id="radialGradient6969" xlink:href="#linearGradient6963" gradientUnits="userSpaceOnUse" gradientTransform="matrix(1.572694,5.424952e-17,1.037922e-12,1.532639,-55.36682,-21.35823)"/><linearGradient id="linearGradient6939"><stop style="stop-color:#bdbdbd;stop-opacity:1" offset="0" id="stop6941"/><stop style="stop-color:#e2e2e2;stop-opacity:1" offset=".33333" id="stop6947"/><stop style="stop-color:#a3a3a3;stop-opacity:1" offset=".66667" id="stop6949"/><stop style="stop-color:#ddd;stop-opacity:1" offset="1" id="stop6943"/></linearGradient><linearGradient x1="19.395" y1="30.001" x2="23.109" y2="33.439" id="linearGradient6945" xlink:href="#linearGradient6939" gradientUnits="userSpaceOnUse" gradientTransform="translate(-46.40695,-1.802856)"/><linearGradient id="linearGradient6951"><stop style="stop-color:#6e3d09;stop-opacity:1" offset="0" id="stop6953"/><stop style="stop-color:#ea8113;stop-opacity:1" offset=".24242" id="stop6959"/><stop style="stop-color:#5c3307;stop-opacity:1" offset=".62121" id="stop6961"/><stop style="stop-color:#e07c12;stop-opacity:1" offset="1" id="stop6955"/></linearGradient><linearGradient x1="37.018" y1="19.24" x2="27.754" y2="11.182" id="linearGradient6957" xlink:href="#linearGradient6951" gradientUnits="userSpaceOnUse" gradientTransform="translate(-49.30496,1.877723)"/><linearGradient id="linearGradient6500"><stop style="stop-color:#857c63;stop-opacity:1" offset="0" id="stop6502"/><stop style="stop-color:#221f19;stop-opacity:1" offset="1" id="stop6504"/></linearGradient><linearGradient id="linearGradient6492"><stop style="stop-color:black;stop-opacity:1" offset="0" id="stop6494"/><stop style="stop-color:black;stop-opacity:0" offset="1" id="stop6496"/></linearGradient><linearGradient id="linearGradient6482"><stop style="stop-color:black;stop-opacity:1" offset="0" id="stop6484"/><stop style="stop-color:black;stop-opacity:0" offset="1" id="stop6486"/></linearGradient><linearGradient id="linearGradient6468"><stop style="stop-color:white;stop-opacity:1" offset="0" id="stop6470"/><stop style="stop-color:#b9b9b0;stop-opacity:1" offset="1" id="stop6472"/></linearGradient><linearGradient id="linearGradient6452"><stop style="stop-color:white;stop-opacity:1" offset="0" id="stop6454"/><stop style="stop-color:white;stop-opacity:0" offset="1" id="stop6456"/></linearGradient><linearGradient x1="6.3052" y1="23.362" x2="5.9846" y2="31.57" id="linearGradient6458" xlink:href="#linearGradient6452" gradientUnits="userSpaceOnUse"/><radialGradient cx="69.473" cy="19.598" r="3.5153" fx="69.473" fy="19.598" id="radialGradient6474" xlink:href="#linearGradient6468" gradientUnits="userSpaceOnUse" gradientTransform="matrix(1.318488,1.207574e-15,-1.207574e-15,1.318488,-22.1264,-6.241691)"/><radialGradient cx="23" cy="33.938" r="18.25" fx="23" fy="33.938" id="radialGradient6498" xlink:href="#linearGradient6492" gradientUnits="userSpaceOnUse" gradientTransform="matrix(1,0,0,0.284247,0,24.29088)"/><linearGradient x1="14.969" y1="19.111" x2="39.525" y2="46.986" id="linearGradient8530" xlink:href="#linearGradient8524" gradientUnits="userSpaceOnUse"/><radialGradient cx="6.0242" cy="25.271" r="4.831" fx="6.0242" fy="25.271" id="radialGradient8548" xlink:href="#linearGradient8542" gradientUnits="userSpaceOnUse" gradientTransform="matrix(0.916159,9.318684e-2,-0.108765,1.069309,3.253668,-3.029272)"/><linearGradient x1="26.163" y1="30.543" x2="24.329" y2="30.985" id="linearGradient4330" xlink:href="#linearGradient8534" gradientUnits="userSpaceOnUse"/><linearGradient x1="32.35" y1="28.083" x2="21.213" y2="30.293" id="linearGradient4351" xlink:href="#linearGradient6482" gradientUnits="userSpaceOnUse" gradientTransform="translate(-3.836549,0.345971)"/><radialGradient cx="18.558" cy="22.3" r="19.229" fx="18.558" fy="22.3" id="radialGradient4354" xlink:href="#linearGradient6500" gradientUnits="userSpaceOnUse" gradientTransform="matrix(1.77275,-1.847562e-16,1.351402e-16,1.29668,-16.3404,-6.615959)"/><radialGradient cx="69.473" cy="19.598" r="3.5153" fx="69.473" fy="19.598" id="radialGradient4363" xlink:href="#linearGradient6468" gradientUnits="userSpaceOnUse" gradientTransform="matrix(1.318488,1.207574e-15,-1.207574e-15,1.318488,-22.1264,-6.241691)"/></defs><g id="layer1"><path d="M41.25 33.938a18.25 5.1875.0 11-36.5.0 18.25 5.1875.0 1136.5.0z" transform="matrix(1,0,0,1.53012,0.125,-19.99096)" style="color:#000;fill:url(#radialGradient6498);fill-opacity:1;fill-rule:evenodd;stroke:none;stroke-width:.9999997;stroke-linecap:butt;stroke-linejoin:miter;marker:none;marker-start:none;marker-mid:none;marker-end:none;stroke-miterlimit:10;stroke-dasharray:none;stroke-dashoffset:0;stroke-opacity:1;visibility:visible;display:inline;overflow:visible" id="path6490"/><path d="M10.374 12.468S13.249 18.396 19.974 18.228C34.066 17.875 36.537 10.523 36.891 9.4627c.35355-1.0607.89453-.9 1.0196.080267C42.507 51.262 6.0135 33.362 4.7175 26.256 11.965 24.135 10.198 20.069 10.198 20.069L10.374 12.468z" style="color:#000;fill:url(#radialGradient4354);fill-opacity:1;fill-rule:evenodd;stroke:#2e3436;stroke-width:.9999997;stroke-linecap:butt;stroke-linejoin:miter;marker:none;marker-start:none;marker-mid:none;marker-end:none;stroke-miterlimit:10;stroke-dasharray:none;stroke-dashoffset:0;stroke-opacity:1;visibility:visible;display:inline;overflow:visible" id="path4323"/><path d="M15.738 30.066C22.477 31.414 25.908 30.164 27.917 28.613 27.387 27.928 26.481 27.177 26.481 27.177s2.3533.65394 3.182 1.7236c.82629 1.0666.30681 1.7237.090561 3.0884-.48141-1.1986-1.38-1.6481-1.5016-2.1243-1.8063 2.4969-6.3064 2.3932-12.514.20148z" style="color:#000;fill:url(#linearGradient4351);fill-opacity:1;fill-rule:evenodd;stroke:none;stroke-width:.9999997;stroke-linecap:butt;stroke-linejoin:miter;marker:none;marker-start:none;marker-mid:none;marker-end:none;stroke-miterlimit:10;stroke-dasharray:none;stroke-dashoffset:0;stroke-opacity:1;visibility:visible;display:inline;overflow:visible" id="path6480"/><path d="M36.969 11.844c-.56198.9269-1.4065 2.0332-2.6875 3.0938C31.649 17.117 27.231 19.1 20 19.281c-4.2244.10505-6.9527-1.9341-8.625-3.75L11.25 20c.13611.4188.41545 1.3905-.0625 2.7188-.51431 1.4293-2.1545 2.8914-4.9688 4 .25033.52203.49548 1.0436 1.25 1.7813 1.028 1.0049 2.457 2.088 4.1563 3.0625C15.023 33.511 19.427 35.056 23.531 35.125s7.8571-1.2345 10.438-5c2.3787-3.4712 3.6825-9.3479 3-18.281z" style="opacity:.18539327;color:#000;fill:none;fill-opacity:1;fill-rule:evenodd;stroke:url(#linearGradient8530);stroke-width:.9999997;stroke-linecap:butt;stroke-linejoin:miter;marker:none;marker-start:none;marker-mid:none;marker-end:none;stroke-miterlimit:10;stroke-dasharray:none;stroke-dashoffset:0;stroke-opacity:1;visibility:visible;display:inline;overflow:visible" id="path8520"/><path d="M72.655 21.837a3.182 3.182.0 11-6.364.0 3.182 3.182.0 116.364.0z" transform="matrix(1.277778,0,0,1.277778,-75.12661,-6.507784)" style="color:#000;fill:url(#radialGradient4363);fill-opacity:1;fill-rule:evenodd;stroke:#888a85;stroke-width:.78260845;stroke-linecap:butt;stroke-linejoin:miter;marker:none;marker-start:none;marker-mid:none;marker-end:none;stroke-miterlimit:10;stroke-dasharray:none;stroke-dashoffset:0;stroke-opacity:1;visibility:visible;display:inline;overflow:visible" id="path4357"/><path d="M10.43 27.229a4.331 6.0988.0 11-8.6621.0 4.331 6.0988.0 118.6621.0z" transform="matrix(0.810984,-0.585069,0.585069,0.810984,-14.77791,6.947121)" style="color:#000;fill:url(#radialGradient8548);fill-opacity:1;fill-rule:evenodd;stroke:#000;stroke-width:.9999997;stroke-linecap:butt;stroke-linejoin:miter;marker:none;marker-start:none;marker-mid:none;marker-end:none;stroke-miterlimit:10;stroke-dasharray:none;stroke-dashoffset:0;stroke-opacity:1;visibility:visible;display:inline;overflow:visible" id="path5198"/><path d="M24.042 21.837a2.2981 2.2981.0 11-4.5962.0 2.2981 2.2981.0 114.5962.0z" transform="matrix(0.851852,0,0,0.851852,-3.926759,3.395528)" style="color:#000;fill:#2e3436;fill-opacity:1;fill-rule:evenodd;stroke:#000;stroke-width:1.17391276;stroke-linecap:butt;stroke-linejoin:miter;marker:none;marker-start:none;marker-mid:none;marker-end:none;stroke-miterlimit:10;stroke-dasharray:none;stroke-dashoffset:0;stroke-opacity:1;visibility:visible;display:inline;overflow:visible" id="path4359"/><path d="M6.0938 22.156c-.79825.0-1.5531.44617-2.1875 1.3438-.63437.89758-1.0938 2.2342-1.0938 3.7188S3.2719 30.04 3.9063 30.938c.63437.89758 1.3893 1.3438 2.1875 1.3438.79825.0 1.5773-.47639 2.2188-1.375C8.954 30.008 9.4063 28.7 9.4063 27.219S8.954 24.43 8.3125 23.531 6.892 22.156 6.0938 22.156z" transform="matrix(0.800389,-0.599481,0.599481,0.800389,-15.2744,7.32784)" style="opacity:.28089887;color:#000;fill:none;fill-opacity:1;fill-rule:evenodd;stroke:url(#linearGradient6458);stroke-width:1.00000012;stroke-linecap:butt;stroke-linejoin:miter;marker:none;marker-start:none;marker-mid:none;marker-end:none;stroke-miterlimit:10;stroke-dasharray:none;stroke-dashoffset:0;stroke-opacity:1;visibility:visible;display:inline;overflow:visible" id="path6450"/><path d="M5.8336 23.251a1.7678 2.1213.0 11-3.5355.0 1.7678 2.1213.0 113.5355.0z" style="color:#000;fill:#fff;fill-opacity:1;fill-rule:evenodd;stroke:none;stroke-width:.9999997;stroke-linecap:butt;stroke-linejoin:miter;marker:none;marker-start:none;marker-mid:none;marker-end:none;stroke-miterlimit:10;stroke-dasharray:none;stroke-dashoffset:0;stroke-opacity:1;visibility:visible;display:inline;overflow:visible" id="path6446"/><path d="M23.158 20.953a1.7678 1.7678.0 11-3.5355.0 1.7678 1.7678.0 113.5355.0z" transform="matrix(0.766666,0,0,0.766666,-2.556414,5.029841)" style="color:#000;fill:#fff;fill-opacity:1;fill-rule:evenodd;stroke:none;stroke-width:.9999997;stroke-linecap:butt;stroke-linejoin:miter;marker:none;marker-start:none;marker-mid:none;marker-end:none;stroke-miterlimit:10;stroke-dasharray:none;stroke-dashoffset:0;stroke-opacity:1;visibility:visible;display:inline;overflow:visible" id="path4361"/><path d="M72.655 21.837a3.182 3.182.0 11-6.364.0 3.182 3.182.0 116.364.0z" transform="matrix(1.5,0,0,1.5,-82.16821,-10.91852)" style="color:#000;fill:url(#radialGradient6474);fill-opacity:1;fill-rule:evenodd;stroke:#888a85;stroke-width:.66666645;stroke-linecap:butt;stroke-linejoin:miter;marker:none;marker-start:none;marker-mid:none;marker-end:none;stroke-miterlimit:10;stroke-dasharray:none;stroke-dashoffset:0;stroke-opacity:1;visibility:visible;display:inline;overflow:visible" id="path6462"/><path d="M24.042 21.837a2.2981 2.2981.0 11-4.5962.0 2.2981 2.2981.0 114.5962.0z" transform="translate(1.414216,0.707108)" style="color:#000;fill:#2e3436;fill-opacity:1;fill-rule:evenodd;stroke:#000;stroke-width:.9999997;stroke-linecap:butt;stroke-linejoin:miter;marker:none;marker-start:none;marker-mid:none;marker-end:none;stroke-miterlimit:10;stroke-dasharray:none;stroke-dashoffset:0;stroke-opacity:1;visibility:visible;display:inline;overflow:visible" id="path6464"/><path d="M23.158 20.953a1.7678 1.7678.0 11-3.5355.0 1.7678 1.7678.0 113.5355.0z" transform="matrix(0.9,0,0,0.9,3.022883,2.625648)" style="color:#000;fill:#fff;fill-opacity:1;fill-rule:evenodd;stroke:none;stroke-width:.9999997;stroke-linecap:butt;stroke-linejoin:miter;marker:none;marker-start:none;marker-mid:none;marker-end:none;stroke-miterlimit:10;stroke-dasharray:none;stroke-dashoffset:0;stroke-opacity:1;visibility:visible;display:inline;overflow:visible" id="path6466"/><g transform="matrix(-0.114852,-0.389864,0.389864,-0.114852,24.71507,29.68942)" id="g8463"><path d="M-23.364 23.568-19.654 27.038C-11.307 20.657-2.56 6.9381-2.56 6.9381-.58372 4.6957-2.677 3.1877-4.7249 4.5402c0 0-12.97 10.115-18.639 19.028z" style="opacity:1;color:#000;fill:url(#linearGradient6957);fill-opacity:1;fill-rule:nonzero;stroke:#673907;stroke-width:2.46045303;stroke-linecap:round;stroke-linejoin:miter;marker:none;marker-start:none;marker-mid:none;marker-end:none;stroke-miterlimit:4;stroke-dasharray:none;stroke-dashoffset:0;stroke-opacity:1;visibility:visible;display:inline;overflow:visible" id="path6937"/><path d="M-30.45 32.814-28.203 34.748l8.4928-7.367.27506-.70583L-18.341 26.657c-.4375-1.5625-2.9415-4.3835-4.8165-4.3835L-23.076 23.364-23.746 23.744-30.45 32.814z" style="opacity:1;color:#000;fill:url(#linearGradient6945);fill-opacity:1;fill-rule:nonzero;stroke:#888a85;stroke-width:2.46045303;stroke-linecap:round;stroke-linejoin:miter;marker:none;marker-start:none;marker-mid:none;marker-end:none;stroke-miterlimit:4;stroke-dasharray:none;stroke-dashoffset:0;stroke-opacity:1;visibility:visible;display:inline;overflow:visible" id="path6935"/><path d="M-23.801 28.377-28.166 33.643" style="opacity:1;color:#000;fill:none;fill-opacity:1;fill-rule:nonzero;stroke:#fff;stroke-width:2.46045327;stroke-linecap:round;stroke-linejoin:round;marker:none;marker-start:none;marker-mid:none;marker-end:none;stroke-miterlimit:4;stroke-dasharray:none;stroke-dashoffset:0;stroke-opacity:1;visibility:visible;display:inline;overflow:visible" id="path6985"/><path d="M-45.341 42.77c10.444.0 18.37 1.2437 19.871-6.3547 1.2092-6.1233-7.2105-9.0574-11.383-3.5909C-40.873 38.09-45.341 42.77-45.341 42.77z" style="opacity:1;color:#000;fill:url(#radialGradient6969);fill-opacity:1;fill-rule:nonzero;stroke:none;stroke-width:.2;stroke-linecap:round;stroke-linejoin:miter;marker:none;marker-start:none;marker-mid:none;marker-end:none;stroke-miterlimit:4;stroke-dasharray:none;stroke-dashoffset:0;stroke-opacity:1;visibility:visible;display:inline;overflow:visible" id="path6933"/><path d="M8.875 37.75a1.25 1.25.0 11-2.5.0 1.25 1.25.0 112.5.0z" transform="matrix(2.069903,-2.005828e-15,-1.697698e-15,2.069903,-44.75012,-41.50978)" style="opacity:.52777782;color:#000;fill:#fff;fill-opacity:1;fill-rule:nonzero;stroke:none;stroke-width:1;stroke-linecap:round;stroke-linejoin:miter;marker:none;marker-start:none;marker-mid:none;marker-end:none;stroke-miterlimit:4;stroke-dasharray:none;stroke-dashoffset:0;stroke-opacity:1;visibility:visible;display:inline;overflow:visible" id="path6971"/><path d="M8.875 37.75a1.25 1.25.0 11-2.5.0 1.25 1.25.0 112.5.0z" transform="matrix(1.396669,6.090506e-16,8.67172e-16,1.396669,-32.05526,-25.87664)" style="opacity:1;color:#000;fill:#fff;fill-opacity:1;fill-rule:nonzero;stroke:none;stroke-width:1;stroke-linecap:round;stroke-linejoin:miter;marker:none;marker-start:none;marker-mid:none;marker-end:none;stroke-miterlimit:4;stroke-dasharray:none;stroke-dashoffset:0;stroke-opacity:1;visibility:visible;display:inline;overflow:visible" id="path6983"/><path d="M-38.544 40.909s3.7215.0943 6.1165-1.412c.84735-.53292 1.5158.64999.49382 1.0874-2.2074.94473-6.6104.32463-6.6104.32463z" style="opacity:.42777776;color:#000;fill:url(#linearGradient2452);fill-opacity:1;fill-rule:nonzero;stroke:none;stroke-width:1;stroke-linecap:round;stroke-linejoin:miter;marker:none;marker-start:none;marker-mid:none;marker-end:none;stroke-miterlimit:4;stroke-dasharray:none;stroke-dashoffset:0;stroke-opacity:1;visibility:visible;display:inline;overflow:visible" id="path1571"/></g><path d="M23.003 31.737C24.5 31.88 25.853 31.464 26.415 31.262 26.513 30.707 26.952 29.641 28.461 29.571L27.931 28.643S25.964 29.991 23.865 30.389L23.003 31.737z" style="color:#000;fill:url(#linearGradient4330);fill-opacity:1;fill-rule:evenodd;stroke:none;stroke-width:.9999997;stroke-linecap:butt;stroke-linejoin:miter;marker:none;marker-start:none;marker-mid:none;marker-end:none;stroke-miterlimit:10;stroke-dasharray:none;stroke-dashoffset:0;stroke-opacity:1;visibility:visible;display:inline;overflow:visible" id="path8532"/></g></svg>