<svg xmlns:dc="http://purl.org/dc/elements/1.1/" xmlns:cc="http://creativecommons.org/ns#" xmlns:rdf="http://www.w3.org/1999/02/22-rdf-syntax-ns#" xmlns:svg="http://www.w3.org/2000/svg" xmlns="http://www.w3.org/2000/svg" xmlns:xlink="http://www.w3.org/1999/xlink" xmlns:sodipodi="http://sodipodi.sourceforge.net/DTD/sodipodi-0.dtd" xmlns:inkscape="http://www.inkscape.org/namespaces/inkscape" width="48" height="48" id="svg2" inkscape:version="0.91 r13725" sodipodi:docname="kdevelop.svg"><sodipodi:namedview pagecolor="#ffffff" bordercolor="#666666" borderopacity="1" objecttolerance="10" gridtolerance="10" guidetolerance="10" inkscape:pageopacity="0" inkscape:pageshadow="2" inkscape:window-width="1440" inkscape:window-height="826" id="namedview43" showgrid="false" inkscape:zoom="11.314" inkscape:cx="23.117" inkscape:cy="21.885" inkscape:window-x="1920" inkscape:window-y="0" inkscape:window-maximized="1" inkscape:current-layer="layer1"/><defs id="defs2987"><linearGradient inkscape:collect="always" id="linearGradient4227-4"><stop style="stop-color:#292c2f" id="stop4229-6"/><stop offset="1" style="stop-opacity:0" id="stop4231-9"/></linearGradient><linearGradient inkscape:collect="always" xlink:href="#linearGradient4899" id="linearGradient4282" y1="13.444" x1="17.03" y2="29.398" x2="34.764" gradientUnits="userSpaceOnUse" gradientTransform="matrix(1 0 0 1 -53.39388 -40.970562)"/><linearGradient inkscape:collect="always" id="linearGradient4331"><stop style="stop-color:#7ceca4;stop-opacity:1" id="stop4333"/><stop offset="1" style="stop-color:#e5fbf7;stop-opacity:1" id="stop4335"/></linearGradient><linearGradient inkscape:collect="always" id="linearGradient4899"><stop style="stop-color:#375a7d;stop-opacity:1" id="stop4901"/><stop offset="1" style="stop-color:#377d50;stop-opacity:1" id="stop4903"/></linearGradient><linearGradient inkscape:collect="always" id="linearGradient4298"><stop style="stop-color:#338173;stop-opacity:1" id="stop4300"/><stop offset="1" style="stop-color:#54d883;stop-opacity:1" id="stop4302-2"/></linearGradient><linearGradient inkscape:collect="always" xlink:href="#linearGradient4458-3" id="linearGradient4464" x1="-44.394" x2="-14.394" gradientUnits="userSpaceOnUse" gradientTransform="translate(58.787754,33.941125)"/><linearGradient inkscape:collect="always" xlink:href="#linearGradient4298" id="linearGradient4282-1" y1="14.811" x1="9.4989" y2="30.252" x2="36.243" gradientUnits="userSpaceOnUse" gradientTransform="matrix(0.92307688 0 0 0.92307688 -51.54772 -39.12441)"/><linearGradient inkscape:collect="always" xlink:href="#linearGradient4331" id="linearGradient4508" x1="13.864" x2="27.054" gradientUnits="userSpaceOnUse" y1="27.051" y2="27.051"/><linearGradient inkscape:collect="always" xlink:href="#linearGradient4227-4" id="linearGradient4246" x1="24" y1="23" x2="40" y2="39" gradientUnits="userSpaceOnUse"/><linearGradient inkscape:collect="always" xlink:href="#linearGradient4458-3" id="linearGradient4472-7" y1="15.778" x1="3.2417" y2="37" x2="40" gradientUnits="userSpaceOnUse" gradientTransform="matrix(-0.96592583,-0.25881905,0.25881905,-0.96592583,40.970563,53.393877)"/><linearGradient inkscape:collect="always" id="linearGradient4458-3"><stop style="stop-color:#b0b8b8;stop-opacity:1" id="stop4460-2"/><stop offset="1" style="stop-color:#eff1f1;stop-opacity:1" id="stop4462-4"/></linearGradient></defs><g inkscape:label="Layer 1" inkscape:groupmode="layer" id="layer1"><circle cx="29.394" cy="16.971" r="15" id="path4212-7" style="fill:url(#linearGradient4464);color:#000;stroke-linecap:round;stroke-linejoin:round;stroke-width:3;fill-opacity:1" transform="matrix(0.96592583 0.25881905 -0.25881905 0.96592583 0 0)"/><g id="g4194"><path d="m21.952 43.884a20 20 0 004.0971.0059L26.524 40.79a17 17 0 003.6873-.98547l1.9563 2.4411a20 20 0 003.549-2.0538l-1.135-2.9105a17 17 0 002.7098-2.6952l2.8928 1.127a20 20 0 002.0501-3.5534l-2.4219-1.941A17 17 0 0040.421 28.4 17 17 0 0040.79 26.523l3.0937-.47526a20 20 0 00.0059-4.0971L40.79 21.476A17 17 0 0039.804 17.789l2.4411-1.9563a20 20 0 00-2.0538-3.549l-2.9105 1.135A17 17 0 0034.586 10.709L35.713 7.816A20 20 0 0032.159 5.7659L30.218 8.1879A17 17 0 0028.4 7.5793 17 17 0 0026.523 7.2099L26.048 4.1162A20 20 0 0021.951 4.1103L21.476 7.2103A17 17 0 0017.789 8.1957L15.833 5.7547a20 20 0 00-3.549 2.0538l1.135 2.9105A17 17 0 0010.709 13.414L7.816 12.287A20 20 0 005.7659 15.841l2.4219 1.941A17 17 0 007.5793 19.6 17 17 0 007.2099 21.477l-3.0937.47526A20 20 0 004.1103 26.049l3.0999.47475a17 17 0 00.98547 3.6873L5.7547 32.167a20 20 0 002.0538 3.549l2.9105-1.135a17 17 0 002.6952 2.7098l-1.127 2.8928a20 20 0 003.5534 2.0501l1.941-2.4219A17 17 0 0019.6 40.421a17 17 0 001.8765.36937l.47526 3.0937zM20.377 37.523A14 14 0 0110.477 20.377a14 14 0 0117.146-9.8995 14 14 0 019.8995 17.146A14 14 0 0120.377 37.523z" id="path4162-5-1" style="color:#000;fill:url(#linearGradient4472-7);stroke-width:3;stroke-linecap:round;stroke-linejoin:round" inkscape:connector-curvature="0"/><path id="rect4204" d="M33.193 14.807 14.807 33.193 25.543 43.928c.16861-.0128.33754-.02002.50586-.03711l.47461-3.1016C27.786 40.6 29.023 40.271 30.211 39.805l1.957 2.4414c1.2502-.5612 2.4393-1.2503 3.5488-2.0547L34.582 37.281c1.0017-.79368 1.9099-1.6979 2.709-2.6953l2.8926 1.127c.80335-1.1111 1.491-2.3011 2.0508-3.5527L39.813 30.219C40.049 29.625 40.251 29.018 40.42 28.4c.15824-.61809.28328-1.245.37109-1.877l3.0918-.47461c.01771-.16959.02766-.33988.04102-.50977L33.193 14.807z" style="color:#000;clip-rule:nonzero;display:inline;overflow:visible;visibility:visible;opacity:.2;isolation:auto;mix-blend-mode:normal;color-interpolation:sRGB;color-interpolation-filters:linearRGB;solid-color:#000000;solid-opacity:1;fill:url(#linearGradient4246);fill-opacity:1;fill-rule:evenodd;stroke:none;stroke-width:2;stroke-linecap:round;stroke-linejoin:bevel;stroke-miterlimit:4;stroke-dasharray:none;stroke-dashoffset:0;stroke-opacity:1;marker:none;color-rendering:auto;image-rendering:auto;shape-rendering:auto;text-rendering:auto;enable-background:accumulate" inkscape:connector-curvature="0"/><path sodipodi:nodetypes="ccccccccccccccccccccccccccccccccccccccccccccccccccccccccccccccccccccccc" inkscape:connector-curvature="0" id="path4162-6" d="m41.883 15.123-2.0781 1.666c.09619.25884.18606.51999.26953.7832l2.1719-1.7402C42.13 15.593 42.009 15.357 41.883 15.123zM6.125 15.129c-.1245.23457-.24432.4716-.35938.71094l2.1543 1.7266c.082793-.26386.17201-.52565.26758-.78516zM4.0332 23.49C4.0039 24.344 4.0294 25.198 4.1094 26.049l3.1016.47461c.15249.98722.3917 1.9591.71484 2.9043l.26953-.2168c-.4655-1.1883-.79571-2.4253-.98438-3.6875L4.1094 25.049C4.0637 24.53 4.0383 24.011 4.0332 23.49zm39.934.01953c-.0082.51391-.03622 1.0273-.08398 1.5391l-3.0918.47461C40.703 26.156 40.579 26.782 40.42 27.4c-.16811.61706-.37091 1.2241-.60742 1.8184l.26758.21484C40.204 29.093 40.318 28.748 40.42 28.4c.15884-.61819.28273-1.2448.37109-1.877l3.0918-.47461c.08177-.84372.10982-1.6918.08398-2.5391zM41.875 31.871c-.48438.99234-1.0501 1.9428-1.6914 2.8418l-2.8926-1.127c-.79882.9974-1.7076 1.9015-2.709 2.6953l.29102.74414c.88628-.72943 1.6964-1.5468 2.418-2.4395l2.8926 1.127C40.987 34.602 41.674 33.412 42.234 32.16zm-35.758.0059-.36328.29102c.56149 1.2502 1.25 2.4394 2.0547 3.5488L10.719 34.582c.71462.90136 1.5189 1.7279 2.4004 2.4668l.29492-.75781c-.9974-.79882-1.9015-1.7076-2.6953-2.709L7.8086 34.717C7.1674 33.818 6.6017 32.869 6.1172 31.877zm24.094 6.9277c-1.1883.4655-2.4253.79571-3.6875.98437L26.049 42.891c-1.3626.1377-2.7356.13509-4.0977-.0078L21.477 39.791C20.844 39.703 20.218 39.579 19.6 39.42 18.983 39.252 18.375 39.049 17.781 38.813L15.84 41.234C14.704 40.721 13.618 40.102 12.598 39.387l-.31055.79688c1.1108.80356 2.3013 1.4908 3.5527 2.0508L17.781 39.813c.59421.23652 1.2013.43931 1.8184.60742.61819.15884 1.2448.28273 1.877.37109l.47461 3.0918c1.362.14289 2.7351.1455 4.0977.0078l.47461-3.1016C27.786 40.6 29.023 40.27 30.211 39.805l1.957 2.4414c1.2502-.56149 2.4394-1.25 3.5488-2.0547L35.406 39.396c-1.0195.71605-2.1036 1.3353-3.2383 1.8496l-1.957-2.4414z" style="color:#000;opacity:.2;fill:#172525;stroke-width:3;stroke-linecap:round;stroke-linejoin:round"/></g><circle cx="-29.394" cy="-16.971" r="13" id="path4212" style="fill:url(#linearGradient4282);color:#000;stroke-linecap:round;stroke-linejoin:round;stroke-width:3" transform="matrix(-0.96592583 -0.25881905 0.25881905 -0.96592583 0 0)"/><circle cx="-29.394" cy="-16.971" r="12" id="path4212-9" style="fill:url(#linearGradient4282-1);color:#000;stroke-linecap:round;stroke-linejoin:round;stroke-width:3" transform="matrix(-0.96592583 -0.25881905 0.25881905 -0.96592583 0 0)"/><path inkscape:connector-curvature="0" style="fill:url(#linearGradient4508);color:#000;stroke-linecap:round;stroke-linejoin:round;stroke-width:3" id="path4498" d="m24.171 24.206C27.028 27.93 27.479 32.381 25.177 34.148c-2.3018 1.7662-6.9653.28759-9.823-3.4367-2.8578-3.7243-2.8277-8.2841-.52591-10.05C17.13 18.894 21.313 20.482 24.171 24.206z"/><path inkscape:connector-curvature="0" style="fill:#334545;fill-rule:evenodd" id="path4510" d="m15 28 4 4 2-6z"/></g></svg>