<svg xmlns:dc="http://purl.org/dc/elements/1.1/" xmlns:cc="http://creativecommons.org/ns#" xmlns:rdf="http://www.w3.org/1999/02/22-rdf-syntax-ns#" xmlns:svg="http://www.w3.org/2000/svg" xmlns="http://www.w3.org/2000/svg" xmlns:sodipodi="http://sodipodi.sourceforge.net/DTD/sodipodi-0.dtd" xmlns:inkscape="http://www.inkscape.org/namespaces/inkscape" id="Layer_1" width="469.86" height="110.33" viewBox="0 0 469.86 110.33" enable-background="new 0 0 612 792" inkscape:version="0.48.4 r9939" sodipodi:docname="Eclipse2014_RGB.svg"><defs id="defs66"/><sodipodi:namedview pagecolor="#ffffff" bordercolor="#666666" borderopacity="1" objecttolerance="10" gridtolerance="10" guidetolerance="10" inkscape:pageopacity="0" inkscape:pageshadow="2" inkscape:window-width="1301" inkscape:window-height="744" id="namedview64" showgrid="false" fit-margin-top="0" fit-margin-left="0" fit-margin-right="0" fit-margin-bottom="0" inkscape:zoom="2.3838" inkscape:cx="145.58" inkscape:cy="37.992" inkscape:window-x="65" inkscape:window-y="24" inkscape:window-maximized="1" inkscape:current-layer="Layer_1"/><path d="M30.054 69.273H13.31c2.217 7.605 6.331 14.421 12.354 20.445 9.602 9.603 21.148 14.398 34.65 14.398 2.699.0 5.314-.201 7.854-.584 10.17-1.535 19.074-6.133 26.703-13.814 6.062-6.022 10.205-12.84 12.439-20.445h-6.795-9.936-60.525z" id="path3" inkscape:connector-curvature="0" style="fill:#2c2255"/><g id="g5" transform="translate(-71.07,-323.66299)"><path d="m91.891 370.19h-8.747c-.32 1.922-.538 3.884-.637 5.896h10.396 5.215 75.275 6.871c-.1-2.012-.318-3.974-.641-5.896" id="path7" inkscape:connector-curvature="0" style="fill:#2c2255"/><path d="m82.507 381.57c.099 2.013.316 3.975.637 5.896h9.094 6.893 73.648 6.846c.322-1.921.542-3.883.642-5.896" id="path9" inkscape:connector-curvature="0" style="fill:#2c2255"/></g><path d="m107.31 41.055c-2.232-7.626-6.376-14.474-12.441-20.54-7.609-7.609-16.488-12.174-26.625-13.71-2.564-.389-5.205-.593-7.932-.593-13.502.0-25.049 4.769-34.65 14.303-6.025 6.066-10.141 12.914-12.357 20.54" id="path11" inkscape:connector-curvature="0" style="fill:#2c2255"/><g id="g13" transform="translate(-71.07,-323.66299)"><path d="m79.6 378.83c0-25.824 19.395-47.281 44.626-51.055-.626-.023-1.255-.048-1.887-.048-28.314.0-51.269 22.88-51.269 51.103.0 28.224 22.954 51.103 51.269 51.103.634.0 1.263-.024 1.891-.047C98.995 426.11 79.6 404.65 79.6 378.83z" id="path15" inkscape:connector-curvature="0" style="fill:#f7941e"/></g><rect x="279.59" y="-.55064e-6" width="10.197" height="12.912" id="rect17" style="fill:#f7941e"/><path d="m194.46 53.136v4.986H147.57c.442 7.023 2.558 12.369 6.345 16.044 3.788 3.678 9.062 5.514 15.822 5.514 3.916.0 7.712-.479 11.39-1.438 3.676-.959 7.322-2.402 10.945-4.324v9.645c-3.658 1.552-7.408 2.734-11.251 3.548-3.843.812-7.74 1.219-11.693 1.219-9.901.0-17.743-2.881-23.525-8.646-5.782-5.764-8.673-13.556-8.673-23.384.0-10.16 2.743-18.225 8.229-24.191 5.486-5.966 12.886-8.951 22.195-8.951 8.351.0 14.954 2.688 19.812 8.064 4.86 5.371 7.289 12.678 7.289 21.914m-10.197-2.992c-.075-5.578-1.636-10.031-4.683-13.355-3.049-3.326-7.085-4.988-12.109-4.988-5.69.0-10.244 1.607-13.661 4.822-3.418 3.213-5.385 7.74-5.902 13.576l36.355-.055z" id="path19" inkscape:connector-curvature="0" style="fill:#2c2255"/><path d="m247.35 27.035v9.531c-2.883-1.588-5.773-2.779-8.673-3.574-2.902-.795-5.829-1.191-8.785-1.191-6.614.0-11.749 2.096-15.405 6.289C210.83 42.283 209 48.168 209 55.74c0 7.574 1.829 13.459 5.487 17.652 3.656 4.195 8.791 6.289 15.405 6.289 2.956.0 5.883-.396 8.785-1.188 2.898-.795 5.79-1.986 8.673-3.576v9.42c-2.846 1.33-5.793 2.328-8.84 2.992-3.05.666-6.289.998-9.727.998-9.348.0-16.773-2.938-22.277-8.812-5.506-5.873-8.258-13.798-8.258-23.775.0-10.121 2.779-18.084 8.34-23.885 5.56-5.799 13.182-8.701 22.859-8.701 3.142.0 6.208.326 9.201.971 2.993.646 5.893 1.617 8.702 2.91" id="path21" inkscape:connector-curvature="0" style="fill:#2c2255"/><rect x="256.57" y=".48801" width="10.199" height="86.232" id="rect23" style="fill:#2c2255"/><path d="m279.59 24.65h10.197v62.07H279.59V24.65z" id="path25" inkscape:connector-curvature="0" style="fill:#2c2255"/><path d="M312.48 77.409v32.92H302.23V24.65h10.252v9.422c2.144-3.693 4.852-6.438 8.12-8.23 3.27-1.789 7.177-2.688 11.721-2.688 7.538.0 13.662 2.992 18.371 8.979 4.711 5.986 7.065 13.855 7.065 23.607.0 9.756-2.354 17.625-7.065 23.609-4.709 5.984-10.833 8.979-18.371 8.979-4.544.0-8.451-.896-11.721-2.689-3.27-1.79-5.978-4.534-8.12-8.23M347.17 55.74c0-7.5-1.543-13.383-4.628-17.65s-7.324-6.4-12.72-6.4c-5.395.0-9.635 2.133-12.718 6.4-3.085 4.268-4.629 10.15-4.629 17.65.0 7.502 1.544 13.387 4.629 17.652 3.083 4.269 7.323 6.4 12.718 6.4 5.396.0 9.635-2.133 12.72-6.4 3.085-4.265 4.628-10.15 4.628-17.652" id="path27" inkscape:connector-curvature="0" style="fill:#2c2255"/><path d="m405.72 26.48v9.643c-2.884-1.477-5.875-2.586-8.979-3.326-3.104-.738-6.318-1.107-9.643-1.107-5.062.0-8.857.775-11.39 2.328-2.531 1.551-3.794 3.879-3.794 6.982.0 2.363.902 4.221 2.714 5.57 1.81 1.348 5.448 2.631 10.918 3.852l3.49.775c7.241 1.553 12.387 3.74 15.435 6.568 3.049 2.826 4.573 6.77 4.573 11.83.0 5.764-2.282 10.326-6.847 13.689-4.562 3.36-10.833 5.043-18.813 5.043-3.324.0-6.789-.324-10.393-.969-3.603-.646-7.396-1.617-11.389-2.91V73.917c3.771 1.961 7.482 3.428 11.14 4.408 3.658.979 7.278 1.467 10.862 1.467 4.804.0 8.496-.82 11.084-2.465 2.587-1.646 3.878-3.963 3.878-6.955.0-2.771-.932-4.895-2.796-6.375-1.867-1.477-5.959-2.9-12.278-4.268l-3.545-.83c-6.317-1.33-10.881-3.371-13.688-6.123-2.808-2.752-4.212-6.529-4.212-11.334.0-5.838 2.069-10.344 6.207-13.521 4.138-3.178 10.013-4.768 17.623-4.768 3.769.0 7.315.277 10.641.83 3.327.558 6.393 1.388 9.202 2.497" id="path29" inkscape:connector-curvature="0" style="fill:#2c2255"/><path d="m469.86 53.136v4.986H422.98c.443 7.023 2.558 12.369 6.347 16.044 3.785 3.678 9.062 5.514 15.82 5.514 3.918.0 7.713-.479 11.39-1.438 3.677-.959 7.323-2.402 10.946-4.324v9.645c-3.659 1.552-7.409 2.734-11.252 3.548-3.841.812-7.739 1.219-11.69 1.219-9.904.0-17.745-2.881-23.525-8.646-5.784-5.764-8.675-13.556-8.675-23.384.0-10.16 2.744-18.225 8.229-24.191 5.486-5.967 12.888-8.951 22.196-8.951 8.349.0 14.954 2.688 19.812 8.064 4.857 5.371 7.287 12.678 7.287 21.914m-10.197-2.992c-.076-5.578-1.635-10.031-4.685-13.355-3.049-3.326-7.086-4.988-12.107-4.988-5.689.0-10.244 1.607-13.66 4.822-3.418 3.213-5.388 7.74-5.903 13.576l36.355-.055z" id="path31" inkscape:connector-curvature="0" style="fill:#2c2255"/><g id="g33" transform="translate(-71.07,-323.66299)"><linearGradient id="SVGID_1_" gradientUnits="userSpaceOnUse" x1="131.39" y1="358.58" x2="131.39" y2="432.21" gradientTransform="matrix(1,0,0,-1,0,793)"><stop offset=".3033" style="stop-color:#473788" id="stop36"/><stop offset=".872" style="stop-color:#2C2255" id="stop38"/></linearGradient><path d="m164.65 376.09c-.164-2.021-.504-3.992-1.012-5.896h-64.51c-.508 1.903-.849 3.874-1.013 5.896h66.535z" id="path40" inkscape:connector-curvature="0" style="fill:url(#SVGID_1_)"/><linearGradient id="SVGID_2_" gradientUnits="userSpaceOnUse" x1="131.39" y1="358.58" x2="131.39" y2="432.21" gradientTransform="matrix(1,0,0,-1,0,793)"><stop offset=".3033" style="stop-color:#473788" id="stop43"/><stop offset=".872" style="stop-color:#2C2255" id="stop45"/></linearGradient><path d="M164.65 381.57H98.119c.164 2.021.503 3.992 1.012 5.896h64.511c.508-1.904.847-3.875 1.011-5.896z" id="path47" inkscape:connector-curvature="0" style="fill:url(#SVGID_2_)"/><linearGradient id="SVGID_3_" gradientUnits="userSpaceOnUse" x1="131.39" y1="358.58" x2="131.39" y2="432.21" gradientTransform="matrix(1,0,0,-1,0,793)"><stop offset=".3033" style="stop-color:#473788" id="stop50"/><stop offset=".8631" style="stop-color:#2C2255" id="stop52"/></linearGradient><path d="m131.39 412.22c13.397.0 24.945-7.893 30.263-19.281H101.12c5.318 11.388 16.866 19.281 30.263 19.281z" id="path54" inkscape:connector-curvature="0" style="fill:url(#SVGID_3_)"/></g><g id="g56" transform="translate(-71.07,-323.66299)"><path d="m93.188 381.57h4.884 66.706 8.763 6.657c.046-.871.072-1.748.072-2.631.0-.955-.035-1.902-.089-2.845H173.54 164.78 98.071 92.842 82.507c-.054.942-.089 1.89-.089 2.845.0.883.026 1.76.072 2.631h10.698z" id="path58" inkscape:connector-curvature="0" style="fill:#fff"/><path d="M100.93 364.72H84.376c-.544 1.783-.895 3.612-1.232 5.476h8.525 7.259 64.679 9.16 6.547c-.338-1.863-.773-3.692-1.316-5.476" id="path60" inkscape:connector-curvature="0" style="fill:#fff"/><path d="m173.03 387.46h-9.16-64.678-6.912-9.133c.328 1.863.701 3.691 1.236 5.476h16.807 60.682 9.962 6.488c.534-1.784.965-3.612 1.294-5.476h-6.586z" id="path62" inkscape:connector-curvature="0" style="fill:#fff"/></g></svg>