<svg xmlns:dc="http://purl.org/dc/elements/1.1/" xmlns:cc="http://creativecommons.org/ns#" xmlns:rdf="http://www.w3.org/1999/02/22-rdf-syntax-ns#" xmlns:svg="http://www.w3.org/2000/svg" xmlns="http://www.w3.org/2000/svg" xmlns:xlink="http://www.w3.org/1999/xlink" width="544.17" height="544.86"><g id="layer1" transform="translate(-69.980994,-160.33288)"><g id="g3699" transform="matrix(1.532388,0,0,1.3939671,-54.912136,-41.792396)"><path id="path2836" d="M260.51 170.7 105.98 340.79 259.86 510.18l154.52-170.1L260.51 170.7z" style="fill:#019833;fill-opacity:1;stroke:#000;stroke-width:.94571567px;stroke-linecap:butt;stroke-linejoin:miter;stroke-opacity:1"/><path id="path2838" d="m259.86 171.4V156.52L91.819 341.5h14.165l153.88-170.1z" style="fill:#66fe98;fill-opacity:1;stroke:#000;stroke-width:.94571567px;stroke-linecap:butt;stroke-linejoin:miter;stroke-opacity:1"/><path style="fill:#45fe02;fill-opacity:1;stroke:#000;stroke-width:.94571567px;stroke-linecap:butt;stroke-linejoin:miter;stroke-opacity:1" d="m259.48 171.4V156.52L427.52 341.5H413.36L259.48 171.4z" id="path2840"/><path style="fill:#017d17;fill-opacity:1;stroke:#000;stroke-width:.94571567px;stroke-linecap:butt;stroke-linejoin:miter;stroke-opacity:1" d="m259.86 511.17v14.883L91.819 341.07h14.165l153.88 170.1z" id="path2842"/><path id="path3650" d="m122.99 175.31h108.35l6.6014 7.2667v22.301L232.71 211.89H220.88v110.75l101.98-110.75H306.01L300.09 204.87V181.32l5.4632-5.5126h109.72l5.4632 6.0138v22.051L172.62 484.01H144.39L136.22 478.82V210.89H122.54l-5.008-5.5126V181.82l5.4632-6.5149z" style="fill:none;stroke:#000;stroke-width:18.91431427;stroke-linecap:butt;stroke-linejoin:miter;stroke-miterlimit:4;stroke-opacity:1;stroke-dasharray:none"/><path id="path2844" d="m259.48 511.17v14.883l168.04-184.98H413.36l-153.88 170.1z" style="fill:#005d04;fill-opacity:1;stroke:#000;stroke-width:.94571567px;stroke-linecap:butt;stroke-linejoin:miter;stroke-opacity:1"/><path style="fill:none;stroke:#000;stroke-width:5.67429399;stroke-linecap:butt;stroke-linejoin:miter;stroke-miterlimit:4;stroke-opacity:1;stroke-dasharray:none" d="M259.41 155.15 90.734 340.82l167.97 184.9L427.38 340.05 259.41 155.15z" id="path2846"/><path id="path3640" d="m232.5 186.64L238.62 183.1 232.34 176.19H123.05L117.49 182.3v23.122L123.65 212.2l2.9376-6.7773-3.8631-4.2524V184.87l2.8973-2.8349h104.3L232.5 186.64z" style="fill:#fefefe;fill-opacity:1;stroke:#000;stroke-width:.94571567px;stroke-linecap:butt;stroke-linejoin:miter;stroke-opacity:1"/><path transform="matrix(0.90138601,0,0,0.99222542,-437.42287,-185.30615)" d="m828.94 369.5-4.2813 4.2813V389.5l3.75 3.75h19.813v15.188L717.16 541.28V393.44h21.781l4.4688-4.4688V373.06l-4.125-3.1875H624.66l-3.75 3.75v16.25l3.8125 3.8125h19.938v272.25l3.75 3.75h22.656l274.66-283.41v-12.5L941.44 369.5h-112.5z" id="path3632" style="fill:none;stroke:#000;stroke-width:1px;stroke-linecap:butt;stroke-linejoin:miter;stroke-opacity:1"/><path id="path3646" d="m143.48 204.87v270.62L146.67 479.5l-2.4992 5.243L137.11 477V211.89z" style="fill:#fefefe;fill-opacity:1;stroke:#000;stroke-width:.94571567px;stroke-linecap:butt;stroke-linejoin:miter;stroke-opacity:1"/><path id="path3644" d="m125.82 204.87L124 211.39h13.203l7.2843-6.5149H125.82z" style="fill:gray;fill-opacity:1;stroke:#000;stroke-width:.94571567px;stroke-linecap:butt;stroke-linejoin:miter;stroke-opacity:1"/><path id="path3638" d="m307.19 212.19 2.8973-6.5558-4.185-4.2524V186.85l4.8289-5.3155h100.76l3.8631 5.6699 5.4727-4.2524-5.6337-6.2014H306.86L301.47 182.69v23.3l5.5934 5.8028M219.52 323.67 209 351.78l118.79-131.12V205.07l-108.27 118.6z" style="fill:#fefefe;fill-opacity:1;stroke:#000;stroke-width:.94571567px;stroke-linecap:butt;stroke-linejoin:miter;stroke-opacity:1"/><path id="path3642" d="m232.26 185.83 5.2356-3.7586v22.802L231.46 211.51H219.74V323.9L209.04 351.71V204.87h19.577l3.6421-3.2575V185.83z" style="fill:gray;fill-opacity:1;stroke:#000;stroke-width:.94571567px;stroke-linecap:butt;stroke-linejoin:miter;stroke-opacity:1"/><path transform="matrix(0.90138601,0,0,0.99222542,-437.42287,-185.30615)" d="m828.94 369.5-4.2813 4.2813V389.5l3.75 3.75h19.813v15.188L717.16 541.28V393.44h21.781l4.4688-4.4688V373.06l-4.125-3.1875H624.66l-3.75 3.75v16.25l3.8125 3.8125h19.938v272.25l3.75 3.75h22.656l274.66-283.41v-12.5L941.44 369.5h-112.5z" id="path3622" style="fill:#ccc;fill-opacity:1;stroke:#000;stroke-width:1px;stroke-linecap:butt;stroke-linejoin:miter;stroke-opacity:1"/><path id="path3636" d="m415.35 185.93 5.4985-3.4945v21.922L171.46 484.88H144.98l2.5297-5.5331h20.281l247.24-281.01z" style="fill:gray;fill-opacity:1;stroke:#000;stroke-width:.94571567px;stroke-linecap:butt;stroke-linejoin:miter;stroke-opacity:1"/><path id="path3652" d="m327.3 205.25-5.577 6.3897H307.15l3.4145-6.3897c.11382.0 16.731.0 16.731.0z" style="fill:gray;fill-opacity:1;stroke:#000;stroke-width:.94571567px;stroke-linecap:butt;stroke-linejoin:miter;stroke-opacity:1"/><g transform="matrix(0.90138601,0,0,0.99222542,-92.530288,-192.23791)" id="g3673"><path style="fill:#ccc;fill-opacity:1;stroke:#000;stroke-width:8;stroke-linecap:butt;stroke-linejoin:miter;stroke-miterlimit:10;stroke-opacity:1;stroke-dasharray:none" id="path3671" d="m399.78 560a1.233 1.233.0 00-.5625.28125L393.91 564.84A1.233 1.233.0 00393.56 565.38L388.25 580.25a1.233 1.233.0 00.28125 1.2813l4.0625 4.0625a1.233 1.233.0 00.875.34375h16.406a1.233 1.233.0 00.875-.34375l4.2813-4.3125a1.233 1.233.0 00.3125-.53125l4.5625-15.656a1.233 1.233.0 00-.3125-1.2188L416.06 560.34A1.233 1.233.0 00415.19 560H400.03a1.233 1.233.0 00-.25.0zM369.72 601.94a1.233 1.233.0 00-.9375.90625L366.75 610.91a1.233 1.233.0 001.1875 1.5313h9.6563L353.66 680.78a1.233 1.233.0 001.1563 1.625h34.844a1.233 1.233.0 001.1875-.84375l2.2813-7.3438A1.233 1.233.0 00391.94 672.63h-7.875l23.688-69.063a1.233 1.233.0 00-1.1563-1.625H369.97a1.233 1.233.0 00-.25.0zm110.88.25a1.233 1.233.0 00-.6875.40625l-7.25 8.1875H461.13L453.44 602.81a1.233 1.233.0 00-.875-.375H425.03a1.233 1.233.0 00-1.1563.8125L421.34 610.81a1.233 1.233.0 001.1563 1.625h7.375L406.94 680.03a1.233 1.233.0 001.1563 1.625h29.313a1.233 1.233.0 001.1563-.8125l2.25-6.5938a1.233 1.233.0 00-1.1563-1.625h-5.125l14.625-46.031h26.469L458.94 680.06a1.233 1.233.0 001.1875 1.5938h28.281a1.233 1.233.0 001.125-.75l2.5313-6.0625a1.233 1.233.0 00-1.125-1.6875h-5.125l14.875-46.813h25.188L508.94 680.06a1.233 1.233.0 001.1875 1.5938h31.063a1.233 1.233.0 001.1563-.78125l2.5313-6.5938A1.233 1.233.0 00543.72 672.63H537.56l18.719-60.781a1.233 1.233.0 00-.1875-1.125L550.28 602.91a1.233 1.233.0 00-1-.46875H527.06a1.233 1.233.0 00-.90625.375l-7 7.6875h-12.25l-7.25-7.9375a1.233 1.233.0 00-.90625-.375H480.84a1.233 1.233.0 00-.25.0z"/><path d="m400.03 561.22-5.3125 4.5625-5.3125 14.875 4.0625 4.0625h16.406l4.2813-4.3125 4.5625-15.656-3.5313-3.5313H400.03zM369.97 603.16 367.94 611.22h11.375l-24.5 69.969h34.844l2.2813-7.3438H382.34l24.25-70.688H369.97zm110.88.25L473.25 612H460.63L452.56 603.66H425.03L422.5 611.22h9.0938l-23.5 69.219h29.313l2.25-6.5938H432.84l15.406-48.469h29.063L460.13 680.44h28.281l2.5313-6.0625H484.13l15.656-49.25h27.781L510.13 680.44h31.063l2.5313-6.5938H535.88l19.219-62.375-5.8125-7.8125H527.06L519.72 611.72H506.34L498.75 603.41H480.84z" id="path3665" style="fill:#ccc;fill-opacity:1;stroke:#000;stroke-width:1;stroke-linecap:butt;stroke-linejoin:miter;stroke-miterlimit:10;stroke-opacity:1;stroke-dasharray:none"/></g></g></g></svg>