<svg id="Layer_1" xmlns="http://www.w3.org/2000/svg" xmlns:xlink="http://www.w3.org/1999/xlink" width="1380" height="1800" viewBox="0 0 1380 1800" style="enable-background:new 0 0 1380 1800"><style>.st0{fill:#80c342}.st1{fill:#fff}.st2{fill:none}</style><g><path class="st0" d="M250.5 4.1C117.3-17.9 5 80.4 5 223.6V1798l1219.5-205.3c84.1-14.6 148.5-113.7 148.5-220.8V188.4L250.5 4.1z"/><path class="st1" d="M1144 1166.6c-14.3.0-23.3-4.5-30.2-13.6-7.7-10-9.8-32.2-9.8-66.7V689.4l103 5.1V585.9l-103-7.9V404.9l-100.3-10.6-40.9 173.9-65-4.7v116.4l45.8 2.4v439.9c0 57.6 14.6 99.6 38 125.7 20 22.6 50.9 33.7 89.2 33.7 5.7.0 11.8-.3 17.9-.8 42.4-3.6 83.9-15.1 129.6-34.4v-99.8c-22.9 11.8-49 18.5-70.8 19.8-1.3.2-2.1.2-3.5.2"/><path class="st1" d="M819.7 1167.3c-35.3 83.1-89 137.6-162.6 162.8 7.4 38.1 18.6 63.7 33.6 77.3 11.6 10.4 29.4 15.6 53.3 15.6 6.9.0 14.3-.5 22.2-1.3V1534l-51.1 6.7c-15.1 2-29.3 2.9-42.8 2.9-44.7.0-80.9-10.9-108.1-32.8-36-28.9-62.6-84.7-79.6-167.3-78.3-16.7-139.3-66.4-181.5-149.9-42.9-84.8-64.7-208.9-64.7-371.2.0-175 29.9-304.2 88.6-386.1 49.6-69.1 118.8-103.1 205.8-103.1 13.9.0 28.3.9 43.2 2.6 102.4 11.8 176.6 60.1 224.9 143.8 47.4 81.9 70.7 199.3 70.7 353.4-.1 141.2-17.3 252.3-51.9 334.3zm-154-32.1c20.2-51.8 30.1-153.5 30.1-305.1.0-136.1-9.8-229.7-29.9-281.1-20-51.6-50-79.5-90.1-83-3.1-.3-6.1-.4-9.1-.4-37.2.0-65.8 21.7-85.7 65.3-21.6 47.5-32.5 146-32.5 295 0 144 10.6 246.2 32 306.2 20.2 57.1 50.4 85.5 90 85.5 1.8.0 3.5-.1 5.3-.2 39.7-2.5 69.6-29.9 89.9-82.2"/></g><rect class="st2" width="1380" height="1800"/></svg>