<svg xmlns:dc="http://purl.org/dc/elements/1.1/" xmlns:cc="http://creativecommons.org/ns#" xmlns:rdf="http://www.w3.org/1999/02/22-rdf-syntax-ns#" xmlns:svg="http://www.w3.org/2000/svg" xmlns="http://www.w3.org/2000/svg" xmlns:xlink="http://www.w3.org/1999/xlink" xmlns:sodipodi="http://sodipodi.sourceforge.net/DTD/sodipodi-0.dtd" xmlns:inkscape="http://www.inkscape.org/namespaces/inkscape" width="677.04" height="683.79" id="svg2" sodipodi:version=".32" inkscape:version="0.92.3 (2405546, 2018-03-11)" sodipodi:docname="Buffy-A-Few-Good-Slayers-Logo--take1.svg"><defs id="defs3"><linearGradient id="linearGradient2070"><stop id="stop2072" offset="0" style="stop-color:#9c9c9c;stop-opacity:1"/><stop id="stop2074" offset="1" style="stop-color:#fbfbfb;stop-opacity:1"/></linearGradient><linearGradient id="linearGradient2339"><stop id="stop2341" offset="0" style="stop-color:#36d21c;stop-opacity:1"/><stop style="stop-color:#780ccb;stop-opacity:1" offset=".23364" id="stop2347"/><stop id="stop2343" offset="1" style="stop-color:#818181;stop-opacity:1"/></linearGradient><linearGradient gradientTransform="translate(3.230992,42.00289)" y2="183.44" x2="204.73" y1="147.8" x1="204.73" spreadMethod="pad" gradientUnits="userSpaceOnUse" id="linearGradient1298" xlink:href="#linearGradient2339" inkscape:collect="always"/><linearGradient gradientUnits="userSpaceOnUse" y2="232.91" x2="128.17" y1="450.07" x1="131.49" gradientTransform="matrix(1.267546,0,0,0.600968,29.99065,27.71562)" id="linearGradient2078" xlink:href="#linearGradient2070" inkscape:collect="always"/><linearGradient y2="183.44" x2="204.73" y1="147.8" x1="204.73" spreadMethod="pad" gradientTransform="translate(3.230992,42.00289)" gradientUnits="userSpaceOnUse" id="linearGradient2090" xlink:href="#linearGradient2339" inkscape:collect="always"/><linearGradient y2="183.44" x2="204.73" y1="147.8" x1="204.73" spreadMethod="pad" gradientTransform="translate(-10.98537,261.4172)" gradientUnits="userSpaceOnUse" id="linearGradient1314" xlink:href="#linearGradient2339" inkscape:collect="always"/><linearGradient y2="232.91" x2="128.17" y1="450.07" x1="131.49" gradientTransform="matrix(1.267546,0,0,0.600968,22.23627,3.806289)" gradientUnits="userSpaceOnUse" id="linearGradient1317" xlink:href="#linearGradient2070" inkscape:collect="always"/><linearGradient y2="183.44" x2="204.73" y1="147.8" x1="204.73" spreadMethod="pad" gradientTransform="translate(-10.98537,261.4172)" gradientUnits="userSpaceOnUse" id="linearGradient3615" xlink:href="#linearGradient2339" inkscape:collect="always"/><linearGradient y2="183.44" x2="204.73" y1="147.8" x1="204.73" spreadMethod="pad" gradientTransform="matrix(1.120541,0,0,1.120541,-30.8348,249.7101)" gradientUnits="userSpaceOnUse" id="linearGradient3621" xlink:href="#linearGradient2339" inkscape:collect="always"/><linearGradient y2="183.44" x2="204.73" y1="147.8" x1="204.73" spreadMethod="pad" gradientTransform="matrix(1.120541,0,0,1.120541,-30.8348,249.7101)" gradientUnits="userSpaceOnUse" id="linearGradient4394" xlink:href="#linearGradient2339" inkscape:collect="always"/><linearGradient y2="287.01" x2="276.88" y1="287.01" x1="176.67" gradientUnits="userSpaceOnUse" id="linearGradient3199" xlink:href="#linearGradient3811" inkscape:collect="always"/><linearGradient y2="283.46" x2="276.88" y1="283.46" x1="176.67" gradientUnits="userSpaceOnUse" id="linearGradient3197" xlink:href="#linearGradient3789" inkscape:collect="always"/><linearGradient gradientUnits="userSpaceOnUse" y2="287.01" x2="276.88" y1="287.01" x1="176.67" id="linearGradient3809" xlink:href="#linearGradient3811" inkscape:collect="always"/><linearGradient gradientUnits="userSpaceOnUse" y2="283.46" x2="276.88" y1="283.46" x1="176.67" id="linearGradient3787" xlink:href="#linearGradient3789" inkscape:collect="always"/><linearGradient inkscape:collect="always" xlink:href="#linearGradient2339-1" id="linearGradient4394-0" gradientUnits="userSpaceOnUse" gradientTransform="matrix(1.120541,0,0,1.120541,-30.8348,249.7101)" spreadMethod="pad" x1="204.73" y1="147.8" x2="204.73" y2="183.44"/><linearGradient inkscape:collect="always" xlink:href="#linearGradient2070-6" id="linearGradient1317-2" gradientUnits="userSpaceOnUse" gradientTransform="matrix(1.267546,0,0,0.600968,22.23627,3.806289)" x1="131.49" y1="450.07" x2="128.17" y2="232.91"/><linearGradient id="linearGradient2339-1"><stop style="stop-color:#36d21c;stop-opacity:1" offset="0" id="stop2341-8"/><stop id="stop2347-7" offset=".23364" style="stop-color:#780ccb;stop-opacity:1"/><stop style="stop-color:#818181;stop-opacity:1" offset="1" id="stop2343-9"/></linearGradient><linearGradient id="linearGradient2070-6"><stop style="stop-color:#9c9c9c;stop-opacity:1" offset="0" id="stop2072-2"/><stop style="stop-color:#fbfbfb;stop-opacity:1" offset="1" id="stop2074-6"/></linearGradient><linearGradient id="linearGradient3789"><stop style="stop-color:#cc9830;stop-opacity:1" offset="0" id="stop3791"/><stop style="stop-color:#d07421;stop-opacity:1" offset="1" id="stop3793"/></linearGradient><linearGradient id="linearGradient3811"><stop id="stop3813" offset="0" style="stop-color:#a9791d;stop-opacity:1"/><stop id="stop3815" offset="1" style="stop-color:#774213;stop-opacity:1"/></linearGradient><linearGradient inkscape:collect="always" x1="612.49" y1="176.46" x2="265.97" gradientUnits="userSpaceOnUse" y2="878.46" id="linearGradient3078"><stop offset="0" style="stop-color:#171717" id="stop5440"/><stop offset="1" style="stop-color:#171717" id="stop5442"/></linearGradient><linearGradient inkscape:collect="always" x1="574.13" y1="803.02" x2="249.34" gradientUnits="userSpaceOnUse" y2="191.8" id="linearGradient3075"><stop offset="0" style="stop-color:#202020" id="stop5026"/><stop offset="1" style="stop-color:#2a2a2a" id="stop5028"/></linearGradient><filter inkscape:collect="always" x="-.020874" y="-.26541" color-interpolation-filters="sRGB" width="1.0417" height="1.5308" id="filter5434"><feGaussianBlur inkscape:collect="always" stdDeviation="1.4411" id="feGaussianBlur5436"/></filter><filter inkscape:collect="always" x="-.020874" y="-.26541" color-interpolation-filters="sRGB" width="1.0417" height="1.5308" id="filter5430"><feGaussianBlur inkscape:collect="always" stdDeviation="1.4411" id="feGaussianBlur5432"/></filter><linearGradient id="linearGradient5065"><stop offset="0" style="stop-color:#ececec" id="stop5067"/><stop offset="1" style="stop-color:#a0a0a0" id="stop5069"/></linearGradient><linearGradient id="linearGradient3868"><stop offset="0" style="stop-color:#c1c1c1" id="stop3870"/><stop offset="1" style="stop-color:#858585" id="stop3872"/></linearGradient><linearGradient inkscape:collect="always" xlink:href="#linearGradient3078" id="linearGradient4228" gradientUnits="userSpaceOnUse" x1="612.49" y1="176.46" x2="265.97" y2="878.46"/><linearGradient inkscape:collect="always" xlink:href="#linearGradient3075" id="linearGradient4230" gradientUnits="userSpaceOnUse" x1="574.13" y1="803.02" x2="249.34" y2="191.8"/><radialGradient inkscape:collect="always" xlink:href="#linearGradient5065" id="radialGradient4232" gradientUnits="userSpaceOnUse" gradientTransform="matrix(1.0216,-0.018403,0.0070302,0.39045,-14.097,507.23)" cx="384.57" cy="823.98" r="90.932"/><radialGradient inkscape:collect="always" xlink:href="#linearGradient5065" id="radialGradient4234" gradientUnits="userSpaceOnUse" gradientTransform="matrix(1,0,0,0.094041,0,84.58)" cx="372.05" cy="93.359" r="85.235"/><radialGradient inkscape:collect="always" xlink:href="#linearGradient3868" id="radialGradient4236" gradientUnits="userSpaceOnUse" gradientTransform="matrix(0,-0.37959,0.035698,0,601.44,376.17)" cx="372.05" cy="93.359" r="85.235"/><radialGradient inkscape:collect="always" xlink:href="#linearGradient3868" id="radialGradient4238" gradientUnits="userSpaceOnUse" gradientTransform="matrix(0,-0.37959,0.035698,0,601.44,439.01)" cx="372.05" cy="93.359" r="85.235"/></defs><sodipodi:namedview inkscape:window-y="0" inkscape:window-x="0" inkscape:window-height="1020" inkscape:window-width="1920" inkscape:current-layer="layer1" inkscape:document-units="px" inkscape:cy="251.72" inkscape:cx="507.41" inkscape:zoom=".39815" inkscape:pageshadow="2" inkscape:pageopacity="0" borderopacity="1" bordercolor="#666666" pagecolor="#ffffff" id="base" showgrid="true" inkscape:window-maximized="1" fit-margin-left="0" fit-margin-top="0" fit-margin-right="0" fit-margin-bottom="0"><inkscape:grid type="xygrid" id="grid3885" empspacing="5" visible="true" enabled="true" snapvisiblegridlinesonly="true" originx="-170.16" originy="-24.451" spacingx="1" spacingy="1"/></sodipodi:namedview><g id="layer1" inkscape:groupmode="layer" inkscape:label="Layer 1" transform="translate(-170.16122,-344.1241)"><g id="g4194" transform="matrix(0.60740016,-0.57221281,0.57221281,0.60740016,348.38607,300.63347)"><g id="layer1-2" inkscape:label="Capa 1" transform="translate(-555.12389,-4.0121257)"><g id="g3051"><rect id="rect5079" style="fill:url(#linearGradient4228)" rx="100.24" ry="100.03" height="800.08" width="466.25" y="71.327" x="144.6"/><rect id="rect2987" style="fill:url(#linearGradient4230)" rx="98.59" ry="98.59" height="788.57" width="458.57" y="70.934" x="142.76"/><rect id="rect2993" style="fill:#000" rx="85.621" ry="85.621" height="708.05" width="434.29" y="86.031" x="154.9"/><rect id="rect2991" style="fill:#1a1a1a" rx="0" ry="0" height="532.06" width="401.97" y="147.55" x="171.07"/><g id="g4952" style="opacity:.54680002;fill:#4d4d4d" transform="matrix(0.75535,0,0,0.75535,376.13,116.77)"><g id="text4937" style="fill:#4d4d4d" transform="matrix(-1.5566,0,0,0.79463,33.22,-48.26)"><path id="path4942" sodipodi:nodetypes="ccsccscscsccscc" inkscape:connector-curvature="0" style="fill:#4d4d4d" d="m131.27 1059.2c-1e-5-5.1029 1.0429-8.9395 3.1288-11.51 2.0859-2.6073 5.0471-3.911 8.8836-3.911 2.3093.0 2.7464.1478 7.1516.4434v4.5815c-4.4184-.5936-4.6001-.8904-6.8722-.8904-2.4211.0-6.1731.9499-7.514 2.8495-1.3037 1.8996-1.9555 4.7118-1.9555 8.4366-1e-5 3.8738.68907 6.7604 2.0672 8.6601 1.4154 1.8996 5.2233 2.8494 7.6816 2.8494 2.2348.0 4.5256-.6891 6.8722-2.0672v4.5814c-2.4584.9685-4.8422 1.4527-7.1516 1.4527-3.911.0-6.9467-1.285-9.1071-3.8551-2.1231-2.5701-3.1847-6.4439-3.1847-11.621"/></g><path id="path4944" style="fill:#4d4d4d" inkscape:connector-curvature="0" inkscape:transform-center-x="1.8188" d="m-193.7 776.81v6.3006 6.3006l-5.4565-3.1503-5.4565-3.1503 5.4565-3.1503z"/></g><g id="g4969" style="opacity:.54680002;fill:#4d4d4d" transform="translate(485.06,-74.286)"><rect id="rect4961" style="fill:#4d4d4d" height="3.1568" width="33.082" y="777.85" x="-129.55"/><rect id="rect4963" style="fill:#4d4d4d" height="3.1568" width="27.826" y="784.04" x="-124.3"/><rect id="rect4965" style="fill:#4d4d4d" height="3.1568" width="27.826" y="790.23" x="-124.3"/><rect id="rect4967" style="fill:#4d4d4d" height="3.1568" width="27.826" y="796.41" x="-124.47"/></g><g id="g5004" style="opacity:.54680002;fill:#4d4d4d" transform="matrix(0.74614,0,0,0.74614,676.47,177.59)"><path id="path4975" style="text-indent:0;text-transform:none;block-progression:tb;color:#000;fill:#4d4d4d" inkscape:connector-curvature="0" d="m-220.31 704.94c-7.3927.0-13.438 6.0448-13.438 13.438.0 7.3927 6.0448 13.406 13.438 13.406.96896.0 1.9004-.11632 2.8125-.3125A2.0574 2.1167.0 01-218.4 727.57c-.61564.12439-1.2524.21875-1.9062.21875-5.231.0-9.4375-4.1753-9.4375-9.4062.0-5.231 4.2066-9.4375 9.4375-9.4375 5.231.0 9.4375 4.2066 9.4375 9.4375.0 2.4483-.92074 4.6466-2.4375 6.3125a2.0502 2.1093.0 01.40625-.0937 2.0502 2.1093.0 011.625 3.625c-.13569.13483-.2734.25351-.40625.375 2.9306-2.4611 4.8125-6.1079 4.8125-10.219.0-7.3927-6.0448-13.438-13.438-13.438z"/><path id="path4983" d="m-223.96 729.19C-222.38 729.6-219.9 730-217.8 729.47" sodipodi:nodetypes="cc" style="fill:#383838;stroke:#4d4d4d;stroke-width:4;stroke-linecap:round" inkscape:connector-curvature="0"/><path id="path4977" sodipodi:nodetypes="cc" style="fill:#4d4d4d;stroke:#4d4d4d;stroke-width:4;stroke-linecap:round" inkscape:connector-curvature="0" d="m-212.01 726.21 7.1429 7.8373"/></g><g id="g5032" transform="translate(16.453,-5.1606)"><rect id="rect5011" style="fill:#4d4d4d" rx="3.2651" ry="5.718" height="11.436" width="25.528" y="821.28" x="249.34"/><rect id="rect5013" style="fill:#000" rx="3.2651" ry="5.718" height="11.436" width="25.528" y="820.57" x="249.73"/><rect id="rect5009" style="fill:#101010" rx="3.2651" ry="5.718" height="11.436" width="25.528" y="820.96" x="249.52"/></g><rect id="rect5073" style="fill:#666" rx="11.169" ry="11.169" height="28.752" width="181.86" y="808.07" x="295.72"/><rect id="rect5077" style="fill:#000" rx="11.169" ry="11.169" height="28.752" width="181.86" y="806.23" x="296.92"/><rect id="rect5017" style="fill:url(#radialGradient4232)" rx="11.169" ry="11.169" height="28.752" width="181.86" y="807.11" x="296.44"/><path id="rect5019" d="m286.92 85.344C286.86 85.877 286.81 86.431 286.81 87v6.8438c0 4.1793 7.376 7.5312 9.3856 7.5312h152.18c2.0096.0 8.9061-3.352 8.9061-7.5312V87c0-.56942-.0483-1.1235-.10526-1.6562z" sodipodi:nodetypes="csssssscc" style="fill:url(#radialGradient4234)" inkscape:connector-curvature="0"/><path id="path5083" style="fill:#666" inkscape:connector-curvature="0" d="m419.88 86.156c-.65893.0-1.2188.55982-1.2188 1.2188.0.65893.55982 1.1875 1.2188 1.1875.65893.0 1.1875-.52857 1.1875-1.1875S420.54 86.156 419.88 86.156zm4.2812.0c-.65893.0-1.1875.55982-1.1875 1.2188.0.65893.52857 1.1875 1.1875 1.1875s1.1875-.52857 1.1875-1.1875-.52857-1.2188-1.1875-1.2188zm4.3125.0c-.65893.0-1.1875.55982-1.1875 1.2188.0.65893.52857 1.1875 1.1875 1.1875s1.1875-.52857 1.1875-1.1875-.52857-1.2188-1.1875-1.2188zm4.2812.0c-.65893.0-1.1875.55982-1.1875 1.2188.0.65893.52857 1.1875 1.1875 1.1875s1.1875-.52857 1.1875-1.1875-.52857-1.2188-1.1875-1.2188zm4.3125.0c-.65893.0-1.1875.55982-1.1875 1.2188.0.65893.52857 1.1875 1.1875 1.1875s1.1875-.52857 1.1875-1.1875-.52857-1.2188-1.1875-1.2188zm4.2812.0c-.65893.0-1.1875.55982-1.1875 1.2188.0.65893.52857 1.1875 1.1875 1.1875s1.1875-.52857 1.1875-1.1875-.52857-1.2188-1.1875-1.2188zm4.3125.0c-.65893.0-1.1875.55982-1.1875 1.2188.0.65893.52857 1.1875 1.1875 1.1875s1.1875-.52857 1.1875-1.1875-.52857-1.2188-1.1875-1.2188zm4.2812.0c-.65893.0-1.1875.55982-1.1875 1.2188.0.65893.52857 1.1875 1.1875 1.1875s1.1875-.52857 1.1875-1.1875S450.6 86.156 449.94 86.156zm4.3125.0c-.65893.0-1.1875.55982-1.1875 1.2188.0.65893.52857 1.1875 1.1875 1.1875s1.1875-.52857 1.1875-1.1875-.52857-1.2188-1.1875-1.2188zm-163.27.469c-.65893.0-1.2188.52857-1.2188 1.1875S290.33 89 290.98 89c.65893.0 1.1875-.52857 1.1875-1.1875S291.64 86.625 290.98 86.625zm4.2812.0c-.65893.0-1.1875.52857-1.1875 1.1875S294.61 89 295.27 89s1.1875-.52857 1.1875-1.1875-.52857-1.1875-1.1875-1.1875zm4.3125.0c-.65893.0-1.2188.52857-1.2188 1.1875S298.92 89 299.58 89c.65893.0 1.1875-.52857 1.1875-1.1875S300.24 86.625 299.58 86.625zm4.2812.0c-.65893.0-1.1875.52857-1.1875 1.1875S303.2 89 303.86 89s1.1875-.52857 1.1875-1.1875-.52857-1.1875-1.1875-1.1875zm4.3125.0c-.65893.0-1.2188.52857-1.2188 1.1875S307.51 89 308.17 89c.65893.0 1.1875-.52857 1.1875-1.1875S308.83 86.625 308.17 86.625zm4.2812.0c-.65893.0-1.1875.52857-1.1875 1.1875S311.79 89 312.45 89s1.1875-.52857 1.1875-1.1875-.52857-1.1875-1.1875-1.1875zm4.3125.0c-.65893.0-1.2188.52857-1.2188 1.1875S316.11 89 316.77 89c.65893.0 1.1875-.52857 1.1875-1.1875S317.42 86.625 316.77 86.625zm4.2812.0c-.65893.0-1.1875.52857-1.1875 1.1875S320.39 89 321.05 89s1.1875-.52857 1.1875-1.1875-.52857-1.1875-1.1875-1.1875zm4.3125.0c-.65893.0-1.2188.52857-1.2188 1.1875S324.7 89 325.36 89c.65893.0 1.1875-.52857 1.1875-1.1875S326.02 86.625 325.36 86.625zm4.2812.0c-.65893.0-1.1875.52857-1.1875 1.1875S328.98 89 329.64 89s1.1875-.52857 1.1875-1.1875S330.3 86.625 329.64 86.625zm4.3125.0c-.65893.0-1.2188.52857-1.2188 1.1875S333.29 89 333.95 89c.65893.0 1.1875-.52857 1.1875-1.1875S334.61 86.625 333.95 86.625zm4.2812.0c-.65893.0-1.1875.52857-1.1875 1.1875S337.58 89 338.23 89s1.1875-.52857 1.1875-1.1875-.52857-1.1875-1.1875-1.1875zm4.3125.0c-.65893.0-1.2188.52857-1.2188 1.1875S341.89 89 342.55 89c.65893.0 1.1875-.52857 1.1875-1.1875S343.21 86.625 342.55 86.625zm4.2812.0c-.65893.0-1.1875.52857-1.1875 1.1875S346.17 89 346.83 89s1.1875-.52857 1.1875-1.1875-.52857-1.1875-1.1875-1.1875zm4.3125.0c-.65893.0-1.2188.52857-1.2188 1.1875S350.48 89 351.14 89c.65893.0 1.1875-.52857 1.1875-1.1875S351.8 86.625 351.14 86.625zm4.2812.0c-.65893.0-1.1875.52857-1.1875 1.1875S354.76 89 355.42 89s1.1875-.52857 1.1875-1.1875-.52857-1.1875-1.1875-1.1875zm4.3125.0c-.65893.0-1.2188.52857-1.2188 1.1875S359.08 89 359.73 89c.65893.0 1.1875-.52857 1.1875-1.1875S360.39 86.625 359.73 86.625zm4.2812.0c-.65893.0-1.1875.52857-1.1875 1.1875S363.36 89 364.02 89 365.2 88.471 365.2 87.813 364.67 86.625 364.02 86.625zm4.3125.0c-.65893.0-1.2188.52857-1.2188 1.1875S367.67 89 368.33 89c.65893.0 1.1875-.52857 1.1875-1.1875S368.99 86.625 368.33 86.625zm4.2812.0c-.65893.0-1.1875.52857-1.1875 1.1875S371.95 89 372.61 89 373.8 88.471 373.8 87.813 373.27 86.625 372.61 86.625zm4.3125.0c-.65893.0-1.2188.52857-1.2188 1.1875S376.26 89 376.92 89c.65893.0 1.1875-.52857 1.1875-1.1875S377.58 86.625 376.92 86.625zm4.2812.0c-.65893.0-1.1875.52857-1.1875 1.1875S380.54 89 381.2 89s1.1875-.52857 1.1875-1.1875S381.86 86.625 381.2 86.625zm4.3125.0c-.65893.0-1.2188.52857-1.2188 1.1875S384.86 89 385.52 89C386.17 89 386.7 88.471 386.7 87.813S386.17 86.625 385.52 86.625zm4.2812.0c-.65893.0-1.1875.52857-1.1875 1.1875S389.14 89 389.8 89s1.1875-.52857 1.1875-1.1875S390.46 86.625 389.8 86.625zm4.3125.0c-.65893.0-1.2188.52857-1.2188 1.1875S393.45 89 394.11 89C394.77 89 395.3 88.471 395.3 87.813S394.77 86.625 394.11 86.625zm4.2812.0c-.65893.0-1.1875.52857-1.1875 1.1875S397.73 89 398.39 89s1.1875-.52857 1.1875-1.1875-.52857-1.1875-1.1875-1.1875zm4.3125.0c-.65893.0-1.2188.52857-1.2188 1.1875S402.04 89 402.7 89c.65893.0 1.1875-.52857 1.1875-1.1875S403.36 86.625 402.7 86.625zm4.2812.0c-.65893.0-1.1875.52857-1.1875 1.1875S406.33 89 406.98 89s1.1875-.52857 1.1875-1.1875-.52857-1.1875-1.1875-1.1875zm4.3125.0c-.65893.0-1.2188.52857-1.2188 1.1875S410.64 89 411.3 89c.65893.0 1.1875-.52857 1.1875-1.1875S411.96 86.625 411.3 86.625zm4.2812.0c-.65893.0-1.1875.52857-1.1875 1.1875S414.92 89 415.58 89s1.1875-.52857 1.1875-1.1875-.52857-1.1875-1.1875-1.1875zm4.3125 2.7188c-.65893.0-1.2188.52857-1.2188 1.1875s.55982 1.1875 1.2188 1.1875c.65893.0 1.1875-.52857 1.1875-1.1875S420.55 89.344 419.89 89.344zm4.2812.0c-.65893.0-1.1875.52857-1.1875 1.1875s.52857 1.1875 1.1875 1.1875S425.36 91.19 425.36 90.531 424.83 89.344 424.17 89.344zm4.3125.0c-.65893.0-1.1875.52857-1.1875 1.1875s.52857 1.1875 1.1875 1.1875S429.67 91.19 429.67 90.531 429.14 89.344 428.48 89.344zm4.2812.0c-.65893.0-1.1875.52857-1.1875 1.1875s.52857 1.1875 1.1875 1.1875S433.95 91.19 433.95 90.531 433.42 89.344 432.77 89.344zm4.3125.0c-.65893.0-1.1875.52857-1.1875 1.1875s.52857 1.1875 1.1875 1.1875S438.27 91.19 438.27 90.531 437.74 89.344 437.08 89.344zm4.2812.0c-.65893.0-1.1875.52857-1.1875 1.1875S440.7 91.719 441.36 91.719 442.55 91.19 442.55 90.531 442.02 89.344 441.36 89.344zm4.3125.0c-.65893.0-1.1875.52857-1.1875 1.1875s.52857 1.1875 1.1875 1.1875S446.86 91.19 446.86 90.531 446.33 89.344 445.67 89.344zm4.2812.0c-.65893.0-1.1875.52857-1.1875 1.1875s.52857 1.1875 1.1875 1.1875S451.14 91.19 451.14 90.531 450.61 89.344 449.95 89.344zm4.3125.0c-.65893.0-1.1875.52857-1.1875 1.1875s.52857 1.1875 1.1875 1.1875S455.45 91.19 455.45 90.531 454.92 89.344 454.27 89.344zm-163.28.4375c-.65893.0-1.2188.52857-1.2188 1.1875s.55982 1.1875 1.2188 1.1875c.65893.0 1.1875-.52857 1.1875-1.1875S291.64 89.781 290.99 89.781zm4.2812.0c-.65893.0-1.1875.52857-1.1875 1.1875s.52857 1.1875 1.1875 1.1875 1.1875-.52857 1.1875-1.1875-.52857-1.1875-1.1875-1.1875zm4.3125.0c-.65893.0-1.2188.52857-1.2188 1.1875s.55982 1.1875 1.2188 1.1875c.65893.0 1.1875-.52857 1.1875-1.1875S300.24 89.781 299.58 89.781zm4.2812.0c-.65893.0-1.1875.52857-1.1875 1.1875S303.2 92.156 303.86 92.156s1.1875-.52857 1.1875-1.1875-.52857-1.1875-1.1875-1.1875zm4.3125.0c-.65893.0-1.2188.52857-1.2188 1.1875s.55982 1.1875 1.2188 1.1875c.65893.0 1.1875-.52857 1.1875-1.1875S308.83 89.781 308.17 89.781zm4.2812.0c-.65893.0-1.1875.52857-1.1875 1.1875s.52857 1.1875 1.1875 1.1875 1.1875-.52857 1.1875-1.1875-.52857-1.1875-1.1875-1.1875zm4.3125.0c-.65893.0-1.2188.52857-1.2188 1.1875s.55982 1.1875 1.2188 1.1875c.65893.0 1.1875-.52857 1.1875-1.1875S317.43 89.781 316.77 89.781zm4.2812.0c-.65893.0-1.1875.52857-1.1875 1.1875s.52857 1.1875 1.1875 1.1875 1.1875-.52857 1.1875-1.1875-.52857-1.1875-1.1875-1.1875zm4.3125.0c-.65893.0-1.2188.52857-1.2188 1.1875S324.7 92.156 325.36 92.156c.65893.0 1.1875-.52857 1.1875-1.1875S326.02 89.781 325.36 89.781zm4.2812.0c-.65893.0-1.1875.52857-1.1875 1.1875s.52857 1.1875 1.1875 1.1875 1.1875-.52857 1.1875-1.1875S330.3 89.781 329.64 89.781zm4.3125.0c-.65893.0-1.2188.52857-1.2188 1.1875s.55982 1.1875 1.2188 1.1875c.65893.0 1.1875-.52857 1.1875-1.1875S334.61 89.781 333.95 89.781zm4.2812.0c-.65893.0-1.1875.52857-1.1875 1.1875s.52857 1.1875 1.1875 1.1875 1.1875-.52857 1.1875-1.1875-.52857-1.1875-1.1875-1.1875zm4.3125.0c-.65893.0-1.2188.52857-1.2188 1.1875s.55982 1.1875 1.2188 1.1875c.65893.0 1.1875-.52857 1.1875-1.1875S343.21 89.781 342.55 89.781zm4.2812.0c-.65893.0-1.1875.52857-1.1875 1.1875s.52857 1.1875 1.1875 1.1875 1.1875-.52857 1.1875-1.1875-.52857-1.1875-1.1875-1.1875zm4.3125.0c-.65893.0-1.2188.52857-1.2188 1.1875s.55982 1.1875 1.2188 1.1875c.65893.0 1.1875-.52857 1.1875-1.1875S351.8 89.781 351.14 89.781zm4.2812.0c-.65893.0-1.1875.52857-1.1875 1.1875s.52857 1.1875 1.1875 1.1875 1.1875-.52857 1.1875-1.1875-.52857-1.1875-1.1875-1.1875zm4.3125.0c-.65893.0-1.2188.52857-1.2188 1.1875s.55982 1.1875 1.2188 1.1875c.65893.0 1.1875-.52857 1.1875-1.1875S360.39 89.781 359.73 89.781zm4.2812.0c-.65893.0-1.1875.52857-1.1875 1.1875s.52857 1.1875 1.1875 1.1875S365.2 91.628 365.2 90.969 364.67 89.781 364.02 89.781zm4.3125.0c-.65893.0-1.2188.52857-1.2188 1.1875s.55982 1.1875 1.2188 1.1875c.65893.0 1.1875-.52857 1.1875-1.1875S368.99 89.781 368.33 89.781zm4.2812.0c-.65893.0-1.1875.52857-1.1875 1.1875s.52857 1.1875 1.1875 1.1875S373.8 91.628 373.8 90.969 373.27 89.781 372.61 89.781zm4.3125.0c-.65893.0-1.2188.52857-1.2188 1.1875s.55982 1.1875 1.2188 1.1875c.65893.0 1.1875-.52857 1.1875-1.1875S377.58 89.781 376.92 89.781zm4.2812.0c-.65893.0-1.1875.52857-1.1875 1.1875S380.54 92.156 381.2 92.156s1.1875-.52857 1.1875-1.1875S381.86 89.781 381.2 89.781zm4.3125.0c-.65893.0-1.2188.52857-1.2188 1.1875s.55982 1.1875 1.2188 1.1875c.65893.0 1.1875-.52857 1.1875-1.1875S386.17 89.781 385.52 89.781zm4.2812.0c-.65893.0-1.1875.52857-1.1875 1.1875S389.14 92.156 389.8 92.156s1.1875-.52857 1.1875-1.1875S390.46 89.781 389.8 89.781zm4.3125.0c-.65893.0-1.2188.52857-1.2188 1.1875s.55982 1.1875 1.2188 1.1875c.65893.0 1.1875-.52857 1.1875-1.1875S394.77 89.781 394.11 89.781zm4.2812.0c-.65893.0-1.1875.52857-1.1875 1.1875s.52857 1.1875 1.1875 1.1875 1.1875-.52857 1.1875-1.1875-.52857-1.1875-1.1875-1.1875zm4.3125.0c-.65893.0-1.2188.52857-1.2188 1.1875S402.04 92.156 402.7 92.156c.65893.0 1.1875-.52857 1.1875-1.1875S403.36 89.781 402.7 89.781zm4.2812.0c-.65893.0-1.1875.52857-1.1875 1.1875s.52857 1.1875 1.1875 1.1875 1.1875-.52857 1.1875-1.1875-.52857-1.1875-1.1875-1.1875zm4.3125.0c-.65893.0-1.2188.52857-1.2188 1.1875S410.64 92.156 411.3 92.156c.65893.0 1.1875-.52857 1.1875-1.1875S411.96 89.781 411.3 89.781zm4.2812.0c-.65893.0-1.1875.52857-1.1875 1.1875s.52857 1.1875 1.1875 1.1875 1.1875-.52857 1.1875-1.1875-.52857-1.1875-1.1875-1.1875zm4.3125 2.9375c-.65893.0-1.2188.52857-1.2188 1.1875s.55982 1.2188 1.2188 1.2188c.65893.0 1.1875-.55982 1.1875-1.2188.0-.65893-.52857-1.1875-1.1875-1.1875zm4.2812.0c-.65893.0-1.1875.52857-1.1875 1.1875s.52857 1.2188 1.1875 1.2188 1.1875-.55982 1.1875-1.2188c0-.65893-.52857-1.1875-1.1875-1.1875zm4.3125.0c-.65893.0-1.1875.52857-1.1875 1.1875s.52857 1.2188 1.1875 1.2188 1.1875-.55982 1.1875-1.2188c0-.65893-.52857-1.1875-1.1875-1.1875zm4.2812.0c-.65893.0-1.1875.52857-1.1875 1.1875s.52857 1.2188 1.1875 1.2188 1.1875-.55982 1.1875-1.2188c0-.65893-.52857-1.1875-1.1875-1.1875zm4.3125.0c-.65893.0-1.1875.52857-1.1875 1.1875s.52857 1.2188 1.1875 1.2188 1.1875-.55982 1.1875-1.2188c0-.65893-.52857-1.1875-1.1875-1.1875zm4.2812.0c-.65893.0-1.1875.52857-1.1875 1.1875S440.7 95.125 441.36 95.125s1.1875-.55982 1.1875-1.2188c0-.65893-.52857-1.1875-1.1875-1.1875zm4.3125.0c-.65893.0-1.1875.52857-1.1875 1.1875s.52857 1.2188 1.1875 1.2188 1.1875-.55982 1.1875-1.2188c0-.65893-.52857-1.1875-1.1875-1.1875zm4.2812.0c-.65893.0-1.1875.52857-1.1875 1.1875s.52857 1.2188 1.1875 1.2188 1.1875-.55982 1.1875-1.2188c0-.65893-.52857-1.1875-1.1875-1.1875zm4.3125.0c-.65893.0-1.1875.52857-1.1875 1.1875s.52857 1.2188 1.1875 1.2188 1.1875-.55982 1.1875-1.2188c0-.65893-.52857-1.1875-1.1875-1.1875zm-163.14.468c-.65893.0-1.2188.52857-1.2188 1.1875s.55982 1.1875 1.2188 1.1875c.65893.0 1.1875-.52857 1.1875-1.1875S291.78 93.187 291.13 93.187zm4.2812.0c-.65893.0-1.1875.52857-1.1875 1.1875s.52857 1.1875 1.1875 1.1875 1.1875-.52857 1.1875-1.1875-.52857-1.1875-1.1875-1.1875zm4.3125.0c-.65893.0-1.2188.52857-1.2188 1.1875s.55982 1.1875 1.2188 1.1875c.65893.0 1.1875-.52857 1.1875-1.1875S300.38 93.187 299.72 93.187zm4.2812.0c-.65893.0-1.1875.52857-1.1875 1.1875S303.34 95.562 304 95.562s1.1875-.52857 1.1875-1.1875S304.66 93.187 304 93.187zm4.3125.0c-.65893.0-1.2188.52857-1.2188 1.1875s.55982 1.1875 1.2188 1.1875c.65893.0 1.1875-.52857 1.1875-1.1875S308.97 93.187 308.31 93.187zm4.2812.0c-.65893.0-1.1875.52857-1.1875 1.1875s.52857 1.1875 1.1875 1.1875 1.1875-.52857 1.1875-1.1875-.52857-1.1875-1.1875-1.1875zm4.3125.0c-.65893.0-1.2188.52857-1.2188 1.1875s.55982 1.1875 1.2188 1.1875c.65893.0 1.1875-.52857 1.1875-1.1875S317.57 93.187 316.91 93.187zm4.2812.0C320.53 93.187 320 93.715 320 94.374s.52857 1.1875 1.1875 1.1875 1.1875-.52857 1.1875-1.1875-.52857-1.1875-1.1875-1.1875zm4.3125.0c-.65893.0-1.2188.52857-1.2188 1.1875S324.84 95.562 325.5 95.562c.65893.0 1.1875-.52857 1.1875-1.1875S326.16 93.187 325.5 93.187zm4.2812.0c-.65893.0-1.1875.52857-1.1875 1.1875s.52857 1.1875 1.1875 1.1875 1.1875-.52857 1.1875-1.1875-.52857-1.1875-1.1875-1.1875zm4.3125.0c-.65893.0-1.2188.52857-1.2188 1.1875s.55982 1.1875 1.2188 1.1875c.65893.0 1.1875-.52857 1.1875-1.1875S334.75 93.187 334.09 93.187zm4.2812.0c-.65893.0-1.1875.52857-1.1875 1.1875s.52857 1.1875 1.1875 1.1875 1.1875-.52857 1.1875-1.1875-.52857-1.1875-1.1875-1.1875zm4.3125.0c-.65893.0-1.2188.52857-1.2188 1.1875s.55982 1.1875 1.2188 1.1875c.65893.0 1.1875-.52857 1.1875-1.1875S343.35 93.187 342.69 93.187zm4.2812.0c-.65893.0-1.1875.52857-1.1875 1.1875s.52857 1.1875 1.1875 1.1875 1.1875-.52857 1.1875-1.1875-.52857-1.1875-1.1875-1.1875zm4.3125.0c-.65893.0-1.2188.52857-1.2188 1.1875s.55982 1.1875 1.2188 1.1875c.65893.0 1.1875-.52857 1.1875-1.1875S351.94 93.187 351.28 93.187zm4.2812.0c-.65893.0-1.1875.52857-1.1875 1.1875S354.9 95.562 355.56 95.562s1.1875-.52857 1.1875-1.1875-.52857-1.1875-1.1875-1.1875zm4.3125.0c-.65893.0-1.2188.52857-1.2188 1.1875s.55982 1.1875 1.2188 1.1875c.65893.0 1.1875-.52857 1.1875-1.1875S360.53 93.187 359.88 93.187zm4.2812.0c-.65893.0-1.1875.52857-1.1875 1.1875S363.5 95.562 364.16 95.562s1.1875-.52857 1.1875-1.1875-.52857-1.1875-1.1875-1.1875zm4.3125.0c-.65893.0-1.2188.52857-1.2188 1.1875s.55982 1.1875 1.2188 1.1875c.65893.0 1.1875-.52857 1.1875-1.1875S369.13 93.187 368.47 93.187zm4.2812.0c-.65893.0-1.1875.52857-1.1875 1.1875s.52857 1.1875 1.1875 1.1875 1.1875-.52857 1.1875-1.1875-.52857-1.1875-1.1875-1.1875zm4.3125.0c-.65893.0-1.2188.52857-1.2188 1.1875S376.4 95.562 377.06 95.562c.65893.0 1.1875-.52857 1.1875-1.1875S377.72 93.187 377.06 93.187zm4.2812.0c-.65893.0-1.1875.52857-1.1875 1.1875s.52857 1.1875 1.1875 1.1875 1.1875-.52857 1.1875-1.1875S382 93.187 381.34 93.187zm4.3125.0c-.65893.0-1.2188.52857-1.2188 1.1875S385 95.562 385.66 95.562c.65893.0 1.1875-.52857 1.1875-1.1875S386.32 93.187 385.66 93.187zm4.2812.0c-.65893.0-1.1875.52857-1.1875 1.1875s.52857 1.1875 1.1875 1.1875 1.1875-.52857 1.1875-1.1875S390.6 93.187 389.94 93.187zm4.3125.0c-.65893.0-1.2188.52857-1.2188 1.1875s.55982 1.1875 1.2188 1.1875c.65893.0 1.1875-.52857 1.1875-1.1875S394.91 93.187 394.25 93.187zm4.2812.0c-.65893.0-1.1875.52857-1.1875 1.1875s.52857 1.1875 1.1875 1.1875 1.1875-.52857 1.1875-1.1875-.52857-1.1875-1.1875-1.1875zm4.3125.0c-.65893.0-1.2188.52857-1.2188 1.1875s.55982 1.1875 1.2188 1.1875c.65893.0 1.1875-.52857 1.1875-1.1875S403.5 93.187 402.84 93.187zm4.2812.0c-.65893.0-1.1875.52857-1.1875 1.1875s.52857 1.1875 1.1875 1.1875 1.1875-.52857 1.1875-1.1875-.52857-1.1875-1.1875-1.1875zm4.3125.0c-.65893.0-1.2188.52857-1.2188 1.1875s.55982 1.1875 1.2188 1.1875c.65893.0 1.1875-.52857 1.1875-1.1875S412.1 93.187 411.44 93.187zm4.2812.0c-.65893.0-1.1875.52857-1.1875 1.1875s.52857 1.1875 1.1875 1.1875 1.1875-.52857 1.1875-1.1875-.52857-1.1875-1.1875-1.1875zm4.3125 3.1562c-.65893.0-1.2188.52857-1.2188 1.1875s.55982 1.1875 1.2188 1.1875c.65893.0 1.1875-.52857 1.1875-1.1875S420.69 96.343 420.03 96.343zm4.2812.0c-.65893.0-1.1875.52857-1.1875 1.1875s.52857 1.1875 1.1875 1.1875S425.5 98.189 425.5 97.531 424.97 96.343 424.31 96.343zm4.3125.0c-.65893.0-1.1875.52857-1.1875 1.1875s.52857 1.1875 1.1875 1.1875 1.1875-.52857 1.1875-1.1875-.52857-1.1875-1.1875-1.1875zm4.2812.0c-.65893.0-1.1875.52857-1.1875 1.1875s.52857 1.1875 1.1875 1.1875 1.1875-.52857 1.1875-1.1875-.52857-1.1875-1.1875-1.1875zm4.3125.0c-.65893.0-1.1875.52857-1.1875 1.1875s.52857 1.1875 1.1875 1.1875 1.1875-.52857 1.1875-1.1875-.52857-1.1875-1.1875-1.1875zm4.2812.0c-.65893.0-1.1875.52857-1.1875 1.1875S440.84 98.718 441.5 98.718s1.1875-.52857 1.1875-1.1875S442.16 96.343 441.5 96.343zm4.3125.0c-.65893.0-1.1875.52857-1.1875 1.1875s.52857 1.1875 1.1875 1.1875S447 98.189 447 97.531 446.47 96.343 445.81 96.343zm4.2812.0c-.65893.0-1.1875.52857-1.1875 1.1875s.52857 1.1875 1.1875 1.1875 1.1875-.52857 1.1875-1.1875-.52857-1.1875-1.1875-1.1875zm-154.62.437c-.65893.0-1.1875.55982-1.1875 1.2188.0.65893.52857 1.1875 1.1875 1.1875s1.1875-.52857 1.1875-1.1875S296.13 96.78 295.47 96.78zm4.3125.0c-.65893.0-1.2188.55982-1.2188 1.2188.0.65893.55982 1.1875 1.2188 1.1875.65893.0 1.1875-.52857 1.1875-1.1875S300.44 96.78 299.79 96.78zm4.2812.0c-.65893.0-1.1875.55982-1.1875 1.2188.0.65893.52857 1.1875 1.1875 1.1875s1.1875-.52857 1.1875-1.1875S304.73 96.78 304.07 96.78zm4.3125.0c-.65893.0-1.2188.55982-1.2188 1.2188.0.65893.55982 1.1875 1.2188 1.1875.65893.0 1.1875-.52857 1.1875-1.1875S309.04 96.78 308.38 96.78zm4.2812.0c-.65893.0-1.1875.55982-1.1875 1.2188.0.65893.52857 1.1875 1.1875 1.1875s1.1875-.52857 1.1875-1.1875S313.32 96.78 312.66 96.78zm4.3125.0c-.65893.0-1.2188.55982-1.2188 1.2188.0.65893.55982 1.1875 1.2188 1.1875.65893.0 1.1875-.52857 1.1875-1.1875S317.63 96.78 316.97 96.78zm4.2812.0c-.65893.0-1.1875.55982-1.1875 1.2188.0.65893.52857 1.1875 1.1875 1.1875s1.1875-.52857 1.1875-1.1875S321.91 96.78 321.25 96.78zm4.3125.0c-.65893.0-1.2188.55982-1.2188 1.2188.0.65893.55982 1.1875 1.2188 1.1875.65893.0 1.1875-.52857 1.1875-1.1875S326.23 96.78 325.57 96.78zm4.2812.0c-.65893.0-1.1875.55982-1.1875 1.2188.0.65893.52857 1.1875 1.1875 1.1875s1.1875-.52857 1.1875-1.1875S330.51 96.78 329.85 96.78zm4.3125.0c-.65893.0-1.2188.55982-1.2188 1.2188.0.65893.55982 1.1875 1.2188 1.1875.65893.0 1.1875-.52857 1.1875-1.1875S334.82 96.78 334.16 96.78zm4.2812.0c-.65893.0-1.1875.55982-1.1875 1.2188.0.65893.52857 1.1875 1.1875 1.1875s1.1875-.52857 1.1875-1.1875S339.1 96.78 338.44 96.78zm4.3125.0c-.65893.0-1.2188.55982-1.2188 1.2188.0.65893.55982 1.1875 1.2188 1.1875.65893.0 1.1875-.52857 1.1875-1.1875S343.41 96.78 342.75 96.78zm4.2812.0c-.65893.0-1.1875.55982-1.1875 1.2188.0.65893.52857 1.1875 1.1875 1.1875s1.1875-.52857 1.1875-1.1875S347.69 96.78 347.04 96.78zm4.3125.0c-.65893.0-1.2188.55982-1.2188 1.2188.0.65893.55982 1.1875 1.2188 1.1875.65893.0 1.1875-.52857 1.1875-1.1875S352.01 96.78 351.35 96.78zm4.2812.0c-.65893.0-1.1875.55982-1.1875 1.2188.0.65893.52857 1.1875 1.1875 1.1875s1.1875-.52857 1.1875-1.1875S356.29 96.78 355.63 96.78zm4.3125.0c-.65893.0-1.2188.55982-1.2188 1.2188.0.65893.55982 1.1875 1.2188 1.1875.65893.0 1.1875-.52857 1.1875-1.1875S360.6 96.78 359.94 96.78zm4.2812.0c-.65893.0-1.1875.55982-1.1875 1.2188.0.65893.52857 1.1875 1.1875 1.1875s1.1875-.52857 1.1875-1.1875S364.88 96.78 364.22 96.78zm4.3125.0c-.65893.0-1.2188.55982-1.2188 1.2188.0.65893.55982 1.1875 1.2188 1.1875.65893.0 1.1875-.52857 1.1875-1.1875S369.19 96.78 368.54 96.78zm4.2812.0c-.65893.0-1.1875.55982-1.1875 1.2188.0.65893.52857 1.1875 1.1875 1.1875S374 98.658 374 97.999 373.48 96.78 372.82 96.78zm4.3125.0c-.65893.0-1.2188.55982-1.2188 1.2188.0.65893.55982 1.1875 1.2188 1.1875.65893.0 1.1875-.52857 1.1875-1.1875S377.79 96.78 377.13 96.78zm4.2812.0c-.62.0-1.15.56-1.15 1.219.0.65893.52857 1.1875 1.1875 1.1875s1.1875-.52857 1.1875-1.1875S382.11 96.78 381.45 96.78zm4.3125.0c-.65893.0-1.2188.55982-1.2188 1.2188.0.65893.55982 1.1875 1.2188 1.1875.65893.0 1.1875-.52857 1.1875-1.1875S386.38 96.78 385.72 96.78zm4.2812.0c-.65893.0-1.1875.55982-1.1875 1.2188.0.65893.52857 1.1875 1.1875 1.1875s1.1875-.52857 1.1875-1.1875S390.66 96.78 390 96.78zm4.3125.0c-.65893.0-1.2188.55982-1.2188 1.2188.0.65893.55982 1.1875 1.2188 1.1875.65893.0 1.1875-.52857 1.1875-1.1875S394.98 96.78 394.32 96.78zm4.2812.0c-.65893.0-1.1875.55982-1.1875 1.2188.0.65893.52857 1.1875 1.1875 1.1875s1.1875-.52857 1.1875-1.1875S399.26 96.78 398.6 96.78zm4.3125.0c-.65893.0-1.2188.55982-1.2188 1.2188.0.65893.55982 1.1875 1.2188 1.1875.65893.0 1.1875-.52857 1.1875-1.1875S403.57 96.78 402.91 96.78zm4.2812.0C406.53 96.78 406 97.34 406 97.999c0 .65893.52857 1.1875 1.1875 1.1875s1.1875-.52857 1.1875-1.1875S407.85 96.78 407.19 96.78zm4.3125.0c-.65893.0-1.2188.55982-1.2188 1.2188.0.65893.55982 1.1875 1.2188 1.1875.65893.0 1.1875-.52857 1.1875-1.1875S412.16 96.78 411.5 96.78zm4.2812.0c-.65893.0-1.1875.55982-1.1875 1.2188.0.65893.52857 1.1875 1.1875 1.1875s1.1875-.52857 1.1875-1.1875S416.44 96.78 415.79 96.78z"/><path id="path5410" style="opacity:.73000004;fill:#666;filter:url(#filter5430)" inkscape:connector-curvature="0" d="m435.52 808.59c-.65893.0-1.2188.55982-1.2188 1.2188.0.65893.55982 1.1875 1.2188 1.1875.65893.0 1.1875-.52857 1.1875-1.1875S436.18 808.59 435.52 808.59zm4.2812.0c-.65893.0-1.1875.55982-1.1875 1.2188.0.65893.52857 1.1875 1.1875 1.1875s1.1875-.52857 1.1875-1.1875S440.46 808.59 439.8 808.59zm4.3125.0c-.65893.0-1.1875.55982-1.1875 1.2188.0.65893.52857 1.1875 1.1875 1.1875S445.3 810.47 445.3 809.81 444.77 808.59 444.11 808.59zm4.2812.0c-.65893.0-1.1875.55982-1.1875 1.2188.0.65893.52857 1.1875 1.1875 1.1875s1.1875-.52857 1.1875-1.1875-.52857-1.2188-1.1875-1.2188zm4.3125.0c-.65893.0-1.1875.55982-1.1875 1.2188.0.65893.52857 1.1875 1.1875 1.1875s1.1875-.52857 1.1875-1.1875-.52857-1.2188-1.1875-1.2188zm4.2812.0c-.65893.0-1.1875.55982-1.1875 1.2188.0.65893.52857 1.1875 1.1875 1.1875s1.1875-.52857 1.1875-1.1875-.52857-1.2188-1.1875-1.2188zm4.3125.0c-.65893.0-1.1875.55982-1.1875 1.2188.0.65893.52857 1.1875 1.1875 1.1875s1.1875-.52857 1.1875-1.1875S461.96 808.59 461.3 808.59zm4.2812.0c-.65893.0-1.1875.55982-1.1875 1.2188.0.65893.52857 1.1875 1.1875 1.1875s1.1875-.52857 1.1875-1.1875-.52857-1.2188-1.1875-1.2188zm4.3125.0c-.65893.0-1.1875.55982-1.1875 1.2188.0.65893.52857 1.1875 1.1875 1.1875s1.1875-.52857 1.1875-1.1875-.52857-1.2188-1.1875-1.2188zm-163.28.46875c-.65893.0-1.2188.52857-1.2188 1.1875s.55982 1.1875 1.2188 1.1875c.65893.0 1.1875-.52857 1.1875-1.1875S307.27 809.06 306.61 809.06zm4.2812.0c-.65893.0-1.1875.52857-1.1875 1.1875S310.24 811.43 310.9 811.43s1.1875-.52857 1.1875-1.1875S311.55 809.06 310.9 809.06zm4.3125.0c-.65893.0-1.2188.52857-1.2188 1.1875s.55982 1.1875 1.2188 1.1875c.65893.0 1.1875-.52857 1.1875-1.1875S315.87 809.06 315.21 809.06zm4.2812.0c-.65893.0-1.1875.52857-1.1875 1.1875s.52857 1.1875 1.1875 1.1875 1.1875-.52857 1.1875-1.1875-.52857-1.1875-1.1875-1.1875zm4.3125.0c-.65893.0-1.2188.52857-1.2188 1.1875S323.14 811.43 323.8 811.43c.65893.0 1.1875-.52857 1.1875-1.1875S324.46 809.06 323.8 809.06zm4.2812.0c-.65893.0-1.1875.52857-1.1875 1.1875s.52857 1.1875 1.1875 1.1875 1.1875-.52857 1.1875-1.1875-.52857-1.1875-1.1875-1.1875zm4.3125.0c-.65893.0-1.2188.52857-1.2188 1.1875S331.74 811.43 332.4 811.43c.65893.0 1.1875-.52857 1.1875-1.1875S333.05 809.06 332.4 809.06zm4.2812.0c-.65893.0-1.1875.52857-1.1875 1.1875s.52857 1.1875 1.1875 1.1875 1.1875-.52857 1.1875-1.1875-.52857-1.1875-1.1875-1.1875zm4.3125.0c-.65893.0-1.2188.52857-1.2188 1.1875s.55982 1.1875 1.2188 1.1875c.65893.0 1.1875-.52857 1.1875-1.1875S341.65 809.06 340.99 809.06zm4.2812.0c-.65893.0-1.1875.52857-1.1875 1.1875s.52857 1.1875 1.1875 1.1875 1.1875-.52857 1.1875-1.1875-.52857-1.1875-1.1875-1.1875zm4.3125.0c-.65893.0-1.2188.52857-1.2188 1.1875s.55982 1.1875 1.2188 1.1875c.65893.0 1.1875-.52857 1.1875-1.1875S350.24 809.06 349.58 809.06zm4.2812.0c-.65893.0-1.1875.52857-1.1875 1.1875s.52857 1.1875 1.1875 1.1875 1.1875-.52857 1.1875-1.1875-.52857-1.1875-1.1875-1.1875zm4.3125.0c-.65893.0-1.2188.52857-1.2188 1.1875s.55982 1.1875 1.2188 1.1875c.65893.0 1.1875-.52857 1.1875-1.1875S358.84 809.06 358.18 809.06zm4.2812.0c-.65893.0-1.1875.52857-1.1875 1.1875S361.8 811.43 362.46 811.43s1.1875-.52857 1.1875-1.1875-.52857-1.1875-1.1875-1.1875zm4.3125.0c-.65893.0-1.2188.52857-1.2188 1.1875s.55982 1.1875 1.2188 1.1875c.65893.0 1.1875-.52857 1.1875-1.1875S367.43 809.06 366.77 809.06zm4.2812.0c-.65893.0-1.1875.52857-1.1875 1.1875s.52857 1.1875 1.1875 1.1875 1.1875-.52857 1.1875-1.1875-.52857-1.1875-1.1875-1.1875zm4.3125.0c-.65893.0-1.2188.52857-1.2188 1.1875s.55982 1.1875 1.2188 1.1875c.65893.0 1.1875-.52857 1.1875-1.1875S376.02 809.06 375.36 809.06zm4.2812.0c-.65893.0-1.1875.52857-1.1875 1.1875s.52857 1.1875 1.1875 1.1875 1.1875-.52857 1.1875-1.1875S380.3 809.06 379.65 809.06zm4.3125.0c-.65893.0-1.2188.52857-1.2188 1.1875S383.3 811.43 383.96 811.43c.65893.0 1.1875-.52857 1.1875-1.1875S384.62 809.06 383.96 809.06zm4.2812.0c-.65893.0-1.1875.52857-1.1875 1.1875s.52857 1.1875 1.1875 1.1875 1.1875-.52857 1.1875-1.1875S388.9 809.06 388.24 809.06zm4.3125.0c-.65893.0-1.2188.52857-1.2188 1.1875s.55982 1.1875 1.2188 1.1875c.65893.0 1.1875-.52857 1.1875-1.1875S393.21 809.06 392.55 809.06zm4.2812.0c-.65893.0-1.1875.52857-1.1875 1.1875s.52857 1.1875 1.1875 1.1875 1.1875-.52857 1.1875-1.1875-.52857-1.1875-1.1875-1.1875zm4.3125.0c-.65893.0-1.2188.52857-1.2188 1.1875s.55982 1.1875 1.2188 1.1875c.65893.0 1.1875-.52857 1.1875-1.1875S401.8 809.06 401.15 809.06zm4.2812.0c-.65893.0-1.1875.52857-1.1875 1.1875s.52857 1.1875 1.1875 1.1875 1.1875-.52857 1.1875-1.1875-.52857-1.1875-1.1875-1.1875zm4.3125.0c-.65893.0-1.2188.52857-1.2188 1.1875s.55982 1.1875 1.2188 1.1875c.65893.0 1.1875-.52857 1.1875-1.1875S410.4 809.06 409.74 809.06zm4.2812.0c-.65893.0-1.1875.52857-1.1875 1.1875s.52857 1.1875 1.1875 1.1875 1.1875-.52857 1.1875-1.1875-.52857-1.1875-1.1875-1.1875zm4.3125.0c-.65893.0-1.2188.52857-1.2188 1.1875s.55982 1.1875 1.2188 1.1875c.65893.0 1.1875-.52857 1.1875-1.1875S418.99 809.06 418.33 809.06zm4.2812.0c-.65893.0-1.1875.52857-1.1875 1.1875s.52857 1.1875 1.1875 1.1875S423.8 810.91 423.8 810.25 423.27 809.06 422.61 809.06zm4.3125.0c-.65893.0-1.2188.52857-1.2188 1.1875s.55982 1.1875 1.2188 1.1875c.65893.0 1.1875-.52857 1.1875-1.1875S427.59 809.06 426.93 809.06zm4.2812.0c-.65893.0-1.1875.52857-1.1875 1.1875s.52857 1.1875 1.1875 1.1875S432.4 810.91 432.4 810.25 431.87 809.06 431.21 809.06zm4.3125 2.7188c-.65893.0-1.2188.52857-1.2188 1.1875s.55982 1.1875 1.2188 1.1875c.65893.0 1.1875-.52857 1.1875-1.1875S436.18 811.78 435.52 811.78zm4.2812.0c-.65893.0-1.1875.52857-1.1875 1.1875S439.14 814.15 439.8 814.15s1.1875-.52857 1.1875-1.1875S440.46 811.78 439.8 811.78zm4.3125.0c-.65893.0-1.1875.52857-1.1875 1.1875s.52857 1.1875 1.1875 1.1875S445.3 813.62 445.3 812.97 444.77 811.78 444.11 811.78zm4.2812.0c-.65893.0-1.1875.52857-1.1875 1.1875S447.74 814.15 448.4 814.15s1.1875-.52857 1.1875-1.1875S449.05 811.78 448.4 811.78zm4.3125.0c-.65893.0-1.1875.52857-1.1875 1.1875s.52857 1.1875 1.1875 1.1875S453.9 813.62 453.9 812.97 453.37 811.78 452.71 811.78zm4.2812.0c-.65893.0-1.1875.52857-1.1875 1.1875s.52857 1.1875 1.1875 1.1875 1.1875-.52857 1.1875-1.1875-.52857-1.1875-1.1875-1.1875zm4.3125.0c-.65893.0-1.1875.52857-1.1875 1.1875S460.64 814.15 461.3 814.15s1.1875-.52857 1.1875-1.1875S461.96 811.78 461.3 811.78zm4.2812.0c-.65893.0-1.1875.52857-1.1875 1.1875s.52857 1.1875 1.1875 1.1875 1.1875-.52857 1.1875-1.1875-.52857-1.1875-1.1875-1.1875zm4.3125.0c-.65893.0-1.1875.52857-1.1875 1.1875S469.24 814.15 469.9 814.15s1.1875-.52857 1.1875-1.1875S470.55 811.78 469.9 811.78zm-163.28.4375c-.65893.0-1.2188.52857-1.2188 1.1875s.55982 1.1875 1.2188 1.1875c.65893.0 1.1875-.52857 1.1875-1.1875S307.27 812.22 306.62 812.22zm4.2812.0c-.65893.0-1.1875.52857-1.1875 1.1875S310.24 814.59 310.9 814.59 312.08 814.06 312.08 813.4 311.56 812.22 310.9 812.22zm4.3125.0c-.65893.0-1.2188.52857-1.2188 1.1875s.55982 1.1875 1.2188 1.1875c.65893.0 1.1875-.52857 1.1875-1.1875S315.87 812.22 315.21 812.22zm4.2812.0c-.65893.0-1.1875.52857-1.1875 1.1875s.52857 1.1875 1.1875 1.1875S320.68 814.06 320.68 813.4 320.15 812.22 319.49 812.22zm4.3125.0c-.65893.0-1.2188.52857-1.2188 1.1875S323.14 814.59 323.8 814.59c.65893.0 1.1875-.52857 1.1875-1.1875S324.46 812.22 323.8 812.22zm4.2812.0c-.65893.0-1.1875.52857-1.1875 1.1875s.52857 1.1875 1.1875 1.1875S329.27 814.06 329.27 813.4 328.74 812.22 328.08 812.22zm4.3125.0c-.65893.0-1.2188.52857-1.2188 1.1875S331.74 814.59 332.4 814.59c.65893.0 1.1875-.52857 1.1875-1.1875S333.06 812.22 332.4 812.22zm4.2812.0c-.65893.0-1.1875.52857-1.1875 1.1875s.52857 1.1875 1.1875 1.1875S337.86 814.06 337.86 813.4 337.34 812.22 336.68 812.22zm4.3125.0c-.65893.0-1.2188.52857-1.2188 1.1875s.55982 1.1875 1.2188 1.1875c.65893.0 1.1875-.52857 1.1875-1.1875S341.65 812.22 340.99 812.22zm4.2812.0c-.65893.0-1.1875.52857-1.1875 1.1875s.52857 1.1875 1.1875 1.1875S346.46 814.06 346.46 813.4 345.93 812.22 345.27 812.22zm4.3125.0c-.65893.0-1.2188.52857-1.2188 1.1875s.55982 1.1875 1.2188 1.1875c.65893.0 1.1875-.52857 1.1875-1.1875S350.24 812.22 349.58 812.22zm4.2812.0c-.65893.0-1.1875.52857-1.1875 1.1875s.52857 1.1875 1.1875 1.1875S355.05 814.06 355.05 813.4 354.52 812.22 353.86 812.22zm4.3125.0c-.65893.0-1.2188.52857-1.2188 1.1875s.55982 1.1875 1.2188 1.1875c.65893.0 1.1875-.52857 1.1875-1.1875S358.84 812.22 358.18 812.22zm4.2812.0c-.65893.0-1.1875.52857-1.1875 1.1875S361.8 814.59 362.46 814.59 363.65 814.06 363.65 813.4 363.12 812.22 362.46 812.22zm4.3125.0c-.65893.0-1.2188.52857-1.2188 1.1875s.55982 1.1875 1.2188 1.1875c.65893.0 1.1875-.52857 1.1875-1.1875S367.43 812.22 366.77 812.22zm4.2812.0c-.65893.0-1.1875.52857-1.1875 1.1875s.52857 1.1875 1.1875 1.1875S372.24 814.06 372.24 813.4 371.71 812.22 371.05 812.22zm4.3125.0c-.65893.0-1.2188.52857-1.2188 1.1875s.55982 1.1875 1.2188 1.1875c.65893.0 1.1875-.52857 1.1875-1.1875S376.02 812.22 375.36 812.22zm4.2812.0c-.65893.0-1.1875.52857-1.1875 1.1875s.52857 1.1875 1.1875 1.1875S380.83 814.06 380.83 813.4 380.3 812.22 379.65 812.22zm4.3125.0c-.65893.0-1.2188.52857-1.2188 1.1875S383.3 814.59 383.96 814.59c.65893.0 1.1875-.52857 1.1875-1.1875S384.62 812.22 383.96 812.22zm4.2812.0c-.65893.0-1.1875.52857-1.1875 1.1875s.52857 1.1875 1.1875 1.1875S389.43 814.06 389.43 813.4 388.9 812.22 388.24 812.22zm4.3125.0c-.65893.0-1.2188.52857-1.2188 1.1875s.55982 1.1875 1.2188 1.1875c.65893.0 1.1875-.52857 1.1875-1.1875S393.21 812.22 392.55 812.22zm4.2812.0c-.65893.0-1.1875.52857-1.1875 1.1875s.52857 1.1875 1.1875 1.1875S398.02 814.06 398.02 813.4 397.49 812.22 396.83 812.22zm4.3125.0c-.65893.0-1.2188.52857-1.2188 1.1875s.55982 1.1875 1.2188 1.1875c.65893.0 1.1875-.52857 1.1875-1.1875S401.8 812.22 401.15 812.22zm4.2812.0c-.65893.0-1.1875.52857-1.1875 1.1875s.52857 1.1875 1.1875 1.1875S406.61 814.06 406.61 813.4 406.09 812.22 405.43 812.22zm4.3125.0c-.65893.0-1.2188.52857-1.2188 1.1875s.55982 1.1875 1.2188 1.1875c.65893.0 1.1875-.52857 1.1875-1.1875S410.4 812.22 409.74 812.22zm4.2812.0c-.65893.0-1.1875.52857-1.1875 1.1875s.52857 1.1875 1.1875 1.1875S415.21 814.06 415.21 813.4 414.68 812.22 414.02 812.22zm4.3125.0c-.65893.0-1.2188.52857-1.2188 1.1875s.55982 1.1875 1.2188 1.1875c.65893.0 1.1875-.52857 1.1875-1.1875S418.99 812.22 418.33 812.22zm4.2812.0c-.65893.0-1.1875.52857-1.1875 1.1875s.52857 1.1875 1.1875 1.1875S423.8 814.06 423.8 813.4 423.27 812.22 422.61 812.22zm4.3125.0c-.65893.0-1.2188.52857-1.2188 1.1875s.55982 1.1875 1.2188 1.1875c.65893.0 1.1875-.52857 1.1875-1.1875S427.59 812.22 426.93 812.22zm4.2812.0c-.65893.0-1.1875.52857-1.1875 1.1875s.52857 1.1875 1.1875 1.1875S432.4 814.06 432.4 813.4 431.87 812.22 431.21 812.22zm4.3125 2.9375c-.65893.0-1.2188.52857-1.2188 1.1875s.55982 1.2188 1.2188 1.2188c.65893.0 1.1875-.55982 1.1875-1.2188.0-.65893-.52857-1.1875-1.1875-1.1875zm4.2812.0c-.65893.0-1.1875.52857-1.1875 1.1875S439.14 817.56 439.8 817.56 440.99 817 440.99 816.34c0-.65893-.52857-1.1875-1.1875-1.1875zm4.3125.0c-.65893.0-1.1875.52857-1.1875 1.1875s.52857 1.2188 1.1875 1.2188S445.3 817 445.3 816.34c0-.65893-.52857-1.1875-1.1875-1.1875zm4.2812.0c-.65893.0-1.1875.52857-1.1875 1.1875S447.74 817.56 448.4 817.56 449.58 817 449.58 816.34c0-.65893-.52857-1.1875-1.1875-1.1875zm4.3125.0c-.65893.0-1.1875.52857-1.1875 1.1875s.52857 1.2188 1.1875 1.2188S453.9 817 453.9 816.34c0-.65893-.52857-1.1875-1.1875-1.1875zm4.2812.0c-.65893.0-1.1875.52857-1.1875 1.1875s.52857 1.2188 1.1875 1.2188S458.18 817 458.18 816.34c0-.65893-.52857-1.1875-1.1875-1.1875zm4.3125.0c-.65893.0-1.1875.52857-1.1875 1.1875S460.64 817.56 461.3 817.56 462.49 817 462.49 816.34c0-.65893-.52857-1.1875-1.1875-1.1875zm4.2812.0c-.65893.0-1.1875.52857-1.1875 1.1875s.52857 1.2188 1.1875 1.2188S466.77 817 466.77 816.34c0-.65893-.52857-1.1875-1.1875-1.1875zm4.3125.0c-.65893.0-1.1875.52857-1.1875 1.1875S469.24 817.56 469.9 817.56 471.08 817 471.08 816.34c0-.65893-.52857-1.1875-1.1875-1.1875zm-163.28.46875c-.65893.0-1.2188.52857-1.2188 1.1875S305.96 818 306.62 818c.65893.0 1.1875-.52857 1.1875-1.1875S307.27 815.62 306.62 815.62zm4.2812.0c-.65893.0-1.1875.52857-1.1875 1.1875S310.24 818 310.9 818s1.1875-.52857 1.1875-1.1875S311.56 815.62 310.9 815.62zm4.3125.0c-.65893.0-1.2188.52857-1.2188 1.1875S314.55 818 315.21 818c.65893.0 1.1875-.52857 1.1875-1.1875S315.87 815.62 315.21 815.62zm4.2812.0c-.65893.0-1.1875.52857-1.1875 1.1875S318.83 818 319.49 818s1.1875-.52857 1.1875-1.1875-.52857-1.1875-1.1875-1.1875zm4.3125.0c-.65893.0-1.2188.52857-1.2188 1.1875S323.14 818 323.8 818c.65893.0 1.1875-.52857 1.1875-1.1875S324.46 815.62 323.8 815.62zm4.2812.0c-.65893.0-1.1875.52857-1.1875 1.1875S327.43 818 328.08 818s1.1875-.52857 1.1875-1.1875-.52857-1.1875-1.1875-1.1875zm4.3125.0c-.65893.0-1.2188.52857-1.2188 1.1875S331.74 818 332.4 818c.65893.0 1.1875-.52857 1.1875-1.1875S333.06 815.62 332.4 815.62zm4.2812.0c-.65893.0-1.1875.52857-1.1875 1.1875S336.02 818 336.68 818s1.1875-.52857 1.1875-1.1875-.52857-1.1875-1.1875-1.1875zm4.3125.0c-.65893.0-1.2188.52857-1.2188 1.1875S340.33 818 340.99 818c.65893.0 1.1875-.52857 1.1875-1.1875S341.65 815.62 340.99 815.62zm4.2812.0c-.65893.0-1.1875.52857-1.1875 1.1875S344.61 818 345.27 818s1.1875-.52857 1.1875-1.1875-.52857-1.1875-1.1875-1.1875zm4.3125.0c-.65893.0-1.2188.52857-1.2188 1.1875S348.92 818 349.58 818c.65893.0 1.1875-.52857 1.1875-1.1875S350.24 815.62 349.58 815.62zm4.2812.0c-.65893.0-1.1875.52857-1.1875 1.1875S353.21 818 353.87 818s1.1875-.52857 1.1875-1.1875-.52857-1.1875-1.1875-1.1875zm4.3125.0c-.65893.0-1.2188.52857-1.2188 1.1875S357.52 818 358.18 818c.65893.0 1.1875-.52857 1.1875-1.1875S358.84 815.62 358.18 815.62zm4.2812.0c-.65893.0-1.1875.52857-1.1875 1.1875S361.8 818 362.46 818s1.1875-.52857 1.1875-1.1875-.52857-1.1875-1.1875-1.1875zm4.3125.0c-.65893.0-1.2188.52857-1.2188 1.1875S366.11 818 366.77 818c.65893.0 1.1875-.52857 1.1875-1.1875S367.43 815.62 366.77 815.62zm4.2812.0c-.65893.0-1.1875.52857-1.1875 1.1875S370.39 818 371.05 818s1.1875-.52857 1.1875-1.1875-.52857-1.1875-1.1875-1.1875zm4.3125.0c-.65893.0-1.2188.52857-1.2188 1.1875S374.71 818 375.37 818c.65893.0 1.1875-.52857 1.1875-1.1875S376.02 815.62 375.37 815.62zm4.2812.0c-.65893.0-1.1875.52857-1.1875 1.1875S378.99 818 379.65 818s1.1875-.52857 1.1875-1.1875-.52857-1.1875-1.1875-1.1875zm4.3125.0c-.65893.0-1.2188.52857-1.2188 1.1875S383.3 818 383.96 818c.65893.0 1.1875-.52857 1.1875-1.1875S384.62 815.62 383.96 815.62zm4.2812.0c-.65893.0-1.1875.52857-1.1875 1.1875S387.58 818 388.24 818s1.1875-.52857 1.1875-1.1875S388.9 815.62 388.24 815.62zm4.3125.0c-.65893.0-1.2188.52857-1.2188 1.1875S391.89 818 392.55 818c.65893.0 1.1875-.52857 1.1875-1.1875S393.21 815.62 392.55 815.62zm4.2812.0c-.65893.0-1.1875.52857-1.1875 1.1875S396.17 818 396.83 818s1.1875-.52857 1.1875-1.1875-.52857-1.1875-1.1875-1.1875zm4.3125.0c-.65893.0-1.2188.52857-1.2188 1.1875S400.49 818 401.15 818c.65893.0 1.1875-.52857 1.1875-1.1875S401.81 815.62 401.15 815.62zm4.2812.0c-.65893.0-1.1875.52857-1.1875 1.1875S404.77 818 405.43 818s1.1875-.52857 1.1875-1.1875-.52857-1.1875-1.1875-1.1875zm4.3125.0c-.65893.0-1.2188.52857-1.2188 1.1875S409.08 818 409.74 818c.65893.0 1.1875-.52857 1.1875-1.1875S410.4 815.62 409.74 815.62zm4.2812.0c-.65893.0-1.1875.52857-1.1875 1.1875S413.36 818 414.02 818s1.1875-.52857 1.1875-1.1875-.52857-1.1875-1.1875-1.1875zm4.3125.0c-.65893.0-1.2188.52857-1.2188 1.1875S417.67 818 418.33 818c.65893.0 1.1875-.52857 1.1875-1.1875S418.99 815.62 418.33 815.62zm4.2812.0c-.65893.0-1.1875.52857-1.1875 1.1875S421.96 818 422.61 818 423.8 817.47 423.8 816.81 423.27 815.62 422.61 815.62zm4.3125.0c-.65893.0-1.2188.52857-1.2188 1.1875S426.27 818 426.93 818c.65893.0 1.1875-.52857 1.1875-1.1875S427.59 815.62 426.93 815.62zm4.2812.0c-.65893.0-1.1875.52857-1.1875 1.1875S430.55 818 431.21 818 432.4 817.47 432.4 816.81 431.87 815.62 431.21 815.62zm4.3125 3.1562c-.65893.0-1.2188.52857-1.2188 1.1875s.55982 1.1875 1.2188 1.1875c.65893.0 1.1875-.52857 1.1875-1.1875S436.18 818.78 435.52 818.78zm4.2812.0c-.65893.0-1.1875.52857-1.1875 1.1875S439.14 821.15 439.8 821.15s1.1875-.52857 1.1875-1.1875S440.46 818.78 439.8 818.78zm4.3125.0c-.65893.0-1.1875.52857-1.1875 1.1875s.52857 1.1875 1.1875 1.1875S445.3 820.62 445.3 819.97 444.77 818.78 444.11 818.78zm4.2812.0c-.65893.0-1.1875.52857-1.1875 1.1875S447.74 821.15 448.4 821.15s1.1875-.52857 1.1875-1.1875S449.05 818.78 448.4 818.78zm4.3125.0c-.65893.0-1.1875.52857-1.1875 1.1875s.52857 1.1875 1.1875 1.1875S453.9 820.62 453.9 819.97 453.37 818.78 452.71 818.78zm4.2812.0c-.65893.0-1.1875.52857-1.1875 1.1875s.52857 1.1875 1.1875 1.1875 1.1875-.52857 1.1875-1.1875-.52857-1.1875-1.1875-1.1875zm4.3125.0c-.65893.0-1.1875.52857-1.1875 1.1875S460.64 821.15 461.3 821.15s1.1875-.52857 1.1875-1.1875S461.96 818.78 461.3 818.78zm4.2812.0c-.65893.0-1.1875.52857-1.1875 1.1875s.52857 1.1875 1.1875 1.1875 1.1875-.52857 1.1875-1.1875-.52857-1.1875-1.1875-1.1875zm-154.69.4375c-.65893.0-1.1875.55982-1.1875 1.2188.0.65893.52857 1.1875 1.1875 1.1875s1.1875-.52857 1.1875-1.1875-.52857-1.2188-1.1875-1.2188zm4.3125.0c-.65893.0-1.2188.55982-1.2188 1.2188.0.65893.55982 1.1875 1.2188 1.1875.65893.0 1.1875-.52857 1.1875-1.1875S315.86 819.22 315.21 819.22zm4.2812.0c-.65893.0-1.1875.55982-1.1875 1.2188.0.65893.52857 1.1875 1.1875 1.1875s1.1875-.52857 1.1875-1.1875-.52857-1.2188-1.1875-1.2188zm4.3125.0c-.65893.0-1.2188.55982-1.2188 1.2188.0.65893.55982 1.1875 1.2188 1.1875.65893.0 1.1875-.52857 1.1875-1.1875S324.46 819.22 323.8 819.22zm4.2812.0c-.65893.0-1.1875.55982-1.1875 1.2188.0.65893.52857 1.1875 1.1875 1.1875s1.1875-.52857 1.1875-1.1875-.52857-1.2188-1.1875-1.2188zm4.3125.0c-.65893.0-1.2188.55982-1.2188 1.2188.0.65893.55982 1.1875 1.2188 1.1875.65893.0 1.1875-.52857 1.1875-1.1875S333.05 819.22 332.39 819.22zm4.2812.0c-.65893.0-1.1875.55982-1.1875 1.2188.0.65893.52857 1.1875 1.1875 1.1875s1.1875-.52857 1.1875-1.1875-.52857-1.2188-1.1875-1.2188zm4.3125.0c-.65893.0-1.2188.55982-1.2188 1.2188.0.65893.55982 1.1875 1.2188 1.1875.65893.0 1.1875-.52857 1.1875-1.1875S341.65 819.22 340.99 819.22zm4.2812.0c-.65893.0-1.1875.55982-1.1875 1.2188.0.65893.52857 1.1875 1.1875 1.1875s1.1875-.52857 1.1875-1.1875-.52857-1.2188-1.1875-1.2188zm4.3125.0c-.65893.0-1.2188.55982-1.2188 1.2188.0.65893.55982 1.1875 1.2188 1.1875.65893.0 1.1875-.52857 1.1875-1.1875S350.24 819.22 349.58 819.22zm4.2812.0c-.65893.0-1.1875.55982-1.1875 1.2188.0.65893.52857 1.1875 1.1875 1.1875s1.1875-.52857 1.1875-1.1875-.52857-1.2188-1.1875-1.2188zm4.3125.0c-.65893.0-1.2188.55982-1.2188 1.2188.0.65893.55982 1.1875 1.2188 1.1875.65893.0 1.1875-.52857 1.1875-1.1875S358.83 819.22 358.17 819.22zm4.2812.0c-.65893.0-1.1875.55982-1.1875 1.2188.0.65893.52857 1.1875 1.1875 1.1875s1.1875-.52857 1.1875-1.1875-.52857-1.2188-1.1875-1.2188zm4.3125.0c-.65893.0-1.2188.55982-1.2188 1.2188.0.65893.55982 1.1875 1.2188 1.1875.65893.0 1.1875-.52857 1.1875-1.1875S367.43 819.22 366.77 819.22zm4.2812.0c-.65893.0-1.1875.55982-1.1875 1.2188.0.65893.52857 1.1875 1.1875 1.1875s1.1875-.52857 1.1875-1.1875-.52857-1.2188-1.1875-1.2188zm4.3125.0c-.65893.0-1.2188.55982-1.2188 1.2188.0.65893.55982 1.1875 1.2188 1.1875.65893.0 1.1875-.52857 1.1875-1.1875S376.02 819.22 375.36 819.22zm4.2812.0c-.65893.0-1.1875.55982-1.1875 1.2188.0.65893.52857 1.1875 1.1875 1.1875s1.1875-.52857 1.1875-1.1875S380.3 819.22 379.64 819.22zm4.3125.0c-.65893.0-1.2188.55982-1.2188 1.2188.0.65893.55982 1.1875 1.2188 1.1875.65893.0 1.1875-.52857 1.1875-1.1875S384.61 819.22 383.96 819.22zm4.2812.0c-.65893.0-1.1875.55982-1.1875 1.2188.0.65893.52857 1.1875 1.1875 1.1875s1.1875-.52857 1.1875-1.1875S388.9 819.22 388.24 819.22zm4.3125.0c-.65893.0-1.2188.55982-1.2188 1.2188.0.65893.55982 1.1875 1.2188 1.1875.65893.0 1.1875-.52857 1.1875-1.1875S393.21 819.22 392.55 819.22zm4.2812.0c-.65893.0-1.1875.55982-1.1875 1.2188.0.65893.52857 1.1875 1.1875 1.1875s1.1875-.52857 1.1875-1.1875-.52857-1.2188-1.1875-1.2188zm4.3125.0c-.65893.0-1.2188.55982-1.2188 1.2188.0.65893.55982 1.1875 1.2188 1.1875.65893.0 1.1875-.52857 1.1875-1.1875S401.8 819.22 401.14 819.22zm4.2812.0c-.65893.0-1.1875.55982-1.1875 1.2188.0.65893.52857 1.1875 1.1875 1.1875s1.1875-.52857 1.1875-1.1875-.52857-1.2188-1.1875-1.2188zm4.3125.0c-.65893.0-1.2188.55982-1.2188 1.2188.0.65893.55982 1.1875 1.2188 1.1875.65893.0 1.1875-.52857 1.1875-1.1875S410.4 819.22 409.74 819.22zm4.2812.0c-.65893.0-1.1875.55982-1.1875 1.2188.0.65893.52857 1.1875 1.1875 1.1875s1.1875-.52857 1.1875-1.1875-.52857-1.2188-1.1875-1.2188zm4.3125.0c-.65893.0-1.2188.55982-1.2188 1.2188.0.65893.55982 1.1875 1.2188 1.1875.65893.0 1.1875-.52857 1.1875-1.1875S418.99 819.22 418.33 819.22zm4.2812.0c-.65893.0-1.1875.55982-1.1875 1.2188.0.65893.52857 1.1875 1.1875 1.1875S423.8 821.09 423.8 820.43 423.27 819.22 422.61 819.22zm4.3125.0c-.65893.0-1.2188.55982-1.2188 1.2188.0.65893.55982 1.1875 1.2188 1.1875.65893.0 1.1875-.52857 1.1875-1.1875S427.58 819.22 426.92 819.22zm4.2812.0c-.65893.0-1.1875.55982-1.1875 1.2188.0.65893.52857 1.1875 1.1875 1.1875s1.1875-.52857 1.1875-1.1875-.52857-1.2188-1.1875-1.2188z"/><path id="path5412" style="opacity:.73000004;fill:#666;filter:url(#filter5434)" inkscape:connector-curvature="0" d="m435.52 835.05c-.65893.0-1.2188-.55982-1.2188-1.2188.0-.65893.55982-1.1875 1.2188-1.1875.65893.0 1.1875.52857 1.1875 1.1875S436.18 835.05 435.52 835.05zm4.2812.0c-.65893.0-1.1875-.55982-1.1875-1.2188.0-.65893.52857-1.1875 1.1875-1.1875s1.1875.52857 1.1875 1.1875S440.46 835.05 439.8 835.05zm4.3125.0c-.65893.0-1.1875-.55982-1.1875-1.2188.0-.65893.52857-1.1875 1.1875-1.1875S445.3 833.17 445.3 833.83 444.77 835.05 444.11 835.05zm4.2812.0c-.65893.0-1.1875-.55982-1.1875-1.2188.0-.65893.52857-1.1875 1.1875-1.1875s1.1875.52857 1.1875 1.1875-.52857 1.2188-1.1875 1.2188zm4.3125.0c-.65893.0-1.1875-.55982-1.1875-1.2188.0-.65893.52857-1.1875 1.1875-1.1875s1.1875.52857 1.1875 1.1875-.52857 1.2188-1.1875 1.2188zm4.2812.0c-.65893.0-1.1875-.55982-1.1875-1.2188.0-.65893.52857-1.1875 1.1875-1.1875s1.1875.52857 1.1875 1.1875-.52857 1.2188-1.1875 1.2188zm4.3125.0c-.65893.0-1.1875-.55982-1.1875-1.2188.0-.65893.52857-1.1875 1.1875-1.1875s1.1875.52857 1.1875 1.1875S461.96 835.05 461.3 835.05zm4.2812.0c-.65893.0-1.1875-.55982-1.1875-1.2188.0-.65893.52857-1.1875 1.1875-1.1875s1.1875.52857 1.1875 1.1875-.52857 1.2188-1.1875 1.2188zm4.3125.0c-.65893.0-1.1875-.55982-1.1875-1.2188.0-.65893.52857-1.1875 1.1875-1.1875s1.1875.52857 1.1875 1.1875-.52857 1.2188-1.1875 1.2188zM306.61 834.58c-.65893.0-1.2188-.52857-1.2188-1.1875s.55982-1.1875 1.2188-1.1875c.65893.0 1.1875.52857 1.1875 1.1875S307.27 834.58 306.61 834.58zm4.2812.0c-.65893.0-1.1875-.52857-1.1875-1.1875S310.24 832.21 310.9 832.21s1.1875.52857 1.1875 1.1875S311.55 834.58 310.9 834.58zm4.3125.0c-.65893.0-1.2188-.52857-1.2188-1.1875s.55982-1.1875 1.2188-1.1875c.65893.0 1.1875.52857 1.1875 1.1875S315.87 834.58 315.21 834.58zm4.2812.0c-.65893.0-1.1875-.52857-1.1875-1.1875s.52857-1.1875 1.1875-1.1875 1.1875.52857 1.1875 1.1875-.52857 1.1875-1.1875 1.1875zm4.3125.0c-.65893.0-1.2188-.52857-1.2188-1.1875S323.14 832.21 323.8 832.21c.65893.0 1.1875.52857 1.1875 1.1875S324.46 834.58 323.8 834.58zm4.2812.0c-.65893.0-1.1875-.52857-1.1875-1.1875s.52857-1.1875 1.1875-1.1875 1.1875.52857 1.1875 1.1875-.52857 1.1875-1.1875 1.1875zm4.3125.0c-.65893.0-1.2188-.52857-1.2188-1.1875S331.74 832.21 332.4 832.21c.65893.0 1.1875.52857 1.1875 1.1875S333.05 834.58 332.4 834.58zm4.2812.0c-.65893.0-1.1875-.52857-1.1875-1.1875s.52857-1.1875 1.1875-1.1875 1.1875.52857 1.1875 1.1875-.52857 1.1875-1.1875 1.1875zm4.3125.0c-.65893.0-1.2188-.52857-1.2188-1.1875s.55982-1.1875 1.2188-1.1875c.65893.0 1.1875.52857 1.1875 1.1875S341.65 834.58 340.99 834.58zm4.2812.0c-.65893.0-1.1875-.52857-1.1875-1.1875s.52857-1.1875 1.1875-1.1875 1.1875.52857 1.1875 1.1875-.52857 1.1875-1.1875 1.1875zm4.3125.0c-.65893.0-1.2188-.52857-1.2188-1.1875s.55982-1.1875 1.2188-1.1875c.65893.0 1.1875.52857 1.1875 1.1875S350.24 834.58 349.58 834.58zm4.2812.0c-.65893.0-1.1875-.52857-1.1875-1.1875s.52857-1.1875 1.1875-1.1875 1.1875.52857 1.1875 1.1875-.52857 1.1875-1.1875 1.1875zm4.3125.0c-.65893.0-1.2188-.52857-1.2188-1.1875s.55982-1.1875 1.2188-1.1875c.65893.0 1.1875.52857 1.1875 1.1875S358.84 834.58 358.18 834.58zm4.2812.0c-.65893.0-1.1875-.52857-1.1875-1.1875S361.8 832.21 362.46 832.21s1.1875.52857 1.1875 1.1875-.52857 1.1875-1.1875 1.1875zm4.3125.0c-.65893.0-1.2188-.52857-1.2188-1.1875s.55982-1.1875 1.2188-1.1875c.65893.0 1.1875.52857 1.1875 1.1875S367.43 834.58 366.77 834.58zm4.2812.0c-.65893.0-1.1875-.52857-1.1875-1.1875s.52857-1.1875 1.1875-1.1875 1.1875.52857 1.1875 1.1875-.52857 1.1875-1.1875 1.1875zm4.3125.0c-.65893.0-1.2188-.52857-1.2188-1.1875s.55982-1.1875 1.2188-1.1875c.65893.0 1.1875.52857 1.1875 1.1875S376.02 834.58 375.36 834.58zm4.2812.0c-.65893.0-1.1875-.52857-1.1875-1.1875s.52857-1.1875 1.1875-1.1875 1.1875.52857 1.1875 1.1875S380.3 834.58 379.65 834.58zm4.3125.0c-.65893.0-1.2188-.52857-1.2188-1.1875S383.3 832.21 383.96 832.21c.65893.0 1.1875.52857 1.1875 1.1875S384.62 834.58 383.96 834.58zm4.2812.0c-.65893.0-1.1875-.52857-1.1875-1.1875s.52857-1.1875 1.1875-1.1875 1.1875.52857 1.1875 1.1875S388.9 834.58 388.24 834.58zm4.3125.0c-.65893.0-1.2188-.52857-1.2188-1.1875s.55982-1.1875 1.2188-1.1875c.65893.0 1.1875.52857 1.1875 1.1875S393.21 834.58 392.55 834.58zm4.2812.0c-.65893.0-1.1875-.52857-1.1875-1.1875s.52857-1.1875 1.1875-1.1875 1.1875.52857 1.1875 1.1875-.52857 1.1875-1.1875 1.1875zm4.3125.0c-.65893.0-1.2188-.52857-1.2188-1.1875s.55982-1.1875 1.2188-1.1875c.65893.0 1.1875.52857 1.1875 1.1875S401.8 834.58 401.15 834.58zm4.2812.0c-.65893.0-1.1875-.52857-1.1875-1.1875s.52857-1.1875 1.1875-1.1875 1.1875.52857 1.1875 1.1875-.52857 1.1875-1.1875 1.1875zm4.3125.0c-.65893.0-1.2188-.52857-1.2188-1.1875s.55982-1.1875 1.2188-1.1875c.65893.0 1.1875.52857 1.1875 1.1875S410.4 834.58 409.74 834.58zm4.2812.0c-.65893.0-1.1875-.52857-1.1875-1.1875s.52857-1.1875 1.1875-1.1875 1.1875.52857 1.1875 1.1875-.52857 1.1875-1.1875 1.1875zm4.3125.0c-.65893.0-1.2188-.52857-1.2188-1.1875s.55982-1.1875 1.2188-1.1875c.65893.0 1.1875.52857 1.1875 1.1875S418.99 834.58 418.33 834.58zm4.2812.0c-.65893.0-1.1875-.52857-1.1875-1.1875s.52857-1.1875 1.1875-1.1875S423.8 832.73 423.8 833.39 423.27 834.58 422.61 834.58zm4.3125.0c-.65893.0-1.2188-.52857-1.2188-1.1875s.55982-1.1875 1.2188-1.1875c.65893.0 1.1875.52857 1.1875 1.1875S427.59 834.58 426.93 834.58zm4.2812.0c-.65893.0-1.1875-.52857-1.1875-1.1875s.52857-1.1875 1.1875-1.1875S432.4 832.73 432.4 833.39 431.87 834.58 431.21 834.58zm4.3125-2.7188c-.65893.0-1.2188-.52857-1.2188-1.1875s.55982-1.1875 1.2188-1.1875c.65893.0 1.1875.52857 1.1875 1.1875S436.18 831.86 435.52 831.86zm4.2812.0c-.65893.0-1.1875-.52857-1.1875-1.1875S439.14 829.49 439.8 829.49s1.1875.52857 1.1875 1.1875S440.46 831.86 439.8 831.86zm4.3125.0c-.65893.0-1.1875-.52857-1.1875-1.1875s.52857-1.1875 1.1875-1.1875S445.3 830.02 445.3 830.67 444.77 831.86 444.11 831.86zm4.2812.0c-.65893.0-1.1875-.52857-1.1875-1.1875S447.74 829.49 448.4 829.49s1.1875.52857 1.1875 1.1875S449.05 831.86 448.4 831.86zm4.3125.0c-.65893.0-1.1875-.52857-1.1875-1.1875s.52857-1.1875 1.1875-1.1875S453.9 830.02 453.9 830.67 453.37 831.86 452.71 831.86zm4.2812.0c-.65893.0-1.1875-.52857-1.1875-1.1875s.52857-1.1875 1.1875-1.1875 1.1875.52857 1.1875 1.1875-.52857 1.1875-1.1875 1.1875zm4.3125.0c-.65893.0-1.1875-.52857-1.1875-1.1875S460.64 829.49 461.3 829.49s1.1875.52857 1.1875 1.1875S461.96 831.86 461.3 831.86zm4.2812.0c-.65893.0-1.1875-.52857-1.1875-1.1875s.52857-1.1875 1.1875-1.1875 1.1875.52857 1.1875 1.1875-.52857 1.1875-1.1875 1.1875zm4.3125.0c-.65893.0-1.1875-.52857-1.1875-1.1875S469.24 829.49 469.9 829.49s1.1875.52857 1.1875 1.1875S470.55 831.86 469.9 831.86zm-163.28-.4375c-.65893.0-1.2188-.52857-1.2188-1.1875s.55982-1.1875 1.2188-1.1875c.65893.0 1.1875.52857 1.1875 1.1875S307.27 831.42 306.62 831.42zm4.2812.0c-.65893.0-1.1875-.52857-1.1875-1.1875S310.24 829.05 310.9 829.05s1.1875.52857 1.1875 1.1875S311.56 831.42 310.9 831.42zm4.3125.0c-.65893.0-1.2188-.52857-1.2188-1.1875s.55982-1.1875 1.2188-1.1875c.65893.0 1.1875.52857 1.1875 1.1875S315.87 831.42 315.21 831.42zm4.2812.0c-.65893.0-1.1875-.52857-1.1875-1.1875s.52857-1.1875 1.1875-1.1875 1.1875.52857 1.1875 1.1875-.52857 1.1875-1.1875 1.1875zm4.3125.0c-.65893.0-1.2188-.52857-1.2188-1.1875S323.14 829.05 323.8 829.05c.65893.0 1.1875.52857 1.1875 1.1875S324.46 831.42 323.8 831.42zm4.2812.0c-.65893.0-1.1875-.52857-1.1875-1.1875s.52857-1.1875 1.1875-1.1875 1.1875.52857 1.1875 1.1875-.52857 1.1875-1.1875 1.1875zm4.3125.0c-.65893.0-1.2188-.52857-1.2188-1.1875S331.74 829.05 332.4 829.05c.65893.0 1.1875.52857 1.1875 1.1875S333.06 831.42 332.4 831.42zm4.2812.0c-.65893.0-1.1875-.52857-1.1875-1.1875s.52857-1.1875 1.1875-1.1875 1.1875.52857 1.1875 1.1875-.52857 1.1875-1.1875 1.1875zm4.3125.0c-.65893.0-1.2188-.52857-1.2188-1.1875s.55982-1.1875 1.2188-1.1875c.65893.0 1.1875.52857 1.1875 1.1875S341.65 831.42 340.99 831.42zm4.2812.0c-.65893.0-1.1875-.52857-1.1875-1.1875s.52857-1.1875 1.1875-1.1875 1.1875.52857 1.1875 1.1875-.52857 1.1875-1.1875 1.1875zm4.3125.0c-.65893.0-1.2188-.52857-1.2188-1.1875s.55982-1.1875 1.2188-1.1875c.65893.0 1.1875.52857 1.1875 1.1875S350.24 831.42 349.58 831.42zm4.2812.0c-.65893.0-1.1875-.52857-1.1875-1.1875s.52857-1.1875 1.1875-1.1875 1.1875.52857 1.1875 1.1875-.52857 1.1875-1.1875 1.1875zm4.3125.0c-.65893.0-1.2188-.52857-1.2188-1.1875s.55982-1.1875 1.2188-1.1875c.65893.0 1.1875.52857 1.1875 1.1875S358.84 831.42 358.18 831.42zm4.2812.0c-.65893.0-1.1875-.52857-1.1875-1.1875S361.8 829.05 362.46 829.05s1.1875.52857 1.1875 1.1875-.52857 1.1875-1.1875 1.1875zm4.3125.0c-.65893.0-1.2188-.52857-1.2188-1.1875s.55982-1.1875 1.2188-1.1875c.65893.0 1.1875.52857 1.1875 1.1875S367.43 831.42 366.77 831.42zm4.2812.0c-.65893.0-1.1875-.52857-1.1875-1.1875s.52857-1.1875 1.1875-1.1875 1.1875.52857 1.1875 1.1875-.52857 1.1875-1.1875 1.1875zm4.3125.0c-.65893.0-1.2188-.52857-1.2188-1.1875s.55982-1.1875 1.2188-1.1875c.65893.0 1.1875.52857 1.1875 1.1875S376.02 831.42 375.36 831.42zm4.2812.0c-.65893.0-1.1875-.52857-1.1875-1.1875s.52857-1.1875 1.1875-1.1875 1.1875.52857 1.1875 1.1875S380.3 831.42 379.65 831.42zm4.3125.0c-.65893.0-1.2188-.52857-1.2188-1.1875S383.3 829.05 383.96 829.05c.65893.0 1.1875.52857 1.1875 1.1875S384.62 831.42 383.96 831.42zm4.2812.0c-.65893.0-1.1875-.52857-1.1875-1.1875s.52857-1.1875 1.1875-1.1875 1.1875.52857 1.1875 1.1875S388.9 831.42 388.24 831.42zm4.3125.0c-.65893.0-1.2188-.52857-1.2188-1.1875s.55982-1.1875 1.2188-1.1875c.65893.0 1.1875.52857 1.1875 1.1875S393.21 831.42 392.55 831.42zm4.2812.0c-.65893.0-1.1875-.52857-1.1875-1.1875s.52857-1.1875 1.1875-1.1875 1.1875.52857 1.1875 1.1875-.52857 1.1875-1.1875 1.1875zm4.3125.0c-.65893.0-1.2188-.52857-1.2188-1.1875s.55982-1.1875 1.2188-1.1875c.65893.0 1.1875.52857 1.1875 1.1875S401.8 831.42 401.15 831.42zm4.2812.0c-.65893.0-1.1875-.52857-1.1875-1.1875s.52857-1.1875 1.1875-1.1875 1.1875.52857 1.1875 1.1875-.52857 1.1875-1.1875 1.1875zm4.3125.0c-.65893.0-1.2188-.52857-1.2188-1.1875s.55982-1.1875 1.2188-1.1875c.65893.0 1.1875.52857 1.1875 1.1875S410.4 831.42 409.74 831.42zm4.2812.0c-.65893.0-1.1875-.52857-1.1875-1.1875s.52857-1.1875 1.1875-1.1875 1.1875.52857 1.1875 1.1875-.52857 1.1875-1.1875 1.1875zm4.3125.0c-.65893.0-1.2188-.52857-1.2188-1.1875s.55982-1.1875 1.2188-1.1875c.65893.0 1.1875.52857 1.1875 1.1875S418.99 831.42 418.33 831.42zm4.2812.0c-.65893.0-1.1875-.52857-1.1875-1.1875s.52857-1.1875 1.1875-1.1875S423.8 829.58 423.8 830.24 423.27 831.42 422.61 831.42zm4.3125.0c-.65893.0-1.2188-.52857-1.2188-1.1875s.55982-1.1875 1.2188-1.1875c.65893.0 1.1875.52857 1.1875 1.1875S427.59 831.42 426.93 831.42zm4.2812.0c-.65893.0-1.1875-.52857-1.1875-1.1875s.52857-1.1875 1.1875-1.1875S432.4 829.58 432.4 830.24 431.87 831.42 431.21 831.42zm4.3125-2.9375c-.65893.0-1.2188-.52857-1.2188-1.1875s.55982-1.2188 1.2188-1.2188c.65893.0 1.1875.55982 1.1875 1.2188.0.65893-.52857 1.1875-1.1875 1.1875zm4.2812.0c-.65893.0-1.1875-.52857-1.1875-1.1875S439.14 826.08 439.8 826.08s1.1875.55982 1.1875 1.2188c0 .65893-.52857 1.1875-1.1875 1.1875zm4.3125.0c-.65893.0-1.1875-.52857-1.1875-1.1875s.52857-1.2188 1.1875-1.2188S445.3 826.64 445.3 827.3c0 .65893-.52857 1.1875-1.1875 1.1875zm4.2812.0c-.65893.0-1.1875-.52857-1.1875-1.1875S447.74 826.08 448.4 826.08s1.1875.55982 1.1875 1.2188c0 .65893-.52857 1.1875-1.1875 1.1875zm4.3125.0c-.65893.0-1.1875-.52857-1.1875-1.1875s.52857-1.2188 1.1875-1.2188S453.9 826.64 453.9 827.3c0 .65893-.52857 1.1875-1.1875 1.1875zm4.2812.0c-.65893.0-1.1875-.52857-1.1875-1.1875s.52857-1.2188 1.1875-1.2188 1.1875.55982 1.1875 1.2188c0 .65893-.52857 1.1875-1.1875 1.1875zm4.3125.0c-.65893.0-1.1875-.52857-1.1875-1.1875S460.64 826.08 461.3 826.08s1.1875.55982 1.1875 1.2188c0 .65893-.52857 1.1875-1.1875 1.1875zm4.2812.0c-.65893.0-1.1875-.52857-1.1875-1.1875s.52857-1.2188 1.1875-1.2188 1.1875.55982 1.1875 1.2188c0 .65893-.52857 1.1875-1.1875 1.1875zm4.3125.0c-.65893.0-1.1875-.52857-1.1875-1.1875S469.24 826.08 469.9 826.08s1.1875.55982 1.1875 1.2188c0 .65893-.52857 1.1875-1.1875 1.1875zM306.62 828.02c-.65893.0-1.2188-.52857-1.2188-1.1875s.55982-1.1875 1.2188-1.1875c.65893.0 1.1875.52857 1.1875 1.1875S307.27 828.02 306.62 828.02zm4.2812.0c-.65893.0-1.1875-.52857-1.1875-1.1875S310.24 825.64 310.9 825.64s1.1875.52857 1.1875 1.1875S311.56 828.02 310.9 828.02zm4.3125.0c-.65893.0-1.2188-.52857-1.2188-1.1875s.55982-1.1875 1.2188-1.1875c.65893.0 1.1875.52857 1.1875 1.1875S315.87 828.02 315.21 828.02zm4.2812.0c-.65893.0-1.1875-.52857-1.1875-1.1875s.52857-1.1875 1.1875-1.1875 1.1875.52857 1.1875 1.1875-.52857 1.1875-1.1875 1.1875zm4.3125.0c-.65893.0-1.2188-.52857-1.2188-1.1875S323.14 825.64 323.8 825.64c.65893.0 1.1875.52857 1.1875 1.1875S324.46 828.02 323.8 828.02zm4.2812.0c-.65893.0-1.1875-.52857-1.1875-1.1875s.52857-1.1875 1.1875-1.1875 1.1875.52857 1.1875 1.1875-.52857 1.1875-1.1875 1.1875zm4.3125.0c-.65893.0-1.2188-.52857-1.2188-1.1875S331.74 825.64 332.4 825.64c.65893.0 1.1875.52857 1.1875 1.1875S333.06 828.02 332.4 828.02zm4.2812.0c-.65893.0-1.1875-.52857-1.1875-1.1875s.52857-1.1875 1.1875-1.1875 1.1875.52857 1.1875 1.1875-.52857 1.1875-1.1875 1.1875zm4.3125.0c-.65893.0-1.2188-.52857-1.2188-1.1875s.55982-1.1875 1.2188-1.1875c.65893.0 1.1875.52857 1.1875 1.1875S341.65 828.02 340.99 828.02zm4.2812.0c-.65893.0-1.1875-.52857-1.1875-1.1875s.52857-1.1875 1.1875-1.1875 1.1875.52857 1.1875 1.1875-.52857 1.1875-1.1875 1.1875zm4.3125.0c-.65893.0-1.2188-.52857-1.2188-1.1875s.55982-1.1875 1.2188-1.1875c.65893.0 1.1875.52857 1.1875 1.1875S350.24 828.02 349.58 828.02zm4.2812.0c-.65893.0-1.1875-.52857-1.1875-1.1875s.52857-1.1875 1.1875-1.1875 1.1875.52857 1.1875 1.1875-.52857 1.1875-1.1875 1.1875zm4.3125.0c-.65893.0-1.2188-.52857-1.2188-1.1875s.55982-1.1875 1.2188-1.1875c.65893.0 1.1875.52857 1.1875 1.1875S358.84 828.02 358.18 828.02zm4.2812.0c-.65893.0-1.1875-.52857-1.1875-1.1875S361.8 825.64 362.46 825.64s1.1875.52857 1.1875 1.1875-.52857 1.1875-1.1875 1.1875zm4.3125.0c-.65893.0-1.2188-.52857-1.2188-1.1875s.55982-1.1875 1.2188-1.1875c.65893.0 1.1875.52857 1.1875 1.1875S367.43 828.02 366.77 828.02zm4.2812.0c-.65893.0-1.1875-.52857-1.1875-1.1875s.52857-1.1875 1.1875-1.1875 1.1875.52857 1.1875 1.1875-.52857 1.1875-1.1875 1.1875zm4.3125.0c-.65893.0-1.2188-.52857-1.2188-1.1875s.55982-1.1875 1.2188-1.1875c.65893.0 1.1875.52857 1.1875 1.1875S376.02 828.02 375.37 828.02zm4.2812.0c-.65893.0-1.1875-.52857-1.1875-1.1875s.52857-1.1875 1.1875-1.1875 1.1875.52857 1.1875 1.1875-.52857 1.1875-1.1875 1.1875zm4.3125.0c-.65893.0-1.2188-.52857-1.2188-1.1875S383.3 825.64 383.96 825.64c.65893.0 1.1875.52857 1.1875 1.1875S384.62 828.02 383.96 828.02zm4.2812.0c-.65893.0-1.1875-.52857-1.1875-1.1875s.52857-1.1875 1.1875-1.1875 1.1875.52857 1.1875 1.1875S388.9 828.02 388.24 828.02zm4.3125.0c-.65893.0-1.2188-.52857-1.2188-1.1875s.55982-1.1875 1.2188-1.1875c.65893.0 1.1875.52857 1.1875 1.1875S393.21 828.02 392.55 828.02zm4.2812.0c-.65893.0-1.1875-.52857-1.1875-1.1875s.52857-1.1875 1.1875-1.1875 1.1875.52857 1.1875 1.1875-.52857 1.1875-1.1875 1.1875zm4.3125.0c-.65893.0-1.2188-.52857-1.2188-1.1875s.55982-1.1875 1.2188-1.1875c.65893.0 1.1875.52857 1.1875 1.1875S401.81 828.02 401.15 828.02zm4.2812.0c-.65893.0-1.1875-.52857-1.1875-1.1875s.52857-1.1875 1.1875-1.1875 1.1875.52857 1.1875 1.1875-.52857 1.1875-1.1875 1.1875zm4.3125.0c-.65893.0-1.2188-.52857-1.2188-1.1875s.55982-1.1875 1.2188-1.1875c.65893.0 1.1875.52857 1.1875 1.1875S410.4 828.02 409.74 828.02zm4.2812.0c-.65893.0-1.1875-.52857-1.1875-1.1875s.52857-1.1875 1.1875-1.1875 1.1875.52857 1.1875 1.1875-.52857 1.1875-1.1875 1.1875zm4.3125.0c-.65893.0-1.2188-.52857-1.2188-1.1875s.55982-1.1875 1.2188-1.1875c.65893.0 1.1875.52857 1.1875 1.1875S418.99 828.02 418.33 828.02zm4.2812.0c-.65893.0-1.1875-.52857-1.1875-1.1875s.52857-1.1875 1.1875-1.1875S423.8 826.17 423.8 826.83 423.27 828.02 422.61 828.02zm4.3125.0c-.65893.0-1.2188-.52857-1.2188-1.1875s.55982-1.1875 1.2188-1.1875c.65893.0 1.1875.52857 1.1875 1.1875S427.59 828.02 426.93 828.02zm4.2812.0c-.65893.0-1.1875-.52857-1.1875-1.1875s.52857-1.1875 1.1875-1.1875S432.4 826.17 432.4 826.83 431.87 828.02 431.21 828.02zm4.3125-3.1562c-.65893.0-1.2188-.52857-1.2188-1.1875s.55982-1.1875 1.2188-1.1875c.65893.0 1.1875.52857 1.1875 1.1875S436.18 824.86 435.52 824.86zm4.2812.0c-.65893.0-1.1875-.52857-1.1875-1.1875S439.14 822.49 439.8 822.49s1.1875.52857 1.1875 1.1875S440.46 824.86 439.8 824.86zm4.3125.0c-.65893.0-1.1875-.52857-1.1875-1.1875s.52857-1.1875 1.1875-1.1875S445.3 823.02 445.3 823.68 444.77 824.86 444.11 824.86zm4.2812.0c-.65893.0-1.1875-.52857-1.1875-1.1875S447.74 822.49 448.4 822.49s1.1875.52857 1.1875 1.1875S449.05 824.86 448.4 824.86zm4.3125.0c-.65893.0-1.1875-.52857-1.1875-1.1875s.52857-1.1875 1.1875-1.1875S453.9 823.02 453.9 823.68 453.37 824.86 452.71 824.86zm4.2812.0c-.65893.0-1.1875-.52857-1.1875-1.1875s.52857-1.1875 1.1875-1.1875 1.1875.52857 1.1875 1.1875-.52857 1.1875-1.1875 1.1875zm4.3125.0c-.65893.0-1.1875-.52857-1.1875-1.1875S460.64 822.49 461.3 822.49s1.1875.52857 1.1875 1.1875S461.96 824.86 461.3 824.86zm4.2812.0c-.65893.0-1.1875-.52857-1.1875-1.1875s.52857-1.1875 1.1875-1.1875 1.1875.52857 1.1875 1.1875-.52857 1.1875-1.1875 1.1875zm-154.69-.4375c-.65893.0-1.1875-.55982-1.1875-1.2188.0-.65893.52857-1.1875 1.1875-1.1875s1.1875.52857 1.1875 1.1875-.52857 1.2188-1.1875 1.2188zm4.3125.0c-.65893.0-1.2188-.55982-1.2188-1.2188.0-.65893.55982-1.1875 1.2188-1.1875.65893.0 1.1875.52857 1.1875 1.1875S315.86 824.43 315.21 824.43zm4.2812.0c-.65893.0-1.1875-.55982-1.1875-1.2188.0-.65893.52857-1.1875 1.1875-1.1875s1.1875.52857 1.1875 1.1875-.52857 1.2188-1.1875 1.2188zm4.3125.0c-.65893.0-1.2188-.55982-1.2188-1.2188.0-.65893.55982-1.1875 1.2188-1.1875.65893.0 1.1875.52857 1.1875 1.1875S324.46 824.43 323.8 824.43zm4.2812.0c-.65893.0-1.1875-.55982-1.1875-1.2188.0-.65893.52857-1.1875 1.1875-1.1875s1.1875.52857 1.1875 1.1875-.52857 1.2188-1.1875 1.2188zm4.3125.0c-.65893.0-1.2188-.55982-1.2188-1.2188.0-.65893.55982-1.1875 1.2188-1.1875.65893.0 1.1875.52857 1.1875 1.1875S333.05 824.43 332.39 824.43zm4.2812.0c-.65893.0-1.1875-.55982-1.1875-1.2188.0-.65893.52857-1.1875 1.1875-1.1875s1.1875.52857 1.1875 1.1875-.52857 1.2188-1.1875 1.2188zm4.3125.0c-.65893.0-1.2188-.55982-1.2188-1.2188.0-.65893.55982-1.1875 1.2188-1.1875.65893.0 1.1875.52857 1.1875 1.1875S341.65 824.43 340.99 824.43zm4.2812.0c-.65893.0-1.1875-.55982-1.1875-1.2188.0-.65893.52857-1.1875 1.1875-1.1875s1.1875.52857 1.1875 1.1875-.52857 1.2188-1.1875 1.2188zm4.3125.0c-.65893.0-1.2188-.55982-1.2188-1.2188.0-.65893.55982-1.1875 1.2188-1.1875.65893.0 1.1875.52857 1.1875 1.1875S350.24 824.43 349.58 824.43zm4.2812.0c-.65893.0-1.1875-.55982-1.1875-1.2188.0-.65893.52857-1.1875 1.1875-1.1875s1.1875.52857 1.1875 1.1875-.52857 1.2188-1.1875 1.2188zm4.3125.0c-.65893.0-1.2188-.55982-1.2188-1.2188.0-.65893.55982-1.1875 1.2188-1.1875.65893.0 1.1875.52857 1.1875 1.1875S358.83 824.43 358.17 824.43zm4.2812.0c-.65893.0-1.1875-.55982-1.1875-1.2188.0-.65893.52857-1.1875 1.1875-1.1875s1.1875.52857 1.1875 1.1875-.52857 1.2188-1.1875 1.2188zm4.3125.0c-.65893.0-1.2188-.55982-1.2188-1.2188.0-.65893.55982-1.1875 1.2188-1.1875.65893.0 1.1875.52857 1.1875 1.1875S367.43 824.43 366.77 824.43zm4.2812.0c-.65893.0-1.1875-.55982-1.1875-1.2188.0-.65893.52857-1.1875 1.1875-1.1875s1.1875.52857 1.1875 1.1875-.52857 1.2188-1.1875 1.2188zm4.3125.0c-.65893.0-1.2188-.55982-1.2188-1.2188.0-.65893.55982-1.1875 1.2188-1.1875.65893.0 1.1875.52857 1.1875 1.1875S376.02 824.43 375.36 824.43zm4.2812.0c-.65893.0-1.1875-.55982-1.1875-1.2188.0-.65893.52857-1.1875 1.1875-1.1875s1.1875.52857 1.1875 1.1875S380.3 824.43 379.64 824.43zm4.3125.0c-.65893.0-1.2188-.55982-1.2188-1.2188.0-.65893.55982-1.1875 1.2188-1.1875.65893.0 1.1875.52857 1.1875 1.1875S384.61 824.43 383.96 824.43zm4.2812.0c-.65893.0-1.1875-.55982-1.1875-1.2188.0-.65893.52857-1.1875 1.1875-1.1875s1.1875.52857 1.1875 1.1875S388.9 824.43 388.24 824.43zm4.3125.0c-.65893.0-1.2188-.55982-1.2188-1.2188.0-.65893.55982-1.1875 1.2188-1.1875.65893.0 1.1875.52857 1.1875 1.1875S393.21 824.43 392.55 824.43zm4.2812.0c-.65893.0-1.1875-.55982-1.1875-1.2188.0-.65893.52857-1.1875 1.1875-1.1875s1.1875.52857 1.1875 1.1875-.52857 1.2188-1.1875 1.2188zm4.3125.0c-.65893.0-1.2188-.55982-1.2188-1.2188.0-.65893.55982-1.1875 1.2188-1.1875.65893.0 1.1875.52857 1.1875 1.1875S401.8 824.43 401.14 824.43zm4.2812.0c-.65893.0-1.1875-.55982-1.1875-1.2188.0-.65893.52857-1.1875 1.1875-1.1875s1.1875.52857 1.1875 1.1875-.52857 1.2188-1.1875 1.2188zm4.3125.0c-.65893.0-1.2188-.55982-1.2188-1.2188.0-.65893.55982-1.1875 1.2188-1.1875.65893.0 1.1875.52857 1.1875 1.1875S410.4 824.43 409.74 824.43zm4.2812.0c-.65893.0-1.1875-.55982-1.1875-1.2188.0-.65893.52857-1.1875 1.1875-1.1875s1.1875.52857 1.1875 1.1875-.52857 1.2188-1.1875 1.2188zm4.3125.0c-.65893.0-1.2188-.55982-1.2188-1.2188.0-.65893.55982-1.1875 1.2188-1.1875.65893.0 1.1875.52857 1.1875 1.1875S418.99 824.43 418.33 824.43zm4.2812.0c-.65893.0-1.1875-.55982-1.1875-1.2188.0-.65893.52857-1.1875 1.1875-1.1875S423.8 822.55 423.8 823.21 423.27 824.43 422.61 824.43zm4.3125.0c-.65893.0-1.2188-.55982-1.2188-1.2188.0-.65893.55982-1.1875 1.2188-1.1875.65893.0 1.1875.52857 1.1875 1.1875S427.58 824.43 426.92 824.43zm4.2812.0c-.65893.0-1.1875-.55982-1.1875-1.2188.0-.65893.52857-1.1875 1.1875-1.1875s1.1875.52857 1.1875 1.1875-.52857 1.2188-1.1875 1.2188z"/><path id="path3080" sodipodi:nodetypes="csssssscc" style="fill:url(#radialGradient4236)" inkscape:connector-curvature="0" d="m601.73 267.25c.20222.0216.41255.0399.6287.0399h2.5978c1.5864.0 2.8588-2.7999 2.8588-3.5627V205.96c0-.76285-1.2724-3.3807-2.8588-3.3807H602.36c-.21615.0-.42648.0183-.6287.04z"/><path id="path3084" d="m601.73 330.09c.20222.0216.41255.0399.6287.0399h2.5978c1.5864.0 2.8588-2.7999 2.8588-3.5627V268.8c0-.76285-1.2724-3.3807-2.8588-3.3807H602.36c-.21615.0-.42648.0183-.6287.04z" sodipodi:nodetypes="csssssscc" style="fill:url(#radialGradient4238)" inkscape:connector-curvature="0"/></g></g></g><g id="g3318" transform="matrix(5.5170186,0,0,3.9336444,293.25726,357.69072)"><g transform="translate(-176.71875,-513.11145)" inkscape:label="Layer 1" id="layer1-7"><g id="g3170"><path style="fill:url(#linearGradient3197);fill-opacity:1;stroke:#000;stroke-width:1px;stroke-linecap:butt;stroke-linejoin:miter;stroke-opacity:1" d="m177.17 354.33 70.866-148.82 28.346 14.173z" id="path3011" inkscape:connector-curvature="0" transform="translate(0,308.2677)" sodipodi:nodetypes="cccc"/><path style="fill:url(#linearGradient3199);fill-opacity:1;stroke:#000;stroke-width:1px;stroke-linecap:butt;stroke-linejoin:miter;stroke-opacity:1" d="m177.17 354.33 99.213-134.65-7.0866 28.346z" id="path3801" inkscape:connector-curvature="0" transform="translate(0,308.2677)"/></g></g><g transform="translate(-176.71875,-513.11145)" id="layer2-5" inkscape:label="Text"/></g></g><g inkscape:label="Text" id="layer2" inkscape:groupmode="layer" transform="translate(-170.16122,-344.1241)"/></svg>