<svg xmlns:dc="http://purl.org/dc/elements/1.1/" xmlns:cc="http://creativecommons.org/ns#" xmlns:rdf="http://www.w3.org/1999/02/22-rdf-syntax-ns#" xmlns:svg="http://www.w3.org/2000/svg" xmlns="http://www.w3.org/2000/svg" xmlns:sodipodi="http://sodipodi.sourceforge.net/DTD/sodipodi-0.dtd" xmlns:inkscape="http://www.inkscape.org/namespaces/inkscape" id="svg2" sodipodi:docname="book.svg" inkscape:export-filename="/home/piotr/priv/zm_szablon/book.png" viewBox="0 0 495.31 355.43" sodipodi:version=".32" inkscape:export-xdpi="90" inkscape:output_extension="org.inkscape.output.svg.inkscape" inkscape:export-ydpi="90" inkscape:version="0.92.3 (2405546, 2018-03-11)" width="131.05mm" height="94.041mm"><defs id="defs4"><linearGradient id="linearGradient2410" y2="513.78" gradientUnits="userSpaceOnUse" x2="341.64" gradientTransform="translate(0,-360)" y1="575.4" x1="472.96" inkscape:collect="always"><stop id="stop3186" style="stop-color:#e3dbdb" offset="0"/><stop id="stop3195" style="stop-color:#ffffff" offset="1"/><stop id="stop3188" style="stop-color:#e3dbdb;stop-opacity:0" offset="1"/></linearGradient><linearGradient id="linearGradient2413" y2="532.64" gradientUnits="userSpaceOnUse" x2="348.99" gradientTransform="translate(0,-360)" y1="576.08" x1="98.749" inkscape:collect="always"><stop id="stop3178" style="stop-color:#e3dbdb" offset="0"/><stop id="stop3192" style="stop-color:#ffffff" offset="1"/><stop id="stop3180" style="stop-color:#e3dbdb;stop-opacity:0" offset="1"/></linearGradient><linearGradient id="linearGradient2416" y2="732.56" gradientUnits="userSpaceOnUse" x2="469.14" gradientTransform="translate(0,-360)" y1="608.61" x1="163.43" inkscape:collect="always"><stop id="stop3194" style="stop-color:#ac9393" offset="0"/><stop id="stop3197" style="stop-color:#ffffff" offset="1"/><stop id="stop3196" style="stop-color:#ac9393;stop-opacity:0" offset="1"/></linearGradient></defs><sodipodi:namedview id="base" bordercolor="#666666" inkscape:pageshadow="2" guidetolerance="10" pagecolor="#ffffff" gridtolerance="1e4" inkscape:window-height="1020" inkscape:zoom=".98995" objecttolerance="10" showgrid="false" borderopacity="1" inkscape:current-layer="layer1" inkscape:cx="27.764" inkscape:cy="102.86" inkscape:window-y="0" inkscape:window-x="0" inkscape:window-width="1920" inkscape:pageopacity="0" inkscape:document-units="px" units="mm" fit-margin-top="0" fit-margin-left="0" fit-margin-right="0" fit-margin-bottom="0" inkscape:window-maximized="1"/><g id="layer1" inkscape:label="Layer 1" inkscape:groupmode="layer" transform="translate(-134.76784,-62.362764)"><g id="g3199"><path id="path2416" sodipodi:nodetypes="cccsccccccccccccccc" style="fill:#520;fill-rule:evenodd;stroke:#000;stroke-width:1px" d="m582.66 262.1 46.69 103.59-202.81 27.53s.5 6.06-12.12 4.29c-12.63-1.77-22.23-10.61-22.48-20.71l-217.69 40.41-38.89-228.8h11.11l.76 2.52h-5.3l38.13 218.95L393.71 372l.75 6.07 12.88-.76s1.01 14.64 16.92 14.64l3.03-4.79 196.73-26.52-43.54-97.14z" inkscape:connector-curvature="0"/><path id="path2400" sodipodi:nodetypes="cccccc" style="fill:#a40;fill-rule:evenodd;stroke:#000;stroke-width:1px" d="m147.5 190.43-4.64.72 37.5 218.21 211.93-37.92s-56.93-29.93-201.22 33.28z" inkscape:connector-curvature="0"/><path id="path2402" sodipodi:nodetypes="ccccccccccccccc" style="fill:#c8b7b7;fill-rule:evenodd;stroke:#000;stroke-width:1px" d="m147.5 185.58-.71-16.07 2.85-1.43v-13.57l5.36-11.08 2.86-1.42v-6.79l5.71-5 47.14 211.07-6.78 10.72-.36 5-3.21 4.28-5.72 5.72-4.1 36.96z" inkscape:connector-curvature="0"/><path id="path2388" sodipodi:nodetypes="cccccccc" style="fill:#c8b7b7;fill-rule:evenodd;stroke:#000;stroke-width:1px" d="m190.54 404.15 3.75-37.5 9.28-8.93v-6.07l7.14-10.36s182.15-6.07 194.65 26.43l-12.5 3.21s-57.68-29.64-202.32 33.22z" inkscape:connector-curvature="0"/><path id="path2394" style="fill:url(#linearGradient2416);fill-rule:evenodd;stroke:#000;stroke-width:1px" d="m188.57 130.22h-24.64l46.78 210.71s173.58-6.78 194.29 26.08c0 0-4.64-36.08-177.14-54.29z" inkscape:connector-curvature="0"/><path id="path2398" style="fill:url(#linearGradient2413);fill-rule:evenodd;stroke:#000;stroke-width:1px" d="m181.07 93.434 46.79 218.58s163.21 17.5 178.21 55l-64.64-208.58s-2.5-33.57-160.36-64.996z" inkscape:connector-curvature="0"/><path id="path2403" sodipodi:nodetypes="ccccc" style="fill:url(#linearGradient2410);fill-rule:evenodd;stroke:#000;stroke-width:1px" d="m342.14 157.72 164.65-94.644 83.57 194.28-183.93 110.36-64.29-210z" inkscape:connector-curvature="0"/><path id="path2411" sodipodi:nodetypes="ccccccc" style="fill:#a40;fill-rule:evenodd;stroke:#000;stroke-width:1px" d="m394.46 377.27-.71-5.89 12.23-3.22s6.7 18.22 21.34 19.29l-2.68 4.2s-15.35.17-17.32-14.83z" inkscape:connector-curvature="0"/><path id="path2415" style="fill:#c8b7b7;fill-rule:evenodd;stroke:#000;stroke-width:1px" d="m406.79 369.72s6.6 18.21 20 17.5l196.78-26.79-8.57-18.92-9.64.17v-3.21s-166.2 8.79-198.57 31.25z" inkscape:connector-curvature="0"/><path id="path2404" sodipodi:nodetypes="ccccc" style="fill:#f2f2f2;fill-rule:evenodd;stroke:#000;stroke-width:1px" d="m614.93 341.19-34.34-77.27-174 103.79.75 1.77s15.52-19.42 197.99-31.06l.26 3.03z" inkscape:connector-curvature="0"/></g></g></svg>