<svg xmlns:dc="http://purl.org/dc/elements/1.1/" xmlns:cc="http://creativecommons.org/ns#" xmlns:rdf="http://www.w3.org/1999/02/22-rdf-syntax-ns#" xmlns:svg="http://www.w3.org/2000/svg" xmlns="http://www.w3.org/2000/svg" xmlns:sodipodi="http://sodipodi.sourceforge.net/DTD/sodipodi-0.dtd" xmlns:inkscape="http://www.inkscape.org/namespaces/inkscape" width="1200" height="600" id="svg2" inkscape:version="0.48.3.1 r9886" sodipodi:docname="USSR1.svg"><defs id="defs14"/><sodipodi:namedview pagecolor="#ffffff" bordercolor="#666666" borderopacity="1" objecttolerance="10" gridtolerance="10" guidetolerance="10" inkscape:pageopacity="0" inkscape:pageshadow="2" inkscape:window-width="1600" inkscape:window-height="848" id="namedview12" showgrid="false" inkscape:zoom=".5" inkscape:cx="211.07" inkscape:cy="401.64" inkscape:window-x="-8" inkscape:window-y="-8" inkscape:window-maximized="1" inkscape:current-layer="svg2"/><rect fill="#c00" width="1200" height="600" id="rect4"/><path fill="gold" d="m191.6 61.4h-27l21.8 16-8.2 25.6L2e2 87.2l21.8 15.8-8.2-25.6 21.8-16h-27L2e2 35.6l-8.4 25.8zm8.4-9.8 4.8 14.8h15.4l-12.4 9 4.72 14.7L2e2 81l-12.52 9.1 4.72-14.7-12.4-9h15.4l4.8-14.8z" id="path6"/><path style="fill:gold;fill-opacity:1;fill-rule:evenodd;stroke:none" d="m166.58 138.65-33.985 32.37 18.125 18.125 15.651-15.756c30.522 30.98 54.246 55.065 83.719 84.977 8.1595 8.46 22.368-3.0439 13.269-12.812C232.22 215.2 210.63 193.3 178.19 161.48l19.235-19.348z" id="hammer_head" inkscape:connector-curvature="0" sodipodi:nodetypes="ccccccccc"/><g id="g3852" transform="matrix(0.83334944,0,0,0.83334944,-15.22385,-132.01121)"><path style="fill:gold;fill-opacity:1;fill-rule:evenodd;stroke:none" d="m216.78 433.75c72.961 67.686 191.2-54.364 40.094-142.81h5e-5c112.45 124.93 4.4942 163.23-34.594 124.69L220.31 414C218.72 415.79 217.12 417.58 215.52 419.37 212.5 416.51 207.79 415.67 206.34 420.56c-5.9505-.4117-9.4423 2.885-11 9.0625-11.069 7.3329-23.051 13.767-29.938 25.281-3.9361 12.18 3.8486 17.477 12.656 16.469C192.5 465.38 196.96 452.41 204.69 441.72c5.4617-1.7386 10.088-4.0758 10.936-9.048" id="sickle_handle" inkscape:connector-curvature="0" sodipodi:nodetypes="cccccccccccc"/></g></svg>