<svg xmlns:dc="http://purl.org/dc/elements/1.1/" xmlns:cc="http://creativecommons.org/ns#" xmlns:rdf="http://www.w3.org/1999/02/22-rdf-syntax-ns#" xmlns:svg="http://www.w3.org/2000/svg" xmlns="http://www.w3.org/2000/svg" xmlns:sodipodi="http://sodipodi.sourceforge.net/DTD/sodipodi-0.dtd" xmlns:inkscape="http://www.inkscape.org/namespaces/inkscape" width="152.25mm" height="118.97mm" viewBox="0 0 539.48 421.55" id="svg2" inkscape:version="0.91 r13725" sodipodi:docname="snai.svg"><defs id="defs4"/><sodipodi:namedview id="base" pagecolor="#ffffff" bordercolor="#666666" borderopacity="1" inkscape:pageopacity="0" inkscape:pageshadow="2" inkscape:zoom=".35" inkscape:cx="344.74" inkscape:cy="342.2" inkscape:document-units="px" inkscape:current-layer="layer1" showgrid="false" fit-margin-top="0" fit-margin-left="0" fit-margin-right="0" fit-margin-bottom="0" inkscape:window-width="1366" inkscape:window-height="659" inkscape:window-x="0" inkscape:window-y="31" inkscape:window-maximized="1"/><g inkscape:label="Layer 1" inkscape:groupmode="layer" id="layer1" transform="translate(-30.257726,-453.01616)"><g transform="translate(-83.156169,-153.16611)" inkscape:label="Calque 1" id="layer1-5"><path sodipodi:nodetypes="cccccssssccccccccccccccc" inkscape:connector-curvature="0" id="path3796" transform="translate(0,562.36)" d="m589.96 43.822c-4.47 11e-5-8.0936 3.6237-8.0938 8.0938.003 1.1065.23314 2.2007.67579 3.2148-13.224 10.19-47.06 33.873-61.293 75.77C503.7 186.51 479.98 212.71 459.55 257.36 455.49 237.73 448.15 218.35 440.19 202.62c-22.972-45.411-68.91-83.033-116.57-92.557-28.78-5.7509-82.516 9.9784-105.14 29.74-50.106 43.757-80.063 112.5-66.826 179.99 5.7662 29.398 27.14 54.642 53.277 72.135-51.381 1.1614-31.67 32.323-90.835 23.27C97.934 461.18 375.57 485.88 526.2 443.67c44.534-23.374 69.26-72.337 73.256-121.1 8.0078-63.94-11.506-83.186-3.3335-146.98-.18286-20.793 32.235-76.298 44.914-83.1 1.1624.61415 2.4569.93593 3.7715.9375 4.47-11e-5 8.0936-3.6237 8.0938-8.0938-11e-5-4.47-3.6237-8.0936-8.0938-8.0938-3.7011.0048-6.9276 2.5195-7.8359 6.1074-12.633 1.6668-48.112 48.485-61.902 47.811-32.85 2.225 5.9746-57.233 13.309-71.305.52151.10465 1.0521.15765 1.584.1582 4.4708 973e-6 8.0956-3.623 8.0957-8.0938-11e-5-4.4708-3.6249-8.0947-8.0957-8.0938z" style="fill:#000;fill-opacity:1"/></g></g></svg>