<svg xmlns:dc="http://purl.org/dc/elements/1.1/" xmlns:cc="http://web.resource.org/cc/" xmlns:rdf="http://www.w3.org/1999/02/22-rdf-syntax-ns#" xmlns:svg="http://www.w3.org/2000/svg" xmlns="http://www.w3.org/2000/svg" xmlns:xlink="http://www.w3.org/1999/xlink" xmlns:sodipodi="http://inkscape.sourceforge.net/DTD/sodipodi-0.dtd" xmlns:inkscape="http://www.inkscape.org/namespaces/inkscape" version="1.0" width="388.84pt" height="115.02pt" id="svg2" sodipodi:version=".32" inkscape:version=".43" sodipodi:docname="logo-python-generic.svg" sodipodi:docbase="/home/sdeibel"><sodipodi:namedview inkscape:window-height="543" inkscape:window-width="791" inkscape:pageshadow="2" inkscape:pageopacity="0" borderopacity="1" bordercolor="#666666" pagecolor="#ffffff" id="base" inkscape:zoom="1.434" inkscape:cx="243.02" inkscape:cy="71.887" inkscape:window-x="0" inkscape:window-y="0" inkscape:current-layer="svg2"/><defs id="defs4"><linearGradient id="linearGradient2795"><stop style="stop-color:#b8b8b8;stop-opacity:.49803922" offset="0" id="stop2797"/><stop style="stop-color:#7f7f7f;stop-opacity:0" offset="1" id="stop2799"/></linearGradient><linearGradient id="linearGradient2787"><stop style="stop-color:#7f7f7f;stop-opacity:.5" offset="0" id="stop2789"/><stop style="stop-color:#7f7f7f;stop-opacity:0" offset="1" id="stop2791"/></linearGradient><linearGradient id="linearGradient3676"><stop style="stop-color:#b2b2b2;stop-opacity:.5" offset="0" id="stop3678"/><stop style="stop-color:#b3b3b3;stop-opacity:0" offset="1" id="stop3680"/></linearGradient><linearGradient id="linearGradient3236"><stop style="stop-color:#f4f4f4;stop-opacity:1" offset="0" id="stop3244"/><stop style="stop-color:#ffffff;stop-opacity:1" offset="1" id="stop3240"/></linearGradient><linearGradient id="linearGradient4671"><stop style="stop-color:#ffd43b;stop-opacity:1" offset="0" id="stop4673"/><stop style="stop-color:#ffe873;stop-opacity:1" offset="1" id="stop4675"/></linearGradient><linearGradient id="linearGradient4689"><stop style="stop-color:#5a9fd4;stop-opacity:1" offset="0" id="stop4691"/><stop style="stop-color:#306998;stop-opacity:1" offset="1" id="stop4693"/></linearGradient><linearGradient x1="224.24" y1="144.76" x2="-65.309" y2="144.76" id="linearGradient2987" xlink:href="#linearGradient4671" gradientUnits="userSpaceOnUse" gradientTransform="translate(100.2702,99.61116)"/><linearGradient x1="172.94" y1="77.476" x2="26.67" y2="76.313" id="linearGradient2990" xlink:href="#linearGradient4689" gradientUnits="userSpaceOnUse" gradientTransform="translate(100.2702,99.61116)"/><linearGradient x1="172.94" y1="77.476" x2="26.67" y2="76.313" id="linearGradient2587" xlink:href="#linearGradient4689" gradientUnits="userSpaceOnUse" gradientTransform="translate(100.2702,99.61116)"/><linearGradient x1="224.24" y1="144.76" x2="-65.309" y2="144.76" id="linearGradient2589" xlink:href="#linearGradient4671" gradientUnits="userSpaceOnUse" gradientTransform="translate(100.2702,99.61116)"/><linearGradient x1="172.94" y1="77.476" x2="26.67" y2="76.313" id="linearGradient2248" xlink:href="#linearGradient4689" gradientUnits="userSpaceOnUse" gradientTransform="translate(100.2702,99.61116)"/><linearGradient x1="224.24" y1="144.76" x2="-65.309" y2="144.76" id="linearGradient2250" xlink:href="#linearGradient4671" gradientUnits="userSpaceOnUse" gradientTransform="translate(100.2702,99.61116)"/><linearGradient x1="224.24" y1="144.76" x2="-65.309" y2="144.76" id="linearGradient2255" xlink:href="#linearGradient4671" gradientUnits="userSpaceOnUse" gradientTransform="matrix(0.562541,0,0,0.567972,-11.5974,-7.60954)"/><linearGradient x1="172.94" y1="76.176" x2="26.67" y2="76.313" id="linearGradient2258" xlink:href="#linearGradient4689" gradientUnits="userSpaceOnUse" gradientTransform="matrix(0.562541,0,0,0.567972,-11.5974,-7.60954)"/><radialGradient cx="61.519" cy="132.29" r="29.037" fx="61.519" fy="132.29" id="radialGradient2801" xlink:href="#linearGradient2795" gradientUnits="userSpaceOnUse" gradientTransform="matrix(1,0,0,0.177966,0,108.7434)"/><linearGradient x1="150.96" y1="192.35" x2="112.03" y2="137.27" id="linearGradient1475" xlink:href="#linearGradient4671" gradientUnits="userSpaceOnUse" gradientTransform="matrix(0.562541,0,0,0.567972,-9.399749,-5.305317)"/><linearGradient x1="26.649" y1="20.604" x2="135.67" y2="114.4" id="linearGradient1478" xlink:href="#linearGradient4689" gradientUnits="userSpaceOnUse" gradientTransform="matrix(0.562541,0,0,0.567972,-9.399749,-5.305317)"/><radialGradient cx="61.519" cy="132.29" r="29.037" fx="61.519" fy="132.29" id="radialGradient1480" xlink:href="#linearGradient2795" gradientUnits="userSpaceOnUse" gradientTransform="matrix(2.382716e-8,-0.296405,1.43676,4.683673e-7,-128.544,150.5202)"/></defs><g id="g2303"><path id="path46" style="fill:#646464;fill-opacity:1" d="M184.61 61.929c0-14.562-4.1523-22.038-12.457-22.448-3.3043-.15595-6.5305.37039-9.6691 1.5888-2.505.89673-4.1912 1.7837-5.0782 2.6805V78.509c5.3122 3.3335 10.03 4.8833 14.143 4.6396C180.26 82.574 184.61 75.507 184.61 61.929zm10.244.60432c0 7.398-1.735 13.539-5.2244 18.422-3.8891 5.5266-9.2792 8.3728-16.17 8.5287-5.1952.1657-10.546-1.4621-16.053-4.8735V116.2L148.5 113.02V42.903C149.96 41.11 151.84 39.57 154.12 38.263 159.43 35.174 165.87 33.585 173.45 33.507l.12671.12671C180.51 33.546 185.85 36.392 189.6 42.162 193.1 47.455 194.86 54.239 194.86 62.534z"/><path id="path48" style="fill:#646464;fill-opacity:1" d="M249.3 83.266c0 9.9225-.9942 16.794-2.9826 20.615C244.32 107.7 240.52 110.75 234.91 113.02 230.36 114.82 225.43 115.79 220.15 115.96L218.68 110.34C224.05 109.61 227.83 108.88 230.03 108.15c4.318-1.4621 7.2811-3.7039 8.9088-6.706C240.24 98.998 240.88 94.329 240.88 87.418V85.098C234.79 87.866 228.41 89.241 221.73 89.241c-4.3862.0-8.2558-1.3743-11.589-4.1425C206.4 82.086 204.53 78.265 204.53 73.636V36.558L213.44 33.507V70.828c0 3.9866 1.2866 7.0569 3.8599 9.211C219.87 82.194 223.2 83.227 227.29 83.149c4.084-.08773 8.4605-1.6668 13.11-4.7566V34.852H249.3V83.266z"/><path id="path50" style="fill:#646464;fill-opacity:1" d="M284.08 88.997c-1.0624.08772-2.0371.12671-2.9339.12671-5.0392.0-8.9673-1.1989-11.774-3.6064-2.7974-2.4075-4.201-5.7313-4.201-9.9713V40.457H259.07V34.852H265.17V19.968L274.07 16.8V34.852h10.01V40.457H274.07V75.302c0 3.3432.89673 5.7118 2.6902 7.0959 1.54 1.1404 3.9866 1.7935 7.3201 1.9592V88.997z"/><path id="path52" style="fill:#646464;fill-opacity:1" d="M338.02 88.266H329.11V53.878c0-3.4992-.81876-6.5111-2.4465-9.0258C324.79 42.006 322.17 40.583 318.82 40.583c-4.084.0-9.1915 2.1541-15.322 6.4623v41.22H294.59V6.0688L303.5 3.2616V40.7C309.19 36.558 315.41 34.482 322.16 34.482c4.7176.0 8.5385 1.5888 11.463 4.7566C336.56 42.406 338.02 46.354 338.02 51.071V88.266z"/><path id="path54" style="fill:#646464;fill-opacity:1" d="M385.37 60.526c0-5.5948-1.0624-10.215-3.1775-13.87C379.68 42.201 375.77 39.852 370.49 39.609c-9.7666.56534-14.64 7.5637-14.64 20.976.0 6.1504 1.0137 11.287 3.0606 15.41C361.52 81.248 365.44 83.841 370.67 83.753 380.47 83.675 385.37 75.936 385.37 60.526zm9.7568.05848c0 7.9634-2.0371 14.591-6.1017 19.884C384.56 86.395 378.38 89.367 370.49 89.367c-7.8172.0-13.909-2.9729-18.305-8.8991-3.9866-5.2927-5.975-11.921-5.975-19.884.0-7.4858 2.1541-13.782 6.4623-18.909C357.22 36.236 363.21 33.507 370.61 33.507c7.3981.0 13.422 2.7292 18.061 8.1681 4.3082 5.127 6.4623 11.424 6.4623 18.909z"/><path id="path56" style="fill:#646464;fill-opacity:1" d="M446.21 88.266H437.3V51.929c0-3.9866-1.1989-7.0959-3.5967-9.3377C431.3 40.359 428.11 39.277 424.12 39.365 419.89 39.443 415.86 40.827 412.04 43.507V88.266H403.13V42.406c5.127-3.7331 9.8446-6.1699 14.153-7.3103C421.35 34.033 424.94 33.507 428.03 33.507c2.1151.0 4.1035.20469 5.975.61406C437.5 34.93 440.35 36.431 442.54 38.634 444.99 41.071 446.21 43.995 446.21 47.416v40.85z"/><path id="path1948" style="fill:url(#linearGradient1478);fill-opacity:1" d="M60.51 6.398C55.927 6.4193 51.549 6.8102 47.698 7.4917 36.351 9.4962 34.291 13.692 34.291 21.429V31.648H61.104V35.054H34.291 24.229c-7.7925.0-14.616 4.6837-16.75 13.594-2.4618 10.213-2.571 16.586.0 27.25 1.9059 7.9379 6.4575 13.594 14.25 13.594H30.948V77.242c0-8.8499 7.6571-16.656 16.75-16.656H74.479c7.455.0 13.406-6.1382 13.406-13.625V21.429c0-7.2663-6.13-12.725-13.406-13.938C69.873 6.725 65.094 6.3767 60.51 6.398zM46.01 14.617c2.7695.0 5.0313 2.2986 5.0313 5.125C51.041 22.558 48.78 24.835 46.01 24.835c-2.7795-1e-6-5.0313-2.2774-5.0313-5.0938-1e-6-2.8264 2.2518-5.125 5.0313-5.125z"/><path id="path1950" style="fill:url(#linearGradient1475);fill-opacity:1" d="M91.229 35.054V46.96c0 9.2308-7.8259 17-16.75 17H47.698c-7.3358.0-13.406 6.2785-13.406 13.625V103.12c0 7.2663 6.3186 11.54 13.406 13.625 8.4873 2.4956 16.626 2.9466 26.781.0C81.229 114.79 87.885 110.85 87.885 103.12V92.898H61.104V89.492H87.885 101.29c7.7925.0 10.696-5.4354 13.406-13.594 2.7993-8.3989 2.6802-16.476.0-27.25C112.77 40.891 109.09 35.054 101.29 35.054H91.229zM76.166 99.71C78.946 99.71 81.198 101.99 81.198 104.8c-2e-6 2.8264-2.2518 5.125-5.0313 5.125-2.7695.0-5.0313-2.2986-5.0313-5.125C71.135 101.99 73.397 99.71 76.166 99.71z"/><path id="text3004" style="font-size:15.16445827px;font-style:normal;font-weight:400;line-height:125%;fill:#646464;fill-opacity:1;stroke:none;stroke-width:1px;stroke-linecap:butt;stroke-linejoin:miter;stroke-opacity:1;font-family:Bitstream Vera Sans" d="M463.55 26.909h1.562V17.113H468.82V15.945H459.85V17.113H463.55V26.909m6.647.0H471.54V17.962L474.43 26.908H475.92L478.94 17.993V26.909H480.39V15.945H478.47L475.17 25.338 472.35 15.945H470.2V26.909"/><path id="path1894" style="opacity:.44382019;fill:url(#radialGradient1480);fill-opacity:1;fill-rule:nonzero;stroke:none;stroke-width:20;stroke-miterlimit:4;stroke-dasharray:none;stroke-opacity:1" transform="matrix(0.73406,0,0,0.809524,16.24958,27.00935)" d="M110.47 132.29a48.948 8.6067.0 11-97.897.0 48.948 8.6067.0 1197.897.0z"/></g></svg>