<svg xmlns:inkscape="http://www.inkscape.org/namespaces/inkscape" xmlns:rdf="http://www.w3.org/1999/02/22-rdf-syntax-ns#" xmlns="http://www.w3.org/2000/svg" xmlns:cc="http://creativecommons.org/ns#" xmlns:dc="http://purl.org/dc/elements/1.1/" xmlns:sodipodi="http://sodipodi.sourceforge.net/DTD/sodipodi-0.dtd" xmlns:svg="http://www.w3.org/2000/svg" xmlns:ns1="http://sozi.baierouge.fr" xmlns:xlink="http://www.w3.org/1999/xlink" id="svg2" sodipodi:docname="online_normal.svg" viewBox="0 0 562.15 531.12" inkscape:version="0.47 r22583"><title id="title3226">online</title><sodipodi:namedview id="namedview3220" bordercolor="#666666" inkscape:pageshadow="2" guidetolerance="10" pagecolor="#ffffff" gridtolerance="10" inkscape:window-maximized="0" inkscape:zoom=".88869" objecttolerance="10" borderopacity="1" inkscape:current-layer="layer1" inkscape:cx="337.26" inkscape:cy="331.03" inkscape:window-y="0" inkscape:window-x="0" inkscape:window-width="1063" showgrid="false" inkscape:pageopacity="0" inkscape:window-height="968"/><g id="layer3" transform="translate(-93 -60.056)"><rect id="rect3268" style="stroke-linejoin:round;stroke:#2b0000;stroke-linecap:round;stroke-width:2;fill:#784421" height="234" width="560" y="176.36" x="94"/><path id="path3904" style="fill-rule:evenodd;fill:#2b0000" d="m291.72 60.125c-15.715.53848-31.206 8.0902-39.735 21.503-12.08 16.572-13.93 39.92-3.8275 57.903.1383 4.4888.29307 10.868 5.5312 12.438 3.0341-9.3515 2.8705-.38584 3.5 4.1562 5.0344 1.8353 4.8769-5.5156 7.2812-1.7188C266.2 160.99 264.78 168.92 265.91 176c.64912 7.3344 2.0254 16.739 10.156 19.312C285.13 199 296.15 199.87 305.16 199.44 302.93 204.04 296.68 198.42 293 201.31c-7.0987 3.2249-16.83 5.9413-19.25 14.219C272.66 222.01 277.1 227.96 278.97 233.34 275.61 240.69 272.37 249.25 264.11 252.07 258.8 255.85 250.42 258.87 249.19 266.06c-.87151 1.7636-5.4012.42816-7.2188 2.5-1.9029 1.7254-3.4565 4.17-3.3125 6.8438-4.4655-.87769-8.0066 3.574-6.5938 7.7812-3.3921 1.2371-3.2008 5.4483-7.375 5.5-12.366 5.1928-24.459 12.057-36.906 16.375-6.0381-4.0945-13.356-1.8391-19.5.96875-5.0918-2.7006-10.511-3.2798-16.156-2.6875-2.5889-.70178-8.096 1.0604-8.9062-1.4375-.67367-2.3472-5.256 3.1099-7.7188 3.8125-3.8232 1.9313-8.4342 4.9454-12.688 2.75C120.48 310.42 120.97 313.7 122.35 316.03c-3.9089.75127-6.4038 4.6351-6.375 8.5-3.8388 1.8824-5.1416 7.6334-12.591 7.627C98.676 334.06 105.96 341.81 106.1 346.07c1.0678 4.6786 8.648.17443 9.9942 4.9011C120.01 355.12 127.03 352.96 130.19 358c6.1853 5.3783 15.667.52042 21.781 5.9688 5.5749 3.1381 12.292-1.568 15.688-5.9375 2.2033-8.4317 12.751-9.8897 16.406-17.5 3.5231-2.7752 9.3066-5.314 13.656-2.375 20.644 8.1796 34.169 28.765 37.531 50.031C207.44 393.87 186.81 416.83 175 441.46 170.15 451.64 165.24 465.67 173.5 475.41c8.8398 9.0766 23.476 5.0009 33.344-.0625C232.5 462.21 247.82 434.01 247.72 405.53c.86543-2.8606-2.2409-9.1501 2.5938-7.875 7.1872.25117 14.41 1.7646 21.031 4.6875-12.419 30.35-15.335 65.762-4.0625 96.875 4.3724 11.512 13.845 24.776 27.781 23.625 14.799-2.0069 22.121-17.401 25.688-30.25 5.8644-20.671 5.8051-44.136-4.875-63.344-6.6639-13.243-17.899-24.185-29.781-32 8.5723-16.165 20.329-30.835 35.562-41.156-8.8075 24.914-4.9883 52.461-.81459 78.045C324.54 456.83 331.28 481.59 349.75 496.5 358.5 504.05 373 505.55 381.44 496.69 394.3 483.66 396.37 464.15 397.85 446.78c.55968-5.0331.0528-10.766.78125-15.375C402.91 429.46 403.76 431.19 403.1 435.22c-.35992 4.992-4.8632 9.339-1.577 14.431C403.44 454.31 403.82 463.6 406.63 465.56c5.6587-1.7319 4.3623 9.088 6.7919 13.019 7.4009-2.6604 15.311-4.4877 23.146-6.2066C436.13 468.12 431.88 462.49 433.47 459c5.1814-3.2726-.19664-9.3211-1.5938-13.219C430.58 440.24 428.37 435.2 424.88 431.22c.0542-2.2035-2.571-5.5456-1.6325-7.0611C431.3 425.64 440.79 425.61 447.97 428c1.4857 4.1948 5.9104 6.7021 10.25 6.75.1539 4.2778-.37376 8.3786-3.1875 11.656-2.3044 3.4755 1.1177 8.9867-3.4688 10.781-7.7363 6.787-10.23 17.61-11.062 27.5-2.9859 2.5294-3.8959 7.9682-4.8125 12.031 2.4342 8.404 11.588 12.435 18.969 15.719C457.74 513.96 461.08 513.9 463.72 511.84 468.9 510.35 470.54 517.53 471.19 521.25c.42368 7.5083 9.8668 9.1451 15.719 10.438 16.504 2.3637 34.282 2.8326 50.156-2.8125 4.5346-1.3749 6.4684-6.0216 6-10.531 3.5081-5.3382-4.932-6.1772-3.5938-10.594C541.21 502.1 536.68 497.63 531.82 495.69c-7.041-4.6982-15.655-8.2354-20.875-14.812.002-3.0028 1.6002-5.5531-.25-8.5625.16133-2.8264-2.7692-3.0049-3.375-4.4062C508.13 464.57 504.46 462.67 505.38 460c-.48878-2.8245.4635-8.1724-3.3438-8-.34549-2.8231 2.9124-4.4489 2.375-7.6562 1.6685-3.7048-5.0381-7.0175 1.8125-6.6875 4.5446-1.6394 1.6669-11.737 3.1958-16.805 1.5479-3.1448 7.7241-.60034 11.054-2.507C522.68 416.28 527.6 413.6 527.56 418.75c2.264 2.1775 5.425 2.425 2.375 5.4688-2.0637 4.0193 3.9069 4.2606 4.5938 7.5625C536.21 435.88 538.81 440.97 538.6 445.06 536.89 447.9 533.51 453.79 538.78 455c4.3823 2.692 4.417 9.323 5.9062 13.844.94548 3.727.24726 9.2511 5.5 7.6562 2.5873.46949 7.4433-2.5882 6.875 1.9375 1.799 9.0689 5.2546 17.932 11.562 24.781 1.7613 3.1153 5.8114 7.6216 1.25 10.344-3.442 2.7644-1.2133 7.1929-3.7812 10.25-3.3187 5.4584-6.7495 11.545-8.8125 17.25-5.5189 2.2-8.0258 9.3065-10.031 14.625.33289 9.196 10.654 12.697 17.875 15.5 4.5225 1.6762 9.1176 2.8657 13.688 4.25 2.2799-2.1533 3.7616-8.78 7.4375-5.5625C591.99 572.61 596.1 577.42 599.94 582.22c12.314 6.2401 26.832 6.9914 40.406 8.625 4.6869.38849 11.717 1.4433 13.375-4.4062 1.0969-3.6197 2.1505-9.0188.0705-11.684-2.3586-1.0091 1.3444-5.0186 1.0232-7.5662 1.4268-4.9398-1.8732-9.688-6.9039-10.417C639.05 552.88 627.99 550.5 622.5 541.91c-.83982-2.2222-1.2781-4.648-1.5938-6.9375 4.4005 3.1789 3.7293-12.541-1.0312-10.438C621.96 521.45 624.09 520.18 621 513.44 619.56 506.19 616.69 498.1 614.63 490.5 612.89 492.63 618.44 484.62 614.09 479.99 613 473.63 609.63 466.14 609.94 460.47c4.1904-2.2554 12.272-4.7557 9.375-10.938-2.5353-6.9437-6.8779-12.952-9.6875-19.75C607.84 426.42 602.87 422.69 599.6 426.4 591.53 407.39 583.38 387.87 580.16 367.47 573.85 359.67 563.08 357.43 554.22 353.56 541.01 348.59 526.59 345.08 513.63 340.62 513.1 329.68 514.03 317.9 509.35 307.81 504.75 300.28 497.73 294.08 489.47 290.9 496.11 289.7 5e2 283.88 502.75 278.31 508.76 276.98 518.72 277.06 519.38 269 511.5 237.77 503.44 206.48 495.1 175.34c-2.5049-.6215-5.421-2.4258-8.4469-1.0135C482.74 174.14 478.38 176.14 475.1 176 468.46 177.02 461.56 177.15 455.06 178.69 452.8 175.17 450.91 171.38 447.63 175.53 442.6 178.77 439.16 167.87 435.2 173.5 427.61 179.61 416.92 178.65 407.66 179.25c-13.611-.22581-27.1-2.8784-40.344-5.5312-2.3167-.96702-6.631.0329-5-3.5-1.2891-3.8224 4.5475-1.7071 6.8125-3.3438 6.298-1.7353 12.252-4.3886 18.344-6.7812C385.02 159.11 378.92 156.52 378.88 155.4c4.4084.58774 10.003-.23263 12.312 1.375 3.2776 2.2255 5.8377 5.4583 10.031 5.9375-3.2892-8.5722-11.812-13.943-19.562-18.312C377.09 143.13 382.7 142.15 384.69 142.34c7.3662.23629 14.712 1.4885 22.094.5-8.5231-4.5717-16.865-9.5605-26.188-12.25 3.7934-.43381 13.604-.0275 12.65-.99623-9.9909-7.2193-22.121-9.8608-33.463-14.191 4.3735-4.501 10.085-7.3947 16.406-5.9688 3.7876.5959 7.379 1.9748 11.219 2.375-6.3882-7.3583-15.071-14.046-24.844-15.75C357.63 96.171 353.66 99.617 349 100.78c-2.49-13.535-12.18-24.567-23.89-31.332-9.77-6.533-21.61-9.915-33.37-9.313zm280.41 450.53-.0625.0937.0625-.0937zM350.16 168.18c2.582.94584 8.0395 3.2779 8.3125 4.2812-2.4495-.18822-5.9641-.12174-7.6875-.15625 1.6191-.94921-2.6259-3.776-.625-4.125zM272.13 170.22c5.8896 8.6371 15.947 12.932 24.688 17.969 1.4852 2.0698 5.1515 2.7516 6.125 4.4375-.0804 1.9785 1.044 3.7479-1.6875 2.5312-9.0172-2.6853-22.134-1.4396-26.812-11.312-1.8512-4.2773-2.3079-9.1319-2.3125-13.625zm38.688 29.406c-5.1477-.79236 1.6033-3.7485.0.0zm118.93 55.21c-3.9631-2.4153-7.0548-10.411-3.156-10.759 1.052 3.5864 2.104 7.1728 3.156 10.759zm1.5312 5.25C432.01 263.24 436.19 275.6 434.97 273.64c-1.608-2.8126-3.7288-6.665-4.7812-8.7188.75251-3.0488.0422-6.207-.1875-9.2188.42708 1.4583.85417 2.9167 1.2812 4.375zm-104.4 32.19c3.9508 5.2012 12.545 3.3824 17.188-.15625 1.4189-2.9163 6.3479-.15703 3.375 1.9375-3.6426 4.6381-4.9313 12.623 1 16.094 1.7083 1.5744 6.4359 1.9617 2.5938 3.9062C348.54 315.97 347.91 320.27 344.1 319.02c-6.4293-.1599-11.919 7.0235-8.9688 13.188 1.1476 4.2276-2.3526 7.7819-6.4375 7.9688C304.9 349.47 287.4 370.16 275.88 392.37 266.68 388.2 256.42 386.49 246.32 386.84 242.47 363.14 228.18 340.7 206.22 330.12 217.26 327.7 228.8 324.76 239.94 324.15c2.9171 1.724 6.6862-.96777 8.875 1.875 2.9346 1.7621 7.659 2.0984 9.5-1.0938C262.58 323.3 266.62 319 270.76 318.55 278.85 322.76 289.09 320.57 295 313.67c5.068-4.5328 8.6377-11.404 5.9068-18.21C299.12 292.6 304.54 293.5 305.69 291.18c4.1994-3.9663 5.4728-9.8809 7.25-15.156 4.6458 5.4167 9.2917 10.833 13.938 16.25zm110.84-10.25c-2.4704.14719.38178-3.0167.0.0zm16.9 3.47C453.48 288.69 456.33 290.94 459.06 290.93c2.328 4.1488 8.1237 2.1504 11.844 2C463.32 294.74 455.72 298.37 448.93 301.4 448.47 295.97 445.89 290.71 443.65 286.3c3.6053.0856 7.5795-.7799 10.969-.8125zM338.03 357.18c1.8832 1.4106 1.6633 3.3279.4375 5.8125-7.6848 19.754-2.3445 44.148 14.5 57.375 9.6533 7.6558 21.453 14.391 34.312 12.688C386.69 451.21 386.42 471.1 376 486.62c-4.207 6.5528-13.395 6.4462-18.844 1.625C339.9 474.56 335.09 451.67 331.5 431.15c-3.6352-23.527-7.3964-48.721.625-71.688 1.2564-2.9298 2.7634-5.8533 4.9062-8.2812l1 6zm-101.5 41.969c1.6598 23.072-7.2389 47.139-26.383 60.801C202.3 465.34 192.32 472.08 182.59 468.77c-4.8341-3.815-1.5565-11.905.0-16.969 9.6678-23.91 28.25-46.288 53.938-52.938v.28125zm44.875 8.375c23.447 14.433 36.92 43.791 31.125 70.969-2.3806 11.797-4.8396 25.788-15.688 32.75C288.46 514.48 282.05 504.93 279 498.52c-10.333-23.995-9.3839-52.128-2.5938-77 1.466-4.689 2.9767-9.7494 5-14zm335.12 93.688c-.31771.49743-.58219-.48805.0.0zm3.9062 10.469c-1.79.5504-1.7355-.41496.0.0z"/></g><g id="layer1" transform="translate(-93 -60.056)"><path id="path3299" style="fill-rule:evenodd;fill:#784421" d="m558.38 474.32c.87028 6.5271 4.3514 18.711 8.2677 23.063 3.9163 4.3514 8.2677 11.749 7.3974 13.925-.87029 2.1757-5.6568 5.6569-4.3514 8.7029.97856 2.2833-9.6693 15.173-10.495 23.306L557.07 543.07c-4.3514 3.046-7.8326 12.619-7.8326 12.619C548.78 564.73 565.74 569.58 577.96 573.1 579.7 570.49 583.18 566.14 583.18 566.14s11.749 4.7866 16.971 13.489c3.3282 5.547 44.82 10.879 49.171 9.138 4.3514-1.7406 3.4811-12.184 3.4811-12.184l-3.046-.87029s6.7522-12.836.87029-15.665c-4.8542-2.3352-25.238-8.2677-29.59-16.535-3.0128-5.7244-3.4812-24.368-3.4812-27.849.0-3.4812-3.046-13.489-4.3514-16.971-1.3054-3.4811-3.046-9.138-3.046-9.138l3.9163-1.3054-8.2677-33.071-49.171 7.8326 1.7406 11.314z"/><path id="path3301" style="fill-rule:evenodd;fill:#2b1100" d="m605.81 455.16-28.906 4.625-19.688 7.0938 1.1562 7.4375C558.52 475.4 558.75 476.67 559.03 478 566.08 475.43 593.18 469.99 601.9 465.63 604.95 472.16 608 486.07 608 486.07 608 486.07 589.71 496.52 588.4 493.91 587.1 491.3 582.75 489.57 582.75 489.57c-1e-5 1e-5.44693 2.5837 2.1875 6.5s16.519-2.6079 20-5.2188c5.6569 11.314 11.75 43.094 11.75 43.094 2e-5 1e-5-3.956 3.1268-6.5312 2.1562-7.7274-2.9122-21.782 2.5-23.938 15.688-1.2829 7.8479-21.182-3.3386-25.562-6.5625-.006 4.1804 20.158 14.199 24.281 15.688 4.3359 1.5649 34.705 23.024 53.938 19.156 6.3947-1.2861 6.1203 2.7638 5.4375 9 2.1451.0636 3.7946-.008 4.6562-.21875C650.01 587.6 651.14 586.12 652.28 584.41c.89368-3.542.53125-7.8438.53125-7.8438L649.75 575.72c0 2e-5 6.7569-12.858.875-15.688-.95917-.46143-2.6341-1.0799-4.5625-1.8125 1.8132 3.1464 3.3034 9.0992-3.6875 17.062C635.68 582.9 597.84 568.23 587.97 558.75 585.87 543.95 603.74 533.2 610.59 540.04 612 541.44 615.84 540.78 619.72 539.6 617.88 531.88 617.56 518.55 617.56 515.66c0-3.4812-3.0383-13.488-4.3438-16.969-1.3054-3.4811-3.0625-9.125-3.0625-9.125l3.9375-1.3125-8.2812-33.094z"/><path id="path3432" style="fill-rule:evenodd;fill:#ffe6d5" d="m352.61 323.86L354.9 341.61l86.427-28.226-1.7172-13.166-87 23.647z"/><path id="path3289" style="fill-rule:evenodd;fill:#2b1100" d="m332.81 116.24c2.6862.53723 6.7154 4.5664 7.2526 6.4468.53723 1.8803 1.6117 12.625-1.0745 13.699C336.3 137.46 336.3 140.42 336.3 140.42L330.93 161.1l13.431 16.923C345.88 176.61 347.4 175.72 348.93 171.57 347.32 169.91 347.85 166.41 346.24 165.66 349.59 165.19 354.73 167.7 360.21 170.77c.32945-1.4978-.005-3.2611-3.2234-6.1781 3.2054 3.689 13.543.24599 25.25-4.5664-4.7099-2.0154-5.5831-5.4259-17.46-4.8351C368.43 153.22 375.9 152.95 386 153.85 384.41 150.98 381.97 148.22 374.71 146.06l3.2234-4.0292c4.1376-3.3837 14.41-.63271 21.758-.80585C392.67 137.93 389.6 134.96 374.71 131.01c1.46-2.762 6.6478-2.4513 12.625-2.6862-11.767-7.3044-33.865-10.114-38.832-17.88l-4.1757-6.618-16.087-3.7064 4.5664 16.117z"/><path id="path3291" style="fill-rule:evenodd;fill:#784421" d="m267 150.62c.80585 4.0292-1.1398 32.41 4.8351 39.486C277 196.22 295.2 197.78 302.99 197.63 291.25 194.53 280.82 194.95 275.06 188.49 265.99 178.33 272.1 151.16 272.1 151.16L267 150.62z"/><path id="path3283" style="fill-rule:evenodd;fill:#ffe6d5" d="m256.26 131.28c1.6117 3.7606 4.7294 13.332 6.4468 17.46 2.0417 4.907 9.4015 8.5957 9.4015 8.5957S270.82 164.99 273.99 169.42c5.2884 7.3925 16.117 13.162 21.221 15.311 3.0219 1.2724 4.2978 4.0292 8.3271 5.3723 2.8031.93437 12.088-1.3431 12.088-1.3431L317 200.15l40.533 5.8093 7.7898-11.013-11.819-17.46-5.3723 3.2234-12.356-16.117S337.51 156 337.65 152.23c.11159-2.9054-.80585-12.894-.80585-12.894s2.1973.1785 3.7606-2.1489 2.6862-9.6701 1.8803-14.237C341.68 118.39 336.04 116.77 334.16 117.31c-1.8803.53723-5.1037 7.2526-5.1037 7.2526L312.94 101.73S270.5 106.57 270.5 107.64c0 1.0745-14.237 23.37-14.237 23.638z"/><path id="path3254" style="fill-rule:evenodd;stroke:#000;stroke-width:.3;fill:#2b1100" d="m270.54 155.07C271.68 152.54 278.04 150.8 281.2 152.82c2.2561 1.4439 4.1669 8.8388 4.1669 8.8388L284.1 162.29 282.2 159.89c-4.29.88546-5.1147 4.4218-7.8683 2.5348-.66722-.8089-1.2034-1.7486-1.1758-2.3912-2.2017-1.0825-3.3323-3.3906-2.6202-4.968zM279.31 158.4c0 .7667-.62226 1.389-1.389 1.389-.76671.0-1.389-.62226-1.389-1.389.0-.76671.62225-1.389 1.389-1.389.7667.0 1.389.62225 1.389 1.389z"/><path id="path3223" style="fill-rule:evenodd;stroke:#000;stroke-width:.3;fill:#2b1100" d="m293.24 154.19C286.58 148.03 287.63 144.16 289.29 141.81c3.0357-4.2857 12.143-5.7016 17.679-5.1659l-3.75 2.5c2.5.17857 4.8214 1.4286 7.3214 4.1071-5.0119 1.1068-17.505 7.4335-15.66 9.81L293.24 154.19zm3.171-11.598c1.0714.41842 2.3681 1.9983 2.7002 3.3406C302.38 144.47 306.25 142.9 306.25 142.9 304.47 140.93 299.8 139.2 296.41 142.59zM297.24 146.7c0 .73185-.65054 1.3258-1.4521 1.3258S294.34 147.43 294.34 146.7c0-.73186.65054-1.3258 1.4521-1.3258.80155.0 1.4521.59397 1.4521 1.3258z"/><path id="path3262" style="fill-rule:evenodd;fill:#2b1100" d="m288.88 170.24c-1.7729 2.5515-.088 3.7145.875 3.875 2.25.375 8-.25 8-.25s2 .375 1.125 1.625-2.3227 2.042-1.75 4.25c1.9402 3.6899 7.3359 1.7507 10.5.375 2.875-1.25 5.5-4.0292 5.5-6.75-.85305-3.1703-2.4542-5.0153-1.875-8.125l2.75.5s-1-3.75-2.25-3.875-2.3638 1.8007-3.125 2.25c-.47072.27788-17.977 3.5735-19.75 6.125zm6.125 1.875c4.7205-2.9073 10.178-3.8257 14.875-6.75l.375 6.875s-6.9334 2.1898-9.875 4.375c-1.1873-2.2002 1.1676-5.1136-5.375-4.5z"/><path id="path3267" style="fill-rule:evenodd;fill:#2b1100" d="m285.25 163.36c.5 4.375 4.25 4.75 6.75 2.875s5.5-3 5.5-3c-3.8222-.97788-6.9356-2.071-12.25.125z"/><path id="path3275" style="fill-rule:evenodd;fill:#2b1100" d="m297.25 153.86c-.125 2 .5 5.75.5 5.75 5.8267-6.2996 12.269-7.9823 18.75-9.375l-.5-3.375c-6.2588-.13819-11.892.5953-18.75 7z"/><path id="path3277" style="fill-rule:evenodd;fill:#2b1100" d="m282.88 163.24c.75.625 1.863 1.22 2.5 3.5-3.5.375-7.5 3.25-7.5 3.25-1.0706-.97193-2.1089-1.952-1.875-3.25 1.7665-2.217 4.109-3.2819 6.875-3.5z"/><path id="path3279" style="fill-rule:evenodd;fill:#2b1100" d="m281.21 138.17.17686 3.1835 4.4215-.8843c5.1986-5.9954 12.236-8.9253 18.747-12.734L301.9 125.08C294.67 129.48 283.84 134.2 281.21 138.17z"/><path id="path3281" style="fill-rule:evenodd;fill:#2b1100" d="m274.84 145.78S264.41 144.89 263.7 145.96C261.93 148.61 263.52 150.02 263.52 150.02 265.75 149.67 266.52 149.32 271.3 148.96l3.5372-3.1835z"/><path id="path3285" style="fill-rule:evenodd;fill:#784421" d="m253.84 127.52C248.01 134.94 250.19 148.31 252.77 149.28c2.487-4.9834 3.0219-6.0438 4.8351-6.984l1.3431 11.55 1.8803-.26861c.22915-11.743 7.2502-16.834 9.1329-39.755L253.84 127.52z"/><path id="path3287" style="fill-rule:evenodd;fill:#784421" d="m269.69 113.02c4.957 15.166 23.731 14.65 34.383 18.803V129.67C301.21 126.9 299.3 124.12 293.06 121.35c5.989-3.1837 14.412 2.4122 25.25 3.2234-1.9906-2.4175-3.2016-4.8351-8.5957-7.2526 3.9397 1.0625 7.6108-.75406 11.819 4.0292.0 2.2134 14.321 22.017 23.101 20.952 23.235-2.818 43.503 8.3637 53.454 17.46C388.11 149.49 378.24 140.24 343.56 138 338.3 137.66 332.3 129.41 331.74 128.06 329.77 122.78 330.49 120.11 335.5 117.24c0 0 7.6569-1.3537 15.888 2.3032-8.8815-12.307-20.992-19.42-20.992-19.42L289.03 97.978l-19.34 15.042z"/><path id="path3370" style="fill-rule:evenodd;fill:#ffe6d5" d="m294.62 62.062C287.19 62.025 279.37 63.561 271.4 67.031c-16.668 7.2547-38.305 38.097-22.188 70 18.49-34.07 74.169-44.027 95.094-29.781 1.7345 4.1829 7.161 6.1274 11.188 8.875l10.5-8c3.6981-1.0024 9.8913-1.5734 16.25.75.0.0-14.25-11.75-20.75-10.75-3.1425.48347-8.5107 3.5469-14.031 5.8438-5.24-22.034-26.53-41.765-52.85-41.898z"/><path id="path3295" style="fill-rule:evenodd;fill:#784421" d="m326.34 72.969C329.6 76.559 334.89 85.315 331.56 84.438 322 81.923 312.99 83.495 304.5 83.782 302.96 80.24 306.39 78.167 308.56 77.094 304.37 74.533 300.07 76.894 297.9 78.532c-1.4638 3.0192.54628 7.3683 12.156 6C326.28 82.62 338.59 91.432 346.12 103.91L344.5 107.38l.0312.3125c1.9242 3.877 7.089 5.7901 10.969 8.4375l10.5-8c9.094-3.275 5.2065-3.554 1.5-3.875-4.2643 2.1228-4.7564 5.3922-12.219 5.6875-2.2874-1.8179 2.2439-4.5126 3.5625-6.7812-2.7565.89286-6.6007 5.9226-7.8125 2.2188l-.91-2.72-2.74.34C346.02 94.401 340.71 80.947 326.35 72.965z"/><path id="path3339" style="fill-rule:evenodd;fill:#784421" d="m337.25 137.86c-2.5 3.5-6.8266 1.3619-7.75 4-2.0424 5.8348-1.7391 12.656-.75 11.25.44947-.63903 4.5-5.7394 4.5-6 0 0 2.7143 7.7593 1.5 12-3.1345 10.947-9.1282 15.079-20.5 31l.69088 6.7481c7.7259-5.3831 9.5262-22.572 16.309-23.748 6.5218-1.131 14.75 8.25 18.5 12.5 1.3335 1.5114 2.5 12.25 2.5 12.25l2.1093.55821c-.46827-7.4499 2.8323-10.37 6.9703-.54615C362.4 184.83 354.76 181.32 353.5 180.86c-2.75-1-5-.25-5-.25l-12-15.75c2.4809-4.5382 2.2572-14.486.75-27z"/><path id="path3386" style="fill-rule:evenodd;fill:#ffe6d5" d="m236.5 286.11C213.07 294.78 198.16 305.06 176 311.36c0 0-15.523-6.6125-17-6.25-2.3194.56936-18.728.0268-17.75-.75.60787-.48259-11.775 8.9896-17.75 6.5-1.4068 1.7585 1.816 6.6259 3.75 9 2.4664 3.0277 16.638-2.5371 16.5-3.5l-3.5 6.25s-28.742 10.748-28.5 11.75C112.8 339.15 116 345.38 116.75 348.11 117.62 351.25 121.59 351.8 127.75 352.86c2.3794 2.0465 3.947 4.9829 8.5 5.75l12 .75s5 3.5 7.25 3.75 9.4428-3.6028 10.5-6.25c1.1139-2.7894 2.5-5.5 2.5-5.5s10.75-6.75 13-10.5c1.1858-1.9764 4-6.5 4-6.5 17.041-6.438 38.561-10.636 62.25-13.75l11.5-9.75-22.75-24.75z"/><path id="path3341" style="fill-rule:evenodd;fill:#784421" d="m353.62 174.28c-3.9078.18463-8.7812 1.5625-8.7812 1.5625l3.66 4.78c8.8622-1.1077 12.296 7.7483 11.875 15.844-.13133 2.5269-1.6356 5.3707-2.1875 7.3125-23.932-8.9921-27.096-5.3343-41.188-8L316.78 194.72c-.43045.4082-.8672.82421-1.3438 1.1562l.28125-6.5938-.0937-.53125S310.12 190.11 306.31 190.31C303.73 192.85 305.12 195 307 198.37c2.5 4.5-16.5 13.5-19 18.5s-10.85 30.193-17.906 34.094C259.31 256.93 245.65 265.08 253.5 268.87c0 0-8.2497-.70645-10.438 1.4062-3.2005 3.0906-2.8002 6.3769-1.2188 7.375.54274.0673 1.0662.13645 1.6562.21875-.62261.17789-1.1841.0793-1.6562-.21875C235.76 276.9 232.67 277.31 234.31 284.31 233.47 284.87 229.6 285.98 231.03 288.09c9.1482.63394 16.637 11.376 19.219 16.781 1.6381 3.4291.16907 14.341-9.6875 16.188.2237 1.3753 3.0721 2.4706 7.3125 1.125 1.6233 3.9242 9.1173 3.6199 6.6875 2C259.99 321.65 267.12 317.39 271 315.37c-2.2216 1.3329 8.4129 4.9126 14.5 2.5 5.3159-2.1069 12.276-8.8274 14.188-14.562C300.01 298.35 298.92 294.58 297 291.87c13.349 1.5344 11.919-18.445 19.5-29.5.0.0 25.249 22.982 35 29.5-3.5426 4.381-5.5376 8.7315-5.25 11.5.54581 5.2531 7.0309 7.0743 10.75 8.5-3.042 2.8318-6.083 3.342-9.125 10.406-.0142 4.3379.99058 6.1273 2.125 7.5938 28.579-9.0162 58.731-18.755 84.415-23.717l10.73-.49-.15-12.3C442.75 289.98 441.91 284.83 437.59 284.05l-4.09-1.19 2.8125-4.6875C433.3 275.6 432.48 273.43 429.47 267.68l-2.47-.31c2.4532-3.8333 1.2772-7.6667 1-11.5l-12-14.688 1.875-6.3125-4.0938-4.0938-2.6562-18.938c-.98691-.7916-1.876-1.528-2.8125-2.2812l9.69-1.69 28.5 5 12.5-25.5-8.5-11.5c-5.0532 4.6526-8.7408 1.1116-12.5-2l-4.5 3.5C426.41 180.86 408.13 182.48 393 180.14c-9.3071-.5621-24.213-6.5373-32.594-.21875C357.6 182.71 359.75 175.52 357 174.58c-.86903-.29689-2.0724-.37404-3.375-.3125z"/><path id="path3388" style="fill-rule:evenodd;fill:#784421" d="m236.5 286.12c-1.2624.46704-2.4721.96197-3.6875 1.4375 10.71 4.74 21.316 22.062 19.438 22.062l-53.5 14.75C198.3 316.74 196.01 311.81 191 306.18 186.27 308.09 182.6 309.35 177.25 310.87c0 0-2.0377.15039-2.4688-.0312C177.71 313.7 180.97 316.74 182 318.12c2.25 3-3.75 2.5-6.25 3.5s-8.5-4.5-10-5.25 2 5.25 1.25 7.5c-.17283.51848-.72283.83531-1.4688.96875-2.1438-1.7551-5.2812-2.9688-5.2812-2.9688s-1.8289-.13641-4.3438-.375C153.29 318.66 148.18 310.85 146.5 310.37c-1.75-.5-12.75 5.75-17 5.75-3.5456.0-3.9775-2.952-5.4688-5.0938-.17551-.0512-.36522-.0871-.53125-.15625-1.0079 1.2599.36922 4.1088 1.9375 6.5-1.3041.25971-2.1875.5-2.1875.5l-2.75 4.75-1.625 8.3438c-4.0845 1.6892-7.2038 3.0794-7.125 3.4062 1.0542 4.7937 4.2457 11.015 5 13.75.86511 3.1362 4.8372 3.6935 11 4.75 2.3794 2.0465 3.947 4.9829 8.5 5.75l12 .75s5 3.5 7.25 3.75 9.4428-3.6028 10.5-6.25c1.1139-2.7894 2.5-5.5 2.5-5.5s10.75-6.75 13-10.5c1.1858-1.9764 4-6.5 4-6.5 17.041-6.438 38.561-10.636 62.25-13.75l11.5-9.75-22.75-24.75zM143.63 316.59l-1.4688 2.625C141.32 318.96 140.56 318.7 139.94 318.4 141.75 317.69 143.2 317 143.62 316.59zm29.344 19.969c2.9769-.0409 5.6569.5506 5.7812 2.0625.14348 1.7441-7 6.5-7 6.5s-3.5-4.5-7-6c.0678-1.4213 4.3913-2.5099 8.2188-2.5625zM157.88 340.84C159.67 340.95 160 344.12 160 344.12l-5.75 12s-1.3022-.38804-2.7188-1.5C146.8 356.76 141.41 356.8 140 355.62c2 0 7-1 7-1 4.8534-3.2289 5.0207-10.588 10.5-13.75.13265-.0217.25564-.0386.375-.0312zm-20.65 4.66c2.1376.0414 4.1615.7446 6.0312 2.125l2 5.75-5.75-1S139.39 350.04 138.04 350.09c-2.6561.0945-4.3312-2.167-4.7812-3.9688 1.3718-.4216 2.6862-.64984 3.9688-.625zm29.25 3.0938c.79651.37079-2.7188 8.2812-2.7188 8.2812s-.75.0-2.75-1.75c.25.5 3.75-5.75 5.25-6.5.0937-.0469.16565-.056.21875-.0312z"/><path id="path3412" style="fill-rule:evenodd;fill:#2b1100" d="m354.59 174.25c-.30957-.003-.6431.0159-.96875.0312-3.9078.18463-8.7812 1.5625-8.7812 1.5625l3.66 4.78C357.36 179.52 360.8 188.37 360.38 196.47c-.0625 1.2021-.44442 2.4723-.875 3.6875l.84375.15625c1.6464-5.0765 1.5895-10.03-2.0938-18.438l2.25.5C365.18 187.2 362.88 191.39 361.84 200.75 367.82 193.97 366.95 190.31 366.5 185.87c12.417 9.5 16.92 4.1749 37.25 28.5 5.7744 6.9092 3.467 8.5115 4.25 11.5-4.7683-2.7792-4.4643-1.3314-5.5-1 3.4331 2.6533 9.2169 5.4767 9.5 7.5l-1.25 5.5c-4.0011-2.8348-6.4672-4.7896-8.5-5 12.72 14.804 15.566 15.732 22.75 25 .4881 12.847-5.8329 14.75-11 23.75v5c5.7023-9.5266 8.9591-14.285 12-12.5l2.5 8.75C418.2 290.48 416.17 291.21 410 295.37 408.73 298.05 407.61 301.53 417.34 299.03 414.88 297.83 413.73 297.33 414.41 296.22 416.24 293.2 421.94 291.39 425.5 288.87c13.273.13254 12.616 13.882 13.688 17.25l7.5312-.15625c1.7631-7.3922-4.7982-21.125-9.125-21.906l-4.1-1.17L436.31 278.2C433.3 275.63 432.47 273.46 429.46 267.7l-2.47-.31c2.4532-3.8333 1.2772-7.6667 1-11.5l-12-14.688 1.875-6.3125L413.77 230.8l-.40625-7.625C425.12 222.44 434.46 209.7 447.49 215.39l2-23.5s-22 6.5-29 8-12.5-9-12.5-9l-14.688 5.375C387.11 190.35 381.46 184.63 363.9 181.21c-1e-5.0-4.1531-5.6532-6.9062-6.5938-.65177-.22267-1.4775-.3341-2.4062-.34375zm-38.969 14.5S310.12 190.12 306.31 190.31C305.95 190.66 305.68 191 305.46 191.34c3.9665.63468 6.2617 2.493 10 4.125l.25-6.1875-.0937-.53125zm1.1562 5.9688c-.32284.30615-.65594.59878-1 .875.0133.006.0179.0256.0312.0312.37006-.0598.7498-.10665 1.125-.15625l-.15625-.75zm-9.5938 4.875c-.0938.59665-.44803 1.2223-.96875 1.9062 24.833-2.385 37.097 4.1736 53.031 6.9688 1.5196.26657 2.3748-2.4922-.25-2.5938C341.63 201 324.59 200.26 307.18 199.59zm47.688 12.75c-1.6064.0534-.78254.51715-2.625.53125-6.4762 13.951 4.9115 45.078-19.438 41.844C331.1 251.69 324.73 254.15 323 255.88c0 0-2.1234-3.6424.75-8.25s8.75-7.25 8.75-7.25l-3-1.25-6.25 2.25-21.25 42c-3.1324 3.9122-5.1883 2.4414-7-.25-.0988-8.6446 3.9762-8.246 7.75-8.5-.82914-1.7421 1.1495-2.39-6-3.5-4.7259 3.9207-7.524 8.1627-8.25 12.75 3.7301 7.0678 8.0606 14.742 6.75 17.75-3.4395 7.8936-6.6199 9.5994-11.75 12.25-1.5246-1.9528-8.6536-.063-.5-6.25-6.6813-8.7713-18.389-9.8213-25.5-15.25-4.2812-3.2682-5.7075-4.6193-6.5312-6.0312-7.13-2.93-9.94-2.4-13.97-2.85l.5 1.625c12.018 4.25 16.693 11.75 33.25 18.75.26757 13.368-8 11.417-12.75 13l-7.2188-3.75c1.0234-3.0855 1.0857-6.6969.34375-8.25-2.0274-4.2441-7.9627-11.777-14.469-15.125 8.218 5.8242 12.367 16.554 10.281 19.875-2.3894 3.8035-3.552 6.3015-9.5938 12.469.85021-.12803 1.7062-.25328 2.5625-.375.92222 1.0787 4.2584 1.6462 7.9688.46875 1.6233 3.9242 9.8673 3.6199 7.4375 2 5.4244-2.5304 11.813-6.7987 15.688-8.8125-2.2216 1.3329 8.4129 4.9126 14.5 2.5 5.3159-2.1069 12.276-8.8274 14.188-14.562C300.01 298.35 298.92 294.58 297 291.87c13.349 1.5344 11.919-18.445 19.5-29.5.0.0 2.4984 2.2924 6.0625 5.4688L339 282.88s1.75-4 5.75-4 26.721 5.4035 33.25 3.5c6.4456-1.8792 21.73-5.7338 27.25-18-9.0044-14.794-24.396-30.82-43.75-51.5-3.832-.44595-5.6611-.56331-6.625-.53125zm-109.13 61.53-2.25 3 2.5312 3.7188 4.0938 1.5938c-.0411-.10709-.45783.59656-.59375.6875 8.0334.85518 10.15-1.9556 17.969 4.75 1.3796.45234-7.0036 1.6023-6.0938 1.9688 2.5796 1.0389 3.9195 1.3699 7.3438 2.5938 3.4242 1.2239 6.3786-1.1684 6.25-2.8125l-8-8.5-21.25-7zm117.75 23.75c-5.7844.81408-9.198 2.1749-11.281 6l3 .1875c3.2974 5.5911 21.674.26964 21.031-.4375H357.09c6.966-3.7293 16.865-.3333 18.406-2.5.0.0-6.8717-3.4824-12-3.25zm6.4375 11.562c-4.623 2.01-11.713 1.4354-17 .125H350.9c2.0485 1.1369 4.3658 1.9001 6.0938 2.5625C355.3 313.44 353.62 314.34 351.93 316c4.2795-2.1692 9.2524-3.5049 15.062-3.375l2.9375-3.4375z"/><path id="path2460" style="fill-rule:evenodd;fill:#784421" d="m459.21 282.35C456.56 284.65 456.38 285.89 456.56 287.65c.17678 1.7678 4.2426.7071 4.2426.7071.0634.76902-.63231 1.032.7071 2.6516 4.474 1.292 6.8367-.0576 9.1924-.35355 3.0743 1.6952 8.5639.17012 12.905.17678l9.1924-3.182c6.7735-4.9488 5.7747-7.3068 8.6621-10.96l-42.25 5.6569z"/><path id="path2701" style="fill-rule:evenodd;fill:#784421" d="m489.88 175.97-11.853 1.4491c-1.5165 1.2745-1.9504 1.3184-3.2864.65533l-18.27 2.17C455.2 180.7 454.23 181.72 453.25 182.62l-1.5 1.8438.625 3.8125-7.9688 9.5312L443.1 194.37 433.66 206.78l.875 2-6.5625 8.1562-1.7188-2.2812-2 3.7188s-.75 2-.75 4.75l17.25 59s2.25 2.25 3.5 2.25 37.5-3.75 37.5-3.75.34973-.18012.8125-.53125C486.21 279.72 487.47 279.57 490 279.31v.0625c1.25.0 8.5-.75 8.5-.75s1.75-.75 3-3.25-23.75-94.5-23.75-94.5c-.0221-.0548-.0396-.10301-.0625-.15625l7.3438-.75c26.97 114.2 43.88 128.03 8.97-1.21-.79429-1.9677-2.1056-2.9594-4.125-2.7812zM468.16 182.16 468 182.35l.625 3.8125-5.0938 6.0938c-1.1-4.09-2.53-9.37-2.53-9.37l7.1562-.71875z"/><path id="path3479" style="fill-rule:evenodd;fill:#2b1100" d="m455.44 180.97c-1.9768.46952-3.3049 2.2273-4.5938 3.75.77909 3.2226 2.3065 6.3928 2.4375 9.6875-3.2499 3.646-6.5008 7.2909-9.75 10.938-.78064-2.8277-1.7489-5.5981-2.5938-8.4062-2.7292 3.375-5.4583 6.75-8.1875 10.125.70408 2.6358 1.9553 5.2868 1.9688 8-2.3578 2.5478-4.703 5.1083-7.0938 7.625C426.93 220.45 426.21 218.22 425.47 216 423.65 217.83 422 220.25 422.57 222.97c.53083 3.2134 1.9851 6.192 2.6562 9.375C430.01 248.8 434.85 265.26 439.69 281.69c.60402.69411 1.3911 1.1815 2.25 1.4688.73893.59177 1.653 1.2188 2.3125 1.2188 1.25.0 37.5-3.75 37.5-3.75s1.75-.75 3-3.25L481.6 275.22c-2.8108-14.082-6.6584-27.93-10.188-41.844C467.03 216.57 462.53 199.76 457.97 183c-.54943-.93483-1.2528-2.181-2.5312-2.0312z"/><path id="path3497" style="fill-rule:evenodd;fill:#2b1100" d="m493.62 177.62-16.375 1.75 23.5 93.5L499.9 274.06c.0889-.42312.13645-.88278.0937-1.4375l-23.5-93.25-16.25 1.75 24.25 95.25-.53125.46875-2.375-1.625C478.78 261.13 474.93 247.28 471.4 233.37c-4.3787-16.81-8.8819-33.621-13.438-50.375-.54943-.93483-1.2528-2.181-2.5312-2.0312-1.9768.46952-3.3049 2.2273-4.5938 3.75.11051.45711.2405.91949.375 1.375l-7.6875 9.25C441.38 198.6 442.31 201.07 443.93 202.9l7.9375-8.1562.59375.59375C449.93 198.17 447.4 201 444.87 203.84c-.44664.50114-.89717.99881-1.3438 1.5-.78064-2.8277-1.7489-5.5981-2.5938-8.4062C438.3 200.19 435.66 203.45 433.03 206.71c.0211-.19766.0526-.38989.0625-.59375L427.43 213.9c-1.1604 1.7633-1.413 3.2955-1.1562 4.625C426 217.68 425.74 216.84 425.46 215.99c-1.824 1.8283-3.4741 4.2529-2.9062 6.9688.53083 3.2134 1.9851 6.192 2.6562 9.375C430 248.79 434.84 265.25 439.68 281.68c.60402.69411 1.3911 1.1815 2.25 1.4688.73893.59177 1.653 1.2188 2.3125 1.2188 12.59-1.3432 25.409-2.1424 37.875-3.9688l15.14-3.01 16.63-3.38c1.4017-1.0983 3.7085-2.7915 3.5-5.5l-23.75-90.875zM451.68 187.65c.72033 2.2299 1.5027 4.4592 1.5938 6.75-.0294.0329-.0644.0608-.0937.0937-1.8834-3.0544-1.79-4.9983-1.5-6.8438zm-18.77 19.97c.7179 2.451 1.8 4.9168 1.8125 7.4375-.15066.16281-.28693.33711-.4375.5-2.2485-3.6444-1.725-5.7362-1.375-7.9375zm.34 7.38.5 1-1.9688 2.25c-.19552.21137-.39804.41381-.59375.625-1.1799 1.2732-2.3671 2.5542-3.5625 3.8125C427.33 221.72 427 220.75 426.69 219.78c.24819.52912.56403 1.0173.9375 1.4688l5.63-6.25z"/><path id="path3536" style="fill-rule:evenodd;fill:#784421" d="m490 189.62c-1.104.0-2 .896-2 2s.89601 2 2 2 2-.896 2-2-.89599-2-2-2z"/><path id="path3534" style="fill-rule:evenodd;fill:#784421" d="m488.75 193.88-2.25 2.25 3.75 14.75 2-2.25 5.75-2.25-2.75-9.75-6.5-2.75z"/><path id="path3532" style="fill-rule:evenodd;fill:#784421" d="m495.25 210.62c-1.104.0-2 .896-2 2s.89601 2 2 2 2-.896 2-2-.89599-2-2-2z"/><path id="path3530" style="fill-rule:evenodd;fill:#784421" d="m497.12 220.38c-1.863.0-3.375 1.512-3.375 3.375s1.512 3.375 3.375 3.375 3.375-1.512 3.375-3.375-1.512-3.375-3.375-3.375z"/><path id="rect3538" style="fill:#784421" d="m501.44 231.01.22758.92101 2.4456-.40124 2.6019 10.53-2.4456.40127.25793 1.0438 4.1575-.68216L505.6 230.33l-4.1575.68216z"/><path id="path3543" style="fill:#784421" d="m495.38 232.11.22758.92101 2.4456-.40124 2.6019 10.53-2.4456.40127.25793 1.0438 4.1575-.68216-3.0874-12.495-4.1575.68216z"/><path id="path3545" style="fill:#784421" d="m505.33 246.51.22758.92101L508 247.03l2.6019 10.53-7.1956 1.4013L503.67 260l8.9075-1.6822-3.0874-12.495-4.1575.68216z"/><path id="path3424" style="fill-rule:evenodd;fill:#2b1100" d="m173.49 310.37-5-2.2855 10.081-3.4498c15.935-83e-5 21.011 20.198 13.996 29.966L182.62 338.08 185.4 334.23c6.1468-7.8376-6.8475-26.423-11.91-23.86z"/><path id="path3430" style="fill-rule:evenodd;fill:#784421" d="m487.12 292.19C468.64 293.47 453.37 301.11 441.9 307.66c0 0-93.88 20.027-99.031 38.344-2.0226-.0387.58562 9.384-2.125 16.562-8.8411 23.414-3.1471 53.059 31.906 67 15.87 6.3 50.35-7.44 50.35-7.45l30.938 4.0312L452 422.52C453.13 422.02 454.1 421.34 454.1 420.46c-1e-5-2.25-5.5-3.4062-4.5-5.1562.99999-1.75 11.156-6.4375 11.156-6.4375C467.9 404.79 477.26 403.37 486.56 403.02c8.7274.84689 12.11 1.1363 19.25 2.0938l1.9062 12.438 20.031-4.5938 1.7188 5.1562 5.75 2.875s-5.6917 4.9536-2.875 5.7188C538.54 428.39 543.04 445.6 543.22 446.18 540.85 445.67 542.54 444.15 540.41 445.9c-2.7714 6.0047-3.8956 6.3474-.4375 7.375 3.3026.98145 5.9319 9.8633 7.8438 21.25 17.128.26275 66.756-14.815 70.219-21.719-1.102-7.0264-7.3144-14.67-7.875-17.094-.9238-3.9932-6.0493-11.687-9.2188-7.8438-.36421.44165-1.1191 1.0011-2.1562 1.6562C596.17 423.66 580.11 387 578.72 369.46 578.03 360.81 522.99 345.62 511.75 342.55c-.70236-9.8001.60912-16.105-2.875-31.469.0.0-6.2948-13.755-21.75-18.906zm17.75 72.125.0312.59375c-.80567-.0256-1.6297-.0261-2.4688-.0312l2.4375-.5625zM446.4 377.38c-.16904.10013-.33658.21181-.5.3125V377.5l.5-.125z"/><path id="path3306" style="fill-rule:evenodd;fill:#2b1100" d="m613.25 492.88-10.188 2.2812c.0484 2.2183 1.75 5.8438 1.75 5.8438C607.89 499.34 611.1 498.9 615.09 499.16l-1.84-6.28zm3.0312 10.438L606.09 505.6c.0485 2.2183 1.75 5.8438 1.75 5.8438C610.92 509.78 614.13 509.34 618.12 509.6L616.28 503.32zm2.7812 10.625-10.25 1.8438c-.0418 2.2184 1.5 5.9375 1.5 5.9375 3.1426-1.5339 6.3616-1.8625 10.344-1.4375L619.06 513.94zM610.59 526.54c-.43514 2.1757.4375 6.0938.4375 6.0938 3.3651-.95131 6.5941-.68812 10.438.4375l-.4375-6.5312H610.59z"/><path id="path3434" style="fill-rule:evenodd;fill:#2b1100" d="m487.12 292.19c-6.4417 1.2277-4.3157-.11394-10.719 2-5.3757 3.0098-21.2 18.051-44.969 25.531-34.124 10.74-48.217 22.626-53.812 27.969L368.5 341.35C391.52 328.3 416.06 317.57 437.37 308.66 425.88 311.27 394.49 318.78 370.96 327.88c-.009-1.0807.12508-2.1658.25-3.1875.65378-.74046.54353.006.90625-.96875-.0832-.68482-.75249-.42145-1.5625-.53125-1.5211.54099-3.0403 1.2748-4.25 1.75-.55572 2.0301-1.3249 3.1074-1 5.2188C353.34 335.23 344.37 340.69 342.87 346c-2.0226-.0387.58562 9.384-2.125 16.562-8.8411 23.414-3.1471 53.059 31.906 67 15.86 6.3 50.34-7.44 50.34-7.45l29.562 3.8438c.034.008.0595.0234.0937.0312 6.2913 1.4332 8.4714 2.3033 8.5938-.875l-.5-16.25s-3.4299 1.58-6.5 3.25C453.8 411.14 453.67 411.32 452.65 411.02c-.6765-.4961-1.5857-1.9564-1.8125-5.8125-.46209-7.8557-.44493-6.4953-.90625-12.031l-1 .0937c.46246 5.5497.44456 4.1512.90625 12C450.07 409.27 451 411.03 452.05 411.8c.79171.58059.75718.741 1.125.65625C451.04 413.63 449.99 414.59 449.58 415.3c-1 1.75 4 2.9062 4 5.1562.0.81713-.32867 1.4458-1.3438 1.9375-.0705.052-.14143.10792-.21875.15625l-.03-.02c-1.5167.67446-3.3622 1.0355-3.75 1.0625-8.76-3.15-9.25-10.21-9.25-10.21s1.5-21.5 1-29.5C443.27 378.12 450 375.37 455.68 373.04c.36755 6.472.66311 21.21 1.0938 28.531.23507 3.9961 1.1631 5.7884 2.2188 6.5625 1.0556.77412 2.1562.34375 2.1562.34375l-.375-.90625s-.511.2461-1.1875-.25S458 405.4 457.77 401.54C457.34 394.19 457.29 379.14 456.9 372.7 469.53 368.2 486.86 365 500.65 364.85c9.3106-.097 16.953.96208 20.344 3.5312 3.2861 2.4902.0 4-2 10.5-1.6522 5.3697.37549 26.111 1.1562 33.75L514.93 411.73C514.39 405.69 508.28 405.02 506.62 404.38l.125 13.5 12-1s.99486.0295 2.25-1.8125l6.75-2.0938 1.7188 5.1562 5.75 2.875s-5.6917 4.9536-2.875 5.7188c4.9086 1.3334 6.9878 13.579 9.5938 19.562C548.7 447.7 561.61 444.57 573.65 440.45 574.8 444.87 575.74 449.86 576.71 454.54c1.0989 5.3208 2.2302 10.2 3.9062 13.312l.86-.46C579.92 464.5 578.76 459.66 577.66 454.36 576.7 449.67 575.77 444.63 574.6 440.14c10.319-3.5956 19.856-7.877 24.156-10.594-2.6116-5.8663-18.669-42.52-20.062-60.062-.68675-8.6485-55.732-23.842-66.969-26.906-.70236-9.8001.60912-16.105-2.875-31.469.0.0-6.2948-13.755-21.75-18.906zM467.34 315.07c2.1571 7.468-18.079 27.845-21.125 42.719C451.43 346.92 456.59 341.02 463.5 331.97c1.515-1.9838 5.0283-9.0435 6.5625-11.25 2.413 6.8369-4.9218 19.125-13.344 28.594-7.7512 8.7145-13.531 25.406-13.531 25.406L441.59 368.69C443 364.93 444.36 361.69 445.71 358.78l-1.625-8.4062C441.83 347.91 441.89 347.69 445.18 344.5c1.6262-7.1569 8.1595-13.113 16.594-21.375 1.9069-1.868 3.4328-6.2325 5.5625-8.0625zM445.71 358.78l.1875.96875c.0639-.64204.17614-1.303.3125-1.9688-.15956.33212-.34026.65831-.5 1zM353.9 350.57l7.0625 3.1875C354.95 360.94 328.64 374.1 352.5 412.44c-7.8932-9.01-21.896-19.495-7.4375-55.5l8.8438-6.375zM567.21 447.6l-.9375.28125c1.3811 4.8338 1.8178 7.3648 2.3438 9.4688.52598 2.1039 1.1214 3.788 2.75 6.8125l.90625-.5C570.67 460.68 570.1 459.15 569.59 457.1s-.98468-4.634-2.375-9.5z"/><path id="path3417" style="fill-rule:evenodd;fill:#784421" d="m446.78 307.19C415.7 310.8 391.25 316.89 373.47 323.25l-2.7188 1.125c-.43575 2.6123-.0288 7.703 2 11.5C388.7 329.95 403.33 325.54 418.69 322.6l28.094-15.406zM365.97 326.16c-18.47 7.52-28.04 15-27.97 18.72l2 12 2.25.5-.25-2.5c.22489-6.8205 11.551-10.51 26.281-16.844-1.7591-2.553-3.1369-8.6632-2.3125-11.875z"/><path id="path2457" style="fill-rule:evenodd;fill:#784421" d="m491.59 402.69c-1.7131.0247-3.4093.14569-5.0312.34375C477.25 403.38 467.9 404.8 460.75 408.88c0 0-2.6752 1.2231-5.4062 2.6562 1.7824 2.228 4.3125 5.375 4.3125 5.375l.28125 2.0312c1e-5-1e-5-6.1295 3.1485-7.7812 4.5938-2.3055 2.0173-2.3125 3.75-2.3125 3.75 1e-5 1e-5.31259 1.7327 2.9062 3.75s7.4688 1.75 7.4688 1.75c.082 14.503-2.4569 10.654-3.75 15.531C455.6 451.2 456.18 456.41 456.18 456.41c-12.862 6.99-13.511 26.842-13.812 29.969l-1.4375.28125c1e-5.0-3.7639 9.2153-3.1875 10.656 3.1379 7.8157 20.07 15.444 22.781 14.125 2.7593-2.6404 6.9028-2.0034 8.3438-.5625 1.4409 1.4409 4.5177 7.4151 4.3125 10.375C472.23 535.04 540.35 533.8 540.62 522.69c.0353-1.4405.875-8.0625.875-8.0625l-4.625-4.0625c-2e-5.0 2.126-7.0361-.5625-9.5-3.2534-2.9817-26.544-14.754-27.375-19.875C508.67 479.58 509.22 478 509.22 478 506.62 463.79 496.33 471.79 501.44 435.35l4.9062.3125 1.2812-17.812-.375.0312-.5-13.375C502.11 403.3 496.73 402.62 491.59 402.69z"/><path id="path3290" style="fill-rule:evenodd;fill:#2b1100" d="m491.06 440.41C488.58 440.43 485.88 440.87 482.72 442c.57638 1.4409.8155 6.2579 3.1562 4.875 3.5003-2.0679 13.827-.30645 15 .875C502.2 449.09 502.59 442 502.59 442 498.67 441.43 495.19 440.37 491.06 440.41zm-.8125 12.312c-2.6797.074-5.5263.51871-8.6875 1.6562.57636 1.4409.8155 6.2891 3.1562 4.9062 3.5003-2.0679 16.983-.0252 18.156 1.1562C504.19 461.77 502.59 454.1 502.59 454.1 498.67 453.53 494.71 452.6 490.25 452.72zM497.4 462.38c-5.4941-4e-4-11.633 1.9751-16.438 5.8438.57637 1.4409 1.3757 6.9333 3.1875 4.9062 3.3976-3.801 13.328-6.2103 20.469-4.9062 1.8465.33722-.3125-4.625-.3125-4.625-2.049-.82533-4.409-1.2186-6.9062-1.2188zm7.3438 8.1562C497.2 470.43 490.9 474.06 485 478.88c.57638 1.4409.21942 6.652 2.0312 4.625C490.43 479.7 504.9 470.95 509.5 476.57c.98192 1.2018-1.4375-5.75-1.4375-5.75-1.1309-.1745-2.235-.26666-3.3125-.28125z"/><path id="path3238" style="fill-rule:evenodd;fill:#2b1100" d="m491.59 402.69c-1.7131.0247-3.4093.14569-5.0312.34375C477.25 403.38 467.9 404.8 460.75 408.88c0 0-2.6752 1.2231-5.4062 2.6562.52892.66116.70631.877 1.2812 1.5938 1.175-.45816 2.7576-1.0327 4.625-1.6562l.875 1.5625 11.094.28125c.3153-1.9471.61823-3.8793.75-5.7812C476.86 406.7 479.19 406.05 479.4 406.1c.49664.0993.23857 4.2903.0312 6.9375-18e-5-6e-5-.0312.0-.0312.0.0132.008.01.0576.0.125-.0682.47183-.75209 2.2308-2.9062 3.0312-1.9339.71859-13.115.30729-14.844-.125-1.7291-.43227-1.8438-1.875-1.8438-1.875l-1.625.90625c.45274.56355 1.4688 1.8125 1.4688 1.8125L459.87 418.6c.30939-.0186.62484-.0369.9375-.0937C462 418.29 471.46 418.13 475.78 419.16c1.4247.33796 1.1517.82117 1.4375 1.5.005.0108.0245.0212.0312.0312l-.3 14.82C475.83 436.85 470.7 437.47 463.42 436.23c1.2898 3.1556 14.468 3.4068 16.125.875H491.1c-4.5698 25.592-1.067 38.912 4 45.531L490.2 490.42S479.27 487.53 476.38 488.1C473.5 488.68 470.04 496.76 470.04 496.76c-8.2448-4.8309-15.843-3.2368-24.781-15V488.7c3.2693 3.822 6.4482 6.4185 10.094 8.3438C462.15 500.63 468.23 502.22 470.92 505.7c11.328 14.648 27.328 16.252 33.457 15.936.0.0 2.0068-.28457.56592 3.1736-7.4928.86454-8.089.76894-11.835-.67196l-4.125 5.9062C507.94 533.1 537.57 530.5 540.42 523.7c.0516-.12361.0913-.24861.125-.375.009-.0416.0235-.0833.0312-.125.0369-.16871.0583-.32645.0625-.5.0353-1.4405.875-8.0625.875-8.0625l-4.5625-4-.0625-.0625c-2e-5.0 2.126-7.0361-.5625-9.5C533.07 498.09 509.78 486.32 508.95 481.2c-.24-1.6.3-3.18.3-3.18C506.65 463.8 496.37 471.81 501.47 435.36l4.9062.3125 1.2812-17.812-.375.0312-.5-13.375C502.14 403.32 496.76 402.63 491.62 402.71zM481.68 406.41l16.594 1.5v25.719c-6.1928.7039-12.442.63945-18.656.28125l.25-13.094c3.2894-.32804 8.4688-1.4375 8.4688-1.4375.0-1e-5.97739-1.8855-.0312-2.75-.79855-.68448-5.122-2.2264-7.2188-2.9688l.59375-7.25zM472.22 408.07c-.0446 1.0442-.12525 2.0777-.28125 3.0938-3.5511.816-7.6044.78685-8.9688.0l-.0937-.21875c3.1226-1.0171 6.3442-1.9891 9.3438-2.875zM468.43 421.53 472.34 423.6c.69802 2.9318.56394 5.6572.15625 8.3125-3.5511.81601-7.6044.78685-8.9688.0L462.81 430.19l4.0312-1.4688H458.5l.5625 1.4688 1.75.28125 1.875 3.3125 11.094.28125c.63403-3.9153 1.2715-7.8346.40625-11.375-1.8569-.6186-3.7998-.91339-5.75-1.1562zM498.06 437.1h1.0625C495.3 466.19 501.1 465.75 506.34 474.85l-1.6562 1.375C500.06 467.86 493.23 463.74 498.06 437.1zm6.1111 44.778 1.0139 3.0661c17.068 6.5522 25.416 18.468 21.844 27-7.7736 3.7283-15.247 2.8283-20.406 3.25-12.112.98994-34.281-15.281-34.281-15.281-.56549-.68824-1.1216-5.2584 4.3125-8.9375C478.71 489.58 491.06 492.33 491.06 493L497.4 482.35l6.7674-.47235zm-45.392 24.66-1.25 4.7188c1.3948.35494 2.4733.44374 3 .1875 1.706-1.6326 3.9516-2.0074 5.75-1.7188-2.3427-1.1598-5.8235-2.8149-7.5-3.1875z"/><path id="path3353" style="fill-rule:evenodd;fill:#ffe6d5" d="m120.25 328.88-16.438 5.25 4.4375 12 15.25 1.75-3-12.75 14-5-14.25-1.25z"/><path id="path3358" style="fill-rule:evenodd;fill:#ffe6d5" d="m114.75 332.61.25-6 3-.25c-1.0414-13.273 15.404-9.2318 16.25.0l5.25.25.75 13-3.75-1.5-1-8.75-4.5-.5c-1.9833-8.6633-11.492-8.0474-10 .5l-6.25 3.25z"/><path id="path3500" style="fill-rule:evenodd;fill:#2b1100" d="m349.5 325.11c.75-3.5 9.25-4.75 10.25-1.5 1.1543 7.0381 1.3604 11.921-.75 18.75l-12.25-1.75 2.75-15.5z"/><path id="path3503" style="fill-rule:evenodd;fill:#784421" d="m346.25 324.36c.75-3.5 9.25-4.75 10.25-1.5 1.1543 7.0381 1.3604 11.921-.75 18.75l-12.25-1.75 2.75-15.5z"/><path id="path3241" style="fill-rule:evenodd;fill:#ffe6d5" d="m169.19 324.16c-1.0023.0108-2.0093.0512-3.0312.0937v6.9688c32.178-1.4593 52.404 13.362 63.312 33.688 4.1104 7.6588 6.7737 16.152 8.1562 24.844-20.567 3.6369-41.156 17.481-56.812 45-8.5063 14.951-11.227 25.643-9 33.531C172.93 472.23 175.53 475.33 178.88 477c3.3514 1.67 7.2834 2.0551 11.406 1.5938 16.492-1.8456 38.062-16.899 48.375-40 5.7379-12.853 8.0002-27.928 6.75-42.906C254.21 395.24 262.89 396.8 271 399.97c1.0038.39283 1.921.995 2.9062 1.4375-7.6579 17.772-12.159 38.178-11.531 59.906.50012 17.318 3.6864 31.103 8.5 41.125S282.21 518.98 289.82 520.6c7.6058 1.6224 15.415-2.341 21.062-10.531 5.6478-8.1902 9.7479-20.665 11.5-37.875 3.1925-31.359-14.201-59.766-39.094-73.969C294.24 376.05 310.26 359.07 326.35 351c-2.299 4.043-4.1882 8.85-5.5 14.594-4.221 18.482-3.3077 46.01 5.25 84.375 3.3653 15.087 9.435 27.898 16.812 36.969 7.3775 9.0704 16.278 14.674 25.375 13.844 9.0965-.83059 16.945-8.3602 21.812-22.094 4.8671-13.734 7.2531-34.097 5.8438-62.906C395.34 403.58 393.79 393.05 391.5 383.91c6.5664 12.169 12.438 26.591 16.625 43.5l6.8125-1.6875C408.2 398.53 397.47 376.63 385.5 361.35 373.54 346.07 360.33 337.12 347.84 337.13c-3.6455.002-7.1649.95058-10.406 2.625-4.507.92881-9.0407 2.4444-13.469 4.5938-18.176 8.8222-35.539 27.024-47.188 50.719-1.1019-.49508-2.1261-1.1539-3.25-1.5938-9.1046-3.5628-18.91-5.1944-28.875-4.5312-1.5017-9.5106-4.4333-18.835-9-27.344-11.195-20.86-32.287-36.623-63.125-37.406-1.1014-.028-2.2176-.0434-3.3438-.0312zm177.09 21.406c.69803-.019 1.4046-95e-5 2.0938.0312 6.7768.31662 13.133 2.7416 18.781 7.5 11.296 9.5168 20.135 29.376 21.781 63.031 1.3823 28.256-1.0663 47.916-5.4375 60.25S373.36 493.3 367.65 493.82c-5.7041.52083-12.795-3.2681-19.312-11.281-6.5176-8.0131-12.25-19.943-15.406-34.094-8.4235-37.763-9.0802-64.51-5.25-81.281C329.6 358.77 332.6 352.94 336.06 349.32c1.2192-1.2741 2.5219-2.214 3.8438-3 2.1612-.40701 4.2809-.69315 6.375-.75zm-107.9 50.9c1.1078 13.803-.92567 27.705-6.0938 39.281C223.04 456.45 202.23 470.2 189.51 471.62c-3.1801.35589-5.7588-.0385-7.5-.90625-1.7412-.8677-2.8257-2.0663-3.4688-4.3438-1.2861-4.5548.26647-13.99 8.3438-28.188 14.77-25.961 33.188-38.474 51.5-41.719zm42 8.0938c22.263 12.993 37.928 38.758 35.062 66.906C313.77 487.9 309.76 499.37 305.13 506.09 300.5 512.81 295.84 514.72 291.29 513.75 286.73 512.78 281.44 508.24 277.19 499.4 272.95 490.57 269.86 477.68 269.38 461.12c-.59154-20.484 3.7641-39.779 11-56.562z"/><path id="path3469" style="fill-rule:evenodd;fill:#784421" d="m405.4 428.43C404 421.04 417.83 420.67 419.66 422.83S424.26 437 424.26 437l2.4304.9517L430.01 446.5S433.9 454.09 433.78 455.59c-.12253 1.495-4.0234 3.182-4.0234 3.182L429.17 456.72 415.62 459.87 410.37 462.7 407.32 463.2l-4.7384-18.7s.99255-2.9287 2.2138-5.5878c.60841-1.3247.053-6.7683.60852-10.485z"/><path id="path3476" style="fill-rule:evenodd;fill:#ffe6d5" d="m410.68 461.98 4.1093 14.133L418.92 474.7 414.37 459.77 410.68 461.98z"/><path id="path3478" style="fill-rule:evenodd;fill:#784421" d="m418.94 474.44 15.089-3.5293-4.5464-14.921L414.14 459.5l4.7955 14.942z"/><path id="path3471" style="fill-rule:evenodd;fill:#2b1100" d="m416.45 421.76c-.43008-.043-.87254-.0421-1.3444-.0475l1.5094 10.659 4.0265 8.8726c1.168 2.5738-2.5167 3.1839-4.0059 6.1794 6.6334-7.4832 11.694 4.2194 11.989 6.7518-4.775.11032-11.061 3.3577-11.061 3.3577L411.13 459.51 407.29 463.12l.0235.096 3.0512-.50244 5.2488-2.8307 13.553-3.1535.58413 2.0546s3.9008-1.687 4.0234-3.182c.12253-1.495-3.7702-9.0883-3.7702-9.0883L426.8 436.72 423.51 433.94s-2.0261-8.9454-3.856-11.102C419.2 422.3 417.98 421.91 416.45 421.76z"/><path id="path3247" style="fill-rule:evenodd;fill:#784421" d="m167.12 329c-2.5557.0339-5.1918.18689-7.9062.4375l.25 2.3125C185.26 328.92 204 335.97 216.84 348.16c-11.26-11.81-27.53-19.45-49.72-19.16zm177.06 14.469c-7.067.68759-13.391 2.4206-19.969 5.4062C307.85 356.3 291.86 374.55 280.9 396.72c.83096.47413 1.655.96339 2.4688 1.4688 9.9401-19.835 24.444-35.667 38.594-44.719 3.0256-1.9354 6.9743-3.7163 10.469-5.0625-2.7178 3.637-5.2902 9.686-6.875 16.625-3.8302 16.771-3.1735 43.518 5.25 81.281 3.1564 14.15 8.8887 26.081 15.406 34.094 1.386 1.704 2.7998 3.2101 4.2188 4.5312-.70412-.75688-1.4002-1.5536-2.0938-2.4062-6.5176-8.0131-12.25-19.943-15.406-34.094-8.4235-37.763-9.0802-64.51-5.25-81.281 1.9151-8.3854 4.9109-14.224 8.375-17.844 1.2192-1.2741 2.5219-2.214 3.8438-3 2.8816-.54268 5.7122-.84754 8.4688-.71875 6.7768.31662 13.133 2.7416 18.781 7.5.35299.2974.71446.6198 1.0625.9375-1.0444-1.12-2.0926-2.14-3.1875-3.0625-5.6478-4.7584-12.004-7.1834-18.781-7.5-.68912-.0322-1.3645-.019-2.0625.0zm-122.15.15c4.5805 4.7648 8.4172 10.1 11.5 15.844 5.3458 11.387 8.8268 22.977 9.8438 35.469C244.38 409.46 242.09 424 236.53 436.46c-10.313 23.101-31.883 38.154-48.375 40-4.1229.46139-8.0549.0763-11.406-1.5938C175.94 474.46 175.15 474 174.44 473.43c1.2172 1.5093 2.7363 2.7147 4.4375 3.5625 3.3514 1.67 7.2834 2.0551 11.406 1.5938 16.492-1.8456 38.062-16.899 48.375-40 5.7379-12.853 8.0002-27.928 6.75-42.906C254.21 395.23 262.89 396.79 271 399.96c.12548.0491.25193.10133.375.15625.004-.009-.004-.0224.0-.0312l.3125.15625c.26393.12738.52178.26783.78125.40625l.66.35c.2606.13632.51372.28609.78125.40625l3.875 2c-7 16.56-11.11 35.48-10.53 55.59.4783 16.563 3.5694 29.447 7.8125 38.281 2.3868 4.9693 5.1098 8.5883 7.8438 10.969C280.91 506.01 278.96 503.08 277.19 499.4 272.95 490.57 269.86 477.69 269.38 461.12c-.59154-20.484 3.7641-39.779 11-56.562 6.0906 3.5547 11.673 8.0588 16.531 13.312C291.6 411.64 285.27 406.38 278.25 402.43c-3.0526-1.7173-5.9926-3.21-9.375-4.5938-7.3202-2.9947-15.72-4.2009-23.688-4.125l-1.0312-7c.0416-.002.0834.002.125.0-1.5912-8.7407-4.4134-17.278-8.625-25.125-3.549-6.6127-8.0916-12.695-13.625-17.969zm154.84 8.0625c2.1987 2.3046 4.3692 4.8104 6.5 7.5312 11.964 15.277 22.703 37.179 29.438 64.375L407.46 424.9c.21569.8259.44871 1.6619.65625 2.5l6.8125-1.6875C408.2 398.52 397.46 376.61 385.49 361.34c-2.8104-3.5885-5.7028-6.8-8.625-9.6562zm12.5 28.344c2.2864 9.1434 3.8402 21.416 4.4375 33.625 1.4094 28.81-.97662 49.173-5.8438 62.906C383.1 490.29 375.25 497.82 366.15 498.65 359.01 499.3 352 495.99 345.75 490.15 352.52 497.29 360.32 501.5 368.28 500.78c9.0965-.83059 16.945-8.3602 21.812-22.094 4.8671-13.734 7.2531-34.097 5.8438-62.906-.52-10.63-1.7714-21.724-3.5938-30-.96829-1.9676-1.9644-3.8887-2.9688-5.75zM238 393.85c-18.312 3.2449-38.48 16.258-53.25 42.219C176.67 450.26 175.12 459.7 176.41 464.25 176.98 466.27 177.9 467.44 179.31 468.28 179 467.74 178.74 467.12 178.53 466.38c-1.2861-4.5548.26647-13.99 8.3438-28.188C201.12 413.16 220.5 400.15 238.16 396.38 238.11 395.54 238.07 394.69 238 393.85zm61.062 16.25C313.8 425.49 322.6 446.98 320.25 470.06c-1.7521 17.21-5.8522 29.685-11.5 37.875C303.1 516.13 295.29 520.09 287.69 518.47 284.18 517.72 280.89 515.94 277.91 513.25 281.44 517.14 285.45 519.66 289.81 520.6c7.6058 1.6224 15.415-2.341 21.062-10.531 5.6478-8.1902 9.7479-20.665 11.5-37.875 2.4606-24.17-7.3068-46.583-23.312-62.094z"/><path id="path3480" style="fill-rule:evenodd;fill:#ffe6d5" d="m402.19 444.3 4.8164 18.376 4.1296-3.1852-6.3141-21.639L402.19 444.3z"/><path id="path3482" style="fill-rule:evenodd;fill:#2b1100" d="m338.5 338.11c3.0014-4.0904-.25-8.75.5-11.5s4.75-6.25 8.25-5.5 10.75 8.5 9.25 11.75-3 3.375-7.75 7.375c-2.9652 5.0739.86595 6.0262 3.5 5.75l4.125 1.125C354.66 349.09 351.31 349.76 347.99 349.82c-5.9794.11041-4.7327.34686-9.6601-1.5141-.67-.25305-3.0803-5.7725.16683-10.198z"/><path id="path3296" style="fill-rule:evenodd;fill:#784421" d="m336 338.11c3.0014-4.0904-.25-8.75.5-11.5s4.75-6.25 8.25-5.5 10.75 8.5 9.25 11.75-3 3.375-7.75 7.375c-2.9652 5.0739-.13405 8.7762 2.5 8.5-10.429.7718-8.9113-.0375-12.917-.42721-.67-.25305-3.0803-5.7725.16683-10.198z"/><path id="path3496" style="fill:#2b1100" d="m347.75 329.49a2.875 4.375.0 11-5.75.0 2.875 4.375.0 115.75.0z" transform="matrix(1.1739 0 0 1.2286 -59.728 -76.061)"/><path id="path3498" style="fill:#ffe6d5" d="m347.75 329.49a2.875 4.375.0 11-5.75.0 2.875 4.375.0 115.75.0z" transform="matrix(1.1739 0 0 1.2286 -60.978 -76.311)"/><path id="path3366" style="fill-rule:evenodd;fill:#2b1100" d="m137.75 318.12c3.6935 3.1263 3.8012 5.4558 1.5 7.25.0.0 3.75.25 8.25-1.5-2.6255-5.2895-9.75-5.75-9.75-5.75zm28 9.25-12.5-.75 1.25 7.5-14.5 5.75 1 2.5c.85064.0172 4.0301-1.0696 5.125 2.0312C147.9 341.46 149.31 338.38 156.25 337.37l2.0625-1.4375 7.9375-2.0625-.5-6.5z"/><path id="path3225" style="fill-rule:evenodd;fill:#ffe6d5" d="m281.78 233.18S271.88 218.68 277.18 212.67c5.3033-6.0104 18.738-10.253 18.738-10.253s29.345 3.5355 35.355 5.3033c6.0104 1.7678 17.888.57682 22.274 2.1213 3.9778 1.4007 46.669 53.74 46.669 53.74-1.1453 10.082-28.27 21.071-54.801 12.374C342.25 274.92 337.29 279.5 337.29 279.5l8.8388 8.4853C341.6 291.06 337.28 295.28 329.51 292.22L312.18 272.07l4.2426-10.253s15.742-3.2982 19.092-8.4853c13.893-21.515-28.784-47.989-40.659-42.073-9.7318 4.8486-12.646 22.98-13.081 21.92z"/><path id="path3284" style="fill-rule:evenodd;fill:#784421" d="m348.91 212.69c-.96171.19234-2.3249.0479-6.1562 2.4375 1.8232-1.2473 6.3328-1.7812 6.125-1.7812 6.0803 2.8461 5.058 3.9212 7.875 5.6875L342.6 228.22S338.71 222.22 336.94 221.16c-1.7148-1.0289-2.4178-.0264-3.75 1.9688 1.5198-.97922 9.995 16.927 11.875 16.938 2.3451.013 18.251-9.3719 19.094-12.719.96512-3.8332-13.482-15.01-15.25-14.656zm9.25 8.4688c3.7784 1.6499 3.1348 3.2876 3.875 4.9375.0.0-15.553 11.852-15.906 10.438-.35355-1.4142-3.1875-6.1875-3.1875-6.1875l15.219-9.1875z"/><path id="path3280" style="fill-rule:evenodd;fill:#784421" d="m369.44 231.84C368.7 231.64 363.61 233.73 357.35 238.4c10.432-5.2628 12.46-6.0183 11.812-5.5312 5.925 3.105 5.6206 5.7962 8.4375 7.5625l-24.22 15.73S347.71 249.29 345.94 248.23c-1.7152-1.0291-2.0932.11901-3.4062 2.125 1.6131-.87553 11.62 18.708 13.5 18.719 2.3451.013 28.157-16.966 29-20.312C386 244.93 371.18 232.31 369.44 231.85zm9.56 10.72c3.7784 1.6499 3.166 3.2876 3.9062 4.9375.0.0-25.459 19.445-25.812 18.031-.35355-1.4142-3.7188-7.4375-3.7188-7.4375L379 242.56z"/><path id="path3233" style="fill-rule:evenodd;fill:#784421" d="m333.66 256.94C332.18 257.64 330.7 258.34 329.22 259.03c.55072-1.6512-.11617-1.6489-1.4037-.8926C324.1 259.71 320.1 260.72 316.25 261.72 315.18 263.82 314.11 265.91 313.04 268 318.06 273.8 323.05 279.63 328.07 285.44c-.28776 2.0751-.076 4.3382.72294 6.2464.99046 1.3724 2.9576 1.3807 4.4876 1.6996 4.3655.62644 8.3008-1.7893 11.617-4.3012.91952-.60122 2.1964-1.1708.6391-1.9624-2.6133-2.5506-5.3958-5.0995-7.9037-7.6511 2.0652-1.6819 4.336-3.4889 7.125-3.4375 6.4169 2.0021 13.116 3.2348 19.862 3.271 9.8407.0587 19.949-1.8053 28.513-6.8336 3.2059-2.0878 6.732-4.8689 7.3125-8.9375C399.8 262.86 399.05 261.33 398.97 263.07 397.21 268.01 392.2 270.8 387.61 272.8 379.13 276.24 369.82 277.58 360.7 277.06c-5.4528-.37383-10.47-2.733-15.758-3.8683-3-2.9783-4.8645-6.8999-7.2022-10.403-1.2701-1.9956-2.5082-4.0004-3.9228-5.91l-.15625.0625z"/><path id="path3292" style="fill-rule:evenodd;fill:#2b1100" d="m281.42 228.22-.93045 2.951c.84521 1.4529 1.292 1.8447 1.292 1.8447.66748 1.524 3.601-16.434 13.094-21.761.82098-.46068 1.8472-.64303 2.9688-.75-17.712-2.7469-25.318 4.342-16.424 17.715z"/><path id="path3227" style="fill-rule:evenodd;fill:#2b1100" d="m337.88 279C323.94 289.37 333.14 291.97 342.66 288.06c.32734-.0504.9367.49222 1.625 1.2188.61564-.43894 1.2295-.89408 1.8438-1.3125L337.88 279z"/><path id="path3252" style="fill-rule:evenodd;fill:#ffe6d5" d="m357.06 174.56c-.13011.005-1.9844.0391-2.0625.0625 4.278 1.4536 6.9539 3.9752 9.25 6.75 14.886 4.4323 20.62 8.7884 32.156 19.75 8.3018 7.3542 15.277 14.708 16.969 22.062l.40625 7.5938 4.0938 4.0938L416 241.18l5.625 6.9062c3.2284-6.9492 7.1206-15.625 7.125-17.469.006-2.3049-4.5-9.75-4.5-9.75l4.5-4.5s-.5-5-3.5-8.5-3.5-3-3.5-3l.75-1.75s-9.75-5.75-11.25-6-2.25 4.25-2.25 4.25l-3-3s2.75-5.25 2.5-6.25-7-6.25-7-6.25l.25-1.5s-8.5-4.5-9.75-4.25-2.5 4.75-3.5 3.75C387.53 182.9 366.34 173.41 357.06 174.56z"/><path id="path3261" style="fill-rule:evenodd;fill:#784421" d="m361.41 178.62c1.081.87584 1.8978 2.1998 2.973 2.9942 8.1426 2.3409 15.995 5.811 22.497 11.254C391.9 197 396.6 201.55 401.35 205.97c4.9333 4.9194 10.082 10.32 11.847 17.272.15388 2.56.24603 5.1395.4375 7.6875l4.0312 4.0312C417.09 237.07 416.26 239.22 415.85 241.31c1.951 2.3828 3.8778 4.786 5.8438 7.1562 2.5304-5.7352 5.465-11.341 7.2188-17.375C429.3 229.7 428.2 229.86 427.14 229.94c-3.6276-.0564-6.2642-3.0917-7.1944-6.4153C410.9 209.14 398.46 196.82 383.79 188.18 376.64 183.88 368.87 180.53 360.88 178.06c.17708.1875.35417.375.53125.5625z"/><path id="path3268" style="fill-rule:evenodd;fill:#784421" d="m393 186.86s4.3056 3.0452 6.25 2.5c.72214-.2025 1.5-2 1.5-2l-.5 2s2.7663 5.264 5 5.75c.88552.19264 2.75-1.25 2.75-1.25l-2 4.5c-.52564-2.4744-6.5856-6.4084-13-11.5z"/><path id="path3270" style="fill-rule:evenodd;fill:#784421" d="m411 201.86s5.6156 6.226 7.5 5.5c2.4721-.9525 2.75-1.25 2.75-1.25l-1.5 4.5s2.7663 5.514 5 6c.88552.19264 2.75.0 2.75.0l-3.25 4.25c-1.3034-2.6688-10.885-16.108-13.25-19z"/><path id="path3431" style="fill-rule:evenodd;fill:#ffe6d5" d="m427.75 307.12C425.61 306.2 410.2 309.35 408.5 310.37l-1 2 1.6875 8.375c1.0981-.50387 2.1859-1.0098 3.2812-1.5 1.3449-.9556 4.3049-1.7798 5.8438-2.4688.52222-.60903.8108.16103.0-.78125l-6.25.875-.8125-4.5c4.9167-2.5337 9.8333-1.7446 14.75-2.5l.5 3.3438c.91087-.38189 1.9074-.79657 2.8438-1.1875l-.85-4.13-.75-.75z"/><path id="path3232" style="fill-rule:evenodd;fill:#ffe6d5" d="m456.91 286.07C459.34 284.85 461.7 284.43 460.62 288.54c.24059-2.1209 5.9936-6.2984 8.5678-4.7928-.44139 1.177-.55427 4.5356 2.3923 6.3838-.26138-3.5875 4.2283-5.8775 8.4853-6.1872.0.0-2.5527-4.089-5.1265-4.0659-2.1309.0191-4.6758 1.3967-5.4801 2.2981-.85681-1.9108-6.6939-.81681-6.8943.88388-2.1523-1.6958-5.4362-.40495-5.6568 3.0052z"/></g></svg>