<svg xmlns:dc="http://purl.org/dc/elements/1.1/" xmlns:cc="http://creativecommons.org/ns#" xmlns:rdf="http://www.w3.org/1999/02/22-rdf-syntax-ns#" xmlns:svg="http://www.w3.org/2000/svg" xmlns="http://www.w3.org/2000/svg" xmlns:sodipodi="http://sodipodi.sourceforge.net/DTD/sodipodi-0.dtd" xmlns:inkscape="http://www.inkscape.org/namespaces/inkscape" width="1890.9" height="368.11" id="svg2" inkscape:version="0.48+devel 13045" sodipodi:docname="GPL-v4_5_6_etc.svg"><defs id="defs29"/><sodipodi:namedview pagecolor="#ffffff" bordercolor="#666666" borderopacity="1" objecttolerance="10" gridtolerance="10" guidetolerance="10" inkscape:pageopacity="0" inkscape:pageshadow="2" inkscape:window-width="1482" inkscape:window-height="920" id="namedview27" showgrid="false" inkscape:zoom=".44722" inkscape:cx="975.79" inkscape:cy="165.27" inkscape:window-x="201" inkscape:window-y="59" inkscape:window-maximized="0" inkscape:current-layer="svg2" fit-margin-top="0" fit-margin-left="0" fit-margin-right="0" fit-margin-bottom="0"/><text style="font-size:64px;font-style:normal;font-variant:normal;font-weight:400;font-stretch:normal;text-align:start;line-height:125%;letter-spacing:0;word-spacing:0;writing-mode:lr-tb;text-anchor:start;fill:#000;fill-opacity:1;stroke:none;font-family:Times New Roman;-inkscape-font-specification:'Times New Roman,'" x="63.386" y="-190.57" id="text4103" sodipodi:linespacing="125%"><tspan sodipodi:role="line" id="tspan4105" x="63.386" y="-190.57"/></text><g id="g4110" inkscape:export-xdpi="26.177" inkscape:export-ydpi="26.177"><text style="font-size:279.55410767px;font-style:normal;font-variant:normal;font-weight:400;font-stretch:normal;text-align:start;line-height:125%;letter-spacing:0;word-spacing:0;writing-mode:lr-tb;text-anchor:start;fill:#fff;fill-opacity:1;stroke:#bd0000;stroke-width:7.19999981;stroke-miterlimit:4;stroke-opacity:1;stroke-dasharray:none;font-family:Mail Ray Stuff;-inkscape-font-specification:'Mail Ray Stuff, Normal'" x="1758.4" y="229.45" id="text4092" sodipodi:linespacing="125%" transform="matrix(0.80516614,0,-0.46593439,1.2419797,0,0)"><tspan sodipodi:role="line" id="tspan4094" x="1758.4" y="229.45">8,9…</tspan></text><text style="font-size:279.55410767px;font-style:normal;font-variant:normal;font-weight:400;font-stretch:normal;text-align:start;line-height:125%;letter-spacing:0;word-spacing:0;writing-mode:lr-tb;text-anchor:start;fill:#fff;fill-opacity:1;stroke:#bd0000;stroke-width:7.19999981;stroke-miterlimit:4;stroke-opacity:1;stroke-dasharray:none;font-family:Mail Ray Stuff;-inkscape-font-specification:'Mail Ray Stuff, Normal'" x="975.92" y="227" id="text4096" sodipodi:linespacing="125%" transform="matrix(0.80516614,0,-0.46593439,1.2419797,0,0)"><tspan sodipodi:role="line" id="tspan4098" x="975.92" y="227">4,5,6,7</tspan></text><path id="path1" style="fill:#bd0000" d="M59.31 35.132C59.31 35.132.0 293.9.0 293.9c.01705.0.01919.0.05329.0h274.38c1e-5.0 142.71.0 142.71.0-17.001-1.4835-30.423-7.4518-38.421-18.331-1.4835-2.0122-2.7092-4.1799-3.7835-6.4479-.68207-1.6711-1.3237-3.3572-1.9717-5.0624-1.7052-5.4226-2.3852-11.44-2.0782-17.852.85262-17.871 9.2381-39.128 23.767-61.388 15.432-23.657 37.798-48.451 65.491-71.459 6.207-5.1532 12.625-10.242 19.344-15.187 8.3044-6.1098 16.673-11.737 25.045-16.999 30.847-19.421 61.618-33.01 88.885-39.913-26.056 8.5005-55.328 22.931-84.249 42.577C508.13 84.54 507.1 85.26 506.08 85.969c-16.046 11.118-30.583 22.926-43.27 34.85-40.823 38.385-62.4 78.159-52.595 101.46.69916 1.6029 1.5326 3.1334 2.5046 4.5828 10.538 15.5 36.656 18.18 69.754 9.8583 2.2509-.56275 4.5018-1.2 6.8209-1.8651C499.86 231.8 511.09 227.68 522.65 222.6c2.7795-1.2278 5.5889-2.4896 8.4195-3.8368.28988-.13641.56273-.27283.85261-.4263 36.492-18.132 64.536-38.995 70.607-51.53 1.3301-2.7266 1.6498-5.0513.74603-6.8742-4.3312-8.7819-34.639-2.849-71.353 13.056-2.95 1.2789-5.9342 2.5949-8.9524 3.9966 2.4555-2.2799 5.0112-4.5683 7.6202-6.8209 4.1608-3.5844 8.4686-7.0895 13.056-10.551 7.179-5.4363 14.437-10.351 21.582-14.708 33.456-25.241 50.37-49.117 46.84-57.978C611.4 85.259 609.99 84.111 607.8 83.412c-6.9744-2.2185-19.704.42929-35.17 6.7676-12.755 5.2316-27.405 12.991-42.258 22.647l-2.025 1.3322c2e-5.0-.37302.21314-.37302.21314 2e-5 2e-5-7.1406 4.7427-7.1406 4.7427-2e-5-1e-5 4.1032-7.5136 4.1032-7.5136C531.03 100.46 540.95 88.83 553.29 78.029c9.0547-7.8969 19.399-15.338 30.534-21.848C588.04 53.716 592.24 51.425 596.45 49.36 600.77 47.253 605.09 45.38 609.3 43.712 621.53 38.873 633.21 35.932 643.4 35.132c-.92767.0-28.616.0-28.616.0 1e-5.0-96.452.0-96.452.0 1e-5.0-425.29.0-425.29.0s-33.731.0-33.731.0zm305.98.3731C363.62 61.01 368.56 98.368 379.78 139.84c1.9951 7.3802 4.1671 14.891 6.5544 22.488 1.4836 4.691 3.014 9.3088 4.5828 13.855C390 177.54 389.07 178.89 388.2 180.24c-14 21.455-22.183 41.731-24.246 59.363-5.9171-19.815-10.372-41.518-12.896-64.532-.71619-6.5941-1.2768-13.114-1.6519-19.557-2.7625-46.796 3.3465-89.217 15.88-120zM85.901 68.704c.31934-.0075.63414.0.95918.0.0-2e-5 63.04.0 63.04.0 5.3885-2e-5 9.5556 1.0099 12.523 3.0374 2.95 2.0395 4.0563 4.6774 3.3572 7.8867 2e-5 2e-5-7.5136 33.945-7.5136 33.945.0 3e-5-22.221.0-22.221.0 2e-5 3e-5 7.3005-33.039 7.3005-33.039-2e-5.0-55.633.0-55.633.0-2e-5.0-20.09 90.803-20.09 90.803 2e-5.0-7.2472 32.879-7.2472 32.879.0 3e-5 55.58.0 55.58.0.0 3e-5.0533-.21316.0533-.21316.0 2e-5 11.137-50.304 11.137-50.304.0-2e-5-26.111.0-26.111.0.0-2e-5 2.5045-11.35 2.5045-11.35-1e-5-2e-5 48.332.0 48.332.0.0-2e-5-13.855 62.773-13.855 62.773-.18757.89352-.51582 1.7031-.95919 2.5045-1.1425 2.0804-3.1355 3.8623-5.915 5.3288-3.8538 2.0292-8.4664 3.0374-13.855 3.0374.0 2e-5-62.987.0-62.987.0-5.3885 2e-5-9.5556-1.0082-12.523-3.0374-2.95-2.0292-4.0734-4.6207-3.3572-7.8334 1e-5-2e-5 27.763-125.49 27.763-125.49C66.9 76.419 69.134 73.781 73.005 71.741c.13642-.07331.28989-.08995.4263-.15986 3.533-1.7697 7.6794-2.7644 12.469-2.8776zm98.796.0c-2e-5-2e-5 79.346.0 79.346.0 5.3203-2e-5 9.5024 1.0099 12.469 3.0374C279.5 73.781 280.64 76.419 279.92 79.628c2e-5 2e-5-14.814 66.93-14.814 66.93-.69912 3.1887-2.9863 5.7905-6.8742 7.8334-3.8879 2.0497-8.4643 3.0907-13.802 3.0907-2e-5.0-57.658.0-57.658.0S175.64 207.73 175.64 207.73c0 2e-5-1.8118 8.2597-1.8118 8.2597 1e-5 2e-5-21.742.0-21.742.0.0 2e-5 1.6519-7.4603 1.6519-7.4603.0 2e-5 30.96-139.83 30.96-139.83zm109.61.0c-1e-5-2e-5 21.742.0 21.742.0 2e-5-2e-5-24.619 111.21-24.619 111.21 2e-5 2e-5-5.3821 24.299-5.3821 24.299.0 3e-5 52.009.0 52.009.0.54568 3.9885 1.183 7.9058 1.8651 11.777-2e-5 2e-5-78.227.0-78.227.0 2e-5 2e-5 6.1814-27.923 6.1814-27.923 2e-5.0 26.431-119.37 26.431-119.37zm-90.483 11.83c2e-5.0-14.441 65.118-14.441 65.118.0-2e-5 54.194.0 54.194.0-1e-5-2e-5 14.388-65.118 14.388-65.118 2e-5.0-54.141.0-54.141.0zM158.27 226.22c.21267-.007.42524.0.63947.0 2.5237 2e-5 4.7277.44336 6.5012 1.2789 1.8928.88671 3.2463 2.204 3.9966 3.9433.73325 1.6882.92508 3.6044.53287 5.7018.0 1e-5-.15985.79933-.15985.79933 1e-5-3e-5-6.2347.0-6.2347.0-2e-5-3e-5.0533-.74605.0533-.74605.16118-1.4654-.0205-2.6178-.58618-3.4104-.0737-.0994-.18053-.23063-.26644-.31973-.14068-.14363-.35198-.3078-.53287-.42631-.87238-.5495-2.237-.85262-3.9966-.85262-2.3362 2e-5-4.0819.40712-5.2755 1.2256-1.1596.80146-1.8928 1.6967-2.1315 2.771-.23875 1.0913.15346 1.6647.42631 1.9717.008.008.0429.0438.0533.0533.34552.29445 1.5454.98476 5.2755 1.8651 3.3763.81851 5.6123 1.5539 6.8742 2.1848 1.9099.97196 3.2442 2.2317 3.9433 3.7835.69911 1.5347.8526 3.3316.4263 5.2755-.4263 1.8928-1.3919 3.6385-2.8243 5.2755-1.4153 1.637-3.2165 2.933-5.3821 3.8367-2.1486.88672-4.506 1.3855-6.9275 1.3855-3.0694-1e-5-5.5334-.46467-7.4603-1.3855C143.2 259.48 141.75 257.97 140.89 256.01 140.08 254.1 139.9 251.93 140.36 249.56c0-3e-5.15987-.74605.15987-.74605s6.1281.0 6.1281.0-.0533.74605-.0533.74605c-.15348 1.4153-.002 2.5578.37302 3.4104C147.33 253.79 148.01 254.47 149.1 255c1.1595.5627 2.609.8526 4.2631.8526 1.4836-1e-5 2.8392-.24939 4.0499-.69273 1.1937-.4263 2.1422-.98904 2.8243-1.7052.66502-.71622 1.0551-1.4729 1.2256-2.2914.17052-.73324.13002-1.3535-.15987-1.8651-.32399-.54564-.96558-1.0295-1.9717-1.4388.0-1e-5-5.2223-1.5454-5.2223-1.5454-2.9159-.73323-4.8791-1.4324-6.0216-2.1315-1.5518-.92081-2.6708-2.1017-3.2506-3.517C144.26 239.27 144.2 237.72 144.57 236.03c.3922-1.8075 1.264-3.5277 2.6111-5.0624C148.55 229.41 150.31 228.2 152.4 227.4c1.8544-.6954 3.806-1.1032 5.8617-1.1723zm55.953.10658c.33725-.0263.65436.0 1.0125.0 1e-5.0 3.8368.4263 3.8368.4263-1e-5.0 1.2789.10658 1.2789.10658 2e-5 1e-5-1.8651 4.7426-1.8651 4.7426-1e-5 2e-5-.37302.74604-.37302.74604.0-2e-5-2.9308-.26644-2.9308-.26644-.86541.0-1.5011.13352-1.9184.4263-.0277.0209-.081.0842-.10658.10658-.0559.049-.14991.13458-.21315.21316-.25659.33651-.56912.93786-.79932 2.025-2e-5.0-.11084.4604-.21315.85261 1.3471 1e-5 4.5828.0 4.5828.0.0 1e-5-1.1723 5.2755-1.1723 5.2755.0-1e-5-3.3508.0-4.4762.0-.34106 1.5347-4.5295 20.303-4.5295 20.303-2e-5-2e-5-6.1814.0-6.1814.0-2e-5-2e-5 4.0179-18.035 4.5295-20.303-1.0402-1e-5-3.5703.0-3.5703.0.0-1e-5 1.1723-5.2755 1.1723-5.2755 1e-5 1e-5 2.545.0 3.517.0.17052-.73324.4263-1.6519.4263-1.6519.37516-1.7052.76735-2.9309 1.2789-3.7835C208.2 229.1 209.19 228.11 210.44 227.4c1.0253-.59575 2.322-.95194 3.7835-1.0658zm14.761.26644c-2e-5-1e-5-1.6157 7.2706-2.025 9.1123 1.1936 1e-5 3.9966.0 3.9966.0.0 1e-5-1.1723 5.2755-1.1723 5.2755-2e-5-1e-5-2.9394.0-3.9966.0C225.46 242.45 222.9 253.83 222.9 253.83c2e-5-2e-5-.21316 1.3663-.21316 1.7585 28e-5.0131-.001.0437.0.0533 84e-5.004-.001.05.0.0533.002.003.0512-.002.0533.0.0-2e-5.63947.0533.63947.0533s2.9309-.21315 2.9309-.21315S226 260.28 226 260.28c2e-5.0.0533.85261.0533.85261-2e-5-2e-5-4.2098.4796-4.2098.4796-1.6711-2e-5-2.8968-.27283-3.7835-.8526C217.12 260.14 216.57 259.33 216.35 258.3c-.0341-.18759-.10658-.46042-.10658-.85261.0-.76736.14495-2.0655.63946-4.3163 2e-5 2e-5 2.2402-10.035 2.7177-12.15-.80143-1e-5-2.9309.0-2.9309.0 2e-5-1e-5 1.1723-5.2755 1.1723-5.2755-2e-5 1e-5 2.0782.0 2.9309.0C221.05 234.48 222 230.27 222 230.27c0 2e-5 4.9558-2.6111 4.9558-2.6111-1e-5 2e-5 2.025-1.0658 2.025-1.0658zm-196.37.21315c2e-5.0 23.98.0 23.98.0S55.26 232.78 55.26 232.78c0 2e-5-15.997.0-17.532.0C37.455 233.99 36.362 238.89 35.97 240.66c2.2168.0 15.187.0 15.187.0S49.824 246.63 49.824 246.63c-1e-5.0-13.652.0-15.187.0-.32399 1.4836-3.2506 14.654-3.2506 14.654 2e-5-2e-5-6.4479.0-6.4479.0 1e-5-2e-5 7.6735-34.477 7.6735-34.477zm32.133 8.4195c.24067-.0296.50358.0.74604.0 1.5347.0 2.9522.4668 4.3164 1.4388.0 2e-5.8526.58617.8526.58617S67.356 242.69 67.356 242.69c0-2e-5-.90589-.63946-.90589-.63946-.66504-.42629-1.3812-.63946-2.1315-.63946-.64799 2e-5-1.2512.2302-1.8651.63946-.64797.4263-1.1894.99115-1.5986 1.7585-.7162 1.313-1.2406 2.7838-1.5987 4.3696.0 1e-5-2.8776 13.109-2.8776 13.109.0-2e-5-6.1814.0-6.1814.0.0-2e-5 5.7018-25.578 5.7018-25.578 2e-5 1e-5 5.7551.0 5.7551.0.0 1e-5-.19824.77588-.26645 1.0658.27284-.20461.56059-.48599.79933-.63946.82597-.4929 1.6984-.80035 2.5578-.90589zm18.331.0c.37219-.0282.73859.0 1.1191.0 3.4787.0 6.1111 1.2192 7.8334 3.6236 1.0743 1.5517 1.652 3.4701 1.652 5.7551.0 1.2619-.15561 2.6197-.47959 4.1032L92.721 250.58c0-2e-5-15.633.0-17.372.0-.0341.35808-.0533.74177-.0533 1.0658.0 1.3301.27283 2.3767.85261 3.144.2755.37513.5949.71299.95919.95918.68678.44789 1.5733.69275 2.6111.69275 1.2619-2e-5 2.3703-.34745 3.4104-1.0125.98905-.63093 1.9354-1.6391 2.771-3.0374.0-3e-5 6.6077.0 6.6077.0.0-3e-5-.58616 1.2789-.58616 1.2789C90.66 256.23 88.9 258.22 86.7 259.64 84.5 261.05 81.872 261.82 78.973 261.82 75.205 261.82 72.399 260.6 70.66 258.2 68.938 255.84 68.567 252.59 69.488 248.5c.92083-4.1607 2.7582-7.4859 5.4354-9.805 2.3996-2.0806 5.1225-3.2347 8.1531-3.4637zm27.763.0c.37218-.0282.73857.0 1.119.0 3.4787.0 6.1111 1.2192 7.8334 3.6236C120.87 240.4 121.44 242.32 121.44 244.61c0 1.2448-.1556 2.5834-.4796 4.0499.0 2e-5-.47958 1.9184-.47958 1.9184.0-2e-5-15.633.0-17.372.0-.0171.2387-.0362.45402-.0533.69275-.0128.0895.006.22541.0.31972-5e-4.0154.0.0384.0.0533.0.2558.0362.5073.0533.74604.0852.97196.33892 1.7841.79932 2.398.0877.11936.17008.2667.26644.37302.78101.83554 1.8864 1.2789 3.3039 1.2789 1.2619-2e-5 2.3873-.34745 3.4105-1.0125.98904-.63093 1.9354-1.6391 2.771-3.0374.0-3e-5 6.661.0 6.661.0-1e-5-3e-5-.63946 1.2789-.63946 1.2789-1.2619 2.5579-3.0225 4.5529-5.2222 5.9683-2.1997 1.4153-4.8279 2.1848-7.7268 2.1848-3.7685-1e-5-6.5736-1.2192-8.313-3.6236-1.1255-1.5347-1.6519-3.4893-1.6519-5.8084.0-.35812.0192-.74391.0533-1.1191.0682-.88671.20463-1.782.42631-2.771.92084-4.1437 2.7049-7.4859 5.3821-9.805 2.3996-2.0806 5.1758-3.2347 8.2064-3.4637zm75.616.0c.38084-.0293.73112.0 1.1191.0 3.5469.0 6.2731 1.2 8.0465 3.5703C197.38 241.17 197.8 244.37 196.9 248.39 196.2 251.53 195.19 254.06 193.81 255.91 192.43 257.75 190.67 259.25 188.59 260.28 186.52 261.3 184.34 261.82 182.14 261.82c-3.6151-1e-5-6.3072-1.2363-8.0465-3.6236-1.1255-1.5176-1.7052-3.4723-1.7052-5.8084 2e-5-1.2619.13856-2.6026.4796-4.1032 1.0232-4.57 3.112-8.0508 6.1814-10.285 2.253-1.6263 4.7411-2.5661 7.4071-2.771zm93.627.0c.4496-.0277.86593.0 1.3322.0 2.1486.0 3.8368.2174 5.1157.74602 1.3642.54569 2.3319 1.3173 2.8776 2.2381.52864.86963.79933 1.9376.79933 3.2506 1e-5 2e-5-.63948 3.89-.63948 3.89 3e-5.0-1.1723 5.2755-1.1723 5.2755-1.0061 4.5018-1.2278 6.19-1.2789 6.8209-.0512.85262.0277 1.6839.26645 2.4513 2e-5-2e-5.4263 1.3855.4263 1.3855 2e-5-2e-5-6.288.0-6.288.0-2e-5-2e-5-.26645-.79933-.26645-.79933-.10231-.37512-.0725-.8526-.10657-1.2789-1.1937.73325-2.3894 1.3834-3.4637 1.7585-1.5858.54569-3.2314.8526-4.9025.8526-2.8989-1e-5-5.0453-.75454-6.3413-2.2381C265.45 258.49 265 257.16 265 255.64c-2e-5-.57977.0767-1.1809.21314-1.8118.28988-1.296.81638-2.496 1.6519-3.5703C267.69 249.2 268.65 248.33 269.74 247.7c1.0573-.63092 2.236-1.0786 3.4637-1.3855-2e-5.0 3.7835-.63946 3.7835-.63946 2.9159-.34106 5.0922-.76521 6.661-1.2256.0341-.17052.10657-.37302.10657-.37302.24726-1.0972.21632-1.9219-.0533-2.3447-.0198-.0273-.0842-.0831-.10657-.10658-.0576-.0614-.14603-.15779-.21316-.21315C282.75 240.9 281.65 240.66 280.19 240.66c-1.6541.0-2.8776.27071-3.7302.79931-.83555.52863-1.6093 1.4963-2.2914 2.8776-1e-5-1e-5-6.4479.0-6.4479.0 2e-5-1e-5.58617-1.2789.58617-1.2789.76733-1.7735 1.6818-3.2442 2.8243-4.3696C272.27 237.57 273.82 236.7 275.61 236.08c1.3722-.45297 2.8705-.75354 4.4762-.85261zm27.017.0c.24046-.0296.50356.0.74603.0 1.5517.0 3.0055.4668 4.3696 1.4388 2e-5 2e-5.79932.58617.79932.58617 1e-5.0-3.3039 5.4354-3.3039 5.4354 1e-5-2e-5-.9059-.63946-.9059-.63946-.66503-.42629-1.345-.63946-2.0782-.63946-.64801 2e-5-1.2874.2302-1.9184.63946-.64797.4263-1.119.99115-1.5453 1.7585-.69916 1.313-1.2406 2.7838-1.5987 4.3696-2e-5 1e-5-2.9309 13.109-2.9309 13.109 2e-5-2e-5-6.1814.0-6.1814.0.0-2e-5 5.7018-25.578 5.7018-25.578-1e-5 1e-5 5.7551.0 5.7551.0.0 1e-5-.14494.77588-.21314 1.0658.27282-.20461.54353-.48599.79932-.63946.81263-.4929 1.6457-.80035 2.5046-.90589zm18.278.0c.37185-.0282.73859.0 1.1191.0 3.4787.0 6.1281 1.2192 7.8334 3.6236C335.42 240.4 335.98 242.32 335.98 244.61c-2e-5 1.2619-.2089 2.6197-.53289 4.1032l-.4263 1.8651c-1e-5-2e-5-15.65.0-17.372.0-.0341.35808-.10659.74177-.10659 1.0658.0 1.3301.28989 2.3767.85262 3.144.0877.11936.223.2667.31972.37302.056.0597.15412.15773.21316.21314.76235.69302 1.7998 1.0658 3.0907 1.0658 1.2619-2e-5 2.3703-.34745 3.4105-1.0125.98905-.63093 1.9184-1.6391 2.771-3.0374-2e-5-3e-5 6.661.0 6.661.0.0-3e-5-.63946 1.2789-.63946 1.2789C332.96 256.23 331.18 258.22 329 259.64 326.78 261.05 324.19 261.82 321.27 261.82 317.51 261.82 314.75 260.6 313.01 258.2 311.29 255.84 310.89 252.59 311.79 248.5c.92081-4.1607 2.7049-7.4859 5.3821-9.805 2.4148-2.0806 5.1785-3.2347 8.2064-3.4637zm-93.308.47959c2e-5 1e-5 6.3413.0 6.3413.0 2e-5 1e-5.78226 15.179.79931 15.4.25578-.54356.45424-1.0009.47961-1.0658 1e-5 1e-5 6.9807-14.335 6.9807-14.335 2e-5 1e-5 5.8084.0 5.8084.0-1e-5 1e-5.53288 14.995.53288 15.081.17055-.30691 7.9399-15.081 7.9399-15.081-2e-5 1e-5 6.288.0 6.288.0-1e-5 1e-5-13.855 25.578-13.855 25.578 2e-5-2e-5-5.7018.0-5.7018.0.0-2e-5-.55206-13.87-.58617-14.654-2.3532 4.8258-7.1406 14.654-7.1406 14.654.0-2e-5-5.8617.0-5.8617.0.0-2e-5-2.025-25.578-2.025-25.578zM83.183 240.56c-1.4689.062-2.803.59149-4.0499 1.5986-.98902.78441-1.6562 1.8608-2.1848 3.0374.0 2e-5 10.498.0 10.498.0.0171-.18756.0533-.41564.0533-.58617-2e-5-.97195-.17266-1.7265-.47959-2.2381-.75028-1.2278-1.863-1.8118-3.517-1.8118-.0991.0-.2218-.004-.31973.0zm27.763.0c-1.4689.062-2.803.59149-4.0499 1.5986-.98904.78441-1.6391 1.8608-2.1848 3.0374.0 2e-5 10.498.0 10.498.0.017-.18756.0533-.41564.0533-.58617-1e-5-.97195-.1556-1.7265-.4796-2.2381-.14894-.24939-.35043-.49739-.53288-.69274-.71199-.73572-1.6919-1.1191-2.9841-1.1191-.0991.0-.2218-.004-.31974.0zm214.75.0c-1.5106.0465-2.9213.55794-4.2098 1.5986-.97198.78441-1.6392 1.8608-2.1848 3.0374 2e-5 2e-5 10.444.0 10.444.0.017-.18756.0533-.41564.0533-.58617-1e-5-.97195-.1556-1.7265-.4796-2.2381-.73324-1.2107-1.863-1.7947-3.517-1.8118-.049 53e-5-.0578-.001-.10657.0zm-139.62.10658c-1.4096.16739-2.7204.81051-3.9433 1.9184C180.67 243.91 179.61 246 178.99 248.76 178.74 249.92 178.62 250.92 178.62 251.8c2e-5 1.2107.23233 2.1614.69275 2.8776.12257.18384.28516.37811.42631.53289.75804.80488 1.8166 1.2256 3.144 1.2256 1.7223-2e-5 3.2399-.64159 4.6894-1.9717 1.4665-1.3471 2.5131-3.4573 3.144-6.288.5798-2.592.49878-4.5274-.31972-5.7551-.7844-1.1937-1.9312-1.7585-3.517-1.7585-.26911.0-.5383-.031-.79933.0zm96.292 9.3254C280.92 250.38 279.3 250.71 277.15 251c-1.6029.23874-2.7454.49024-3.4105.74603-.57976.23872-1.0466.56911-1.4388 1.0125-.37516.42627-.62666.87392-.74602 1.3855-.0341.20464-.0533.41564-.0533.58617.0.0138-31e-5.0396.0.0533.002.0406-.004.1207.0.15985.0107.0774.0322.1944.0533.26645.008.0237.0445.0834.0533.10657.0187.0458.0301.11611.0533.15987.0243.0433.0779.11849.10658.15986.0446.0614.1055.1556.15987.21315.42631.47746 1.2768.69275 2.5045.69275 1.3472 1e-5 2.6431-.25578 3.8368-.85261C279.45 255.11 280.4 254.25 281.1 253.24c.51159-.7162.92083-1.8182 1.2789-3.2506z" inkscape:connector-curvature="0"/><path id="path2" style="fill:none;stroke:#bd0000;stroke-width:8.52610779;stroke-linecap:butt;stroke-linejoin:miter;stroke-miterlimit:4" d="m369.35 267.09c.69221 1.7796 1.3845 3.5563 2.1055 5.2941C372.56 274.74 373.85 277 375.39 279.11c8.3356 11.331 22.295 17.535 40.019 19.079h19.065c6.0281-.47014 12.345-1.347 18.892-2.6276 11.292-2.2079 23.262-5.5998 35.693-10.132C498.48 282 508.15 277.93 517.97 273.21c21.387-10.252 43.48-23.475 65.156-39.432 7.1386-5.2508 13.989-10.639 20.565-16.117C609.72 212.65 615.51 207.55 621.03 202.4c15.416-14.857 27.055-29.946 33.645-43.195 6.8645-13.797 8.2346-25.594 2.6103-33.025C653.84 121.62 648.07 119.18 640.64 118.6 674.1 93.497 693.6 63.043 686.6 43.843c-2.221-6.1277-7.1098-10.699-14.119-13.227-3.115-1.1205-6.6194-1.8301-10.441-2.1531H651.75C637.37 29.499 616.46 34.648 598.72 43.341" inkscape:connector-curvature="0"/><text transform="matrix(0.80516614,0,-0.46593439,1.2419797,0,0)" sodipodi:linespacing="125%" id="text4085" y="227" x="1670.9" style="font-size:279.55410767px;font-style:normal;font-variant:normal;font-weight:400;font-stretch:normal;text-align:start;line-height:125%;letter-spacing:0;word-spacing:0;writing-mode:lr-tb;text-anchor:start;fill:#fff;fill-opacity:1;stroke:#bd0000;stroke-width:7.19999981;stroke-miterlimit:4;stroke-opacity:1;stroke-dasharray:none;font-family:Mail Ray Stuff;-inkscape-font-specification:'Mail Ray Stuff, Normal'"><tspan y="227" x="1670.9" id="tspan4087" sodipodi:role="line">,</tspan></text><path sodipodi:nodetypes="cccc" inkscape:connector-curvature="0" d="M358.78 41.265 667.35 298.41M703.13 14.433 387.85 284.99" style="fill:none;stroke:#000;stroke-width:28.60000038;stroke-linecap:round;stroke-linejoin:round;stroke-miterlimit:4;stroke-opacity:1;stroke-dasharray:none" id="path4121"/><text sodipodi:linespacing="125%" id="text4124" y="366.35" x="-1.9864" style="font-size:76.74851227px;font-style:italic;font-variant:normal;font-weight:600;font-stretch:normal;text-align:start;line-height:125%;letter-spacing:0;word-spacing:0;writing-mode:lr-tb;text-anchor:start;fill:#bd0000;fill-opacity:1;stroke:none;font-family:FreeSans;-inkscape-font-specification:'FreeSans, Semi-Bold Italic'"><tspan y="366.35" x="-1.9864" id="tspan4126" sodipodi:role="line">Free as in Choice</tspan></text></g></svg>