<svg width="26cm" height="16cm" viewBox="12 89 510 309" xmlns="http://www.w3.org/2000/svg" xmlns:xlink="http://www.w3.org/1999/xlink"><g><rect style="fill:#fff" x="13.5" y="90" width="507" height="307"/><rect style="fill:none;fill-opacity:0;stroke-width:2;stroke:#000" x="13.5" y="90" width="507" height="307"/></g><g><g><rect style="fill:#fff" x="199.42" y="132.5" width="152.5" height="222"/><rect style="fill:none;fill-opacity:0;stroke-width:2;stroke:#000" x="199.42" y="132.5" width="152.5" height="222"/><text font-size="24" style="fill:#000;text-anchor:middle;font-family:sans-serif;font-style:normal;font-weight:400" x="275.67" y="250.8"><tspan x="275.67" y="250.8">Unixdoc</tspan></text></g><g><line style="fill:none;fill-opacity:0;stroke-width:2;stroke:#000" x1="131.72" y1="158.5" x2="220.49" y2="159.4"/><polygon style="fill:#000" points="227.99,159.478 217.94,164.376 220.49,159.401 218.041,154.376"/><polygon style="fill:none;fill-opacity:0;stroke-width:2;stroke:#000" points="227.99,159.478 217.94,164.376 220.49,159.401 218.041,154.376"/></g><g><line style="fill:none;fill-opacity:0;stroke-width:2;stroke:#000" x1="146.92" y1="214.83" x2="223.18" y2="213.65"/><polygon style="fill:#000" points="230.682,213.535 220.761,218.689 223.183,213.651 220.606,208.69"/><polygon style="fill:none;fill-opacity:0;stroke-width:2;stroke:#000" points="230.682,213.535 220.761,218.689 223.183,213.651 220.606,208.69"/></g><g><line style="fill:none;fill-opacity:0;stroke-width:2;stroke:#000" x1="145.92" y1="271.17" x2="220.58" y2="270.89"/><polygon style="fill:#000" points="228.078,270.862 218.096,275.899 220.578,270.89 218.06,265.899"/><polygon style="fill:none;fill-opacity:0;stroke-width:2;stroke:#000" points="228.078,270.862 218.096,275.899 220.578,270.89 218.06,265.899"/></g><g><line style="fill:none;fill-opacity:0;stroke-width:2;stroke:#000" x1="128.22" y1="327.5" x2="220.5" y2="326.6"/><polygon style="fill:#000" points="227.998,326.522 218.048,331.62 220.498,326.595 217.95,321.62"/><polygon style="fill:none;fill-opacity:0;stroke-width:2;stroke:#000" points="227.998,326.522 218.048,331.62 220.498,326.595 217.95,321.62"/></g><g><g><rect style="fill:#fff" x="55.093" y="139.5" width="77.65" height="38"/><rect style="fill:none;fill-opacity:0;stroke-width:2;stroke:#000" x="55.093" y="139.5" width="77.65" height="38"/><text font-size="12.8" style="fill:#000;text-anchor:middle;font-family:sans-serif;font-style:normal;font-weight:400" x="93.918" y="162.4"><tspan x="93.918" y="162.4">Perl POD</tspan></text></g><g><rect style="fill:#fff" x="40.918" y="195.83" width="106" height="38"/><rect style="fill:none;fill-opacity:0;stroke-width:2;stroke:#000" x="40.918" y="195.83" width="106" height="38"/><text font-size="12.8" style="fill:#000;text-anchor:middle;font-family:sans-serif;font-style:normal;font-weight:400" x="93.918" y="218.73"><tspan x="93.918" y="218.73">Man Pages</tspan></text></g><g><rect style="fill:#fff" x="41.918" y="252.17" width="104" height="38"/><rect style="fill:none;fill-opacity:0;stroke-width:2;stroke:#000" x="41.918" y="252.17" width="104" height="38"/><text font-size="12.8" style="fill:#000;text-anchor:middle;font-family:sans-serif;font-style:normal;font-weight:400" x="93.918" y="275.07"><tspan x="93.918" y="275.07">DocBook</tspan></text></g><g><rect style="fill:#fff" x="59.418" y="308.5" width="69" height="38"/><rect style="fill:none;fill-opacity:0;stroke-width:2;stroke:#000" x="59.418" y="308.5" width="69" height="38"/><text font-size="12.8" style="fill:#000;text-anchor:middle;font-family:sans-serif;font-style:normal;font-weight:400" x="93.918" y="331.4"><tspan x="93.918" y="331.4">Perldoc</tspan></text></g></g><g><g><rect style="fill:#fff" x="388.99" y="224" width="105.85" height="38"/><rect style="fill:none;fill-opacity:0;stroke-width:2;stroke:#000" x="388.99" y="224" width="105.85" height="38"/><text font-size="12.8" style="fill:#000;text-anchor:middle;font-family:sans-serif;font-style:normal;font-weight:400" x="441.92" y="246.9"><tspan x="441.92" y="246.9">Web Browser</tspan></text></g><g><rect style="fill:#fff" x="419.39" y="284.5" width="45.05" height="38"/><rect style="fill:none;fill-opacity:0;stroke-width:2;stroke:#000" x="419.39" y="284.5" width="45.05" height="38"/><text font-size="12.8" style="fill:#000;text-anchor:middle;font-family:sans-serif;font-style:normal;font-weight:400" x="441.92" y="307.4"><tspan x="441.92" y="307.4">GUI</tspan></text></g><g><rect style="fill:#fff" x="403.87" y="163.5" width="76.1" height="38"/><rect style="fill:none;fill-opacity:0;stroke-width:2;stroke:#000" x="403.87" y="163.5" width="76.1" height="38"/><text font-size="12.8" style="fill:#000;text-anchor:middle;font-family:sans-serif;font-style:normal;font-weight:400" x="441.92" y="186.4"><tspan x="441.92" y="186.4">Terminal</tspan></text></g></g><g><line style="fill:none;fill-opacity:0;stroke-width:2;stroke:#000" x1="334.49" y1="182.49" x2="395.67" y2="182.5"/><polygon style="fill:#000" points="403.166,182.5 393.165,187.499 395.666,182.499 393.166,177.499"/><polygon style="fill:none;fill-opacity:0;stroke-width:2;stroke:#000" points="403.166,182.5 393.165,187.499 395.666,182.499 393.166,177.499"/></g><g><line style="fill:none;fill-opacity:0;stroke-width:2;stroke:#000" x1="336.49" y1="243.07" x2="381.02" y2="243.01"/><polygon style="fill:#000" points="388.518,243.003 378.524,248.015 381.018,243.012 378.512,238.015"/><polygon style="fill:none;fill-opacity:0;stroke-width:2;stroke:#000" points="388.518,243.003 378.524,248.015 381.018,243.012 378.512,238.015"/></g><g><line style="fill:none;fill-opacity:0;stroke-width:2;stroke:#000" x1="332.49" y1="303.5" x2="410.68" y2="303.5"/><polygon style="fill:#000" points="418.182,303.5 408.182,308.5 410.682,303.5 408.182,298.5"/><polygon style="fill:none;fill-opacity:0;stroke-width:2;stroke:#000" points="418.182,303.5 408.182,308.5 410.682,303.5 408.182,298.5"/></g></g></svg>